<svg width="98" height="58" viewBox="0 0 98 58" fill="none" xmlns="http://www.w3.org/2000/svg">
<path d="M23.88 57.7771C19.4 57.7771 15.4 56.6571 11.88 54.4171C8.36 52.1237 5.58667 48.8171 3.56 44.4971C1.53333 40.1237 0.52 34.9504 0.52 28.977C0.52 23.0037 1.53333 17.857 3.56 13.537C5.58667 9.16372 8.36 5.85705 11.88 3.61705C15.4 1.32371 19.4 0.177048 23.88 0.177048C28.36 0.177048 32.36 1.32371 35.88 3.61705C39.4533 5.85705 42.2533 9.16372 44.28 13.537C46.3067 17.857 47.32 23.0037 47.32 28.977C47.32 34.9504 46.3067 40.1237 44.28 44.4971C42.2533 48.8171 39.4533 52.1237 35.88 54.4171C32.36 56.6571 28.36 57.7771 23.88 57.7771ZM23.88 48.7371C27.88 48.7371 31.0267 47.0837 33.32 43.7771C35.6667 40.4704 36.84 35.537 36.84 28.977C36.84 22.417 35.6667 17.4837 33.32 14.177C31.0267 10.8704 27.88 9.21705 23.88 9.21705C19.9333 9.21705 16.7867 10.8704 14.44 14.177C12.1467 17.4837 11 22.417 11 28.977C11 35.537 12.1467 40.4704 14.44 43.7771C16.7867 47.0837 19.9333 48.7371 23.88 48.7371ZM81.4069 24.097C86.5802 24.737 90.5269 26.497 93.2469 29.377C95.9669 32.257 97.3269 35.8571 97.3269 40.1771C97.3269 43.4304 96.5002 46.3904 94.8469 49.0571C93.1935 51.7237 90.6869 53.8571 87.3269 55.4571C84.0202 57.0037 79.9669 57.7771 75.1669 57.7771C71.1669 57.7771 67.3002 57.2171 63.5669 56.0971C59.8869 54.9237 56.7402 53.3237 54.1269 51.2971L58.6069 43.2171C60.6335 44.9237 63.0869 46.2837 65.9669 47.2971C68.9002 48.2571 71.9135 48.7371 75.0069 48.7371C78.6869 48.7371 81.5669 47.9904 83.6469 46.497C85.7802 44.9504 86.8469 42.8704 86.8469 40.2571C86.8469 37.6437 85.8335 35.617 83.8069 34.177C81.8335 32.6837 78.7935 31.937 74.6869 31.937H69.5669V24.817L82.2869 9.69705H56.8469V0.977047H95.0069V7.93705L81.4069 24.097Z" fill="#EDEDFE"/>
</svg>
