<svg width="203" height="136" viewBox="0 0 203 136" fill="none" xmlns="http://www.w3.org/2000/svg">
<circle cx="70.5" cy="69.5" r="15.5" fill="#F7F7FE"/>
<path d="M110.238 108.529L102.972 98.4225L104.098 96.7406L113.319 98.8635L107.867 91.1099L108.993 89.428L121.094 92.3132L119.98 93.9768L110.38 91.6273L116.137 99.7171L115.145 101.198L105.473 98.8789L111.29 106.957L110.238 108.529Z" fill="#404040"/>
<path d="M84.7716 124.413L83.4448 112.036L85.2545 111.13L92.2247 117.53L91.3131 108.096L93.1228 107.189L102.22 115.674L100.43 116.57L93.2427 109.787L94.2529 119.664L92.6596 120.462L85.394 113.668L86.4633 123.565L84.7716 124.413Z" fill="#404040"/>
<path d="M54.7835 125.648L59.742 114.231L61.7632 114.336L64.6632 123.344L68.53 114.69L70.5512 114.796L74.271 126.666L72.2717 126.561L69.3727 117.113L65.3731 126.201L63.5935 126.108L60.6309 116.612L56.673 125.746L54.7835 125.648Z" fill="#404040"/>
<path d="M48.8707 110.538C49.2467 110.704 49.513 110.973 49.6695 111.346C49.8202 111.732 49.807 112.127 49.6301 112.53C49.4591 112.919 49.1833 113.183 48.8027 113.32C48.4162 113.47 48.0349 113.463 47.6589 113.298C47.2829 113.133 47.0233 112.867 46.8802 112.5C46.7371 112.132 46.754 111.747 46.9309 111.345C47.1078 110.942 47.3895 110.665 47.7761 110.514C48.1432 110.371 48.5081 110.379 48.8707 110.538Z" fill="#404040"/>
<path d="M28.4438 111.303C27.3337 110.322 26.7409 109.221 26.6655 108C26.5693 106.779 27.0699 105.548 28.1673 104.306L32.6104 99.2782L34.193 100.677L29.9102 105.524C29.1624 106.37 28.8025 107.187 28.8304 107.975C28.8583 108.763 29.2514 109.492 30.0098 110.162C30.8671 110.92 31.7664 111.264 32.7077 111.196C33.6393 111.138 34.5178 110.642 35.3433 109.708L39.3202 105.207L40.9029 106.606L30.0939 118.838L28.5112 117.44L32.6921 112.708C31.9933 112.835 31.2782 112.78 30.5467 112.545C29.8042 112.3 29.1032 111.886 28.4438 111.303Z" fill="#404040"/>
<path d="M12.5937 87.7632L23.1732 82.8614L24.0149 84.6779L22.418 85.4178C23.1424 85.5509 23.8056 85.8659 24.4076 86.3629C24.9902 86.8527 25.4541 87.4702 25.7994 88.2154C26.453 89.626 26.5819 90.916 26.1862 92.0854C25.7772 93.261 24.8141 94.2002 23.297 94.9031L17.2088 97.724L16.3209 95.8077L22.1896 93.0885C23.2143 92.6138 23.8787 92.0069 24.1829 91.2679C24.4737 90.535 24.4064 89.7095 23.981 88.7912C23.5124 87.7799 22.8364 87.1232 21.9529 86.8213C21.0695 86.5194 20.0688 86.6274 18.951 87.1453L13.4815 89.6795L12.5937 87.7632Z" fill="#404040"/>
<path d="M4.71628 64.0624L21.0368 63.7251L21.0786 65.7487L19.231 65.7869C19.8859 66.2428 20.3894 66.8265 20.7415 67.538C21.0936 68.2496 21.2786 69.0379 21.2965 69.9031C21.3198 71.0322 21.0914 72.0491 20.6114 72.9539C20.1313 73.8587 19.4493 74.5769 18.5655 75.1086C17.6666 75.626 16.6307 75.8968 15.4576 75.921C14.2845 75.9452 13.2456 75.7173 12.3408 75.2372C11.4357 74.7425 10.7246 74.053 10.2076 73.1689C9.69055 72.2847 9.42036 71.2781 9.39703 70.149C9.37976 69.3131 9.52515 68.54 9.8332 67.8295C10.1266 67.1192 10.5764 66.5232 11.1825 66.0412L4.75991 66.1739L4.71628 64.0624ZM19.4452 69.7653C19.4301 69.0321 19.2477 68.3684 18.898 67.7742C18.5336 67.1802 18.0401 66.721 17.4172 66.3965C16.7797 66.0722 16.0577 65.9185 15.2512 65.9351C14.4447 65.9518 13.737 66.1351 13.1281 66.4851C12.5046 66.8354 12.0304 67.3146 11.7055 67.9228C11.3807 68.531 11.2258 69.2017 11.241 69.9348C11.2565 70.6827 11.439 71.3537 11.7887 71.9479C12.1381 72.5275 12.6317 72.9867 13.2695 73.3256C13.8923 73.6502 14.607 73.8041 15.4135 73.7874C16.22 73.7708 16.935 73.5873 17.5586 73.237C18.1672 72.8724 18.6414 72.3931 18.9812 71.7993C19.306 71.1911 19.4607 70.5131 19.4452 69.7653Z" fill="#404040"/>
<path d="M11.6851 39.229L26.7673 45.4739L25.993 47.3439L24.2856 46.6369C24.7023 47.3174 24.929 48.0542 24.9658 48.8473C25.0025 49.6403 24.8554 50.4366 24.5243 51.2361C24.0923 52.2795 23.4748 53.1192 22.6718 53.755C21.8688 54.3908 20.9558 54.7748 19.9328 54.9068C18.9019 55.0197 17.8444 54.8517 16.7603 54.4028C15.6762 53.9539 14.8163 53.328 14.1804 52.525C13.5502 51.7085 13.1758 50.7915 13.0574 49.7741C12.9389 48.7567 13.0957 47.7263 13.5277 46.6829C13.8475 45.9105 14.2911 45.2608 14.8586 44.7338C15.4125 44.2012 16.0638 43.8359 16.8125 43.6379L10.8771 41.1803L11.6851 39.229ZM22.8842 50.3665C23.1648 49.689 23.2642 49.0079 23.1826 48.3232C23.0874 47.633 22.8198 47.0142 22.3797 46.4669C21.9261 45.9139 21.3266 45.4832 20.5813 45.1746C19.836 44.866 19.1142 44.7497 18.416 44.8257C17.7043 44.8961 17.0776 45.1446 16.5358 45.5711C15.9941 45.9977 15.583 46.5497 15.3025 47.2273C15.0163 47.9184 14.914 48.6062 14.9957 49.2909C15.0829 49.962 15.3505 50.5808 15.7986 51.1472C16.2387 51.6946 16.8314 52.1225 17.5767 52.4311C18.322 52.7397 19.0505 52.8588 19.7622 52.7884C20.466 52.6988 21.0928 52.4504 21.6424 52.043C22.1842 51.6164 22.5981 51.0576 22.8842 50.3665Z" fill="#404040"/>
<path d="M19.4981 27.9517L20.8957 26.3683L33.1343 37.1706L31.7367 38.754L19.4981 27.9517Z" fill="#404040"/>
<path d="M46.0242 20.492C46.1054 20.6314 46.1997 20.8226 46.3073 21.0655L38.1327 25.8266C38.7635 26.6474 39.5671 27.1383 40.5436 27.2994C41.5253 27.4405 42.5104 27.2231 43.499 26.6474C44.703 25.9461 45.4363 24.9758 45.699 23.7366L47.393 24.3284C47.2468 25.1264 46.9127 25.8642 46.3907 26.5416C45.8814 27.2116 45.2085 27.7903 44.3721 28.2775C43.3075 28.8975 42.2378 29.232 41.163 29.2809C40.0809 29.3171 39.0828 29.0752 38.1689 28.5552C37.2677 28.0278 36.5292 27.2698 35.9534 26.2813C35.385 25.3054 35.0874 24.2991 35.0607 23.2623C35.0466 22.2182 35.2943 21.2592 35.8037 20.3854C36.3185 19.4916 37.0574 18.7642 38.0206 18.2031C38.9838 17.6421 39.9685 17.3657 40.9746 17.3737C41.986 17.3617 42.9296 17.6268 43.8055 18.169C44.6941 18.7038 45.4336 19.4781 46.0242 20.492ZM38.9175 19.743C38.043 20.2523 37.463 20.9466 37.1773 21.8258C36.9044 22.6977 36.9682 23.5941 37.3687 24.5149L43.8323 20.7503C43.2364 19.9602 42.4855 19.4725 41.5798 19.2871C40.6794 19.0817 39.792 19.2337 38.9175 19.743Z" fill="#404040"/>
<path d="M57.021 23.293C56.621 23.3857 56.2466 23.3295 55.8979 23.1243C55.5459 22.9048 55.3202 22.5807 55.2209 22.1521C55.1248 21.7377 55.1882 21.3617 55.411 21.024C55.6305 20.672 55.9403 20.4496 56.3403 20.3568C56.7404 20.2641 57.1076 20.322 57.442 20.5305C57.7764 20.739 57.9933 21.0576 58.0927 21.4862C58.1921 21.9149 58.132 22.3052 57.9125 22.6572C57.704 22.9916 57.4068 23.2035 57.021 23.293Z" fill="#404040"/>
<path d="M70.858 22.2243C69.6722 22.1514 68.6267 21.8299 67.7213 21.2599C66.8306 20.6908 66.1492 19.9436 65.6771 19.0182C65.2059 18.0782 65.0054 17.0372 65.0757 15.8954C65.1459 14.7535 65.472 13.7523 66.0539 12.8918C66.6368 12.0166 67.4046 11.3585 68.3575 10.9175C69.3259 10.4627 70.403 10.2718 71.5887 10.3448C72.6428 10.4096 73.5666 10.6795 74.3603 11.1545C75.1686 11.6303 75.7749 12.2848 76.1792 13.1179L74.5127 14.0513C74.1809 13.4725 73.7528 13.0274 73.2283 12.7159C72.7037 12.4045 72.1121 12.2285 71.4533 12.1879C70.6921 12.1411 69.9937 12.2671 69.3582 12.566C68.7373 12.8658 68.2318 13.3196 67.8417 13.9275C67.4672 14.5216 67.2552 15.2213 67.2056 16.0264C67.1552 16.8462 67.279 17.5812 67.577 18.2314C67.8905 18.8678 68.337 19.3728 68.9165 19.7465C69.5106 20.121 70.1883 20.3316 70.9495 20.3785C71.6083 20.419 72.217 20.3168 72.7758 20.072C73.3345 19.8272 73.814 19.4379 74.2142 18.9041L75.755 20.0128C75.2517 20.79 74.5693 21.3726 73.7079 21.7604C72.862 22.1345 71.912 22.2892 70.858 22.2243Z" fill="#404040"/>
<path d="M87.2548 26.5696C86.2083 26.0722 85.378 25.3934 84.7638 24.5332C84.1496 23.6729 83.7961 22.7254 83.7032 21.6907C83.6299 20.6491 83.8388 19.6116 84.3299 18.5784C84.8209 17.5452 85.4903 16.7347 86.338 16.147C87.2052 15.5523 88.1631 15.2281 89.2117 15.1744C90.2666 15.1074 91.3173 15.3226 92.3638 15.8199C93.4103 16.3173 94.234 16.9929 94.8349 17.8469C95.4554 18.6939 95.8023 19.6383 95.8756 20.6799C95.9684 21.7146 95.7693 22.7486 95.2783 23.7818C94.7872 24.8151 94.1081 25.629 93.2408 26.2237C92.3932 26.8113 91.4419 27.1387 90.387 27.2057C89.3453 27.279 88.3013 27.067 87.2548 26.5696ZM88.048 24.9005C88.7236 25.2216 89.3988 25.3557 90.0734 25.3029C90.7676 25.2431 91.3993 25.0074 91.9684 24.5958C92.5438 24.171 93.0046 23.5944 93.3509 22.8658C93.6971 22.1372 93.8501 21.4224 93.8099 20.7212C93.7759 20.0068 93.5598 19.3682 93.1615 18.8054C92.7764 18.2489 92.2461 17.8101 91.5705 17.489C90.8949 17.1679 90.2132 17.0307 89.5253 17.0772C88.8506 17.13 88.2189 17.3657 87.6303 17.7842C87.0612 18.1958 86.6035 18.7659 86.2573 19.4944C85.911 20.223 85.7548 20.9445 85.7888 21.6589C85.8423 22.3664 86.0584 23.005 86.4372 23.5747C86.8355 24.1375 87.3725 24.5794 88.048 24.9005Z" fill="#404040"/>
<path d="M117.027 37.7027C117.893 38.8867 118.233 40.0731 118.048 41.2619C117.872 42.4625 117.11 43.5561 115.76 44.5429L110.343 48.5029L109.096 46.7979L114.318 42.9807C115.23 42.3142 115.761 41.5991 115.911 40.8353C116.07 40.0833 115.863 39.3166 115.292 38.5351C114.66 37.6708 113.886 37.1831 112.969 37.0722C112.064 36.9526 111.108 37.2606 110.102 37.9964L105.253 41.5409L104.007 39.8359L109.228 36.0187C110.14 35.3522 110.671 34.6371 110.821 33.8732C110.98 33.1213 110.774 32.3546 110.202 31.5731C109.571 30.7088 108.796 30.2211 107.879 30.1102C106.974 29.9905 106.019 30.2986 105.012 31.0343L100.164 34.5789L98.9173 32.8739L108.33 25.9926L109.525 27.6265L108.122 28.6522C108.858 28.6407 109.554 28.8223 110.21 29.197C110.877 29.5631 111.47 30.1013 111.99 30.8117C112.526 31.5458 112.854 32.3052 112.974 33.0899C113.093 33.8747 112.981 34.6287 112.638 35.352C113.442 35.309 114.228 35.4888 114.994 35.8913C115.77 36.3056 116.447 36.9094 117.027 37.7027Z" fill="#404040"/>
<line x1="71" y1="69.5" x2="203" y2="69.5" stroke="#A9A9A9"/>
</svg>
