<svg width="561" height="556" viewBox="0 0 561 556" fill="none" xmlns="http://www.w3.org/2000/svg">
<path d="M368.077 30.8889C301.321 0.0651894 220.893 -1.47741 151.632 21.7748C81.592 45.2818 9.24542 104.467 2.55138 183.111C-2.34532 240.824 43.027 276.842 50.9664 330.649C55.7923 363.327 40.5786 391.504 38.2293 423.063C36.2339 449.882 45.8574 475.583 63.7035 495.509C118.897 557.44 226.611 581.371 291.457 520.417C316.931 496.429 339.574 463.44 374.134 451.623C443.608 427.903 549.793 421.903 560.237 329.205C566.606 272.709 531.848 220.36 502.623 175.2C466.124 118.845 431.465 60.1842 368.077 30.8889Z" fill="white"/>
<path opacity="0.5" d="M368.077 30.8889C301.321 0.0651894 220.893 -1.47741 151.632 21.7748C81.592 45.2818 9.24542 104.467 2.55138 183.111C-2.34532 240.824 43.027 276.842 50.9664 330.649C55.7923 363.327 40.5786 391.504 38.2293 423.063C36.2339 449.882 45.8574 475.583 63.7035 495.509C118.897 557.44 226.611 581.371 291.457 520.417C316.931 496.429 339.574 463.44 374.134 451.623C443.608 427.903 549.793 421.903 560.237 329.205C566.606 272.709 531.848 220.36 502.623 175.2C466.124 118.845 431.465 60.1842 368.077 30.8889Z" fill="white"/>
<path d="M171.771 152.924C171.771 151.855 171.453 150.81 170.859 149.921C170.265 149.032 169.421 148.339 168.433 147.93C167.445 147.52 166.358 147.413 165.31 147.622C164.261 147.831 163.298 148.345 162.542 149.102C161.786 149.858 161.271 150.821 161.062 151.87C160.853 152.918 160.961 154.005 161.37 154.993C161.779 155.981 162.472 156.825 163.361 157.419C164.25 158.013 165.295 158.33 166.364 158.33C167.798 158.33 169.173 157.761 170.187 156.747C171.201 155.733 171.771 154.358 171.771 152.924Z" fill="white"/>
<path d="M87.4651 271.818C87.4651 270.749 87.148 269.703 86.554 268.814C85.9599 267.925 85.1156 267.232 84.1277 266.823C83.1399 266.414 82.0529 266.307 81.0042 266.516C79.9555 266.724 78.9922 267.239 78.2361 267.995C77.4801 268.751 76.9652 269.714 76.7566 270.763C76.548 271.812 76.655 272.899 77.0642 273.887C77.4734 274.875 78.1663 275.719 79.0554 276.313C79.9444 276.907 80.9896 277.224 82.0589 277.224C83.4927 277.224 84.8678 276.654 85.8816 275.641C86.8955 274.627 87.4651 273.252 87.4651 271.818Z" fill="white"/>
<path d="M315.515 444.745C315.515 443.675 315.198 442.63 314.604 441.741C314.01 440.852 313.166 440.159 312.178 439.75C311.19 439.341 310.103 439.234 309.054 439.442C308.006 439.651 307.042 440.166 306.286 440.922C305.53 441.678 305.015 442.641 304.807 443.69C304.598 444.739 304.705 445.826 305.114 446.813C305.524 447.801 306.217 448.646 307.106 449.24C307.995 449.834 309.04 450.151 310.109 450.151C311.543 450.151 312.918 449.581 313.932 448.567C314.946 447.553 315.515 446.178 315.515 444.745Z" fill="white"/>
<path d="M199.863 511.756C199.863 510.686 199.545 509.64 198.951 508.751C198.356 507.861 197.511 507.169 196.522 506.76C195.533 506.351 194.446 506.245 193.397 506.455C192.347 506.664 191.384 507.181 190.629 507.938C189.873 508.696 189.359 509.66 189.152 510.71C188.945 511.759 189.055 512.847 189.466 513.834C189.877 514.822 190.572 515.665 191.463 516.258C192.354 516.85 193.401 517.165 194.471 517.162C195.902 517.158 197.273 516.587 198.284 515.574C199.295 514.56 199.863 513.187 199.863 511.756Z" fill="white"/>
<path d="M146.905 214.529C146.905 213.46 146.588 212.415 145.994 211.526C145.4 210.637 144.556 209.944 143.568 209.535C142.58 209.125 141.493 209.018 140.444 209.227C139.395 209.436 138.432 209.95 137.676 210.706C136.92 211.463 136.405 212.426 136.197 213.475C135.988 214.523 136.095 215.61 136.504 216.598C136.913 217.586 137.606 218.43 138.495 219.024C139.384 219.618 140.43 219.935 141.499 219.935C142.933 219.935 144.308 219.366 145.322 218.352C146.335 217.338 146.905 215.963 146.905 214.529Z" fill="white"/>
<path d="M465.756 310.68C465.756 309.611 465.439 308.566 464.845 307.677C464.251 306.788 463.407 306.095 462.419 305.685C461.431 305.276 460.344 305.169 459.295 305.378C458.247 305.586 457.283 306.101 456.527 306.857C455.771 307.613 455.256 308.577 455.048 309.625C454.839 310.674 454.946 311.761 455.355 312.749C455.765 313.737 456.458 314.581 457.347 315.175C458.236 315.769 459.281 316.086 460.35 316.086C461.784 316.086 463.159 315.517 464.173 314.503C465.187 313.489 465.756 312.114 465.756 310.68Z" fill="white"/>
<path d="M523.031 365.874C523.036 364.801 522.722 363.75 522.128 362.856C521.535 361.961 520.688 361.264 519.697 360.853C518.705 360.441 517.613 360.334 516.561 360.546C515.509 360.757 514.543 361.277 513.787 362.039C513.031 362.801 512.519 363.77 512.316 364.825C512.113 365.879 512.229 366.969 512.648 367.957C513.067 368.946 513.771 369.787 514.67 370.373C515.569 370.96 516.622 371.266 517.695 371.252C519.112 371.233 520.465 370.659 521.463 369.654C522.46 368.648 523.023 367.291 523.031 365.874Z" fill="white"/>
<path d="M291.74 98.8764C291.74 97.8072 291.423 96.7619 290.829 95.8729C290.235 94.9838 289.39 94.2909 288.403 93.8817C287.415 93.4726 286.328 93.3655 285.279 93.5741C284.23 93.7827 283.267 94.2976 282.511 95.0537C281.755 95.8097 281.24 96.773 281.031 97.8217C280.823 98.8704 280.93 99.9574 281.339 100.945C281.748 101.933 282.441 102.777 283.33 103.371C284.219 103.966 285.264 104.283 286.334 104.283C287.767 104.283 289.143 103.713 290.156 102.699C291.17 101.685 291.74 100.31 291.74 98.8764Z" fill="white"/>
<path d="M311.199 66.4535C311.199 65.3843 310.882 64.3391 310.288 63.45C309.694 62.561 308.85 61.8681 307.862 61.4589C306.874 61.0497 305.787 60.9426 304.738 61.1512C303.689 61.3598 302.726 61.8747 301.97 62.6308C301.214 63.3869 300.699 64.3502 300.491 65.3988C300.282 66.4475 300.389 67.5346 300.798 68.5224C301.207 69.5103 301.9 70.3546 302.789 70.9486C303.678 71.5427 304.724 71.8597 305.793 71.8597C307.227 71.8597 308.602 71.2901 309.616 70.2763C310.63 69.2624 311.199 67.8874 311.199 66.4535Z" fill="white"/>
<path d="M217.157 106.986C217.157 106.451 216.998 105.929 216.701 105.484C216.404 105.04 215.982 104.693 215.488 104.488C214.994 104.284 214.451 104.23 213.926 104.335C213.402 104.439 212.92 104.696 212.542 105.074C212.164 105.452 211.907 105.934 211.803 106.458C211.698 106.983 211.752 107.526 211.956 108.02C212.161 108.514 212.508 108.936 212.952 109.233C213.397 109.53 213.919 109.689 214.454 109.689C215.171 109.689 215.858 109.404 216.365 108.897C216.872 108.39 217.157 107.703 217.157 106.986Z" fill="white"/>
<path d="M394.415 145.352C394.415 144.818 394.256 144.295 393.959 143.851C393.662 143.406 393.24 143.06 392.746 142.855C392.252 142.651 391.708 142.597 391.184 142.701C390.66 142.806 390.178 143.063 389.8 143.441C389.422 143.819 389.165 144.301 389.06 144.825C388.956 145.349 389.009 145.893 389.214 146.387C389.419 146.881 389.765 147.303 390.21 147.6C390.654 147.897 391.177 148.056 391.711 148.056C392.428 148.056 393.116 147.771 393.623 147.264C394.13 146.757 394.415 146.069 394.415 145.352Z" fill="white"/>
<path d="M93.9467 108.613C93.9467 108.079 93.7882 107.556 93.4912 107.111C93.1941 106.667 92.772 106.321 92.278 106.116C91.7841 105.911 91.2406 105.858 90.7163 105.962C90.1919 106.066 89.7103 106.324 89.3322 106.702C88.9542 107.08 88.6968 107.562 88.5925 108.086C88.4882 108.61 88.5417 109.154 88.7463 109.648C88.9509 110.142 89.2973 110.564 89.7419 110.861C90.1864 111.158 90.709 111.316 91.2436 111.316C91.5991 111.318 91.9515 111.25 92.2803 111.114C92.6091 110.979 92.9078 110.78 93.1592 110.529C93.4106 110.277 93.6096 109.979 93.7448 109.65C93.8799 109.321 93.9486 108.969 93.9467 108.613Z" fill="white"/>
<path d="M176.625 200.476C176.625 199.941 176.466 199.418 176.168 198.973C175.87 198.528 175.447 198.182 174.953 197.977C174.458 197.773 173.914 197.72 173.389 197.826C172.864 197.931 172.383 198.19 172.005 198.57C171.628 198.949 171.371 199.432 171.269 199.957C171.166 200.483 171.222 201.027 171.428 201.52C171.635 202.014 171.984 202.435 172.43 202.73C172.877 203.026 173.401 203.182 173.936 203.179C174.65 203.175 175.334 202.889 175.838 202.382C176.342 201.876 176.625 201.19 176.625 200.476Z" fill="white"/>
<path d="M158.793 258.84C158.793 258.305 158.634 257.783 158.337 257.338C158.04 256.894 157.618 256.547 157.124 256.342C156.63 256.138 156.087 256.084 155.563 256.189C155.038 256.293 154.557 256.55 154.178 256.928C153.8 257.306 153.543 257.788 153.439 258.312C153.334 258.837 153.388 259.38 153.593 259.874C153.797 260.368 154.144 260.79 154.588 261.087C155.033 261.384 155.555 261.543 156.09 261.543C156.807 261.543 157.494 261.258 158.001 260.751C158.508 260.244 158.793 259.557 158.793 258.84Z" fill="white"/>
<path d="M192.843 403.675C192.843 403.14 192.685 402.618 192.388 402.173C192.091 401.728 191.669 401.382 191.175 401.177C190.681 400.973 190.137 400.919 189.613 401.024C189.089 401.128 188.607 401.385 188.229 401.763C187.851 402.141 187.593 402.623 187.489 403.147C187.385 403.672 187.438 404.215 187.643 404.709C187.847 405.203 188.194 405.625 188.638 405.922C189.083 406.219 189.606 406.378 190.14 406.378C190.857 406.378 191.545 406.093 192.052 405.586C192.559 405.079 192.843 404.392 192.843 403.675Z" fill="white"/>
<path d="M77.7425 379.899C77.7425 379.364 77.5839 378.842 77.2869 378.397C76.9899 377.953 76.5677 377.606 76.0738 377.402C75.5799 377.197 75.0364 377.143 74.512 377.248C73.9877 377.352 73.506 377.609 73.128 377.987C72.75 378.366 72.4925 378.847 72.3882 379.372C72.2839 379.896 72.3375 380.439 72.5421 380.933C72.7467 381.427 73.0931 381.849 73.5376 382.146C73.9822 382.443 74.5048 382.602 75.0394 382.602C75.7563 382.602 76.4438 382.317 76.9508 381.81C77.4577 381.303 77.7425 380.616 77.7425 379.899Z" fill="white"/>
<path d="M424.134 223.714C424.134 223.179 423.976 222.657 423.679 222.212C423.382 221.768 422.959 221.421 422.465 221.217C421.972 221.012 421.428 220.958 420.904 221.063C420.379 221.167 419.898 221.424 419.52 221.802C419.142 222.181 418.884 222.662 418.78 223.187C418.676 223.711 418.729 224.254 418.934 224.748C419.138 225.242 419.485 225.664 419.929 225.961C420.374 226.258 420.896 226.417 421.431 226.417C422.148 226.417 422.835 226.132 423.342 225.625C423.849 225.118 424.134 224.431 424.134 223.714Z" fill="white"/>
<path d="M329.031 432.39C329.031 431.855 328.872 431.332 328.575 430.888C328.278 430.443 327.856 430.097 327.362 429.892C326.868 429.688 326.325 429.634 325.8 429.738C325.276 429.843 324.794 430.1 324.416 430.478C324.038 430.856 323.781 431.338 323.677 431.862C323.572 432.387 323.626 432.93 323.83 433.424C324.035 433.918 324.382 434.34 324.826 434.637C325.271 434.934 325.793 435.093 326.328 435.093C327.045 435.093 327.732 434.808 328.239 434.301C328.746 433.794 329.031 433.107 329.031 432.39Z" fill="white"/>
<path d="M313.35 476.092C313.35 475.557 313.191 475.034 312.894 474.59C312.597 474.145 312.175 473.799 311.681 473.594C311.187 473.39 310.644 473.336 310.12 473.441C309.595 473.545 309.113 473.802 308.735 474.18C308.357 474.558 308.1 475.04 307.996 475.564C307.891 476.089 307.945 476.632 308.15 477.126C308.354 477.62 308.701 478.042 309.145 478.339C309.59 478.636 310.112 478.795 310.647 478.795C311.002 478.797 311.355 478.728 311.683 478.593C312.012 478.458 312.311 478.259 312.562 478.007C312.814 477.756 313.013 477.457 313.148 477.128C313.283 476.8 313.352 476.447 313.35 476.092Z" fill="white"/>
<path d="M534.38 345.849C534.38 345.314 534.222 344.791 533.925 344.347C533.628 343.902 533.205 343.556 532.712 343.351C532.218 343.147 531.674 343.093 531.15 343.197C530.625 343.302 530.144 343.559 529.766 343.937C529.388 344.315 529.13 344.797 529.026 345.321C528.922 345.846 528.975 346.389 529.18 346.883C529.384 347.377 529.731 347.799 530.175 348.096C530.62 348.393 531.142 348.552 531.677 348.552C532.032 348.552 532.384 348.482 532.712 348.346C533.039 348.21 533.337 348.011 533.588 347.76C533.839 347.509 534.039 347.211 534.174 346.883C534.31 346.555 534.38 346.204 534.38 345.849Z" fill="white"/>
<path d="M204.193 183.734C205.686 183.734 206.896 182.524 206.896 181.031C206.896 179.538 205.686 178.328 204.193 178.328C202.7 178.328 201.49 179.538 201.49 181.031C201.49 182.524 202.7 183.734 204.193 183.734Z" fill="white"/>
<path d="M412.246 325.313C413.739 325.313 414.949 324.103 414.949 322.61C414.949 321.117 413.739 319.907 412.246 319.907C410.753 319.907 409.543 321.117 409.543 322.61C409.543 324.103 410.753 325.313 412.246 325.313Z" fill="white"/>
<path d="M147.442 148.056C148.935 148.056 150.145 146.845 150.145 145.352C150.145 143.86 148.935 142.649 147.442 142.649C145.95 142.649 144.739 143.86 144.739 145.352C144.739 146.845 145.95 148.056 147.442 148.056Z" fill="white"/>
<path d="M174.407 67.9116C184.106 66.3442 190.698 57.2109 189.13 47.5119C187.563 37.8129 178.43 31.221 168.731 32.7884C159.032 34.3558 152.44 43.4891 154.007 53.1881C155.575 62.8871 164.708 69.479 174.407 67.9116Z" fill="#263238"/>
<path d="M148.759 50.6457C148.759 50.5466 148.759 50.4476 148.759 50.3485C148.757 47.3495 149.346 44.3796 150.492 41.6084C151.639 38.8372 153.32 36.319 155.44 34.1977C157.56 32.0765 160.077 30.3937 162.847 29.2457C165.618 28.0976 168.587 27.5067 171.586 27.5067C171.855 27.5067 172.11 27.5067 172.379 27.5067H216.435C212.539 19.8447 206.744 13.3088 199.605 8.52226C192.465 3.73573 184.218 0.858235 175.651 0.164255C167.083 -0.529725 158.48 0.982947 150.664 4.55799C142.847 8.13303 136.076 13.6512 130.997 20.5862L148.759 50.6457Z" fill="#263238"/>
<path d="M182.653 30.3794C185.575 31.9887 188.109 34.2198 190.075 36.9151C192.04 39.6104 193.391 42.7043 194.031 45.9784C194.67 49.2526 194.584 52.6273 193.777 55.8643C192.97 59.1014 191.463 62.1219 189.361 64.7129L169.548 100.603H171.6C179.938 100.601 188.144 98.5272 195.482 94.5684C202.82 90.6096 209.059 84.8898 213.639 77.9228C218.219 70.9559 220.996 62.9601 221.722 54.6541C222.447 46.3481 221.097 37.9921 217.793 30.3369L182.653 30.3794Z" fill="#263238"/>
<path d="M183.177 69.9921C180.416 71.629 177.34 72.664 174.151 73.0293C170.962 73.3946 167.731 73.082 164.672 72.112C161.612 71.1419 158.792 69.5363 156.395 67.4004C153.999 65.2644 152.082 62.6463 150.768 59.7175L129.214 23.2188C124.579 30.4501 121.874 38.7478 121.355 47.3212C120.836 55.8945 122.522 64.4579 126.251 72.1953C129.98 79.9326 135.628 86.5862 142.657 91.5219C149.686 96.4576 157.862 99.5111 166.406 100.391L183.177 69.9921Z" fill="#263238"/>
<path d="M394.386 8.6416C383.864 8.6416 373.579 11.7616 364.83 17.6072C356.082 23.4527 349.263 31.7612 345.237 41.4819C341.21 51.2027 340.157 61.8991 342.21 72.2186C344.262 82.5381 349.329 92.0172 356.769 99.4571C364.209 106.897 373.688 111.964 384.007 114.016C394.327 116.069 405.023 115.016 414.744 110.989C424.465 106.963 432.773 100.144 438.619 91.3956C444.464 82.6472 447.584 72.3618 447.584 61.8401C447.584 47.731 441.98 34.1997 432.003 24.2231C422.026 14.2464 408.495 8.6416 394.386 8.6416ZM394.386 109.958C384.869 109.958 375.566 107.136 367.653 101.849C359.74 96.5614 353.573 89.0464 349.931 80.254C346.289 71.4616 345.336 61.7867 347.193 52.4528C349.049 43.1188 353.632 34.5451 360.361 27.8157C367.091 21.0863 375.665 16.5035 384.999 14.6469C394.333 12.7902 404.007 13.7431 412.8 17.385C421.592 21.027 429.107 27.1943 434.394 35.1073C439.682 43.0202 442.504 52.3233 442.504 61.8401C442.504 74.6018 437.434 86.8407 428.41 95.8646C419.387 104.888 407.148 109.958 394.386 109.958Z" fill="#263238"/>
<path d="M394.385 16.312C394.317 16.312 394.249 16.3256 394.185 16.3519C394.121 16.3782 394.064 16.4168 394.015 16.4654C393.967 16.514 393.928 16.5717 393.902 16.6353C393.875 16.6988 393.862 16.7669 393.862 16.8357V24.3788C393.86 24.4481 393.872 24.5171 393.898 24.5815C393.923 24.6459 393.962 24.7044 394.011 24.7534C394.06 24.8025 394.118 24.841 394.183 24.8666C394.247 24.8922 394.316 24.9044 394.385 24.9025C394.455 24.9044 394.525 24.8922 394.59 24.8668C394.655 24.8413 394.715 24.803 394.765 24.7542C394.815 24.7054 394.855 24.647 394.882 24.5825C394.909 24.5181 394.923 24.4488 394.923 24.3788V16.7932C394.909 16.6606 394.846 16.5379 394.747 16.449C394.648 16.3601 394.519 16.3113 394.385 16.312Z" fill="#263238"/>
<path d="M394.385 99.4712C394.317 99.4712 394.249 99.4847 394.185 99.5111C394.121 99.5374 394.064 99.576 394.015 99.6246C393.967 99.6732 393.928 99.7309 393.902 99.7944C393.875 99.858 393.862 99.9261 393.862 99.9948V107.538C393.86 107.607 393.872 107.676 393.898 107.741C393.923 107.805 393.962 107.864 394.011 107.913C394.06 107.962 394.118 108 394.183 108.026C394.247 108.051 394.316 108.064 394.385 108.062C394.455 108.064 394.525 108.051 394.59 108.026C394.655 108 394.715 107.962 394.765 107.913C394.815 107.865 394.855 107.806 394.882 107.742C394.909 107.677 394.923 107.608 394.923 107.538V99.9948C394.92 99.8547 394.861 99.7215 394.761 99.6237C394.66 99.5259 394.526 99.4711 394.385 99.4712Z" fill="#263238"/>
<path d="M385.498 17.7275C385.468 17.5919 385.386 17.4734 385.27 17.3969C385.154 17.3203 385.012 17.2918 384.876 17.3171C384.739 17.3509 384.62 17.4356 384.544 17.554C384.468 17.6724 384.439 17.8155 384.465 17.954L386.079 25.2566C386.104 25.3727 386.169 25.4766 386.261 25.5511C386.354 25.6257 386.469 25.6666 386.588 25.667H386.701C386.769 25.6535 386.834 25.6266 386.892 25.5879C386.949 25.5492 386.998 25.4994 387.037 25.4415C387.075 25.3836 387.101 25.3186 387.114 25.2504C387.127 25.1822 387.126 25.1122 387.112 25.0443L385.498 17.7275Z" fill="#263238"/>
<path d="M402.806 99.0464C402.766 98.9208 402.68 98.8147 402.566 98.7481C402.452 98.6816 402.317 98.6593 402.188 98.6855C402.059 98.7118 401.943 98.7847 401.864 98.8904C401.785 98.996 401.748 99.1271 401.759 99.2587L403.33 106.632C403.353 106.753 403.419 106.862 403.514 106.94C403.61 107.017 403.73 107.059 403.854 107.057H403.967C404.035 107.043 404.099 107.016 404.156 106.977C404.213 106.939 404.261 106.888 404.298 106.83C404.336 106.772 404.36 106.707 404.371 106.639C404.383 106.571 404.38 106.501 404.363 106.434L402.806 99.0464Z" fill="#263238"/>
<path d="M376.483 20.459C376.417 20.343 376.309 20.2558 376.182 20.2144C376.055 20.173 375.917 20.1805 375.796 20.2352C375.674 20.29 375.577 20.3882 375.523 20.5106C375.47 20.6331 375.464 20.7711 375.506 20.8977L378.577 27.7757C378.617 27.8699 378.684 27.95 378.77 28.0055C378.856 28.061 378.956 28.0894 379.059 28.0871H379.271C379.4 28.0284 379.501 27.9211 379.551 27.7886C379.601 27.6561 379.597 27.509 379.54 27.3795L376.483 20.459Z" fill="#263238"/>
<path d="M410.321 96.4709C410.263 96.3418 410.155 96.2412 410.023 96.1908C409.89 96.1405 409.743 96.1445 409.614 96.202C409.55 96.2296 409.493 96.2695 409.445 96.3194C409.397 96.3693 409.36 96.4282 409.335 96.4927C409.31 96.5571 409.298 96.6259 409.3 96.6951C409.301 96.7642 409.317 96.8323 409.345 96.8954L412.416 103.788C412.457 103.881 412.525 103.96 412.61 104.015C412.696 104.07 412.795 104.099 412.897 104.099C412.967 104.112 413.039 104.112 413.109 104.099C413.238 104.04 413.339 103.933 413.389 103.8C413.44 103.668 413.436 103.521 413.378 103.391L410.321 96.4709Z" fill="#263238"/>
<path d="M371.799 31.7947C371.847 31.8629 371.911 31.9188 371.985 31.9581C372.058 31.9974 372.14 32.019 372.224 32.0212C372.337 32.0203 372.447 31.9803 372.535 31.908C372.592 31.8684 372.641 31.8178 372.678 31.7593C372.716 31.7007 372.741 31.6352 372.753 31.5667C372.765 31.4982 372.763 31.428 372.747 31.3603C372.732 31.2925 372.703 31.2285 372.662 31.172L368.233 25.0724C368.148 24.9582 368.021 24.8822 367.881 24.861C367.74 24.8398 367.597 24.8751 367.483 24.9592C367.426 24.9998 367.379 25.0512 367.343 25.1103C367.307 25.1694 367.283 25.2351 367.272 25.3035C367.262 25.3719 367.265 25.4418 367.282 25.509C367.298 25.5762 367.328 25.6395 367.369 25.6951L371.799 31.7947Z" fill="#263238"/>
<path d="M417.129 92.3948C417.046 92.2822 416.922 92.207 416.784 92.1858C416.646 92.1646 416.505 92.199 416.393 92.2816C416.28 92.3642 416.205 92.4881 416.184 92.6261C416.163 92.7641 416.197 92.9049 416.28 93.0175L420.709 99.103C420.757 99.172 420.82 99.2285 420.894 99.2679C420.968 99.3073 421.05 99.3284 421.134 99.3295C421.245 99.3247 421.352 99.2905 421.445 99.2304C421.559 99.1457 421.635 99.0193 421.657 98.8787C421.678 98.7382 421.643 98.5949 421.558 98.4803L417.129 92.3948Z" fill="#263238"/>
<path d="M366.01 37.1301C366.057 37.1759 366.112 37.2119 366.173 37.2362C366.234 37.2605 366.299 37.2725 366.364 37.2716C366.438 37.2713 366.511 37.2562 366.579 37.227C366.648 37.1978 366.709 37.1552 366.76 37.1018C366.858 37.0014 366.913 36.8668 366.913 36.7267C366.913 36.5867 366.858 36.4521 366.76 36.3517L361.099 31.2993C360.997 31.2048 360.863 31.1523 360.724 31.1523C360.585 31.1523 360.451 31.2048 360.349 31.2993C360.252 31.3997 360.197 31.5343 360.197 31.6744C360.197 31.8145 360.252 31.949 360.349 32.0494L366.01 37.1301Z" fill="#263238"/>
<path d="M422.945 86.9746C422.843 86.8801 422.709 86.8276 422.57 86.8276C422.431 86.8276 422.297 86.8801 422.195 86.9746C422.097 87.075 422.043 87.2096 422.043 87.3497C422.043 87.4897 422.097 87.6243 422.195 87.7247L427.856 92.7629C427.903 92.8087 427.958 92.8448 428.019 92.8691C428.079 92.8933 428.144 92.9054 428.21 92.9044C428.334 92.8866 428.449 92.8267 428.535 92.7346C428.633 92.6342 428.688 92.4997 428.688 92.3596C428.688 92.2195 428.633 92.0849 428.535 91.9845L422.945 86.9746Z" fill="#263238"/>
<path d="M354.943 39.7908L361.468 43.5695C361.556 43.5905 361.648 43.5905 361.736 43.5695C361.829 43.5687 361.92 43.5433 361.999 43.4961C362.079 43.4489 362.144 43.3814 362.189 43.3006C362.227 43.2418 362.252 43.1758 362.263 43.1069C362.275 43.0379 362.271 42.9674 362.254 42.8997C362.237 42.832 362.206 42.7686 362.163 42.7134C362.12 42.6582 362.067 42.6124 362.005 42.5788L355.453 38.9558C355.393 38.9201 355.328 38.8965 355.259 38.8864C355.191 38.8764 355.121 38.88 355.054 38.8971C354.986 38.9142 354.923 38.9445 354.868 38.9861C354.813 39.0278 354.766 39.08 354.731 39.1398C354.682 39.2557 354.677 39.3853 354.716 39.5048C354.755 39.6243 354.836 39.7258 354.943 39.7908Z" fill="#263238"/>
<path d="M434.041 84.2434L427.516 80.4789C427.396 80.4292 427.262 80.4246 427.139 80.4661C427.016 80.5075 426.912 80.5922 426.846 80.7044C426.781 80.8166 426.758 80.9487 426.782 81.0763C426.807 81.204 426.876 81.3185 426.979 81.3988L433.517 85.1633C433.6 85.1903 433.689 85.1903 433.772 85.1633C433.865 85.165 433.957 85.1424 434.039 85.0977C434.121 85.0531 434.19 84.9879 434.239 84.9086C434.287 84.7918 434.293 84.662 434.257 84.5409C434.221 84.4199 434.145 84.3149 434.041 84.2434Z" fill="#263238"/>
<path d="M351.164 48.4663L358.34 50.8014H358.495C358.608 50.8012 358.718 50.7656 358.809 50.6996C358.901 50.6335 358.969 50.5404 359.005 50.4334C359.027 50.3675 359.036 50.2978 359.03 50.2285C359.025 50.1592 359.006 50.0916 358.974 50.0296C358.943 49.9677 358.899 49.9127 358.846 49.8678C358.793 49.823 358.732 49.7891 358.665 49.7683L351.504 47.4473C351.369 47.4025 351.222 47.413 351.094 47.4767C350.967 47.5404 350.87 47.6519 350.825 47.7869C350.78 47.9221 350.791 48.0695 350.854 48.1968C350.918 48.3241 351.029 48.421 351.164 48.4663Z" fill="#263238"/>
<path d="M437.791 75.4971L430.63 73.1761C430.497 73.1329 430.352 73.1445 430.227 73.2082C430.103 73.2719 430.008 73.3825 429.965 73.5157C429.922 73.649 429.933 73.7939 429.997 73.9187C430.061 74.0434 430.171 74.1377 430.305 74.1809L437.466 76.516H437.636C437.747 76.5173 437.856 76.482 437.945 76.4156C438.035 76.3491 438.1 76.2551 438.131 76.1481C438.171 76.0167 438.158 75.8748 438.094 75.7531C438.031 75.6313 437.922 75.5394 437.791 75.4971Z" fill="#263238"/>
<path d="M349.283 57.7362L356.783 58.5288C356.915 58.5292 357.042 58.4799 357.139 58.3907C357.237 58.3015 357.296 58.179 357.307 58.0476C357.319 57.9093 357.277 57.7717 357.19 57.6635C357.103 57.5554 356.978 57.4851 356.84 57.4673L349.339 56.6748C349.2 56.6665 349.062 56.7116 348.954 56.8009C348.847 56.8902 348.777 57.0172 348.759 57.156C348.753 57.2289 348.762 57.3023 348.786 57.3715C348.809 57.4408 348.847 57.5046 348.896 57.5589C348.945 57.6132 349.005 57.6569 349.071 57.6874C349.138 57.7179 349.21 57.7345 349.283 57.7362Z" fill="#263238"/>
<path d="M439.645 66.1706L432.159 65.378C432.02 65.3659 431.883 65.4078 431.775 65.4948C431.666 65.5819 431.596 65.7074 431.578 65.8451C431.569 65.915 431.573 65.9862 431.591 66.0544C431.61 66.1226 431.642 66.1863 431.685 66.2419C431.729 66.2974 431.783 66.3435 431.845 66.3775C431.907 66.4114 431.975 66.4325 432.045 66.4394L439.546 67.2178C439.685 67.2178 439.818 67.1627 439.916 67.0645C440.015 66.9663 440.07 66.8331 440.07 66.6942C440.07 66.5553 440.015 66.4221 439.916 66.3239C439.818 66.2257 439.685 66.1706 439.546 66.1706H439.645Z" fill="#263238"/>
<path d="M349.396 67.2605L356.882 66.4679C356.952 66.4627 357.021 66.4433 357.083 66.411C357.146 66.3787 357.201 66.3342 357.246 66.28C357.291 66.2259 357.324 66.1632 357.345 66.0958C357.365 66.0284 357.371 65.9576 357.363 65.8877C357.358 65.818 357.339 65.7501 357.306 65.6883C357.274 65.6264 357.229 65.5719 357.175 65.5281C357.12 65.4843 357.057 65.4522 356.99 65.4337C356.923 65.4152 356.852 65.4108 356.783 65.4207L349.282 66.199C349.157 66.2197 349.042 66.2844 348.959 66.3816C348.877 66.4788 348.832 66.6022 348.832 66.7298C348.832 66.8573 348.877 66.9807 348.959 67.0779C349.042 67.1751 349.157 67.2398 349.282 67.2605H349.396Z" fill="#263238"/>
<path d="M431.564 58.0192C431.578 58.1494 431.638 58.2701 431.735 58.3587C431.831 58.4473 431.957 58.4976 432.087 58.5004L439.574 57.722C439.65 57.7233 439.726 57.7083 439.796 57.6782C439.866 57.6481 439.928 57.6034 439.98 57.5472C440.031 57.4909 440.07 57.4244 440.094 57.352C440.118 57.2796 440.126 57.203 440.118 57.1272C440.11 57.0515 440.086 56.9783 440.047 56.9125C440.009 56.8468 439.957 56.79 439.894 56.7458C439.832 56.7017 439.762 56.6713 439.687 56.6566C439.612 56.6419 439.535 56.6432 439.461 56.6606L431.974 57.4531C431.846 57.4773 431.733 57.5494 431.657 57.6546C431.58 57.7599 431.547 57.8903 431.564 58.0192Z" fill="#263238"/>
<path d="M358.963 73.4168C358.942 73.3505 358.908 73.289 358.863 73.2359C358.818 73.1828 358.763 73.1392 358.701 73.1076C358.639 73.076 358.572 73.057 358.503 73.0518C358.433 73.0466 358.364 73.0552 358.298 73.0772L351.122 75.3982C350.987 75.4434 350.876 75.5403 350.812 75.6676C350.748 75.795 350.738 75.9424 350.783 76.0775C350.818 76.1845 350.887 76.2776 350.978 76.3436C351.07 76.4097 351.179 76.4453 351.292 76.4454H351.448L358.623 74.1103C358.692 74.088 358.755 74.0522 358.809 74.005C358.864 73.9578 358.908 73.9001 358.94 73.8355C358.971 73.7708 358.99 73.7004 358.994 73.6285C358.998 73.5566 358.987 73.4846 358.963 73.4168Z" fill="#263238"/>
<path d="M429.95 50.3625C429.986 50.4695 430.054 50.5626 430.146 50.6286C430.237 50.6947 430.347 50.7303 430.46 50.7304H430.63L437.791 48.3953C437.857 48.3744 437.919 48.3406 437.972 48.2957C438.025 48.2508 438.068 48.1958 438.1 48.1339C438.132 48.072 438.151 48.0044 438.156 47.9351C438.161 47.8658 438.152 47.7961 438.131 47.7301C438.085 47.5984 437.991 47.4894 437.866 47.426C437.742 47.3627 437.599 47.3499 437.465 47.3905L430.29 49.7256C430.165 49.7708 430.06 49.8609 429.998 49.9786C429.935 50.0963 429.918 50.2331 429.95 50.3625Z" fill="#263238"/>
<path d="M362.104 80.521C362.07 80.46 362.025 80.4064 361.97 80.3634C361.915 80.3203 361.852 80.2886 361.785 80.2701C361.718 80.2517 361.647 80.2468 361.578 80.2559C361.509 80.2649 361.443 80.2877 361.382 80.3228L354.858 84.0874C354.752 84.1412 354.667 84.2298 354.617 84.3385C354.568 84.4472 354.557 84.5695 354.587 84.6851C354.617 84.8007 354.685 84.9027 354.781 84.9742C354.876 85.0456 354.994 85.0822 355.113 85.078C355.2 85.1052 355.294 85.1052 355.382 85.078L361.906 81.3135C361.977 81.2807 362.04 81.2324 362.09 81.172C362.14 81.1117 362.176 81.0408 362.195 80.9648C362.214 80.8887 362.216 80.8093 362.2 80.7325C362.184 80.6557 362.152 80.5834 362.104 80.521Z" fill="#263238"/>
<path d="M426.71 43.2017C426.758 43.2827 426.827 43.35 426.908 43.3971C426.99 43.4441 427.083 43.4695 427.177 43.4706C427.266 43.4898 427.357 43.4898 427.446 43.4706L433.97 39.692C434.037 39.6625 434.097 39.619 434.145 39.5644C434.194 39.5098 434.23 39.4455 434.251 39.3757C434.273 39.3059 434.279 39.2323 434.269 39.1599C434.26 39.0875 434.235 39.018 434.196 38.956C434.163 38.8951 434.117 38.8415 434.062 38.7984C434.007 38.7554 433.944 38.7237 433.877 38.7052C433.81 38.6868 433.74 38.6819 433.671 38.691C433.602 38.7 433.535 38.7228 433.475 38.7579L426.95 42.5366C426.834 42.5973 426.745 42.6993 426.701 42.8224C426.656 42.9455 426.66 43.0809 426.71 43.2017Z" fill="#263238"/>
<path d="M366.661 86.8047C366.559 86.7102 366.425 86.6577 366.286 86.6577C366.147 86.6577 366.013 86.7102 365.911 86.8047L360.25 91.8571C360.2 91.9059 360.16 91.9642 360.133 92.0286C360.106 92.093 360.092 92.1622 360.092 92.2321C360.092 92.302 360.106 92.3712 360.133 92.4356C360.16 92.5 360.2 92.5584 360.25 92.6072C360.301 92.6613 360.362 92.7043 360.431 92.7335C360.499 92.7627 360.572 92.7775 360.647 92.777C360.776 92.7785 360.902 92.7333 361 92.6496L366.661 87.5972C366.714 87.5458 366.757 87.4842 366.785 87.4161C366.814 87.3481 366.829 87.2749 366.829 87.201C366.829 87.127 366.814 87.0539 366.785 86.9858C366.757 86.9177 366.714 86.8562 366.661 86.8047Z" fill="#263238"/>
<path d="M422.096 36.8899C422.147 36.9433 422.209 36.9859 422.277 37.0151C422.345 37.0443 422.418 37.0594 422.492 37.0597C422.622 37.0612 422.747 37.016 422.846 36.9323L428.507 31.88C428.602 31.7779 428.654 31.644 428.654 31.5049C428.654 31.3659 428.602 31.2319 428.507 31.1299C428.407 31.0322 428.272 30.9775 428.132 30.9775C427.992 30.9775 427.857 31.0322 427.757 31.1299L422.096 36.1681C422.007 36.267 421.957 36.3956 421.957 36.529C421.957 36.6624 422.007 36.791 422.096 36.8899Z" fill="#263238"/>
<path d="M372.422 92.0129C372.364 91.972 372.299 91.9428 372.23 91.9271C372.161 91.9114 372.09 91.9093 372.02 91.9212C371.95 91.933 371.884 91.9584 371.824 91.996C371.764 92.0336 371.712 92.0826 371.672 92.1403L367.242 98.2258C367.201 98.2834 367.172 98.3485 367.156 98.4174C367.14 98.4862 367.138 98.5575 367.15 98.6272C367.162 98.6969 367.187 98.7635 367.225 98.8233C367.263 98.8831 367.312 98.935 367.369 98.9758C367.458 99.0442 367.568 99.0792 367.681 99.0749C367.765 99.0763 367.848 99.0563 367.922 99.0167C367.996 98.9771 368.059 98.9192 368.105 98.8485L372.535 92.763C372.615 92.6472 372.649 92.5049 372.627 92.3654C372.606 92.2259 372.533 92.0998 372.422 92.0129Z" fill="#263238"/>
<path d="M416.265 31.6533C416.356 31.7213 416.464 31.7607 416.577 31.7665C416.66 31.7655 416.743 31.7444 416.817 31.705C416.89 31.6656 416.954 31.609 417.001 31.5401L421.459 25.4404C421.502 25.3856 421.534 25.3224 421.552 25.2549C421.569 25.1874 421.573 25.1169 421.562 25.0479C421.552 24.9789 421.527 24.9128 421.49 24.8537C421.453 24.7947 421.404 24.7439 421.346 24.7045C421.233 24.6248 421.093 24.5921 420.955 24.6132C420.818 24.6343 420.695 24.7076 420.61 24.8178L416.18 30.9174C416.138 30.9713 416.106 31.0331 416.087 31.0992C416.068 31.1654 416.063 31.2346 416.07 31.3029C416.078 31.3713 416.1 31.4374 416.133 31.4975C416.167 31.5576 416.211 31.6106 416.265 31.6533Z" fill="#263238"/>
<path d="M379.13 95.919C379.067 95.8888 378.999 95.8718 378.929 95.869C378.859 95.8663 378.79 95.8779 378.725 95.9031C378.66 95.9283 378.601 95.9666 378.551 96.0156C378.501 96.0646 378.462 96.1232 378.436 96.1879L375.365 103.066C375.311 103.196 375.309 103.342 375.359 103.473C375.409 103.605 375.508 103.712 375.634 103.774H375.846C375.95 103.775 376.052 103.746 376.14 103.691C376.228 103.636 376.298 103.556 376.342 103.462L379.399 96.57C379.446 96.4477 379.445 96.3118 379.395 96.1906C379.345 96.0693 379.25 95.972 379.13 95.919Z" fill="#263238"/>
<path d="M409.472 27.7616C409.547 27.7764 409.624 27.7764 409.699 27.7616C409.8 27.762 409.9 27.7329 409.985 27.6776C410.071 27.6223 410.138 27.5433 410.18 27.4502L413.237 20.558C413.293 20.4304 413.296 20.2857 413.246 20.1556C413.195 20.0256 413.095 19.9209 412.968 19.8646C412.84 19.8083 412.695 19.805 412.565 19.8554C412.435 19.9058 412.331 20.0058 412.274 20.1335L409.203 27.0115C409.17 27.0781 409.151 27.1508 409.146 27.2251C409.142 27.2994 409.153 27.3738 409.178 27.4439C409.203 27.5139 409.242 27.5782 409.292 27.6328C409.343 27.6874 409.404 27.7312 409.472 27.7616Z" fill="#263238"/>
<path d="M386.517 98.3955C386.379 98.3698 386.236 98.3979 386.117 98.4742C385.999 98.5505 385.914 98.6692 385.88 98.806L384.324 106.179C384.307 106.246 384.304 106.316 384.315 106.384C384.326 106.452 384.351 106.517 384.388 106.576C384.425 106.634 384.474 106.684 384.531 106.723C384.588 106.762 384.652 106.789 384.72 106.802H384.833C384.954 106.802 385.071 106.762 385.166 106.688C385.261 106.613 385.328 106.509 385.357 106.392L386.928 99.0183C386.949 98.8819 386.919 98.7424 386.843 98.6271C386.768 98.5118 386.651 98.4292 386.517 98.3955Z" fill="#263238"/>
<path d="M402.028 25.3556H402.141C402.262 25.3545 402.379 25.3116 402.472 25.2342C402.565 25.1568 402.628 25.0497 402.651 24.931L404.222 17.5576C404.247 17.4209 404.219 17.2797 404.142 17.1636C404.066 17.0475 403.947 16.9655 403.811 16.9349C403.744 16.9183 403.675 16.9155 403.607 16.9266C403.539 16.9377 403.473 16.9625 403.415 16.9996C403.357 17.0366 403.307 17.0851 403.268 17.1421C403.229 17.1991 403.202 17.2635 403.189 17.3312L401.646 24.7187C401.629 24.7856 401.626 24.8552 401.636 24.9235C401.646 24.9918 401.669 25.0574 401.705 25.1166C401.74 25.1758 401.787 25.2274 401.843 25.2684C401.898 25.3094 401.961 25.339 402.028 25.3556Z" fill="#263238"/>
<path d="M389.574 16.5103C389.504 16.5154 389.437 16.5348 389.375 16.5672C389.313 16.5997 389.258 16.6445 389.215 16.6989C389.171 16.7533 389.139 16.8162 389.12 16.8835C389.102 16.9509 389.097 17.0214 389.107 17.0905L389.588 21.7749C389.602 21.9075 389.665 22.0302 389.764 22.1191C389.864 22.208 389.993 22.2568 390.126 22.2561C390.265 22.235 390.39 22.1618 390.477 22.0514C390.564 21.941 390.605 21.8016 390.593 21.6617L390.098 16.9773C390.081 16.8496 390.019 16.7323 389.923 16.6466C389.826 16.5609 389.703 16.5125 389.574 16.5103Z" fill="#263238"/>
<path d="M398.575 102.217C398.436 102.238 398.311 102.311 398.224 102.421C398.137 102.532 398.096 102.671 398.108 102.811L398.589 107.34C398.603 107.469 398.664 107.588 398.761 107.674C398.858 107.76 398.983 107.808 399.113 107.807C399.25 107.789 399.376 107.719 399.463 107.611C399.55 107.503 399.592 107.365 399.58 107.227L399.113 102.698C399.096 102.567 399.032 102.446 398.933 102.357C398.835 102.269 398.707 102.219 398.575 102.217Z" fill="#263238"/>
<path d="M380.814 18.8456C380.771 18.7112 380.678 18.5989 380.553 18.5327C380.429 18.4666 380.284 18.4518 380.148 18.4918C380.013 18.537 379.902 18.6339 379.838 18.7612C379.775 18.8885 379.764 19.0359 379.809 19.1711L381.224 23.6432C381.26 23.7502 381.328 23.8433 381.419 23.9093C381.511 23.9754 381.621 24.011 381.734 24.0112C381.785 24.0237 381.838 24.0237 381.889 24.0112C381.957 23.992 382.019 23.9592 382.074 23.9147C382.128 23.8703 382.172 23.8151 382.204 23.7527C382.236 23.6902 382.255 23.6219 382.259 23.5519C382.263 23.4819 382.253 23.4118 382.229 23.346L380.814 18.8456Z" fill="#263238"/>
<path d="M407.449 100.802C407.428 100.735 407.394 100.674 407.349 100.621C407.304 100.568 407.249 100.524 407.187 100.492C407.125 100.461 407.058 100.442 406.988 100.437C406.919 100.431 406.849 100.44 406.783 100.462C406.717 100.483 406.656 100.517 406.603 100.562C406.549 100.606 406.506 100.661 406.474 100.723C406.443 100.785 406.424 100.853 406.418 100.922C406.413 100.991 406.422 101.061 406.444 101.127L407.859 105.458C407.895 105.565 407.963 105.658 408.054 105.724C408.146 105.79 408.256 105.826 408.368 105.826C408.424 105.839 408.483 105.839 408.538 105.826C408.67 105.78 408.779 105.686 408.842 105.562C408.906 105.438 408.918 105.294 408.878 105.161L407.449 100.802Z" fill="#263238"/>
<path d="M372.068 22.596C372.034 22.5356 371.988 22.4826 371.933 22.44C371.878 22.3973 371.815 22.3659 371.748 22.3475C371.681 22.3291 371.611 22.3241 371.542 22.3327C371.473 22.3414 371.407 22.3635 371.346 22.3979C371.286 22.4323 371.233 22.4782 371.19 22.5331C371.147 22.588 371.116 22.6507 371.098 22.7178C371.079 22.7848 371.074 22.8548 371.083 22.9237C371.091 22.9927 371.114 23.0593 371.148 23.1197L373.511 27.2097C373.557 27.2889 373.623 27.3543 373.703 27.3991C373.783 27.444 373.873 27.4665 373.964 27.4644C374.052 27.4917 374.146 27.4917 374.233 27.4644C374.294 27.4306 374.348 27.3849 374.391 27.3301C374.434 27.2753 374.466 27.2124 374.484 27.1452C374.503 27.078 374.507 27.0077 374.498 26.9386C374.489 26.8695 374.467 26.8029 374.431 26.7427L372.068 22.596Z" fill="#263238"/>
<path d="M415.161 97.2352C415.127 97.1748 415.081 97.1218 415.026 97.0791C414.971 97.0365 414.909 97.0051 414.842 96.9867C414.775 96.9683 414.705 96.9632 414.636 96.9719C414.567 96.9805 414.5 97.0027 414.44 97.0371C414.379 97.0715 414.326 97.1174 414.284 97.1723C414.241 97.2272 414.21 97.2899 414.191 97.3569C414.173 97.4239 414.168 97.4939 414.176 97.5629C414.185 97.6319 414.207 97.6984 414.242 97.7588L416.52 101.707C416.568 101.788 416.637 101.856 416.719 101.903C416.8 101.95 416.893 101.975 416.987 101.976C417.077 101.975 417.164 101.95 417.242 101.905C417.303 101.87 417.357 101.823 417.4 101.767C417.444 101.711 417.475 101.647 417.494 101.579C417.512 101.51 417.517 101.439 417.508 101.369C417.498 101.299 417.475 101.231 417.44 101.17L415.161 97.2352Z" fill="#263238"/>
<path d="M366.662 32.2902C366.709 32.3491 366.77 32.3963 366.838 32.4282C366.907 32.4601 366.982 32.4758 367.058 32.4741C367.123 32.4751 367.188 32.463 367.249 32.4388C367.31 32.4145 367.365 32.3784 367.412 32.3326C367.509 32.2322 367.564 32.0977 367.564 31.9576C367.564 31.8175 367.509 31.6829 367.412 31.5825L364.256 28.0869C364.207 28.0368 364.149 27.9971 364.084 27.9699C364.02 27.9427 363.951 27.9287 363.881 27.9287C363.811 27.9287 363.741 27.9427 363.677 27.9699C363.613 27.9971 363.554 28.0368 363.506 28.0869C363.408 28.1873 363.353 28.3219 363.353 28.4619C363.353 28.602 363.408 28.7366 363.506 28.837L366.662 32.2902Z" fill="#263238"/>
<path d="M421.969 92.1262C421.87 92.0342 421.74 91.9827 421.605 91.9819C421.47 91.9812 421.34 92.0312 421.24 92.1221C421.14 92.213 421.078 92.3381 421.067 92.4726C421.055 92.607 421.094 92.741 421.176 92.8479L424.219 96.2303C424.27 96.2838 424.332 96.3264 424.4 96.3555C424.468 96.3847 424.541 96.3999 424.615 96.4002C424.745 96.4017 424.87 96.3564 424.969 96.2728C425.019 96.224 425.059 96.1657 425.086 96.1013C425.113 96.0369 425.127 95.9677 425.127 95.8978C425.127 95.8278 425.113 95.7586 425.086 95.6942C425.059 95.6298 425.019 95.5715 424.969 95.5227L421.969 92.1262Z" fill="#263238"/>
<path d="M361.029 38.7012C361.118 38.7695 361.228 38.8045 361.34 38.8002C361.423 38.8008 361.504 38.7818 361.578 38.745C361.652 38.7081 361.716 38.6543 361.765 38.5879C361.845 38.4721 361.878 38.3299 361.857 38.1904C361.836 38.0509 361.763 37.9247 361.652 37.8379L357.774 35.0782C357.718 35.0369 357.655 35.0071 357.588 34.9905C357.521 34.9738 357.451 34.9707 357.382 34.9812C357.314 34.9917 357.248 35.0157 357.189 35.0518C357.13 35.0879 357.079 35.1353 357.038 35.1914C356.958 35.305 356.925 35.445 356.947 35.5821C356.968 35.7193 357.041 35.8429 357.151 35.9273L361.029 38.7012Z" fill="#263238"/>
<path d="M427.559 85.7294C427.444 85.6697 427.312 85.6531 427.186 85.6829C427.06 85.7127 426.95 85.7868 426.874 85.8916C426.798 85.9965 426.763 86.125 426.774 86.2538C426.786 86.3825 426.843 86.5029 426.936 86.5927L430.616 89.2675C430.707 89.332 430.816 89.3667 430.927 89.3666C431.012 89.3671 431.095 89.3483 431.171 89.3115C431.247 89.2747 431.314 89.2209 431.366 89.1543C431.407 89.0967 431.436 89.0316 431.452 88.9627C431.467 88.8938 431.469 88.8225 431.458 88.7529C431.446 88.6832 431.42 88.6166 431.383 88.5567C431.345 88.4969 431.296 88.4451 431.238 88.4042L427.559 85.7294Z" fill="#263238"/>
<path d="M352.537 44.2205L356.783 46.131C356.853 46.1503 356.926 46.1503 356.995 46.131C357.114 46.1251 357.228 46.08 357.318 46.0026C357.409 45.9253 357.471 45.8201 357.495 45.7036C357.52 45.587 357.505 45.4658 357.452 45.3587C357.4 45.2517 357.314 45.1649 357.208 45.112L352.962 43.2015C352.834 43.1452 352.69 43.1419 352.56 43.1923C352.429 43.2427 352.325 43.3428 352.268 43.4704C352.212 43.598 352.209 43.7428 352.259 43.8728C352.31 44.0029 352.41 44.1075 352.537 44.1638V44.2205Z" fill="#263238"/>
<path d="M435.866 80.1534L431.705 78.2995C431.574 78.2466 431.427 78.2465 431.295 78.2992C431.163 78.3519 431.057 78.4534 430.998 78.5825C430.97 78.6456 430.954 78.7137 430.952 78.7829C430.951 78.852 430.963 78.9208 430.988 78.9853C431.013 79.0497 431.05 79.1086 431.098 79.1585C431.146 79.2084 431.203 79.2483 431.267 79.276L435.427 81.1299H435.64C435.76 81.1269 435.875 81.0838 435.968 81.0076C436.061 80.9313 436.125 80.8262 436.151 80.709C436.177 80.5917 436.163 80.4692 436.112 80.3608C436.06 80.2525 435.974 80.1645 435.866 80.1109V80.1534Z" fill="#263238"/>
<path d="M349.679 53.3063L354.292 54.2828H354.406C354.529 54.271 354.644 54.217 354.732 54.13C354.82 54.043 354.875 53.9283 354.889 53.8053C354.902 53.6822 354.873 53.5584 354.805 53.4546C354.738 53.3508 354.637 53.2734 354.519 53.2355L349.905 52.2449C349.768 52.2195 349.627 52.2481 349.511 52.3246C349.395 52.4011 349.313 52.5196 349.282 52.6553C349.264 52.7241 349.259 52.7961 349.269 52.8667C349.279 52.9374 349.303 53.0053 349.34 53.0663C349.377 53.1273 349.426 53.18 349.485 53.2213C349.543 53.2625 349.609 53.2915 349.679 53.3063Z" fill="#263238"/>
<path d="M438.654 71.1241L434.211 70.19C434.143 70.1733 434.072 70.1703 434.003 70.1813C433.934 70.1922 433.868 70.2169 433.809 70.2538C433.749 70.2908 433.698 70.3392 433.658 70.3963C433.617 70.4534 433.589 70.518 433.574 70.5863C433.544 70.7251 433.571 70.87 433.648 70.9893C433.725 71.1086 433.846 71.1926 433.984 71.2232L438.442 72.1714H438.555C438.677 72.1731 438.795 72.1312 438.889 72.0533C438.982 71.9755 439.045 71.8667 439.065 71.7468C439.079 71.6789 439.08 71.6089 439.067 71.5407C439.054 71.4725 439.028 71.4075 438.99 71.3496C438.952 71.2916 438.902 71.2419 438.845 71.2032C438.787 71.1645 438.722 71.1376 438.654 71.1241Z" fill="#263238"/>
<path d="M354.023 62.2504C354.023 62.1102 353.969 61.9755 353.871 61.8751C353.773 61.7746 353.64 61.7163 353.5 61.7126H348.787C348.71 61.7 348.631 61.7043 348.556 61.7252C348.481 61.746 348.411 61.783 348.352 61.8335C348.292 61.884 348.245 61.9468 348.212 62.0175C348.179 62.0883 348.162 62.1654 348.162 62.2434C348.162 62.3213 348.179 62.3984 348.212 62.4691C348.245 62.5399 348.292 62.6027 348.352 62.6532C348.411 62.7037 348.481 62.7407 348.556 62.7615C348.631 62.7824 348.71 62.7867 348.787 62.7741H353.528C353.661 62.7636 353.785 62.7042 353.876 62.6075C353.968 62.5108 354.02 62.3835 354.023 62.2504Z" fill="#263238"/>
<path d="M439.518 61.7126H434.975C434.898 61.7 434.819 61.7043 434.744 61.7252C434.669 61.746 434.599 61.783 434.54 61.8335C434.48 61.884 434.433 61.9468 434.4 62.0175C434.367 62.0883 434.35 62.1654 434.35 62.2434C434.35 62.3213 434.367 62.3984 434.4 62.4691C434.433 62.5399 434.48 62.6027 434.54 62.6532C434.599 62.7037 434.669 62.7407 434.744 62.7615C434.819 62.7824 434.898 62.7867 434.975 62.7741H439.518C439.595 62.7867 439.673 62.7824 439.749 62.7615C439.824 62.7407 439.893 62.7037 439.953 62.6532C440.012 62.6027 440.06 62.5399 440.093 62.4691C440.126 62.3984 440.142 62.3213 440.142 62.2434C440.142 62.1654 440.126 62.0883 440.093 62.0175C440.06 61.9468 440.012 61.884 439.953 61.8335C439.893 61.783 439.824 61.746 439.749 61.7252C439.673 61.7043 439.595 61.7 439.518 61.7126Z" fill="#263238"/>
<path d="M354.944 70.6289C354.93 70.5609 354.903 70.4962 354.864 70.4386C354.826 70.381 354.776 70.3316 354.718 70.2935C354.66 70.2553 354.595 70.229 354.527 70.2161C354.459 70.2032 354.389 70.2041 354.321 70.2185L349.707 71.195C349.569 71.2255 349.448 71.3096 349.371 71.4289C349.294 71.5482 349.267 71.6931 349.297 71.8319C349.325 71.9491 349.393 72.0533 349.487 72.1278C349.582 72.2022 349.7 72.2425 349.82 72.2423H349.934L354.533 71.2658C354.603 71.2524 354.669 71.2251 354.727 71.1855C354.786 71.1459 354.836 71.0947 354.875 71.0352C354.913 70.9756 354.939 70.9089 354.951 70.8391C354.963 70.7693 354.96 70.6978 354.944 70.6289Z" fill="#263238"/>
<path d="M433.545 53.9007C433.568 54.0218 433.634 54.1308 433.73 54.2085C433.825 54.2862 433.945 54.3275 434.069 54.3253H434.196L438.654 53.3771C438.79 53.3465 438.908 53.2646 438.985 53.1485C439.061 53.0324 439.09 52.8911 439.065 52.7544C439.051 52.6863 439.024 52.6216 438.985 52.564C438.947 52.5065 438.897 52.4571 438.839 52.4189C438.781 52.3808 438.716 52.3545 438.648 52.3416C438.58 52.3287 438.51 52.3295 438.442 52.344L433.984 53.2922C433.846 53.3165 433.723 53.3937 433.641 53.5073C433.559 53.621 433.525 53.7621 433.545 53.9007Z" fill="#263238"/>
<path d="M357.477 78.5824C357.449 78.5191 357.409 78.4618 357.359 78.4139C357.309 78.366 357.25 78.3285 357.186 78.3035C357.121 78.2785 357.053 78.2665 356.983 78.2682C356.914 78.27 356.846 78.2854 356.783 78.3135L352.537 80.2241C352.408 80.2831 352.307 80.3895 352.254 80.5212C352.201 80.653 352.202 80.8 352.254 80.9317C352.298 81.0259 352.368 81.1054 352.456 81.1607C352.544 81.2159 352.646 81.2445 352.75 81.2431H352.962L357.208 79.3325C357.276 79.3022 357.337 79.2584 357.387 79.2038C357.438 79.1492 357.477 79.0849 357.502 79.0148C357.527 78.9448 357.538 78.8703 357.534 78.796C357.529 78.7217 357.51 78.6491 357.477 78.5824Z" fill="#263238"/>
<path d="M430.941 45.933C430.982 46.0261 431.05 46.1051 431.135 46.1604C431.221 46.2157 431.321 46.2448 431.422 46.2444H431.635L435.795 44.3904C435.859 44.3625 435.916 44.3225 435.963 44.2725C436.011 44.2226 436.048 44.1638 436.073 44.0994C436.098 44.035 436.11 43.9663 436.109 43.8972C436.107 43.8282 436.092 43.7601 436.064 43.6969C436.036 43.6337 435.996 43.5767 435.946 43.529C435.896 43.4813 435.838 43.4438 435.773 43.4189C435.709 43.3939 435.64 43.3819 435.571 43.3834C435.502 43.385 435.434 43.4002 435.371 43.4281L431.21 45.282C431.09 45.335 430.995 45.4323 430.945 45.5536C430.895 45.6748 430.894 45.8107 430.941 45.933Z" fill="#263238"/>
<path d="M361.68 85.9415C361.639 85.8834 361.587 85.8342 361.527 85.7968C361.466 85.7594 361.399 85.7347 361.329 85.7241C361.259 85.7135 361.187 85.7173 361.119 85.7352C361.05 85.7531 360.986 85.7848 360.93 85.8283L357.123 88.588C357.065 88.6287 357.015 88.6808 356.978 88.7411C356.941 88.8014 356.916 88.8686 356.905 88.9388C356.895 89.0089 356.898 89.0805 356.916 89.1491C356.934 89.2178 356.966 89.282 357.009 89.3381C357.058 89.4053 357.121 89.4597 357.195 89.4967C357.269 89.5337 357.351 89.5521 357.434 89.5504C357.546 89.5524 357.655 89.5176 357.745 89.4513L361.552 86.6208C361.652 86.5424 361.721 86.4302 361.744 86.3052C361.767 86.1802 361.745 86.0509 361.68 85.9415Z" fill="#263238"/>
<path d="M426.724 38.6728C426.765 38.7465 426.822 38.8102 426.89 38.8591C426.959 38.9081 427.038 38.9411 427.12 38.9559C427.231 38.9492 427.338 38.9152 427.432 38.8568L431.111 36.1679C431.224 36.0853 431.299 35.9614 431.32 35.8234C431.342 35.6853 431.307 35.5445 431.225 35.4319C431.142 35.3193 431.018 35.2442 430.88 35.2229C430.742 35.2017 430.601 35.2362 430.489 35.3187L426.809 37.9935C426.716 38.0777 426.656 38.1926 426.64 38.3174C426.625 38.4421 426.654 38.5683 426.724 38.6728Z" fill="#263238"/>
<path d="M367.298 92.2109C367.249 92.1609 367.191 92.1211 367.126 92.0939C367.062 92.0667 366.993 92.0527 366.923 92.0527C366.853 92.0527 366.784 92.0667 366.719 92.0939C366.655 92.1211 366.597 92.1609 366.548 92.2109L363.434 95.749C363.337 95.8494 363.282 95.984 363.282 96.124C363.282 96.2641 363.337 96.3987 363.434 96.4991C363.481 96.5449 363.536 96.5809 363.597 96.6052C363.658 96.6295 363.723 96.6416 363.788 96.6406C363.863 96.6385 363.937 96.6211 364.005 96.5895C364.073 96.5579 364.134 96.5126 364.185 96.4566L367.34 92.961C367.433 92.8552 367.48 92.7175 367.472 92.5773C367.464 92.4372 367.402 92.3057 367.298 92.2109Z" fill="#263238"/>
<path d="M421.105 32.4601C421.204 32.5438 421.33 32.589 421.459 32.5875C421.533 32.5872 421.606 32.572 421.674 32.5428C421.742 32.5137 421.804 32.4711 421.855 32.4176L424.898 29.0494C424.948 29.0006 424.988 28.9423 425.015 28.8779C425.042 28.8135 425.056 28.7443 425.056 28.6744C425.056 28.6045 425.042 28.5353 425.015 28.4708C424.988 28.4064 424.948 28.3481 424.898 28.2993C424.798 28.2016 424.663 28.147 424.523 28.147C424.383 28.147 424.248 28.2016 424.148 28.2993L421.105 31.6959C421.053 31.7449 421.011 31.804 420.983 31.8698C420.954 31.9355 420.94 32.0064 420.94 32.078C420.94 32.1496 420.954 32.2205 420.983 32.2862C421.011 32.3519 421.053 32.4111 421.105 32.4601Z" fill="#263238"/>
<path d="M374.106 97.1784C373.983 97.1092 373.838 97.0897 373.701 97.1239C373.564 97.1581 373.446 97.2434 373.37 97.3623L371.02 101.452C370.953 101.575 370.936 101.719 370.973 101.853C371.01 101.988 371.098 102.103 371.219 102.174C371.301 102.219 371.394 102.243 371.488 102.245C371.58 102.244 371.671 102.219 371.75 102.172C371.83 102.124 371.895 102.057 371.94 101.976L374.29 97.9001C374.327 97.8413 374.353 97.7754 374.364 97.7064C374.375 97.6375 374.372 97.567 374.354 97.4993C374.337 97.4316 374.306 97.3682 374.263 97.313C374.221 97.2578 374.167 97.2119 374.106 97.1784Z" fill="#263238"/>
<path d="M414.567 27.634C414.661 27.6329 414.754 27.6075 414.836 27.5605C414.917 27.5134 414.986 27.4461 415.034 27.3651L417.313 23.3884C417.38 23.2637 417.398 23.1178 417.361 22.9807C417.324 22.8437 417.236 22.7261 417.114 22.6524C417.054 22.6173 416.988 22.5945 416.918 22.5855C416.849 22.5764 416.779 22.5813 416.712 22.5997C416.645 22.6182 416.582 22.6499 416.527 22.693C416.472 22.736 416.426 22.7896 416.393 22.8506L414.114 26.7991C414.079 26.8593 414.056 26.9259 414.047 26.995C414.038 27.0641 414.043 27.1344 414.061 27.2016C414.08 27.2688 414.112 27.3317 414.155 27.3865C414.198 27.4413 414.251 27.487 414.312 27.5208C414.387 27.5787 414.474 27.6176 414.567 27.634Z" fill="#263238"/>
<path d="M381.833 100.617C381.767 100.593 381.697 100.583 381.627 100.587C381.557 100.592 381.489 100.61 381.426 100.642C381.364 100.674 381.309 100.718 381.264 100.773C381.22 100.827 381.187 100.89 381.168 100.957L379.752 105.429C379.708 105.564 379.718 105.712 379.782 105.839C379.846 105.966 379.957 106.063 380.092 106.109H380.248C380.359 106.109 380.467 106.076 380.559 106.012C380.65 105.949 380.719 105.859 380.757 105.755L382.172 101.268C382.213 101.137 382.199 100.995 382.136 100.873C382.072 100.752 381.964 100.66 381.833 100.617Z" fill="#263238"/>
<path d="M406.642 24.1387H406.797C406.91 24.1385 407.02 24.1029 407.111 24.0368C407.203 23.9708 407.271 23.8777 407.307 23.7707L408.722 19.4401C408.746 19.3743 408.756 19.3042 408.752 19.2342C408.748 19.1642 408.729 19.0959 408.697 19.0334C408.665 18.971 408.621 18.9158 408.567 18.8713C408.513 18.8269 408.45 18.794 408.382 18.7749C408.316 18.7529 408.247 18.7443 408.177 18.7495C408.108 18.7547 408.04 18.7737 407.979 18.8053C407.917 18.8369 407.862 18.8806 407.817 18.9337C407.772 18.9868 407.738 19.0483 407.717 19.1146L406.302 23.4452C406.275 23.5128 406.263 23.5852 406.266 23.6577C406.269 23.7303 406.287 23.8014 406.319 23.8667C406.351 23.9319 406.396 23.9897 406.452 24.0366C406.507 24.0834 406.572 24.1182 406.642 24.1387Z" fill="#263238"/>
<path d="M390.027 102.386C389.958 102.377 389.887 102.381 389.82 102.4C389.753 102.418 389.69 102.45 389.635 102.494C389.581 102.538 389.536 102.592 389.504 102.654C389.471 102.716 389.452 102.784 389.447 102.853L388.951 107.538C388.943 107.607 388.949 107.676 388.969 107.743C388.988 107.81 389.02 107.872 389.064 107.926C389.107 107.98 389.161 108.024 389.222 108.057C389.282 108.09 389.349 108.111 389.418 108.118C389.548 108.119 389.673 108.072 389.77 107.985C389.867 107.899 389.928 107.78 389.942 107.651L390.437 102.967C390.454 102.836 390.422 102.704 390.346 102.596C390.269 102.489 390.156 102.414 390.027 102.386Z" fill="#263238"/>
<path d="M398.49 22.412C398.622 22.4125 398.749 22.3632 398.846 22.274C398.943 22.1848 399.003 22.0623 399.014 21.9309L399.495 17.4021C399.512 17.3274 399.513 17.2499 399.498 17.1748C399.483 17.0996 399.452 17.0286 399.407 16.9665C399.362 16.9043 399.304 16.8525 399.238 16.8145C399.171 16.7765 399.097 16.7531 399.021 16.746C398.944 16.7389 398.867 16.7481 398.795 16.7732C398.723 16.7982 398.656 16.8385 398.601 16.8912C398.545 16.944 398.501 17.008 398.472 17.0791C398.444 17.1501 398.43 17.2265 398.433 17.3031L397.952 21.8318C397.94 21.9723 397.984 22.1118 398.074 22.2203C398.164 22.3289 398.293 22.3977 398.433 22.412H398.49Z" fill="#263238"/>
<path d="M427.12 29.7995C427.002 29.6836 426.847 29.6119 426.682 29.5964C426.517 29.581 426.352 29.6227 426.214 29.7146L388.569 56.0945C388.534 56.1205 388.504 56.1544 388.484 56.1936H388.385L361.708 94.8152C361.611 94.9511 361.566 95.1175 361.581 95.284C361.597 95.4504 361.672 95.6056 361.793 95.721C361.856 95.789 361.933 95.843 362.018 95.8795C362.103 95.9161 362.196 95.9344 362.288 95.9333C362.435 95.9326 362.578 95.8882 362.699 95.8059L400.995 68.8033C400.995 68.8033 400.995 68.8033 401.08 68.7042L401.179 68.6193L427.233 30.6345C427.306 30.5016 427.335 30.3487 427.314 30.1983C427.294 30.048 427.226 29.9082 427.12 29.7995ZM365.133 92.4235L389.079 57.7786L399.495 68.1947L365.133 92.4235Z" fill="#263238"/>
<path d="M478.267 403.618C477.293 393.353 473.181 383.637 466.488 375.792C459.796 367.948 450.849 362.356 440.866 359.778C430.882 357.2 420.346 357.76 410.692 361.383C401.039 365.006 392.736 371.516 386.914 380.026C377.601 379.885 370.907 383.819 368.516 390.853C367.369 394.292 367.964 398.099 370.299 402.175C377.516 414.756 401.052 428.342 423.879 433.112C439.546 436.381 452.071 438.022 461.793 438.022C471.516 438.022 478.536 436.352 483.022 433.041C484.646 431.869 485.994 430.356 486.972 428.608C487.95 426.86 488.534 424.919 488.683 422.922C489.504 412.69 481.394 405.868 478.267 403.618ZM375.804 393.315C376.333 391.929 377.228 390.712 378.395 389.795C379.561 388.877 380.955 388.294 382.427 388.107C380.619 392.195 379.367 396.508 378.705 400.929C378.054 400.132 377.468 399.285 376.95 398.396C376.172 397.009 375.266 394.929 375.804 393.315ZM385.711 407.666C385.814 401.131 387.42 394.709 390.404 388.895C393.389 383.081 397.672 378.033 402.922 374.141C408.171 370.249 414.247 367.617 420.677 366.451C427.107 365.284 433.719 365.614 440.001 367.414C446.284 369.214 452.067 372.436 456.904 376.831C461.74 381.226 465.5 386.675 467.892 392.757C470.284 398.839 471.243 405.389 470.696 411.901C470.149 418.413 468.11 424.712 464.737 430.309C456.472 430.635 444.061 429.517 425.436 425.625C411.064 422.584 397.524 416.456 385.753 407.666H385.711ZM481.012 422.299C480.958 423.218 480.697 424.113 480.248 424.916C479.8 425.72 479.176 426.412 478.422 426.941C477.089 427.872 475.605 428.566 474.035 428.993C476.196 424.24 477.6 419.179 478.196 413.992C480.167 416.299 481.189 419.268 481.055 422.299H481.012Z" fill="#263238"/>
<path d="M454.01 442.382C448.749 446.379 442.629 449.093 436.135 450.309C429.641 451.525 422.953 451.209 416.603 449.385C410.253 447.562 404.416 444.281 399.557 439.805C394.697 435.329 390.95 429.781 388.612 423.602C385.179 421.498 381.914 419.133 378.847 416.525C380.348 425.791 384.42 434.45 390.6 441.516C396.779 448.582 404.818 453.771 413.802 456.493C422.785 459.215 432.353 459.361 441.415 456.914C450.477 454.467 458.67 449.525 465.062 442.651C464.044 442.651 462.996 442.651 461.907 442.651C459.387 442.693 456.755 442.594 454.01 442.382Z" fill="#263238"/>
<path d="M128.407 467.544C136.092 472.583 140.338 476.036 145.914 476.036C151.49 476.036 155.735 474.451 155.735 472.866C155.735 471.281 158.113 462.506 151.745 456.152C147.262 451.963 142.048 448.633 136.361 446.33C136.361 446.33 136.899 438.631 132.384 435.716C132.384 435.716 126.808 439.962 128.139 450.576C121.636 455.277 114.709 459.361 107.448 462.775C107.448 462.775 120.709 462.492 128.407 467.544Z" fill="#263238"/>
<path d="M147.244 481.329C139.814 479.475 135.031 480.805 123.1 472.314C111.17 463.822 99.2255 467.544 91.5266 469.667C99.133 469.237 106.693 471.106 113.222 475.031C119.752 478.956 124.949 484.755 128.139 491.674C128.139 491.674 136.361 493.273 140.607 490.613C144.852 487.952 151.49 486.367 156.797 489.027C155.915 487.089 154.591 485.383 152.933 484.046C151.274 482.71 149.326 481.779 147.244 481.329Z" fill="#263238"/>
<path d="M120.977 515.889L122.562 509.265C123.099 507.094 123.369 504.865 123.369 502.628C123.458 496.327 121.331 490.195 117.359 485.302C113.387 480.409 107.823 477.067 101.638 475.859C95.4534 474.651 89.0406 475.653 83.5194 478.691C77.9983 481.729 73.7195 486.61 71.4302 492.481C73.7898 488.054 77.5684 484.549 82.1593 482.528C86.7502 480.507 91.887 480.087 96.7451 481.336C101.603 482.585 105.901 485.43 108.948 489.414C111.995 493.399 113.615 498.292 113.547 503.307C113.564 507.832 112.224 512.257 109.702 516.013C107.179 519.769 103.589 522.683 99.3951 524.38H112.741C120.411 524.38 135.583 523.588 135.583 523.588C132.922 516.879 120.977 515.889 120.977 515.889Z" fill="#263238"/>
<path d="M106.117 503.746C106.117 500.667 105.204 497.657 103.494 495.097C101.783 492.537 99.3519 490.542 96.5073 489.363C93.6627 488.185 90.5326 487.877 87.5128 488.477C84.493 489.078 81.7191 490.561 79.542 492.738C77.3648 494.915 75.8822 497.689 75.2815 500.709C74.6808 503.729 74.9891 506.859 76.1674 509.703C77.3456 512.548 79.341 514.979 81.901 516.69C84.4611 518.4 87.4709 519.313 90.5499 519.313C94.6787 519.313 98.6383 517.673 101.558 514.754C104.477 511.834 106.117 507.875 106.117 503.746ZM90.5499 510.822C89.1504 510.822 87.7823 510.407 86.6186 509.629C85.4549 508.852 84.548 507.747 84.0124 506.454C83.4768 505.161 83.3367 503.738 83.6097 502.365C83.8828 500.993 84.5567 499.732 85.5463 498.742C86.5359 497.753 87.7968 497.079 89.1694 496.806C90.5421 496.533 91.9648 496.673 93.2578 497.208C94.5508 497.744 95.656 498.651 96.4335 499.814C97.211 500.978 97.626 502.346 97.626 503.746C97.6149 505.605 96.8723 507.386 95.5587 508.702C94.245 510.018 92.4661 510.765 90.6065 510.779L90.5499 510.822Z" fill="#263238"/>
<path d="M67.397 505.203C63.1513 489.027 72.4352 478.951 79.0585 474.167C85.6818 469.384 102.679 462.761 105.594 445.863C108.509 428.965 97.3716 420.049 87.8188 417.671C78.266 415.294 60.4907 420.587 49.0839 435.97C49.0839 435.97 59.6982 429.602 68.4584 436.239C77.2187 442.877 68.9821 452.953 63.9438 459.845C58.9056 466.737 48.0225 477.083 49.6217 494.066C51.2209 511.048 65.0053 524.833 87.281 524.833C87.281 524.833 71.6285 521.394 67.397 505.203Z" fill="#263238"/>
<path d="M106.443 196.046H37.9317C37.4789 196.046 37.3798 196.23 37.4223 196.627C37.6897 199.498 38.4711 202.297 39.7291 204.892C41.113 207.775 43.1677 210.284 45.7212 212.21C48.2747 214.135 51.2524 215.421 54.405 215.959C56.8649 216.509 59.3965 216.667 61.9057 216.426C66.4162 215.952 70.6783 214.127 74.1333 211.189C75.802 209.778 77.2856 208.161 78.5488 206.378C78.6273 206.276 78.7253 206.191 78.8372 206.128C78.949 206.065 79.0723 206.024 79.1999 206.01C87.2384 206.01 95.2627 206.01 103.259 206.01H103.698C103.528 206.448 103.4 206.859 103.23 207.255C99.2328 217.332 92.0451 225.822 82.7662 231.427C77.921 234.304 72.5692 236.226 67.0006 237.088C63.7277 237.631 60.4103 237.858 57.094 237.767C50.7385 237.664 44.4736 236.242 38.696 233.592C38.4894 233.481 38.2584 233.423 38.0237 233.423C37.789 233.423 37.558 233.481 37.3515 233.592C32.3404 236.042 27.0648 237.908 21.6283 239.154C18.5475 239.881 15.3747 240.138 12.217 239.919C8.91639 239.801 5.79063 238.405 3.49918 236.027C1.87174 234.162 0.802514 231.876 0.413982 229.432C-0.137994 226.091 -0.137994 222.682 0.413982 219.341C2.16887 206.873 7.15048 195.693 13.9294 185.234C19.828 176.3 26.7533 168.087 34.5635 160.765C34.9739 160.368 35.4268 160.029 35.8655 159.661V159.519L35.1579 159.703C33.3294 160.39 31.6125 161.344 30.0631 162.534C24.4328 166.616 19.2185 171.242 14.4955 176.346L12.3444 178.653H12.2028C12.3585 177.96 12.4717 177.238 12.6557 176.573C14.2808 170.794 17.1446 165.438 21.048 160.878C25.6667 155.182 31.348 150.438 37.7761 146.91C41.9899 144.683 46.5749 143.244 51.3057 142.664C54.4182 142.232 57.5654 142.104 60.7028 142.282C61.1144 142.284 61.521 142.192 61.8916 142.013C67.0378 139.607 72.3962 137.683 77.8978 136.267C81.2594 135.366 84.7207 134.891 88.2007 134.852C92.2973 134.712 96.3212 135.959 99.6216 138.39C101.25 139.596 102.609 141.13 103.611 142.892C104.612 144.654 105.235 146.605 105.438 148.622C105.814 152.642 105.207 156.692 103.669 160.425C102.919 162.378 101.957 164.26 101.051 166.086C100.954 166.254 100.903 166.444 100.903 166.638C100.903 166.832 100.954 167.022 101.051 167.19C103.464 172.005 105.111 177.166 105.934 182.489C106.627 186.854 106.897 191.276 106.74 195.693C106.471 195.735 106.457 195.834 106.443 196.046ZM80.8698 183.125C80.9011 182.829 80.9011 182.53 80.8698 182.234C80.4515 180.262 79.9223 178.315 79.2848 176.403C78.3407 173.653 76.7837 171.154 74.7315 169.094C72.6794 167.035 70.1858 165.469 67.4393 164.515C63.0431 163.017 58.3223 162.743 53.7823 163.723C49.5099 164.521 45.6562 166.802 42.8992 170.162C40.3685 173.285 38.6606 176.993 37.9317 180.946C37.7902 181.654 37.7053 182.361 37.5921 183.125H80.8698ZM13.3209 205.953C13.1511 206.264 13.0661 206.406 12.9954 206.562C11.4501 209.837 10.1401 213.219 9.07519 216.68C7.80949 220.351 7.32737 224.247 7.65996 228.116C7.74512 229.637 8.25227 231.105 9.12462 232.355C9.99697 233.605 11.2001 234.587 12.5991 235.192C15.5793 236.414 18.8576 236.715 22.0104 236.055C26.0794 235.277 29.9792 233.787 33.5304 231.654L34.1672 231.229C29.4694 228.311 25.3052 224.611 21.8547 220.289C18.3463 215.938 15.4731 211.111 13.3209 205.953ZM99.3103 164.458L99.6075 163.921C101.15 160.843 102.182 157.536 102.664 154.127C103.029 151.78 102.709 149.377 101.744 147.207C101.177 145.788 100.281 144.525 99.1292 143.521C97.9776 142.517 96.6038 141.801 95.1212 141.433C93.0128 141.029 90.847 141.029 88.7385 141.433C84.7235 142.135 80.8112 143.333 77.0912 144.999C76.8874 145.086 76.6889 145.186 76.4968 145.296C85.9026 149.166 93.8743 155.862 99.3103 164.458Z" fill="#263238"/>
<path d="M549.24 212.222C549.24 212.222 548.49 224.125 547.259 226.375C547.259 226.375 548.986 207.765 539.56 191.39C539.56 191.39 528.408 177.747 529.144 173.289C529.144 173.289 526.172 176.516 526.413 179.233C526.413 179.233 517.921 171.803 515.756 167.827C513.591 163.85 512.77 162.619 512.77 162.619C510.723 166.164 508.967 169.87 507.519 173.7C499.562 171.264 491.095 171.022 483.011 173C474.928 174.978 467.529 179.102 461.595 184.937C460.429 183.45 459.374 181.88 458.439 180.238C457.946 178.69 457.535 177.117 457.208 175.526C457.208 175.526 452 182.715 451.25 186.437C450.803 188.727 450.557 191.052 450.514 193.386C450.514 193.386 444.103 203.038 442.815 208.783H444.556C444.556 208.783 441.57 214.246 441.329 224.167L443.565 220.204C443.565 220.204 441.414 228.823 446.396 242.961C451.377 257.099 466.563 270.912 483.899 273.743C497.843 275.845 512.085 273.055 524.205 265.846L517.752 267.091C517.752 267.091 535.116 263.369 543.056 247.731C543.056 247.731 536.857 252.698 536.107 252.698C536.093 252.656 552.708 238.758 549.24 212.222ZM506.784 175.54C505.36 179.328 504.757 183.375 505.014 187.413C506.26 197.32 514.921 204.283 517.171 207.014C519.422 209.746 523.37 217.671 521.884 224.875C520.398 232.078 518.233 238.503 510.619 242.48C503.005 246.457 493.749 249.188 479.102 238.758C479.102 238.758 487.041 240.994 491.513 238.758C495.985 236.522 497.712 234.045 500.684 234.045C503.656 234.045 506.897 233.055 502.679 229.587C498.462 226.12 494.485 227.111 488.782 227.606C483.078 228.101 476.384 224.62 475.38 221.393C474.375 218.166 476.625 213.708 478.606 213.708C480.588 213.708 482.852 216.185 482.852 216.185C482.852 216.185 484.338 211.232 484.097 208.996C484.097 208.996 494.273 205.274 495.009 201.056C495.009 201.056 495.504 198.58 494.018 197.83C492.532 197.079 489.065 197.589 485.527 196.089C481.989 194.589 481.069 194.108 481.805 191.631C482.541 189.154 487.267 183.139 490.494 181.951C490.494 181.951 479.569 181.951 475.606 186.663C471.742 185.835 467.796 185.455 463.845 185.531C469.516 180.238 476.478 176.528 484.034 174.774C491.59 173.021 499.475 173.285 506.897 175.54H506.784Z" fill="#263238"/>
<path d="M270.808 244.164C270.808 244.164 256.175 244.759 247.74 241.15C239.305 237.541 232.498 241.56 230.092 247.971C227.686 254.382 232.3 261.218 243.933 267.629C255.566 274.04 263.194 272.441 267.808 267.233C272.422 262.025 278.436 249.118 270.808 244.164Z" fill="white" stroke="#263238" stroke-miterlimit="10" stroke-linecap="round"/>
<path opacity="0.17" d="M265.784 248.962C265.784 248.962 257.293 249.712 254.872 249.712C252.452 249.712 251.561 247.816 250.146 249.245C248.73 250.675 244.938 246.868 244.938 246.868C245.141 248.192 244.986 249.548 244.488 250.792C243.99 252.036 243.168 253.125 242.107 253.944C238.328 257.255 244.485 267.19 265.784 264.827C287.083 262.464 265.784 248.962 265.784 248.962Z" fill="black"/>
<path d="M243.14 240.301C240.583 238.454 237.474 237.531 234.323 237.683C228.903 237.881 223.695 246.174 223.893 249.118C224.134 252.797 229.299 258.147 234.323 259.548C239.347 260.949 246.537 250.123 243.14 240.301Z" fill="#263238" stroke="#263238" stroke-miterlimit="10" stroke-linecap="round"/>
<path d="M202.608 238.886C199.565 236.996 197.113 234.289 195.532 231.074C193.523 226.248 199.141 218.224 202.75 218.224C206.359 218.224 208.411 221.634 206.769 225.045C205.127 228.456 202.962 234.074 203.755 235.886C204.547 237.697 204.024 240.499 202.608 238.886Z" fill="white" stroke="#263238" stroke-miterlimit="10" stroke-linecap="round"/>
<path d="M238.512 239.494C236.66 235.563 235.186 231.464 234.111 227.252C232.299 220.176 229.865 219.426 227.035 219.426C224.204 219.426 222.421 223.672 219.959 224.648C217.496 225.625 211.34 224.04 207.731 225.257C204.122 226.474 202.509 234.881 204.519 239.692C206.528 244.504 212.939 249.528 219.761 251.326C226.582 253.123 228.988 253.335 229.596 253.137C230.205 252.939 239.928 250.123 238.512 239.494Z" fill="white" stroke="#263238" stroke-miterlimit="10" stroke-linecap="round"/>
<path d="M203.599 200.844L192.588 207.255C192.422 207.361 192.279 207.501 192.17 207.666C192.061 207.83 191.987 208.016 191.954 208.21C191.92 208.405 191.928 208.604 191.976 208.796C192.025 208.987 192.113 209.166 192.234 209.322L214.454 235.418C214.676 235.665 214.977 235.825 215.306 235.872C215.634 235.918 215.969 235.848 216.251 235.673L225.662 229.177C225.961 228.954 226.159 228.623 226.215 228.255C226.27 227.886 226.179 227.511 225.959 227.21L205.354 201.184C205.145 200.934 204.856 200.764 204.537 200.702C204.217 200.64 203.886 200.69 203.599 200.844Z" fill="#263238" stroke="#263238" stroke-miterlimit="10" stroke-linecap="round"/>
<path d="M227.092 222.045C227.092 222.045 221.063 226.856 217.058 223.46C213.053 220.063 220.666 212.223 227.092 212.025C233.517 211.827 235.102 227.069 234.904 230.281" fill="white"/>
<path d="M227.092 222.045C227.092 222.045 221.063 226.856 217.058 223.46C213.053 220.063 220.666 212.223 227.092 212.025C233.517 211.827 235.102 227.069 234.904 230.281" stroke="#263238" stroke-miterlimit="10" stroke-linecap="round"/>
<path d="M210.038 246.316C210.038 246.316 202.212 242.296 200.811 238.093C199.41 233.89 202.41 223.247 206.825 222.044C211.241 220.841 211.835 224.875 211.439 228.257C211.043 231.64 210.024 234.272 210.632 236.89C211.241 239.508 214.652 241.702 214.652 244.504C214.652 247.306 211.241 247.32 210.038 246.316Z" fill="white" stroke="#263238" stroke-miterlimit="10" stroke-linecap="round"/>
<path d="M218.954 250.618C218.954 250.618 206.019 248.622 207.222 238.291C207.689 234.286 210.236 227.252 214.652 227.252C219.067 227.252 216.647 237.485 216.647 237.485C216.647 237.485 218.855 234.074 224.275 238.291" fill="white"/>
<path d="M218.954 250.618C218.954 250.618 206.019 248.622 207.222 238.291C207.689 234.286 210.236 227.252 214.652 227.252C219.067 227.252 216.647 237.485 216.647 237.485C216.647 237.485 218.855 234.074 224.275 238.291" stroke="#263238" stroke-miterlimit="10" stroke-linecap="round"/>
<path d="M293.353 212.704C317.716 212.704 337.466 193.341 337.466 169.455C337.466 145.569 317.716 126.205 293.353 126.205C268.99 126.205 249.24 145.569 249.24 169.455C249.24 193.341 268.99 212.704 293.353 212.704Z" fill="white" stroke="#263238" stroke-miterlimit="10" stroke-linecap="round"/>
<path opacity="0.17" d="M293.352 204.17C312.908 204.17 328.761 188.627 328.761 169.454C328.761 150.281 312.908 134.739 293.352 134.739C273.797 134.739 257.943 150.281 257.943 169.454C257.943 188.627 273.797 204.17 293.352 204.17Z" fill="black"/>
<path d="M337.465 169.455C337.45 162.854 335.909 156.346 332.963 150.44C330.017 144.533 325.746 139.387 320.482 135.404C324.544 177.861 300.174 162.563 271.176 171.026C261.269 173.856 255.099 177.974 251.15 182.164C254.021 191.075 259.658 198.839 267.242 204.328C274.826 209.818 283.962 212.747 293.324 212.69C317.709 212.69 337.465 193.33 337.465 169.455Z" fill="#263238" stroke="#263238" stroke-miterlimit="10" stroke-linecap="round"/>
<path d="M272.605 143.825C273.556 144.772 274.205 145.979 274.468 147.295C274.732 148.611 274.6 149.975 274.087 151.216C273.575 152.456 272.706 153.516 271.591 154.263C270.476 155.009 269.164 155.407 267.822 155.407C266.48 155.407 265.168 155.009 264.053 154.263C262.937 153.516 262.068 152.456 261.556 151.216C261.044 149.975 260.911 148.611 261.175 147.295C261.439 145.979 262.087 144.772 263.038 143.825C264.309 142.559 266.029 141.849 267.822 141.849C269.615 141.849 271.335 142.559 272.605 143.825Z" fill="white" stroke="#263238" stroke-miterlimit="10" stroke-linecap="round"/>
<path d="M259.217 274.238C259.217 274.238 229.894 275.809 213.817 281.173C197.74 286.537 192.999 290.004 192.376 297.575C191.753 305.147 192.05 312.704 210.038 318.379C228.026 324.054 247.244 322.795 261.425 321.21C275.606 319.625 279.087 306.067 279.087 295.665C279.087 285.263 268.048 273.601 259.217 274.238Z" fill="white" stroke="#263238" stroke-miterlimit="10" stroke-linecap="round"/>
<path opacity="0.17" d="M255.325 289.452L251.533 300.774C251.533 300.774 242.065 288.461 241.131 293.202C240.197 297.943 241.131 301.241 239.715 301.241C238.3 301.241 234.507 297.462 234.507 299.359C234.432 300.009 234.227 300.637 233.904 301.206C233.58 301.775 233.145 302.273 232.625 302.67C231.112 301.997 229.519 301.521 227.884 301.255H222.676C220.78 301.255 216.053 297.943 216.053 297.943C216.053 297.943 213.689 300.774 213.689 302.684C213.689 304.595 214.638 316.837 219.35 318.776C224.063 320.714 244.909 320.672 250.584 319.724C256.26 318.776 265.26 318.776 265.742 314.516C266.223 310.256 259.104 284.258 255.325 289.452Z" fill="black"/>
<path d="M214.397 309.265C214.397 309.265 227.021 310.525 237.748 310.525C248.476 310.525 261.736 309.902 261.736 309.902" stroke="#263238" stroke-miterlimit="10" stroke-linecap="round"/>
<path d="M170.964 384.909C170.964 384.909 164.029 397.519 160.873 400.349C157.717 403.18 148.32 401.934 134.168 392.764C120.016 383.593 109.26 368.167 107.363 360.907C106.887 359.389 106.754 357.785 106.975 356.21C107.195 354.634 107.764 353.128 108.64 351.8C109.515 350.472 110.675 349.356 112.036 348.532C113.396 347.708 114.923 347.198 116.506 347.038C122.818 346.401 128.493 356.18 135.116 359.025C140.857 361.558 147.163 362.534 153.401 361.855C158.694 361.261 173.794 375.441 170.964 384.909Z" fill="white" stroke="#263238" stroke-miterlimit="10" stroke-linecap="round"/>
<path d="M182.993 300.066C182.993 300.066 169.237 314.105 162.614 328.3C155.991 342.495 151.023 353.534 154.957 361.416C156.16 363.851 165.43 376.248 172.987 376.248C180.545 376.248 205.863 356.718 213.279 335.956C217.1 325.257 215.869 318.082 215.869 318.082C215.869 318.082 192.716 286.989 182.993 300.066Z" fill="white" stroke="#263238" stroke-miterlimit="10" stroke-linecap="round"/>
<path opacity="0.17" d="M203.726 305.09C203.726 305.09 192.843 295.622 194.74 304.623C196.636 313.624 199.948 322.596 198.051 327.267C196.395 331.413 189.064 332.928 190.975 333.89C192.886 334.852 198.051 329.644 190.508 336.253C182.965 342.863 180.601 342.891 181.04 345.721C181.285 347.202 181.763 348.635 182.455 349.967C182.936 351.382 178.677 357.043 176.313 361.289C173.95 365.535 167.284 367.289 170.157 371.705C173.03 376.12 185.3 365.082 190.508 360.822C195.716 356.562 202.339 353.236 205.184 347.094C208.029 340.952 212.26 332.942 213.222 324.847C213.194 324.974 216.506 309.35 203.726 305.09Z" fill="black"/>
<path d="M210.59 311.77C210.59 311.77 208.071 328.824 203.019 336.395C197.966 343.967 192.291 345.226 189.135 350.278C185.979 355.331 183.474 360.383 179.031 362.902C174.587 365.421 171.459 374.224 171.459 374.224" stroke="#263238" stroke-miterlimit="10" stroke-linecap="round"/>
<path d="M145.136 378.611C135.668 375.144 127.162 368.209 125.577 363.157C124.318 359.138 120.666 350.703 119.237 347.462C118.333 347.129 117.367 346.999 116.406 347.08C114.824 347.24 113.297 347.751 111.936 348.574C110.576 349.398 109.416 350.515 108.54 351.843C107.665 353.171 107.096 354.677 106.875 356.252C106.655 357.827 106.787 359.432 107.264 360.949C109.16 368.209 119.874 383.664 134.069 392.806C148.263 401.948 157.717 403.208 160.873 400.363C162.769 398.651 166.067 393.372 168.36 389.452C162.84 382.857 153.853 381.796 145.136 378.611Z" fill="white" stroke="#263238" stroke-miterlimit="10" stroke-linecap="round"/>
<path d="M164.765 395.311C161.467 390.131 154.038 387.952 146.07 384.909C135.356 380.805 119.591 367.927 118.331 359.053C117.425 352.684 114.397 349.444 112.769 348.127C110.491 349.272 108.692 351.186 107.69 353.53C106.687 355.874 106.546 358.497 107.292 360.935C109.189 368.195 119.902 383.65 134.097 392.792C148.292 401.935 157.745 403.194 160.901 400.349C162.367 398.814 163.662 397.125 164.765 395.311Z" fill="white" stroke="#263238" stroke-miterlimit="10" stroke-linecap="round"/>
<path d="M148.532 362.648C148.532 362.648 164.835 371.55 171.515 384.145C172.685 383.698 173.726 382.968 174.544 382.019C175.361 381.071 175.93 379.934 176.2 378.711C177.445 374.267 168.543 364.87 159.896 360.426C151.249 355.982 148.037 357.949 148.532 362.648Z" fill="#9492E3" stroke="#263238" stroke-miterlimit="10" stroke-linecap="round"/>
<path d="M183.701 298.396C183.701 298.396 185.781 286.99 201.32 285.263C216.859 283.536 221.02 313.568 216.18 321.535C216.251 321.535 200.683 299.09 183.701 298.396Z" fill="#263238" stroke="#263238" stroke-miterlimit="10" stroke-linecap="round"/>
<path d="M340.027 189.622C343.145 187.075 346.868 185.376 350.834 184.69C354.801 184.003 358.878 184.351 362.671 185.702C375.832 190.344 378.535 224.974 373.469 258.175C368.402 291.377 358.326 299.939 345.447 299.939C332.569 299.939 325.224 294.943 325.224 282.8C325.224 270.658 340.027 189.622 340.027 189.622Z" fill="white" stroke="#263238" stroke-miterlimit="10" stroke-linecap="round"/>
<path opacity="0.17" d="M342.829 196.245C342.829 196.245 348.49 187.881 361.44 191.999C374.389 196.117 370.511 216.369 370.511 232.715C370.511 249.061 360.605 285.899 355.694 291.221C350.783 296.542 336.319 297.292 333.291 292.353C330.262 287.414 344.726 209.916 342.829 196.245Z" fill="black"/>
<path d="M348.773 222.837C348.773 200.759 339.631 176.8 333.956 177.111C333.956 177.111 290.749 202.033 282.243 211.176C274.162 219.851 262.968 250.094 263.732 259.293C263.024 260.142 260.831 262.959 261.071 265.308C258.764 269.95 254.802 278.923 254.802 285.843C254.802 295.622 257.01 313.907 266.477 318.323C275.945 322.738 303.684 329.05 316.619 322.115C328.408 315.789 334.14 301.326 332.668 289.749C333.237 289.453 333.773 289.098 334.267 288.688C335.316 287.919 336.023 286.772 336.237 285.489C336.452 284.207 336.156 282.891 335.413 281.824C348.122 271.379 348.773 241.093 348.773 222.837Z" fill="white" stroke="#263238" stroke-miterlimit="10" stroke-linecap="round"/>
<path opacity="0.17" d="M305.963 209.958C305.963 209.958 300.302 217.997 304.08 226.941C307.859 235.885 318.742 242.509 312.572 248.707C306.401 254.906 306.911 257.199 309.741 257.708C312.572 258.218 313.987 259.591 309.741 260.072C305.495 260.553 299.835 259.591 303.585 261.968C307.335 264.346 315.416 264.332 310.661 265.747C305.906 267.162 282.739 264.332 284.154 267.162C285.569 269.993 285.569 270.488 297.4 273.799C309.232 277.111 315.388 274.748 312.557 277.578C309.727 280.409 301.236 279.475 301.66 280.89C302.366 282.176 303.33 283.304 304.491 284.201C304.491 284.201 306.387 284.683 298.334 285.617C290.282 286.551 270.03 276.715 275.21 280.479C280.389 284.244 287.041 286.14 287.947 288.051C288.852 289.961 287.465 294.674 285.116 296.104C282.767 297.533 268.544 314.077 274.7 325.922C280.856 337.768 304.052 333.494 310.675 328.753C317.299 324.012 322.974 309.817 324.403 304.142C325.832 298.467 322.04 296.571 324.403 296.104C326.766 295.636 328.182 297.038 327.715 293.726C327.248 290.414 324.403 288.065 324.403 286.154C324.403 284.244 326.299 284.258 330.064 280.946C333.828 277.635 335.272 276.701 335.272 272.908C335.272 269.115 334.805 266.752 337.635 264.416C340.466 262.081 341.428 262.053 341.428 258.756C341.428 255.458 340.48 252.132 341.428 248.849C342.373 246.065 343.162 243.23 343.792 240.358C345.207 234.201 344.641 224.365 339.956 217.219C335.272 210.072 314.015 201.906 305.963 209.958Z" fill="black"/>
<path d="M330.531 224.677C330.531 224.677 334.323 245.509 329.908 253.703C325.492 261.897 314.751 268.223 319.166 272.016C323.582 275.809 327.375 277.069 324.219 278.951C321.063 280.833 316.647 283.381 316.647 286.536C316.647 289.692 318.544 293.471 312.854 299.16" stroke="#263238" stroke-miterlimit="10" stroke-linecap="round"/>
<path d="M271.233 227.918C272.337 227.068 278.309 228.3 279.568 228.498C287.848 229.913 291.315 231.809 288.951 238.206C287.451 242.268 286.885 249.839 282.569 252.769C279.823 254.637 268.416 252.585 265.756 248.962C263.095 245.339 268.94 230.72 268.94 230.72C269.416 229.583 270.213 228.609 271.233 227.918Z" fill="#9492E3" stroke="#263238" stroke-miterlimit="10" stroke-linecap="round"/>
<path d="M288.739 263.129C288.739 264.369 288.371 265.581 287.682 266.612C286.993 267.643 286.014 268.447 284.869 268.921C283.723 269.396 282.462 269.52 281.246 269.278C280.03 269.036 278.913 268.439 278.036 267.562C277.159 266.685 276.562 265.568 276.32 264.352C276.078 263.136 276.203 261.875 276.677 260.73C277.152 259.584 277.955 258.605 278.986 257.916C280.017 257.227 281.229 256.859 282.469 256.859C283.293 256.858 284.109 257.018 284.871 257.333C285.632 257.647 286.324 258.109 286.907 258.692C287.489 259.274 287.951 259.966 288.265 260.727C288.58 261.489 288.741 262.305 288.739 263.129Z" fill="#263238" stroke="#263238" stroke-miterlimit="10" stroke-linecap="round"/>
<path d="M279.71 276.149C279.71 277.386 279.343 278.595 278.656 279.624C277.968 280.653 276.991 281.455 275.848 281.928C274.705 282.401 273.448 282.525 272.234 282.284C271.021 282.043 269.906 281.447 269.031 280.572C268.157 279.697 267.561 278.583 267.319 277.369C267.078 276.156 267.202 274.898 267.675 273.755C268.149 272.612 268.951 271.635 269.979 270.948C271.008 270.26 272.217 269.894 273.455 269.894C275.114 269.894 276.705 270.553 277.878 271.726C279.051 272.899 279.71 274.49 279.71 276.149Z" fill="#263238" stroke="#263238" stroke-miterlimit="10" stroke-linecap="round"/>
<path d="M305.41 270.757C290.692 270.757 281.691 266.893 280.998 266.582C280.08 266.175 279.362 265.419 279.001 264.483C278.64 263.546 278.666 262.504 279.073 261.586C279.48 260.668 280.235 259.95 281.172 259.589C282.109 259.228 283.151 259.254 284.069 259.661C284.465 259.831 312.925 271.747 352.099 250.038C352.534 249.797 353.012 249.644 353.506 249.588C354 249.533 354.5 249.574 354.977 249.712C355.455 249.849 355.901 250.079 356.29 250.389C356.679 250.699 357.003 251.082 357.243 251.517C357.484 251.952 357.637 252.43 357.693 252.923C357.748 253.417 357.707 253.917 357.569 254.395C357.432 254.873 357.202 255.319 356.892 255.708C356.582 256.096 356.199 256.42 355.764 256.661C335.682 267.756 318.303 270.757 305.41 270.757Z" fill="#9492E3" stroke="#263238" stroke-miterlimit="10" stroke-linecap="round"/>
<path d="M313.095 290.867C298.445 290.721 284.088 286.75 271.445 279.347C270.647 278.787 270.095 277.94 269.905 276.984C269.715 276.027 269.9 275.034 270.423 274.21C270.946 273.387 271.766 272.797 272.713 272.562C273.659 272.327 274.66 272.467 275.507 272.95C275.931 273.219 309.996 294.179 344.542 275.087C345.42 274.601 346.456 274.484 347.42 274.761C348.385 275.039 349.2 275.688 349.686 276.566C350.172 277.445 350.289 278.48 350.012 279.445C349.735 280.41 349.086 281.225 348.207 281.711C337.486 287.733 325.392 290.887 313.095 290.867Z" fill="#9492E3" stroke="#263238" stroke-miterlimit="10" stroke-linecap="round"/>
<path d="M297.216 335.716C310.191 335.716 320.709 325.977 320.709 313.964C320.709 301.95 310.191 292.211 297.216 292.211C284.242 292.211 273.723 301.95 273.723 313.964C273.723 325.977 284.242 335.716 297.216 335.716Z" fill="#9492E3" stroke="#263238" stroke-miterlimit="10" stroke-linecap="round"/>
<path d="M242.192 430.975C242.192 430.975 243.452 440.429 240.621 443.896C237.791 447.363 225.804 453.675 219.181 458.713C212.557 463.752 213.52 465.662 214.44 469.441C215.36 473.22 224.856 475.427 241.881 475.427C258.906 475.427 275.931 462.506 278.776 458.091C281.621 453.675 272.775 438.532 272.153 432.857C271.53 427.182 271.205 425.3 271.205 425.3C271.205 425.3 255.439 436.636 242.192 430.975Z" fill="white" stroke="#263238" stroke-miterlimit="10" stroke-linecap="round"/>
<path d="M246.919 433.48C247.18 437.526 246.308 441.564 244.4 445.142C241.244 450.803 228.012 453.633 226.115 457.44C224.219 461.247 231.153 462.492 241.569 457.44C251.986 452.388 257.335 441.363 257.958 435.999C258.581 430.635 250.4 430.013 246.919 433.48Z" fill="white" stroke="#263238" stroke-miterlimit="10" stroke-linecap="round"/>
<path d="M278.776 458.077C279.526 456.888 279.441 454.935 278.917 452.614C269.676 459.478 256.67 467.559 245.348 468.79C234.754 470.036 224.027 468.146 214.496 463.355C213.279 465.45 213.859 467.077 214.496 469.427C215.444 473.205 224.912 475.413 241.937 475.413C258.963 475.413 275.931 462.492 278.776 458.077Z" fill="white" stroke="#263238" stroke-miterlimit="10" stroke-linecap="round"/>
<path d="M257.392 443.477C267.233 442.306 274.549 435.8 273.733 428.947C272.917 422.094 264.278 417.488 254.437 418.66C244.595 419.831 237.279 426.337 238.095 433.19C238.911 440.043 247.55 444.649 257.392 443.477Z" fill="#9492E3" stroke="#263238" stroke-miterlimit="10" stroke-linecap="round"/>
<path d="M237.154 370.417C237.154 370.417 229.144 382.97 233.559 411.034C235.88 425.795 238.937 435.843 248.079 437.103C257.222 438.362 271.473 434.683 273.483 426.616C275.181 419.837 284.55 388.207 272.676 378.626C265.869 373.12 249.452 360.638 237.154 370.417Z" fill="white" stroke="#263238" stroke-miterlimit="10" stroke-linecap="round"/>
<path opacity="0.17" d="M254.377 383.183C254.377 383.183 241.131 379.404 242.546 382.716C243.961 386.027 249.169 386.961 253.868 387.924C258.566 388.886 269.676 392.014 264.85 394.462C260.024 396.911 255.75 399.755 259.062 401.652C262.373 403.548 267.312 406.69 264.85 407.723C262.387 408.756 262.854 413.483 263.803 415.846C264.751 418.21 265.699 420.092 264.27 423.418C262.84 426.744 264.751 436.155 267.1 424.833C268.915 415.766 270.182 406.597 270.893 397.378C271.36 391.717 270.893 387.471 269.478 386.961C266.863 386.081 264.172 385.446 261.439 385.065C259.032 384.659 256.667 384.029 254.377 383.183Z" fill="black"/>
<path d="M316.293 332.886C316.293 332.886 321.02 315.903 309.67 302.302C298.32 288.702 268.996 308.614 255.438 328.796C241.88 348.977 238.724 363.469 239.036 368.21C239.347 372.951 245.348 379.532 265.529 378.923C285.71 378.314 310.307 359.379 316.293 332.886Z" fill="white" stroke="#263238" stroke-miterlimit="10" stroke-linecap="round"/>
<path opacity="0.17" d="M314.015 316.922C314.015 316.922 303.599 299.939 301.702 301.779C299.806 303.618 308.778 317.346 303.599 319.285C298.419 321.224 291.3 314.077 290.352 315.973C289.404 317.87 300.259 325.88 295.079 331.541C289.899 337.202 279.936 339.112 278.988 346.684C278.04 354.255 276.157 359.945 273.78 360.412C271.402 360.879 267.623 360.412 267.623 363.242C267.623 366.072 270.454 366.554 270.454 367.969C270.454 369.384 268.925 370.162 264.241 369.78C259.557 369.398 258.156 369.865 258.156 371.762C258.269 373.37 258.583 374.958 259.09 376.489C259.09 376.489 269.661 383.451 272.662 378.555C275.662 373.658 277.077 372.229 278.974 369.398C280.87 366.568 291.286 354.722 295.956 349.514C300.627 344.306 300.202 341.462 302.58 341.943C304.957 342.424 304.957 339.112 304.957 336.735C304.922 336.123 305.087 335.516 305.426 335.005C305.766 334.495 306.262 334.109 306.84 333.904C307.81 332.487 308.458 330.873 308.736 329.177C309.288 326.389 317.326 324.026 314.015 316.922Z" fill="black"/>
<path d="M262.953 380.027C262.517 380.592 262.115 381.182 261.75 381.796C259.812 385.051 263.647 388.745 264.906 394.42C266.166 400.095 264.27 402.628 264.906 407.68C265.543 412.733 268.062 415.875 268.062 421.564C268.062 427.253 264.906 434.188 264.906 434.188" stroke="#263238" stroke-miterlimit="10" stroke-linecap="round"/>
<path d="M311.595 306.732C311.595 306.732 307.816 329.446 295.815 343.967C283.814 358.487 271.756 362.902 273.101 367.318C274.445 371.733 268.671 369.851 264.256 369.851C259.84 369.851 262.996 373.63 264.892 374.889C266.421 375.923 264.68 377.72 262.939 380.069" stroke="#263238" stroke-miterlimit="10" stroke-linecap="round"/>
<path d="M239.97 360.836C239.97 360.836 247.046 375.894 276.313 376.97C276.313 376.97 278.238 378.045 276.525 382.984C276.356 383.465 272.039 383.805 271.572 383.876C267.673 384.501 263.742 384.908 259.797 385.093C252.721 385.39 241.64 385.631 236.998 379.078C232.738 373.049 234.649 365.407 239.97 360.836Z" fill="#263238" stroke="#263238" stroke-miterlimit="10" stroke-linecap="round"/>
<path d="M280.347 217.487C279.312 217.484 278.303 217.164 277.457 216.569C276.61 215.974 275.967 215.133 275.613 214.161C275.26 213.189 275.213 212.131 275.48 211.131C275.747 210.132 276.315 209.238 277.106 208.571C278.422 207.468 309.656 181.413 337.48 170.516C338.098 170.274 338.757 170.157 339.42 170.17C340.084 170.183 340.738 170.327 341.346 170.593C341.954 170.859 342.503 171.242 342.963 171.721C343.423 172.199 343.783 172.764 344.025 173.382C344.267 174 344.384 174.659 344.371 175.322C344.358 175.986 344.214 176.64 343.948 177.248C343.682 177.856 343.298 178.405 342.82 178.865C342.341 179.325 341.777 179.686 341.159 179.927C314.836 190.216 283.913 216.044 283.602 216.299C282.69 217.064 281.538 217.485 280.347 217.487Z" fill="#9492E3" stroke="#263238" stroke-miterlimit="10" stroke-linecap="round"/>
<path d="M329.385 237.343C343.579 237.343 355.085 226.191 355.085 212.435C355.085 198.679 343.579 187.527 329.385 187.527C315.191 187.527 303.684 198.679 303.684 212.435C303.684 226.191 315.191 237.343 329.385 237.343Z" fill="#9492E3" stroke="#263238" stroke-miterlimit="10" stroke-linecap="round"/>
<path d="M344.386 192.183C344.386 192.183 332.724 185.107 320.015 196.061C307.307 207.015 310.831 225.781 321.431 233.168C332.031 240.556 354.646 244.83 357.123 246.585C359.599 248.339 365.954 252.953 379.031 247.646C392.107 242.339 389.631 230.663 383.97 220.757C378.309 210.85 356.047 195.707 344.386 192.183Z" fill="white" stroke="#263238" stroke-miterlimit="10" stroke-linecap="round"/>
<path opacity="0.17" d="M324.587 195.481C324.587 195.481 316.605 201.934 316.987 209.534C317.369 217.134 323.455 220.559 329.526 220.559C335.597 220.559 340.848 223.219 342.447 225.866C344.046 228.512 345.108 228.526 348.108 228.526C351.108 228.526 349.254 230.437 354.576 230.437C359.897 230.437 361.411 230.055 362.926 229.29C364.44 228.526 361.029 228.158 367.171 228.526C373.313 228.894 383.121 229.29 380.842 223.969C378.564 218.648 360.704 204.156 351.972 199.273C343.24 194.391 330.29 191.306 324.587 195.481Z" fill="black"/>
<path d="M312.769 220.813C319.591 224.713 326.888 227.715 334.479 229.744C345.334 232.305 351.717 232.942 352.368 235.489C352.524 236.084 352.798 236.64 353.175 237.125C353.551 237.611 354.022 238.015 354.559 238.313C355.095 238.612 355.687 238.799 356.298 238.864C356.909 238.928 357.526 238.868 358.113 238.688C360.012 238.331 361.961 238.331 363.859 238.688" stroke="#263238" stroke-miterlimit="10" stroke-linecap="round"/>
<path d="M360.194 224.054C364.375 224.054 367.765 220.943 367.765 217.106C367.765 213.268 364.375 210.157 360.194 210.157C356.012 210.157 352.622 213.268 352.622 217.106C352.622 220.943 356.012 224.054 360.194 224.054Z" fill="#263238" stroke="#263238" stroke-miterlimit="10" stroke-linecap="round"/>
<path d="M376.894 221.153C376.894 221.153 358.298 230.989 356.755 250.123C356.274 256.123 388.768 251.368 393.551 247.646C401.901 241.079 395.589 229.092 392.433 225.299C387.112 218.973 381.14 217.615 376.894 221.153Z" fill="#263238" stroke="#263238" stroke-miterlimit="10" stroke-linecap="round"/>
<path d="M352.863 296.769C352.863 296.769 342.956 301.014 339.093 304.538C335.229 308.062 327.431 317.615 329.554 320.785C331.677 323.955 336.97 321.139 338.385 319.724C339.8 318.308 345.461 311.954 345.461 311.954C345.461 311.954 342.631 331.031 343.338 333.862C344.046 336.692 345.461 337.4 348.292 337.4C351.122 337.4 353.585 333.508 353.953 330.677C354.321 327.847 355.722 319.724 355.722 319.724C355.722 319.724 359.26 326.092 358.906 332.093C358.552 338.093 361.029 340.584 364.567 339.169C368.105 337.754 368.813 332.461 368.813 332.461C372.221 331.631 375.227 329.626 377.304 326.8C379.158 324.111 382.611 322.2 380.488 312.647C378.365 303.095 375.889 299.91 375.889 299.91C375.889 299.91 361.354 298.17 352.863 296.769Z" fill="white" stroke="#263238" stroke-miterlimit="10" stroke-linecap="round"/>
<path opacity="0.17" d="M354.066 299.146C354.066 299.146 342.008 305.826 343.551 307.114C345.094 308.402 347.91 308.897 348.943 314.289C349.976 319.681 350.74 320.19 353.047 316.865C355.354 313.539 357.661 315.832 359.713 320.714C361.765 325.597 364.086 322.766 365.105 318.138C366.124 313.511 370.242 317.629 371.275 320.714C372.308 323.799 372.294 317.629 372.804 314.813C373.313 311.996 377.941 320.19 378.719 317.884C379.498 315.577 374.346 301.976 372.804 301.198C371.261 300.42 354.066 299.146 354.066 299.146Z" fill="black"/>
<path d="M352.509 288.277C352.509 288.277 347.57 293.584 351.816 298.524C356.062 303.463 369.124 304.538 374.46 303.123C379.795 301.708 379.059 292.877 376.582 290.754C374.106 288.631 352.509 288.277 352.509 288.277Z" fill="#263238" stroke="#263238" stroke-miterlimit="10" stroke-linecap="round"/>
<path d="M356.755 250.123C356.755 250.123 350.047 285.107 351.816 290.4C353.585 295.693 364.553 299.939 372.308 298.17C380.064 296.401 390.706 279.092 394.202 259.661C397.698 240.23 397.4 242.749 388.909 241.334C380.418 239.919 365.586 243.061 356.755 250.123Z" fill="white" stroke="#263238" stroke-miterlimit="10" stroke-linecap="round"/>
<path opacity="0.17" d="M367.68 246.514C370.384 247.49 374.318 251.34 372.153 254.75C369.492 258.996 366.067 260.057 365.685 263.482C365.303 266.907 367.213 274.493 367.213 276.403C367.213 278.314 368.346 283.239 364.935 285.135C361.524 287.032 362.274 290.457 362.274 291.589C362.274 292.721 362.274 292.353 361.51 294.249C360.746 296.146 367.171 298.806 371.771 295.778C381.171 288.706 387.656 278.435 389.999 266.907C391.754 257.92 393.211 249.019 392.659 243.726C384.229 242.864 375.713 243.814 367.68 246.514Z" fill="black"/>
<path d="M363.251 246.358C363.251 246.358 363.973 251.127 360.166 259.689C356.882 267.077 354.278 274.436 354.915 280.833C355.25 285.142 355.017 289.477 354.222 293.726" stroke="#263238" stroke-miterlimit="10" stroke-linecap="round"/>
<path d="M368.771 332.447C368.968 327.718 368.731 322.98 368.063 318.294L368.771 332.447Z" fill="white"/>
<path d="M368.771 332.447C368.968 327.718 368.731 322.98 368.063 318.294" stroke="#263238" stroke-miterlimit="10" stroke-linecap="round"/>
<path d="M374.757 329.262C374.757 329.262 376.88 321.846 375.111 316.2L374.757 329.262Z" fill="white"/>
<path d="M374.757 329.262C374.757 329.262 376.88 321.846 375.111 316.2" stroke="#263238" stroke-miterlimit="10" stroke-linecap="round"/>
<path d="M334.324 192.48C328.818 192.48 318.232 201.708 319.266 207.708C319.945 211.643 336.885 220.205 339.999 217.105C341.895 215.209 351.321 207.001 355.778 203.845C360.236 200.689 342.532 192.495 334.324 192.48Z" fill="white" stroke="#263238" stroke-miterlimit="10" stroke-linecap="round"/>
</svg>
