<svg width="78" height="58" viewBox="0 0 78 58" fill="none" xmlns="http://www.w3.org/2000/svg">
<path d="M23.88 57.7775C19.4 57.7775 15.4 56.6575 11.88 54.4175C8.36 52.1242 5.58667 48.8175 3.56 44.4975C1.53333 40.1242 0.52 34.9509 0.52 28.9775C0.52 23.0042 1.53333 17.8575 3.56 13.5375C5.58667 9.1642 8.36 5.85754 11.88 3.61753C15.4 1.3242 19.4 0.177536 23.88 0.177536C28.36 0.177536 32.36 1.3242 35.88 3.61753C39.4533 5.85754 42.2533 9.1642 44.28 13.5375C46.3067 17.8575 47.32 23.0042 47.32 28.9775C47.32 34.9509 46.3067 40.1242 44.28 44.4975C42.2533 48.8175 39.4533 52.1242 35.88 54.4175C32.36 56.6575 28.36 57.7775 23.88 57.7775ZM23.88 48.7375C27.88 48.7375 31.0267 47.0842 33.32 43.7775C35.6667 40.4709 36.84 35.5375 36.84 28.9775C36.84 22.4175 35.6667 17.4842 33.32 14.1775C31.0267 10.8709 27.88 9.21754 23.88 9.21754C19.9333 9.21754 16.7867 10.8709 14.44 14.1775C12.1467 17.4842 11 22.4175 11 28.9775C11 35.5375 12.1467 40.4709 14.44 43.7775C16.7867 47.0842 19.9333 48.7375 23.88 48.7375ZM77.3175 0.977535V56.9775H66.9175V9.69754H55.0775V0.977535H77.3175Z" fill="#EDEDFE"/>
</svg>
