<svg width="395" height="346" viewBox="0 0 395 346" fill="none" xmlns="http://www.w3.org/2000/svg">
<path d="M266.542 8.15545C266.542 8.15545 201.408 -15.0008 137.472 21.8695C73.5359 58.7399 41.3157 131.945 13.5723 190.576C-14.1711 249.208 1.81291 308.848 50.6161 336.048C99.4192 363.247 132.585 323.153 201.085 321.199C269.584 319.244 287.964 329.033 344.783 290.358C401.602 251.683 411.864 160.311 367.048 92.7413C322.233 25.1719 266.542 8.15545 266.542 8.15545Z" fill="#E6E6FD"/>
<path opacity="0.7" d="M266.542 8.15545C266.542 8.15545 201.408 -15.0008 137.472 21.8695C73.5359 58.7399 41.3157 131.945 13.5723 190.576C-14.1711 249.208 1.81291 308.848 50.6161 336.048C99.4192 363.247 132.585 323.153 201.085 321.199C269.584 319.244 287.964 329.033 344.783 290.358C401.602 251.683 411.864 160.311 367.048 92.7413C322.233 25.1719 266.542 8.15545 266.542 8.15545Z" fill="white"/>
<path d="M71 164.852V195.822C71 198.514 72.0692 201.095 73.9723 202.998C75.8754 204.901 78.4566 205.97 81.1481 205.97H192.192C194.882 205.969 197.462 204.899 199.363 202.996C201.265 201.093 202.333 198.513 202.333 195.822V169.656L216.161 155.133L81.1871 154.71C79.8517 154.705 78.5284 154.963 77.2931 155.471C76.0578 155.978 74.9348 156.724 73.9884 157.666C73.042 158.608 72.2909 159.728 71.7781 160.961C71.2652 162.194 71.0008 163.516 71 164.852Z" fill="#C5C5C5"/>
<path d="M185.964 173.472L85.2047 173.004L85.2112 169.91L185.977 170.371L185.964 173.472Z" fill="#F5F5F5"/>
<path d="M185.964 183.659L85.2047 183.198L85.2112 180.097L185.977 180.565L185.964 183.659Z" fill="#F5F5F5"/>
<path d="M146.102 190.297L146.087 193.391L185.958 193.586L185.973 190.492L146.102 190.297Z" fill="#E0E0E0"/>
<path d="M173.891 271.858V302.829C173.891 305.521 174.96 308.102 176.864 310.005C178.767 311.908 181.348 312.977 184.039 312.977H295.07C297.76 312.976 300.34 311.906 302.242 310.003C304.143 308.1 305.212 305.52 305.212 302.829V276.663L319.039 262.139L184.059 261.717C182.725 261.714 181.404 261.975 180.171 262.483C178.938 262.992 177.817 263.738 176.873 264.68C175.928 265.622 175.179 266.741 174.667 267.972C174.156 269.204 173.892 270.525 173.891 271.858Z" fill="#C5C5C5"/>
<path d="M289.343 279.673L188.577 279.211L188.584 276.11L289.349 276.578L289.343 279.673Z" fill="#F5F5F5"/>
<path d="M289.343 289.86L188.577 289.398L188.584 286.297L289.349 286.765L289.343 289.86Z" fill="#F5F5F5"/>
<path d="M249.471 296.491L249.456 299.585L289.326 299.78L289.341 296.686L249.471 296.491Z" fill="#F5F5F5"/>
<path d="M130.355 48.1978H195.846C197.397 48.1978 198.886 48.8142 199.983 49.9114C201.08 51.0087 201.697 52.4969 201.697 54.0487V86.0791C201.697 87.6309 201.08 89.1191 199.983 90.2164C198.886 91.3136 197.397 91.9301 195.846 91.9301H140.275C138.723 91.9301 137.235 91.3136 136.138 90.2164C135.041 89.1191 134.424 87.6309 134.424 86.0791V52.2479L130.355 48.1978Z" fill="#F5F5F5"/>
<path d="M168.301 79.3374V99.8806C168.301 101.665 167.592 103.377 166.33 104.638C165.068 105.9 163.357 106.609 161.572 106.609H87.9418C87.0562 106.612 86.1788 106.44 85.3599 106.103C84.5409 105.766 83.7964 105.271 83.169 104.646C82.5417 104.021 82.0437 103.278 81.7036 102.461C81.3635 101.643 81.1881 100.766 81.1872 99.8806V82.5229L72.0468 72.8884L161.572 72.6089C163.357 72.6089 165.068 73.3178 166.33 74.5796C167.592 75.8415 168.301 77.5529 168.301 79.3374Z" fill="#C5C5C5"/>
<path d="M92.0699 85.0518L158.9 84.7462L158.894 82.6919L92.0634 83.0039L92.0699 85.0518Z" fill="#F5F5F5"/>
<path d="M92.0699 91.813L158.9 91.5009L158.894 89.4531L92.0634 89.7587L92.0699 91.813Z" fill="#F5F5F5"/>
<path d="M118.133 96.6172H91.6864V98.6715H118.133V96.6172Z" fill="#F5F5F5"/>
<path d="M307.838 174.584V195.127C307.838 196.912 307.129 198.623 305.868 199.885C304.606 201.147 302.894 201.856 301.11 201.856H227.46C225.675 201.856 223.963 201.147 222.7 199.885C221.437 198.624 220.727 196.912 220.725 195.127V177.77L211.558 168.135L301.084 167.855C301.969 167.853 302.847 168.025 303.666 168.362C304.485 168.699 305.229 169.194 305.857 169.819C306.484 170.444 306.982 171.186 307.322 172.004C307.662 172.822 307.838 173.698 307.838 174.584Z" fill="#C5C5C5"/>
<path d="M231.588 180.305L298.425 179.993L298.412 177.938L231.582 178.251L231.588 180.305Z" fill="#F5F5F5"/>
<path d="M231.588 187.06L298.425 186.754L298.412 184.7L231.582 185.005L231.588 187.06Z" fill="#F5F5F5"/>
<path d="M257.182 192.553H230.736V194.607H257.182V192.553Z" fill="#F5F5F5"/>
<path d="M244.753 276.552C233.746 265.832 233.564 249.248 236.425 234.848C236.906 232.443 237.075 229.849 238.557 227.911C240.039 225.974 242.971 224.967 244.974 226.345C246.631 227.482 247.074 229.699 247.795 231.591C248.757 234.117 250.416 236.317 252.58 237.936C253.991 238.989 255.83 239.789 257.469 239.204C259.744 238.391 260.466 235.55 260.843 233.145C261.545 228.655 262.251 224.167 262.962 219.681C263.339 217.269 263.736 214.812 264.854 212.654C265.972 210.495 267.981 208.642 270.373 208.376C272.766 208.109 275.379 209.891 275.476 212.329C275.403 213.338 275.262 214.341 275.054 215.332C274.956 216.34 275.242 217.523 276.146 217.932C277.05 218.342 278.135 217.848 278.967 217.282C281.847 215.261 284.045 212.413 286.119 209.559C288.192 206.705 290.253 203.767 292.945 201.485C295.636 199.203 299.088 197.617 302.566 197.987C306.044 198.358 309.373 201.082 309.685 204.618C309.997 208.155 307.461 211.269 304.861 213.661C301 217.21 296.647 220.184 291.937 222.49C291.092 222.906 290.175 223.348 289.74 224.193C288.953 225.714 290.214 227.554 291.69 228.341C293.387 229.231 295.357 229.361 297.196 229.894C299.036 230.427 300.934 231.578 301.357 233.47C301.936 236.07 299.459 238.326 297.157 239.685C292.55 242.403 287.51 244.307 282.257 245.315C280.385 245.672 278.428 245.932 276.796 246.946C275.164 247.961 273.955 249.976 274.54 251.809C275.125 253.642 277.245 254.553 279.156 254.514C281.067 254.475 282.888 253.733 284.766 253.356C288.277 252.654 292.509 253.577 294.154 256.782C295.24 258.889 294.934 261.522 293.861 263.647C292.697 265.722 291.127 267.542 289.246 268.998C282.927 274.342 275.327 278.236 267.22 279.64C259.113 281.044 251.897 280.602 244.733 276.565" fill="#F96444"/>
<path d="M242.802 287.266C244.567 280.657 246.962 274.233 249.954 268.081C253.652 260.583 257.776 253.303 262.306 246.277L265.842 240.731C267.006 238.911 268.156 237.104 269.398 235.414C271.787 232.16 274.354 229.041 277.089 226.072C279.689 223.218 282.225 220.611 284.637 218.186C287.048 215.761 289.337 213.557 291.515 211.633C294.929 208.574 298.581 205.792 302.436 203.312C303.801 202.434 304.881 201.784 305.615 201.361L306.46 200.874C306.559 200.812 306.664 200.759 306.772 200.718C306.687 200.791 306.596 200.856 306.499 200.913L305.68 201.433C304.959 201.881 303.899 202.551 302.553 203.455C298.742 205.981 295.128 208.793 291.742 211.867C289.584 213.817 287.315 216.021 284.916 218.446C282.517 220.871 279.982 223.497 277.414 226.345C274.707 229.307 272.163 232.415 269.795 235.654C268.566 237.338 267.422 239.132 266.258 240.953C265.094 242.773 263.924 244.626 262.728 246.498C258.212 253.513 254.088 260.772 250.376 268.244C247.371 274.363 244.946 280.752 243.134 287.324" fill="#263238"/>
<path d="M269.547 235.414C269.49 235.061 269.468 234.704 269.482 234.348C269.482 233.665 269.482 232.67 269.482 231.448C269.535 228.997 269.723 225.597 269.938 221.885C270.152 218.173 270.302 214.786 270.315 212.335C270.315 211.113 270.315 210.125 270.315 209.442C270.286 209.086 270.299 208.729 270.354 208.376C270.434 208.724 270.48 209.079 270.49 209.436C270.555 210.086 270.601 211.106 270.633 212.335C270.698 214.786 270.633 218.186 270.386 221.911C270.139 225.636 269.957 228.919 269.795 231.461C269.736 232.605 269.684 233.574 269.639 234.354C269.65 234.71 269.619 235.065 269.547 235.414Z" fill="#263238"/>
<path d="M301.422 234.698C301.003 234.723 300.583 234.705 300.168 234.646C299.361 234.588 298.217 234.49 296.754 234.425C293.868 234.269 289.883 234.191 285.475 234.295C281.068 234.399 277.089 234.679 274.209 234.946C272.772 235.076 271.609 235.212 270.809 235.303C270.393 235.375 269.97 235.408 269.548 235.401C269.951 235.273 270.364 235.181 270.783 235.128C271.583 234.985 272.733 234.802 274.177 234.627C277.056 234.263 281.048 233.944 285.469 233.827C289.239 233.724 293.013 233.813 296.774 234.094C298.217 234.204 299.374 234.341 300.187 234.458C300.606 234.498 301.019 234.578 301.422 234.698Z" fill="#263238"/>
<path d="M250.454 267.574C250.454 267.574 250.389 267.438 250.305 267.165C250.22 266.892 250.097 266.443 249.954 265.956C249.661 264.909 249.271 263.355 248.816 261.489C247.906 257.699 246.814 252.434 245.683 246.596C244.551 240.758 243.505 235.492 242.673 231.689C242.263 229.843 241.925 228.321 241.678 227.19C241.567 226.703 241.483 226.293 241.411 225.961C241.37 225.82 241.348 225.673 241.346 225.526C241.419 225.656 241.472 225.796 241.502 225.942C241.593 226.267 241.704 226.664 241.847 227.145C242.14 228.191 242.53 229.745 242.985 231.617C243.895 235.401 244.993 240.673 246.118 246.511C247.243 252.349 248.296 257.615 249.128 261.418C249.538 263.264 249.876 264.785 250.123 265.917C250.233 266.404 250.318 266.807 250.389 267.139C250.43 267.281 250.452 267.427 250.454 267.574Z" fill="#263238"/>
<path d="M293.718 261.06C293.578 261.112 293.432 261.145 293.283 261.158L292.021 261.366L287.386 262.068C283.486 262.666 278.083 263.557 272.122 264.538C266.161 265.52 260.752 266.365 256.825 266.879C254.875 267.139 253.269 267.334 252.17 267.444L250.87 267.568C250.724 267.591 250.575 267.591 250.428 267.568C250.569 267.52 250.715 267.487 250.864 267.47L252.118 267.262L256.754 266.56C260.654 265.962 266.063 265.078 272.024 264.09C277.986 263.102 283.395 262.263 287.321 261.749C289.272 261.489 290.871 261.294 291.976 261.184L293.276 261.067C293.422 261.041 293.572 261.039 293.718 261.06Z" fill="#263238"/>
<path d="M135.393 130.371C134.413 129.553 133.666 128.492 133.229 127.293C132.792 126.094 132.679 124.801 132.903 123.545C133.15 122.295 133.642 121.106 134.352 120.048C135.062 118.99 135.975 118.084 137.038 117.382C138.006 116.731 139.209 116.185 140.34 116.517C140.859 116.706 141.317 117.03 141.669 117.455C142.021 117.88 142.254 118.391 142.342 118.935C142.507 120.033 142.377 121.155 141.965 122.186C140.73 125.748 138.884 128.973 135.393 130.39" fill="#455A64"/>
<path d="M132.096 136.455C130.094 134.663 127.693 133.375 125.092 132.696C122.492 132.018 119.767 131.969 117.144 132.555C115.844 132.86 114.316 133.562 114.102 134.908C113.887 136.254 115.083 137.404 116.267 138.094C118.764 139.48 121.616 140.096 124.463 139.865C127.31 139.634 130.025 138.565 132.266 136.793" fill="#455A64"/>
<path d="M113.042 108.28C114.146 108.025 115.291 107.994 116.407 108.188C117.524 108.382 118.59 108.798 119.543 109.411C121.458 110.66 123.059 112.333 124.224 114.3C126.577 118.019 127.409 123.024 127.513 127.425C122.625 127.23 118.451 123.388 116.462 121.302C113.302 118.012 109.597 110.152 113.003 108.3" fill="#455A64"/>
<path d="M139.488 143.106C139.043 142.516 138.635 141.899 138.266 141.26C137.001 138.779 136.076 136.14 135.516 133.413C134.965 130.65 135.176 127.789 136.127 125.137C136.424 124.343 136.82 123.59 137.304 122.894C137.468 122.629 137.672 122.39 137.908 122.186C137.344 123.169 136.857 124.195 136.452 125.254C135.628 127.865 135.471 130.641 135.997 133.328C136.564 136.019 137.437 138.637 138.598 141.129" fill="#263238"/>
<path d="M139.534 143.164L136.985 139.881C134.847 137.105 131.876 133.276 128.534 129.09C125.193 124.903 122.131 121.158 119.907 118.454L117.307 115.203C116.964 114.826 116.656 114.419 116.384 113.988C116.767 114.323 117.124 114.688 117.45 115.08C118.1 115.808 119.056 116.868 120.206 118.194C122.501 120.846 125.615 124.565 128.957 128.752C132.298 132.938 135.217 136.806 137.291 139.641C138.331 141.058 139.157 142.241 139.716 143.015" fill="#263238"/>
<path d="M120.193 135.435C120.459 135.303 120.744 135.215 121.038 135.175C121.373 135.083 121.714 135.017 122.059 134.98C122.513 134.905 122.971 134.855 123.431 134.83C124.63 134.755 125.835 134.8 127.026 134.967C128.481 135.184 129.908 135.557 131.284 136.078C132.653 136.626 133.961 137.317 135.184 138.139C136.173 138.821 137.09 139.601 137.921 140.467C138.246 140.794 138.552 141.139 138.838 141.5C139.073 141.763 139.29 142.041 139.488 142.332C139.807 142.807 139.761 143.028 139.735 143.048C139.101 142.234 138.424 141.455 137.707 140.714C136.859 139.902 135.941 139.167 134.963 138.516C133.759 137.742 132.481 137.088 131.147 136.566C129.803 136.056 128.411 135.679 126.993 135.441C125.833 135.256 124.657 135.178 123.483 135.207C121.428 135.227 120.193 135.526 120.193 135.435Z" fill="#263238"/>
<path d="M229.241 301.315L154.155 300.964C149.823 300.938 145.678 299.194 142.631 296.115C139.584 293.036 137.883 288.874 137.902 284.542L138.695 96.2924C138.714 91.9578 140.453 87.8079 143.529 84.7544C146.606 81.7009 150.769 79.9936 155.104 80.0074L230.19 80.352C234.522 80.3812 238.666 82.127 241.712 85.2065C244.759 88.2861 246.46 92.4481 246.443 96.78L245.663 285.023C245.644 289.361 243.904 293.513 240.824 296.568C237.745 299.623 233.579 301.33 229.241 301.315Z" fill="#263238"/>
<path d="M230.06 86.853L215.498 86.7815C215.023 86.7899 214.555 86.8918 214.119 87.0813C213.684 87.2708 213.29 87.5443 212.961 87.8859C212.631 88.2276 212.372 88.6309 212.198 89.0728C212.025 89.5146 211.94 89.9863 211.948 90.461V93.1004C211.957 93.5751 211.872 94.0469 211.698 94.4887C211.524 94.9306 211.265 95.3338 210.936 95.6755C210.606 96.0172 210.212 96.2906 209.777 96.4802C209.342 96.6697 208.873 96.7716 208.399 96.78L180.022 96.65C179.063 96.6228 178.155 96.2167 177.496 95.5209C176.837 94.825 176.48 93.8962 176.505 92.9379V90.2985C176.529 89.3392 176.172 88.4093 175.511 87.7133C174.85 87.0173 173.94 86.612 172.981 86.5864H167.865L155.123 86.5279C152.084 86.5158 149.164 87.7107 147.005 89.85C144.846 91.9892 143.625 94.898 143.61 97.9372L142.836 281.675C142.824 284.713 144.018 287.631 146.156 289.788C148.294 291.946 151.201 293.167 154.239 293.182L229.176 293.527C230.68 293.533 232.171 293.244 233.563 292.675C234.956 292.105 236.222 291.267 237.291 290.208C238.359 289.15 239.209 287.891 239.791 286.503C240.373 285.116 240.676 283.628 240.683 282.124L241.456 98.3793C241.467 96.8734 241.181 95.3802 240.614 93.9852C240.047 92.5903 239.21 91.321 238.151 90.2501C237.092 89.1793 235.833 88.328 234.444 87.745C233.056 87.1621 231.566 86.8589 230.06 86.853Z" fill="#FAFAFA"/>
<path d="M187.673 275.909C187.721 276.225 187.671 276.549 187.529 276.836C187.387 277.123 187.161 277.36 186.881 277.515C186.6 277.669 186.279 277.734 185.961 277.701C185.642 277.667 185.342 277.537 185.099 277.328C184.857 277.118 184.685 276.84 184.606 276.529C184.527 276.219 184.545 275.892 184.658 275.592C184.77 275.292 184.972 275.034 185.236 274.852C185.499 274.671 185.812 274.574 186.133 274.576C186.513 274.553 186.887 274.679 187.175 274.928C187.463 275.177 187.642 275.529 187.673 275.909Z" fill="#455A64"/>
<path d="M192.465 275.935C192.512 276.251 192.46 276.575 192.317 276.861C192.175 277.147 191.948 277.383 191.667 277.537C191.386 277.69 191.065 277.754 190.747 277.72C190.429 277.686 190.129 277.555 189.887 277.345C189.646 277.135 189.474 276.856 189.396 276.546C189.318 276.235 189.336 275.909 189.449 275.609C189.562 275.31 189.764 275.052 190.028 274.871C190.291 274.69 190.604 274.594 190.924 274.595C191.306 274.572 191.681 274.699 191.969 274.95C192.257 275.2 192.435 275.554 192.465 275.935Z" fill="#455A64"/>
<path d="M197.256 275.954C197.304 276.271 197.254 276.594 197.112 276.882C196.97 277.169 196.744 277.406 196.463 277.56C196.183 277.715 195.862 277.78 195.543 277.746C195.225 277.713 194.924 277.583 194.682 277.373C194.44 277.164 194.268 276.885 194.189 276.574C194.11 276.264 194.128 275.937 194.24 275.637C194.353 275.337 194.554 275.079 194.818 274.898C195.082 274.716 195.395 274.62 195.715 274.621C196.096 274.596 196.471 274.722 196.759 274.971C197.048 275.221 197.226 275.574 197.256 275.954Z" fill="#455A64"/>
<path d="M166.039 175.429C167.261 175.605 240.917 190.05 240.917 190.05V175.429H166.039Z" fill="#EBEBEB"/>
<path d="M142.862 268.263C142.862 268.263 222.994 256.925 222.292 257.277C221.589 257.628 142.862 257.277 142.862 257.277V268.263Z" fill="#EBEBEB"/>
<path d="M235.911 53.7368C236.002 53.7368 236.08 57.7869 236.08 62.7797C236.08 67.7725 236.002 71.8291 235.911 71.8291C235.82 71.8291 235.742 67.779 235.742 62.7797C235.742 57.7804 235.82 53.7368 235.911 53.7368Z" fill="#263238"/>
<path d="M267.981 74.5594C268.02 74.6439 264.34 76.3472 259.77 78.3625C255.2 80.3778 251.462 81.9511 251.423 81.8601C251.384 81.7691 255.063 80.0723 259.634 78.057C264.204 76.0417 267.942 74.4684 267.981 74.5594Z" fill="#263238"/>
<path d="M267.168 42.9775C267.13 43.1024 267.073 43.2207 266.999 43.3286C266.85 43.5756 266.668 43.8942 266.44 44.2842C265.953 45.1164 265.231 46.3061 264.321 47.7623C262.501 50.6877 259.881 54.6534 256.91 58.983C253.939 63.3127 251.299 67.2588 249.427 70.1453C248.51 71.556 247.763 72.7457 247.217 73.5648L246.606 74.4879C246.541 74.6012 246.462 74.706 246.372 74.8C246.42 74.6781 246.479 74.5606 246.547 74.4489C246.697 74.2019 246.879 73.8833 247.106 73.4933C247.587 72.6612 248.315 71.478 249.226 70.0152C251.046 67.0898 253.666 63.1242 256.63 58.7945C259.595 54.4648 262.247 50.5447 264.119 47.6388L266.33 44.2127L266.941 43.2896C267.008 43.1795 267.084 43.0751 267.168 42.9775Z" fill="#263238"/>
<path d="M312.123 119.514H165.557C164.805 119.514 164.059 119.663 163.364 119.951C162.669 120.239 162.037 120.661 161.505 121.194C160.973 121.726 160.551 122.359 160.264 123.054C159.977 123.75 159.829 124.495 159.83 125.248V170.71C159.829 171.462 159.977 172.208 160.264 172.903C160.551 173.599 160.973 174.231 161.505 174.764C162.037 175.296 162.669 175.719 163.364 176.007C164.059 176.295 164.805 176.444 165.557 176.444H176.479C177.357 181.189 178.384 187.177 178.384 187.177L188.265 176.444H312.123C312.875 176.444 313.621 176.295 314.316 176.007C315.011 175.719 315.643 175.296 316.175 174.764C316.707 174.231 317.128 173.599 317.416 172.903C317.703 172.208 317.851 171.462 317.85 170.71V125.248C317.851 124.495 317.703 123.75 317.416 123.054C317.128 122.359 316.707 121.726 316.175 121.194C315.643 120.661 315.011 120.239 314.316 119.951C313.621 119.663 312.875 119.514 312.123 119.514Z" fill="#F96444"/>
<path d="M251.65 144.159C251.65 144.25 234.208 144.328 212.696 144.328C191.185 144.328 173.736 144.25 173.736 144.159C173.736 144.068 191.178 143.984 212.696 143.984C234.215 143.984 251.65 144.081 251.65 144.159Z" fill="#F5F5F5"/>
<path d="M251.65 137.191C251.65 137.282 234.208 137.36 212.696 137.36C191.185 137.36 173.736 137.282 173.736 137.191C173.736 137.099 191.178 137.021 212.696 137.021C234.215 137.021 251.65 137.093 251.65 137.191Z" fill="#F5F5F5"/>
<path d="M251.65 151.089C251.65 151.18 234.208 151.258 212.696 151.258C191.185 151.258 173.736 151.18 173.736 151.089C173.736 150.998 191.178 150.92 212.696 150.92C234.215 150.92 251.65 150.992 251.65 151.089Z" fill="#F5F5F5"/>
<path d="M224.769 158.247C224.769 158.338 213.347 158.416 199.252 158.416C185.158 158.416 173.736 158.338 173.736 158.247C173.736 158.156 185.158 158.078 199.252 158.078C213.347 158.078 224.769 158.15 224.769 158.247Z" fill="#F5F5F5"/>
<path d="M245.897 201.251H98.1355C97.6079 201.251 97.0854 201.354 96.598 201.556C96.1105 201.757 95.6677 202.053 95.295 202.427C94.9222 202.8 94.627 203.243 94.4261 203.731C94.2252 204.219 94.1226 204.742 94.1244 205.269V253.377C94.1244 254.44 94.547 255.461 95.2992 256.213C96.0514 256.965 97.0717 257.388 98.1355 257.388H205.454L215.206 268.004C215.206 268.004 216.226 262.036 217.091 257.388H245.877C246.941 257.388 247.962 256.965 248.714 256.213C249.466 255.461 249.889 254.44 249.889 253.377V205.269C249.89 204.743 249.788 204.222 249.589 203.736C249.389 203.249 249.096 202.807 248.725 202.434C248.354 202.061 247.914 201.764 247.429 201.561C246.943 201.358 246.423 201.253 245.897 201.251Z" fill="#9492E3"/>
<path d="M240.104 226.072C240.104 226.163 222.662 226.241 201.144 226.241C179.625 226.241 162.183 226.163 162.183 226.072C162.183 225.981 179.625 225.903 201.144 225.903C222.662 225.903 240.104 225.955 240.104 226.072Z" fill="#F5F5F5"/>
<path d="M240.104 219.064C240.104 219.155 222.662 219.233 201.144 219.233C179.625 219.233 162.183 219.155 162.183 219.064C162.183 218.973 179.625 218.895 201.144 218.895C222.662 218.895 240.104 218.967 240.104 219.064Z" fill="#F5F5F5"/>
<path d="M240.104 232.963C240.104 233.054 222.662 233.132 201.144 233.132C179.625 233.132 162.183 233.054 162.183 232.963C162.183 232.872 179.625 232.794 201.144 232.794C222.662 232.794 240.104 232.872 240.104 232.963Z" fill="#F5F5F5"/>
<path d="M213.223 240.121C213.223 240.218 201.8 240.29 187.706 240.29C173.612 240.29 162.183 240.218 162.183 240.121C162.183 240.023 173.612 239.952 187.706 239.952C201.8 239.952 213.223 240.03 213.223 240.121Z" fill="#F5F5F5"/>
<path d="M275.274 100.232C275.365 99.036 274.299 97.3912 273.324 96.4421C272.759 95.9329 272.355 95.2695 272.162 94.5338C271.97 93.798 271.996 93.0219 272.239 92.3009C272.635 90.8252 273.571 90.9357 273.942 90.0646C274.122 89.3911 274.194 88.6934 274.156 87.9973C274.233 87.4092 274.431 86.8434 274.737 86.3351C275.042 85.8267 275.449 85.3869 275.932 85.0428C276.415 84.6988 276.964 84.458 277.545 84.3355C278.125 84.2129 278.724 84.2113 279.305 84.3307C279.628 83.177 280.29 82.147 281.206 81.3745C282.121 80.6019 283.248 80.1225 284.44 79.9984C285.631 79.8744 286.833 80.1114 287.888 80.6788C288.943 81.2461 289.803 82.1176 290.357 83.18C291.03 82.8381 291.777 82.6672 292.532 82.6824C293.286 82.6976 294.026 82.8986 294.684 83.2675C295.343 83.6363 295.901 84.1618 296.308 84.7973C296.716 85.4329 296.96 86.1591 297.02 86.9116C297.703 86.4763 298.519 86.3023 299.32 86.4218C300.12 86.5413 300.851 86.9461 301.376 87.5617C301.869 88.2057 302.162 88.9807 302.218 89.79C302.273 90.5994 302.089 91.4071 301.688 92.1124C301.276 92.8119 300.711 93.4092 300.036 93.8595C299.36 94.3099 298.592 94.6016 297.787 94.7128C296.175 94.9177 294.538 94.6203 293.1 93.8612C291.669 93.1072 290.369 92.1257 289.252 90.9552" fill="#263238"/>
<path d="M285.904 174.942C301.446 174.942 314.046 162.636 314.046 147.456C314.046 132.275 301.446 119.969 285.904 119.969C270.361 119.969 257.761 132.275 257.761 147.456C257.761 162.636 270.361 174.942 285.904 174.942Z" fill="#E0E0E0"/>
<path d="M314.164 147.475L311.05 139.492L299.887 146.506L309.834 161.842C309.834 161.842 313.878 156.589 314.164 147.475Z" fill="#EB996E"/>
<path d="M283.368 130.182C285.291 130.194 287.145 129.465 288.545 128.147C289.945 126.829 290.785 125.023 290.89 123.103C291.053 119.794 291.196 116.602 291.196 116.602C291.196 116.602 297.333 116.16 297.898 110.153C298.464 104.146 298.548 90.2662 298.548 90.2662C295.219 88.5186 291.486 87.6839 287.729 87.8472C283.972 88.0105 280.325 89.1659 277.16 91.1959L276.575 91.5664L275.866 122.641C275.859 123.63 276.048 124.611 276.423 125.526C276.797 126.442 277.348 127.274 278.046 127.975C278.743 128.676 279.573 129.232 280.486 129.611C281.4 129.99 282.379 130.184 283.368 130.182Z" fill="#FFBE9D"/>
<path d="M286.866 99.5103C287.028 99.5673 287.169 99.6707 287.272 99.8075C287.375 99.9444 287.436 100.109 287.446 100.28C287.456 100.451 287.416 100.621 287.33 100.769C287.244 100.917 287.116 101.037 286.962 101.113C286.809 101.189 286.636 101.218 286.466 101.196C286.296 101.174 286.136 101.103 286.007 100.991C285.877 100.879 285.783 100.731 285.737 100.566C285.691 100.401 285.695 100.226 285.748 100.063C285.823 99.8417 285.983 99.6594 286.193 99.5559C286.402 99.4523 286.644 99.4359 286.866 99.5103Z" fill="#263238"/>
<path d="M288.569 99.8227C288.465 99.9202 287.919 99.4261 287.061 99.3741C286.203 99.3221 285.592 99.7122 285.507 99.6016C285.423 99.4911 285.572 99.3676 285.845 99.1856C286.219 98.9497 286.659 98.8403 287.1 98.8735C287.539 98.9032 287.956 99.0743 288.29 99.3611C288.517 99.5821 288.602 99.7772 288.569 99.8227Z" fill="#263238"/>
<path d="M296.032 99.5103C296.194 99.5673 296.335 99.6707 296.438 99.8075C296.541 99.9444 296.602 100.109 296.612 100.28C296.622 100.451 296.582 100.621 296.496 100.769C296.41 100.917 296.282 101.037 296.128 101.113C295.975 101.189 295.802 101.218 295.632 101.196C295.462 101.174 295.302 101.103 295.173 100.991C295.043 100.879 294.949 100.731 294.903 100.566C294.857 100.401 294.861 100.226 294.914 100.063C294.989 99.8417 295.149 99.6594 295.359 99.5559C295.568 99.4523 295.811 99.4359 296.032 99.5103Z" fill="#263238"/>
<path d="M297.826 99.8355C297.729 99.9395 297.176 99.4454 296.318 99.3934C295.46 99.3414 294.849 99.7315 294.764 99.621C294.68 99.5104 294.829 99.3869 295.109 99.2049C295.48 98.9682 295.918 98.8587 296.357 98.8928C296.797 98.9239 297.217 99.0947 297.553 99.3804C297.8 99.6015 297.878 99.7965 297.826 99.8355Z" fill="#263238"/>
<path d="M291.521 106.33C291.964 106.193 292.428 106.134 292.892 106.155C293.113 106.155 293.289 106.116 293.315 105.999C293.345 105.776 293.309 105.55 293.211 105.349C293.042 104.783 292.866 104.211 292.684 103.613C291.969 101.142 291.495 99.114 291.618 99.062C291.742 99.01 292.431 101.012 293.146 103.47C293.315 104.068 293.471 104.646 293.633 105.212C293.751 105.501 293.767 105.822 293.679 106.122C293.64 106.203 293.582 106.274 293.511 106.329C293.44 106.385 293.357 106.423 293.269 106.441C293.144 106.456 293.017 106.456 292.892 106.441C292.432 106.482 291.968 106.445 291.521 106.33Z" fill="#263238"/>
<path d="M291.169 116.524C288.369 116.35 285.682 115.353 283.446 113.657C283.446 113.657 284.961 118.136 291.059 118.084L291.169 116.524Z" fill="#EB996E"/>
<path d="M276.393 100.395C276.398 100.159 276.312 99.9298 276.152 99.7563C275.992 99.5829 275.771 99.4784 275.535 99.465C274.404 99.413 272.544 99.8226 272.284 102.917C271.946 107.338 276.263 106.317 276.282 106.168C276.302 106.018 276.373 102.117 276.393 100.395Z" fill="#FFBE9D"/>
<path d="M275.359 104.432C275.359 104.432 275.275 104.484 275.138 104.53C275.046 104.568 274.948 104.587 274.849 104.587C274.749 104.587 274.651 104.568 274.559 104.53C274.285 104.328 274.07 104.056 273.936 103.743C273.802 103.429 273.755 103.086 273.799 102.748C273.815 102.368 273.917 101.997 274.098 101.663C274.154 101.526 274.242 101.404 274.355 101.309C274.469 101.214 274.603 101.148 274.748 101.116C274.839 101.098 274.934 101.113 275.015 101.159C275.096 101.204 275.158 101.276 275.19 101.364C275.242 101.487 275.19 101.578 275.229 101.585C275.268 101.591 275.333 101.52 275.307 101.331C275.291 101.22 275.236 101.119 275.151 101.045C275.037 100.943 274.888 100.89 274.735 100.895C274.547 100.919 274.368 100.992 274.216 101.106C274.065 101.22 273.946 101.371 273.87 101.546C273.647 101.911 273.522 102.327 273.506 102.755C273.456 103.148 273.523 103.547 273.698 103.902C273.874 104.257 274.151 104.552 274.494 104.751C274.612 104.793 274.738 104.809 274.862 104.798C274.987 104.787 275.108 104.748 275.216 104.686C275.34 104.543 275.372 104.445 275.359 104.432Z" fill="#EB996E"/>
<path d="M284.59 97.4629C284.811 97.749 285.578 97.619 286.58 97.5735C287.581 97.528 288.354 97.5345 288.53 97.2224C288.705 96.9104 287.776 96.1627 286.489 96.2733C285.201 96.3838 284.343 97.1704 284.59 97.4629Z" fill="#263238"/>
<path d="M294.329 97.1701C294.446 97.5537 295.18 97.6707 295.993 97.6642C296.805 97.6577 297.534 97.5147 297.644 97.1246C297.755 96.7345 296.994 96.2079 295.973 96.2209C294.953 96.2339 294.205 96.793 294.329 97.1701Z" fill="#263238"/>
<path d="M299.374 92.1513C299.374 92.1513 295.727 93.9196 290.988 91.5532C287.874 89.9995 284.253 89.2389 283.453 89.863C282.653 90.4871 282.484 93.6986 279.403 94.6347C279.403 94.6347 279.611 100.746 277.173 100.531C274.735 100.317 276.256 90.8511 276.256 90.8511L282.224 87.9387L288.725 86.71L294.856 87.5746L299.601 88.8748L299.374 92.1513Z" fill="#263238"/>
<path d="M258.541 127.569C264.918 121.01 276.139 121.718 276.139 121.718L285.442 128.382L290.714 122.238C294.452 122.747 298.081 123.87 301.454 125.56L301.811 125.671V125.742C305.894 127.959 311.667 133.277 317.173 138.432L310.588 144.543L303.294 151.044C303.31 151.086 303.31 151.133 303.294 151.174C303.222 151.571 304.308 160.471 305.426 167.232C302.251 170.363 298.362 172.673 294.094 173.964C289.826 175.254 285.308 175.485 280.93 174.636C277.946 174.11 276.503 173.388 273.74 172.686C271.749 172.158 269.97 171.029 268.645 169.453C267.319 167.876 266.513 165.929 266.335 163.877C265.841 158.208 265.464 151.187 265.464 151.187" fill="#9492E3"/>
<path d="M296.546 123.389C296.709 123.726 296.844 124.076 296.949 124.435C297.189 125.085 297.508 126.106 297.891 127.335C298.659 129.792 299.64 133.186 300.563 137.041C301.487 140.896 302.182 144.361 302.618 146.896C302.839 148.197 303.001 149.198 303.099 149.913C303.168 150.28 303.21 150.651 303.222 151.024C303.108 150.668 303.023 150.303 302.969 149.932C302.819 149.172 302.624 148.164 302.384 146.942C301.883 144.419 301.155 140.941 300.232 137.119C299.309 133.296 298.373 129.857 297.67 127.406L296.825 124.474C296.707 124.119 296.613 123.757 296.546 123.389Z" fill="#263238"/>
<path d="M302.533 146.825C302.474 146.754 305.257 144.387 308.748 141.546C312.239 138.705 315.112 136.456 315.171 136.528C315.23 136.599 312.454 138.965 308.962 141.806C305.471 144.647 302.598 146.897 302.533 146.825Z" fill="#263238"/>
<path opacity="0.2" d="M266.96 136.566L261.265 155.335L263.391 156.44L265.484 151.135C265.484 151.135 267.617 139.979 266.96 136.566Z" fill="black"/>
<g opacity="0.2">
<path opacity="0.2" d="M295.928 123.402C299.003 125.02 291.293 128.921 287.815 128.817L290.344 122.147C290.344 122.147 294.895 122.856 295.928 123.402Z" fill="black"/>
</g>
<path d="M275.223 122.147V117.174C275.223 117.174 284.929 119.677 285.28 125.482C285.28 125.482 286.515 119.059 291.521 118.754L292.229 127.783L286.378 132.854H280.508L275.834 128.817L275.223 122.55" fill="#9492E3"/>
<path d="M287.471 153.346C287.437 152.991 287.437 152.634 287.471 152.279C287.471 151.59 287.471 150.596 287.503 149.367C287.503 146.916 287.432 143.516 287.126 139.791C286.821 136.066 286.326 132.698 285.917 130.28C285.709 129.116 285.533 128.154 285.403 127.42C285.319 127.072 285.267 126.717 285.247 126.36C285.369 126.697 285.465 127.042 285.533 127.394C285.702 128.044 285.917 129.032 286.151 130.241C286.752 133.39 287.186 136.57 287.451 139.765C287.714 142.961 287.805 146.168 287.724 149.373C287.692 150.602 287.646 151.597 287.588 152.286C287.574 152.641 287.535 152.996 287.471 153.346Z" fill="#263238"/>
<path d="M284.838 123.811C284.643 123.778 284.444 123.796 284.259 123.863C283.782 124.132 283.432 124.578 283.284 125.105C282.482 126.839 281.857 128.648 281.418 130.507L281.366 130.728L281.171 130.611C280.592 130.26 279.994 129.883 279.396 129.48C278.306 128.738 277.256 127.94 276.25 127.088C275.792 126.706 275.425 126.226 275.177 125.684C274.982 125.206 274.872 124.698 274.852 124.182C274.832 123.452 274.905 122.722 275.067 122.01C275.105 121.745 275.177 121.485 275.281 121.237C275.273 121.503 275.245 121.768 275.197 122.03C275.086 122.737 275.051 123.454 275.093 124.169C275.124 124.651 275.24 125.125 275.437 125.566C275.675 126.071 276.024 126.516 276.458 126.867C277.374 127.634 278.441 128.427 279.585 129.207C280.183 129.61 280.768 129.994 281.347 130.345L281.099 130.449C281.534 128.581 282.189 126.772 283.05 125.059C283.182 124.759 283.353 124.477 283.557 124.221C283.717 124.022 283.932 123.875 284.174 123.798C284.668 123.642 284.851 123.805 284.838 123.811Z" fill="#263238"/>
<path d="M291.521 118.753C291.58 119.007 291.61 119.267 291.612 119.527L291.768 121.646C291.839 122.537 291.95 123.597 292.132 124.76C292.288 125.385 292.328 126.033 292.249 126.672C292.003 127.342 291.547 127.914 290.949 128.303C290.189 128.775 289.475 129.317 288.816 129.922L288.556 130.215V129.825C288.438 128.126 287.948 126.475 287.119 124.988C286.502 123.876 285.995 123.311 286.034 123.278C286.073 123.246 286.19 123.395 286.417 123.662C286.744 124.045 287.04 124.454 287.301 124.884C288.206 126.378 288.747 128.064 288.881 129.805L288.595 129.708C289.263 129.077 289.993 128.515 290.773 128.03C291.301 127.683 291.706 127.178 291.93 126.587C291.998 125.992 291.963 125.389 291.826 124.806C291.664 123.629 291.579 122.557 291.534 121.659C291.488 120.762 291.482 120.034 291.488 119.534C291.466 119.273 291.477 119.011 291.521 118.753Z" fill="#263238"/>
<path d="M322.771 120.002C322.374 120.464 308.072 139.609 308.072 139.609L310.087 140.753L324.753 121.9L322.771 120.002Z" fill="#263238"/>
<path d="M265.347 135.11C265.347 135.11 280.384 156.758 281.294 157.181C283.076 158.019 303.645 140.246 305.608 138.542C305.881 138.178 306.44 137.418 307.558 135.903C307.558 135.903 309.184 128.479 310.913 129.044C312.642 129.61 309.964 132.822 311.095 135.643C312.226 138.464 317.388 131.742 317.596 131.131L318.929 129.389C318.929 129.389 320.326 133.348 320.229 135.006C319.923 140.304 314.911 146.604 314.911 146.604C314.911 146.604 292.398 174.493 276.978 175.358C272.537 175.605 264.626 163.006 259.366 153.553C257.83 150.793 257.357 147.566 258.036 144.482C258.715 141.397 260.5 138.667 263.052 136.807L265.347 135.11Z" fill="#FFBE9D"/>
<path d="M317.674 135.942C317.962 135.276 318.283 134.625 318.636 133.992C318.926 133.325 319.252 132.674 319.612 132.042C319.202 133.449 318.541 134.77 317.661 135.942H317.674Z" fill="#EB996E"/>
<path d="M262.806 124.546C262.806 124.546 246.664 130.286 258.664 157.428L277.296 146.181L274.644 139.836L262.806 124.546Z" fill="#9492E3"/>
<path d="M261.57 125.021C262.225 124.96 262.885 125.015 263.52 125.183C264.264 125.376 264.976 125.676 265.633 126.074C266.502 126.615 267.294 127.271 267.987 128.024C269.747 129.99 271.222 132.194 272.368 134.571C273.734 137.21 275.008 140.22 276.314 143.373C276.705 144.322 277.095 145.252 277.459 146.136L277.517 146.279L277.381 146.35C271.991 149.289 267.298 152.039 263.982 154.1C262.318 155.127 260.998 155.972 260.081 156.557L259.041 157.207C258.922 157.29 258.796 157.362 258.664 157.422C258.768 157.321 258.881 157.232 259.002 157.155C259.23 156.986 259.568 156.739 260.016 156.433C260.901 155.783 262.207 154.938 263.852 153.885C267.142 151.772 271.822 148.977 277.218 146.032L277.14 146.24C276.776 145.356 276.386 144.426 275.996 143.477C274.696 140.324 273.396 137.321 272.095 134.688C270.971 132.337 269.532 130.15 267.818 128.187C267.148 127.44 266.383 126.784 265.542 126.236C264.899 125.833 264.204 125.52 263.475 125.307C262.849 125.157 262.212 125.062 261.57 125.021Z" fill="#263238"/>
<path d="M296.286 84.7793C296.327 84.8699 296.353 84.9664 296.364 85.0653C296.413 85.342 296.431 85.6234 296.416 85.904C296.354 86.9597 295.915 87.9582 295.181 88.7189C294.623 89.2758 293.925 89.6718 293.16 89.8651C292.396 90.0585 291.594 90.0421 290.838 89.8176C289.923 89.5741 289.131 88.9996 288.615 88.2053C288.342 87.767 288.225 87.2492 288.283 86.7361C288.313 86.4686 288.399 86.2106 288.537 85.9796C288.675 85.7485 288.861 85.5498 289.083 85.3969C289.314 85.2514 289.577 85.1658 289.85 85.1476C290.122 85.1294 290.395 85.1794 290.643 85.2929C291.125 85.4973 291.508 85.8824 291.709 86.3655C291.87 86.8162 291.914 87.3 291.839 87.7724C291.764 88.2449 291.572 88.691 291.28 89.07C290.792 89.7018 290.097 90.1409 289.316 90.3098C288.536 90.4787 287.721 90.3665 287.015 89.9931C286.506 89.7265 285.967 89.5214 285.41 89.382C284.993 89.2881 284.557 89.3338 284.168 89.512C283.843 89.6876 283.534 89.8922 283.245 90.1231C283.245 90.1231 283.303 90.0386 283.433 89.8956C283.514 89.8062 283.603 89.7256 283.7 89.6551C283.827 89.5494 283.967 89.4598 284.116 89.3885C284.518 89.1877 284.973 89.1195 285.416 89.1935C285.995 89.3186 286.556 89.5151 287.087 89.7786C287.388 89.9114 287.702 90.0137 288.023 90.0841C288.369 90.1488 288.724 90.1488 289.07 90.0841C289.848 89.9605 290.548 89.5384 291.02 88.9074C291.277 88.5715 291.446 88.1768 291.512 87.759C291.578 87.3413 291.538 86.9137 291.397 86.5151C291.32 86.3135 291.201 86.1305 291.048 85.9779C290.895 85.8253 290.712 85.7065 290.51 85.6293C290.308 85.552 290.093 85.518 289.877 85.5295C289.661 85.541 289.451 85.5977 289.258 85.6959C289.079 85.8245 288.928 85.9892 288.816 86.1796C288.704 86.37 288.633 86.5817 288.608 86.8011C288.562 87.2395 288.663 87.6808 288.894 88.0558C289.366 88.7819 290.088 89.3094 290.923 89.538C291.628 89.7541 292.378 89.7783 293.095 89.6081C293.813 89.4378 294.472 89.0792 295.005 88.5694C295.72 87.8573 296.168 86.9206 296.273 85.917C296.301 85.5384 296.305 85.1584 296.286 84.7793Z" fill="#455A64"/>
<path d="M292.768 109.295C292.768 109.334 292.573 109.425 292.216 109.438C291.747 109.444 291.284 109.337 290.865 109.127C290.447 108.916 290.085 108.608 289.81 108.228C289.615 107.929 289.557 107.715 289.596 107.695C290.024 108.128 290.502 108.507 291.02 108.826C291.582 109.052 292.169 109.209 292.768 109.295Z" fill="#263238"/>
<path d="M275.723 106.454C275.756 106.454 275.938 106.74 275.723 107.188C275.655 107.315 275.563 107.427 275.451 107.517C275.339 107.608 275.211 107.675 275.073 107.715C274.896 107.754 274.712 107.751 274.537 107.705C274.361 107.658 274.2 107.57 274.065 107.448C273.919 107.329 273.802 107.176 273.724 107.004C273.646 106.831 273.609 106.643 273.617 106.454C273.628 106.168 273.733 105.894 273.916 105.674C274.228 105.309 274.566 105.27 274.566 105.309C274.566 105.348 274.332 105.472 274.124 105.817C273.991 106.016 273.933 106.257 273.962 106.495C273.99 106.734 274.103 106.954 274.28 107.117C274.375 107.204 274.489 107.268 274.613 107.305C274.737 107.342 274.867 107.351 274.995 107.331C275.209 107.283 275.399 107.158 275.528 106.98C275.736 106.714 275.671 106.454 275.723 106.454Z" fill="#263238"/>
<path d="M297.358 86.9507C297.572 87.3123 297.68 87.7268 297.67 88.1469C297.722 89.1736 297.374 90.1804 296.701 90.9569C296.027 91.7335 295.079 92.2197 294.056 92.314C293.641 92.385 293.215 92.3353 292.827 92.171C292.827 92.1125 293.302 92.171 294.023 92.0735C294.96 91.9295 295.816 91.459 296.439 90.7453C297.062 90.0315 297.413 89.1204 297.43 88.1729C297.449 87.4318 297.3 86.9832 297.358 86.9507Z" fill="#455A64"/>
<path d="M275.372 141.364C275.411 141.448 271.127 143.652 265.796 146.285C260.465 148.918 256.116 150.992 256.045 150.907C255.973 150.823 260.283 148.619 265.614 145.98C270.945 143.34 275.333 141.279 275.372 141.364Z" fill="#E0E0E0"/>
<path d="M271.465 133.992C271.51 134.07 267.694 136.209 262.942 138.757C258.19 141.305 254.302 143.308 254.263 143.223C254.224 143.139 258.034 141.006 262.786 138.458C267.538 135.91 271.419 133.907 271.465 133.992Z" fill="#E0E0E0"/>
<path d="M267.688 128.03C267.081 128.451 266.444 128.827 265.783 129.155L261.115 131.755L256.474 134.408C255.849 134.805 255.198 135.157 254.523 135.461C255.098 134.991 255.711 134.572 256.357 134.206C257.514 133.472 259.132 132.496 260.953 131.463C262.773 130.429 264.45 129.558 265.679 128.947C266.321 128.585 266.993 128.278 267.688 128.03Z" fill="#E0E0E0"/>
<path d="M281.971 126.607C281.531 126.586 281.101 126.471 280.709 126.269C279.757 125.842 278.879 125.264 278.109 124.559C277.337 123.854 276.628 123.084 275.99 122.257C275.698 121.939 275.451 121.583 275.255 121.198C275.294 121.198 275.632 121.516 276.172 122.108C276.711 122.699 277.439 123.506 278.337 124.305C279.092 124.992 279.933 125.577 280.839 126.048C281.509 126.418 281.984 126.568 281.971 126.607Z" fill="#E0E0E0"/>
<path d="M291.449 123.096C291.234 123.88 290.76 124.568 290.103 125.046C289.521 125.615 288.762 125.966 287.952 126.041C288.625 125.661 289.276 125.242 289.902 124.786C290.446 124.249 290.962 123.685 291.449 123.096Z" fill="#E0E0E0"/>
<path d="M308.358 132.88C308.24 132.916 308.118 132.938 307.994 132.945L306.948 133.075C306.037 133.179 304.718 133.303 303.092 133.433C299.842 133.693 295.291 133.946 290.331 134.128C285.371 134.31 280.826 134.369 277.55 134.343C275.918 134.343 274.592 134.297 273.682 134.265L272.629 134.213C272.506 134.213 272.384 134.198 272.265 134.167C272.386 134.152 272.508 134.152 272.629 134.167H273.682L277.55 134.135C280.8 134.102 285.351 133.998 290.318 133.823C295.285 133.647 299.809 133.42 303.073 133.225L306.935 132.978L307.988 132.913C308.109 132.885 308.234 132.874 308.358 132.88Z" fill="#E0E0E0"/>
<path d="M303.223 140.591C302.872 140.671 302.515 140.727 302.157 140.76C301.461 140.844 300.46 140.948 299.225 141.065C296.748 141.293 293.322 141.527 289.532 141.683C285.741 141.839 282.302 141.871 279.78 141.845C278.538 141.845 277.531 141.806 276.835 141.78C276.474 141.783 276.113 141.755 275.756 141.696C276.114 141.653 276.475 141.635 276.835 141.644L279.78 141.605C282.263 141.605 285.696 141.494 289.48 141.345C293.263 141.195 296.696 140.994 299.173 140.825L302.111 140.623C302.48 140.577 302.852 140.566 303.223 140.591Z" fill="#E0E0E0"/>
<path d="M291.566 150.095C290.859 150.258 290.139 150.36 289.414 150.4C288.075 150.537 286.229 150.686 284.181 150.79C282.133 150.894 280.28 150.927 278.935 150.92C278.21 150.955 277.483 150.926 276.763 150.836C277.48 150.727 278.203 150.674 278.928 150.68L284.161 150.452L289.362 150.16C290.094 150.088 290.831 150.066 291.566 150.095Z" fill="#E0E0E0"/>
<path d="M276.672 127.536C276.672 127.634 274.676 127.654 272.219 127.758C269.761 127.862 267.779 127.998 267.766 127.901C270.705 127.381 273.7 127.258 276.672 127.536Z" fill="#E0E0E0"/>
<path d="M304.093 127.186C302.173 127.344 300.246 127.391 298.32 127.329C296.392 127.379 294.462 127.316 292.541 127.14C294.463 126.978 296.393 126.928 298.32 126.991C300.247 126.939 302.175 127.004 304.093 127.186Z" fill="#E0E0E0"/>
<path d="M305.095 166.744C304.912 166.88 304.713 166.993 304.503 167.082C304.113 167.283 303.535 167.55 302.813 167.856C300.917 168.636 298.96 169.26 296.962 169.721C294.965 170.177 292.934 170.47 290.89 170.599C290.11 170.644 289.473 170.657 289.031 170.644C288.813 170.655 288.595 170.639 288.381 170.599C288.381 170.547 289.343 170.508 290.896 170.358C292.92 170.164 294.928 169.84 296.91 169.39C298.897 168.933 300.852 168.345 302.761 167.628C304.172 167.082 305.075 166.692 305.095 166.744Z" fill="#E0E0E0"/>
<path d="M129.483 255.229C145.026 255.229 157.626 243.208 157.626 228.38C157.626 213.552 145.026 201.531 129.483 201.531C113.94 201.531 101.34 213.552 101.34 228.38C101.34 243.208 113.94 255.229 129.483 255.229Z" fill="#E0E0E0"/>
<path d="M123.75 163.662C119.29 163.896 117.535 168.551 117.002 169.591C116.544 170.669 116.301 171.826 116.286 172.998C116.27 174.17 115.976 175.322 115.428 176.359C114.447 177.925 112.379 178.738 111.82 180.5C111.17 182.496 112.815 184.628 112.379 186.676C112.145 187.774 111.346 188.678 111.079 189.764C110.833 190.924 111.05 192.135 111.684 193.138C113.146 195.66 116.189 196.921 119.101 197.038C122.014 197.155 124.861 196.271 127.65 195.413" fill="#263238"/>
<path d="M143.395 169.435C143.224 169.928 143.194 170.459 143.309 170.968C143.424 171.477 143.679 171.943 144.045 172.315C144.794 173.033 145.603 173.686 146.463 174.265C146.893 174.562 147.26 174.94 147.544 175.378C147.827 175.817 148.021 176.307 148.115 176.82C148.199 177.769 147.718 178.719 147.848 179.661C148.186 182.099 152.067 182.827 152.269 185.272C152.412 186.903 150.735 188.405 151.203 189.972C151.456 190.56 151.784 191.112 152.178 191.617C153.283 193.45 152.535 195.972 150.936 197.389C149.337 198.807 147.127 199.307 144.994 199.405C143.2 199.483 141.159 199.19 140.106 197.74C139.137 196.408 139.338 194.6 139.527 192.969C140.431 185.35 140.275 177.652 140.125 169.981" fill="#263238"/>
<path d="M124.926 204.69C124.958 200.686 124.926 196.473 124.926 196.473C124.926 196.473 119.784 195.556 118.789 188.821C117.846 182.392 119.439 168.571 119.439 168.571C126.896 165.626 135.295 166.763 140.515 172.764L139.696 205.269C139.605 209.039 136.283 211.965 132.246 211.835C128.17 211.698 124.893 208.519 124.926 204.69Z" fill="#FFBE9D"/>
<path d="M120.843 179.18C120.838 179.405 120.921 179.623 121.073 179.788C121.226 179.953 121.438 180.052 121.662 180.064C121.772 180.074 121.883 180.062 121.988 180.028C122.093 179.995 122.191 179.941 122.275 179.87C122.359 179.798 122.428 179.711 122.478 179.613C122.528 179.514 122.558 179.407 122.566 179.297C122.57 179.071 122.486 178.853 122.332 178.688C122.178 178.523 121.966 178.425 121.741 178.413C121.631 178.403 121.521 178.415 121.416 178.449C121.311 178.482 121.214 178.536 121.131 178.608C121.047 178.679 120.979 178.767 120.929 178.865C120.88 178.963 120.851 179.07 120.843 179.18Z" fill="#263238"/>
<path d="M119.458 178.517C119.562 178.628 120.219 178.153 121.149 178.166C122.897 178.42 122.865 178.686 122.852 178.537C122.904 178.491 122.8 178.283 122.501 178.069C122.105 177.783 121.63 177.629 121.142 177.627C120.658 177.622 120.185 177.77 119.79 178.049C119.504 178.264 119.406 178.465 119.458 178.517Z" fill="#263238"/>
<path d="M130.348 179.46C130.342 179.684 130.425 179.902 130.578 180.066C130.731 180.23 130.943 180.327 131.167 180.338C131.277 180.348 131.387 180.337 131.492 180.304C131.598 180.27 131.695 180.216 131.779 180.145C131.862 180.073 131.931 179.985 131.98 179.887C132.029 179.788 132.058 179.68 132.064 179.57C132.069 179.345 131.987 179.127 131.834 178.962C131.681 178.797 131.47 178.698 131.245 178.686C131.135 178.677 131.025 178.69 130.92 178.725C130.815 178.759 130.718 178.814 130.635 178.886C130.551 178.958 130.483 179.045 130.434 179.144C130.384 179.243 130.355 179.35 130.348 179.46Z" fill="#263238"/>
<path d="M129.139 178.836C129.243 178.953 129.906 178.472 130.829 178.485C131.752 178.498 132.435 178.972 132.539 178.862C132.643 178.751 132.48 178.608 132.188 178.387C131.79 178.102 131.312 177.95 130.823 177.952C130.339 177.943 129.865 178.089 129.47 178.368C129.184 178.615 129.087 178.784 129.139 178.836Z" fill="#263238"/>
<path d="M125.687 185.499C125.202 185.333 124.696 185.235 124.185 185.206C123.951 185.206 123.723 185.128 123.684 184.966C123.671 184.72 123.729 184.476 123.853 184.264L124.575 182.469C125.24 180.945 125.785 179.372 126.207 177.763C126.103 177.724 125.206 179.772 124.198 182.313C123.957 182.964 123.73 183.549 123.509 184.121C123.354 184.404 123.305 184.734 123.372 185.05C123.405 185.136 123.457 185.212 123.525 185.273C123.593 185.334 123.674 185.378 123.762 185.401C123.891 185.441 124.025 185.461 124.159 185.46C124.664 185.537 125.178 185.55 125.687 185.499Z" fill="#263238"/>
<path d="M124.919 196.473C128.086 196.559 131.214 195.764 133.956 194.178C133.956 194.178 131.719 198.774 124.991 198.079L124.919 196.473Z" fill="#EB996E"/>
<path d="M126.044 187.716C126.224 187.496 126.456 187.325 126.72 187.22C126.984 187.114 127.27 187.077 127.552 187.111C127.766 187.13 127.974 187.193 128.162 187.297C128.351 187.402 128.515 187.544 128.644 187.716C128.766 187.873 128.837 188.064 128.848 188.262C128.858 188.461 128.808 188.658 128.703 188.827C128.55 188.991 128.353 189.106 128.136 189.158C127.918 189.21 127.69 189.197 127.481 189.12C127.044 188.96 126.644 188.714 126.304 188.398C126.201 188.322 126.113 188.227 126.044 188.119C126.009 188.068 125.991 188.008 125.991 187.947C125.991 187.885 126.009 187.825 126.044 187.774" fill="#EB996E"/>
<path d="M128.417 186.169C128.261 186.169 128.248 187.17 127.377 187.872C126.506 188.574 125.427 188.457 125.427 188.593C125.427 188.73 125.667 188.795 126.116 188.808C126.708 188.829 127.287 188.635 127.747 188.262C128.188 187.908 128.474 187.398 128.547 186.838C128.593 186.416 128.482 186.162 128.417 186.169Z" fill="#263238"/>
<path d="M137.59 167.966C135.132 171.476 128.612 175.085 123.938 175.923C124.477 175.208 127.344 173.44 127.89 172.725C125.777 174.298 122.748 176.417 119.946 176.554C119.615 176.602 119.278 176.55 118.977 176.404C118.82 176.278 118.694 176.118 118.61 175.935C118.525 175.752 118.484 175.552 118.49 175.351C118.33 173.317 118.396 171.272 118.685 169.253C118.907 167.547 119.775 165.99 121.11 164.904C122.91 163.513 125.478 163.175 127.903 163.116C129.933 162.984 131.968 163.258 133.891 163.922C135.75 164.65 137.343 166.1 137.616 167.823" fill="#263238"/>
<path d="M144.65 183.692C144.958 182.207 145.175 180.705 145.3 179.193C145.501 175.722 144.5 162.941 132.532 163.942L132.044 167.589C132.044 167.589 130.198 180.064 137.941 180.155C138.461 182.941 139.822 185.5 141.841 187.489C141.841 187.489 143.87 187.43 144.598 183.692" fill="#263238"/>
<path d="M137.96 180.155C138.683 180.013 139.431 180.069 140.125 180.318C140.82 180.58 141.383 181.105 141.692 181.781C141.962 182.47 141.962 183.236 141.692 183.926C141.413 184.609 140.987 185.222 140.444 185.72C140.086 186.105 139.639 186.397 139.143 186.572C138.893 186.658 138.626 186.681 138.365 186.638C138.104 186.594 137.857 186.487 137.648 186.325" fill="#FFBE9D"/>
<path d="M138.305 184.524C138.22 184.524 138.532 184.986 139.189 184.817C139.366 184.761 139.529 184.67 139.67 184.549C139.811 184.428 139.926 184.281 140.008 184.114C140.212 183.749 140.34 183.347 140.385 182.931C140.447 182.477 140.343 182.015 140.093 181.631C139.991 181.471 139.854 181.336 139.691 181.238C139.529 181.139 139.346 181.081 139.156 181.065C138.506 181.065 138.266 181.507 138.337 181.52C138.409 181.534 138.656 181.338 139.098 181.449C139.368 181.554 139.592 181.754 139.727 182.01C139.862 182.267 139.899 182.564 139.833 182.847C139.748 183.588 139.455 184.264 139.059 184.426C138.662 184.589 138.35 184.465 138.305 184.524Z" fill="#EB996E"/>
<path d="M139.267 166.653C140.195 167.179 141.292 167.322 142.324 167.05C143.355 166.777 144.239 166.112 144.786 165.197C145.165 164.622 145.301 163.921 145.164 163.246C145.01 162.806 144.744 162.413 144.391 162.108C144.039 161.802 143.613 161.594 143.155 161.504C142.5 161.333 141.814 161.326 141.156 161.484C140.499 161.642 139.89 161.959 139.384 162.408C138.889 162.871 138.535 163.464 138.363 164.12C138.19 164.776 138.206 165.466 138.409 166.113C138.639 166.749 139.061 167.297 139.617 167.682C140.172 168.066 140.834 168.268 141.51 168.259" fill="#263238"/>
<path d="M140.346 186.052C139.661 186.506 139.036 187.046 138.487 187.658C137.937 188.279 137.65 189.091 137.687 189.92C137.788 190.368 137.838 190.826 137.837 191.285C137.639 191.886 137.318 192.44 136.894 192.91C136.501 193.63 136.348 194.456 136.457 195.268C136.566 196.081 136.931 196.838 137.499 197.429C138.679 198.589 140.271 199.234 141.926 199.223C142.878 199.304 143.831 199.076 144.643 198.573C145.762 197.793 146.191 196.323 146.223 194.952" fill="#263238"/>
<path d="M141.165 169.337C141 169.781 140.762 170.193 140.463 170.56C139.802 171.494 139.027 172.341 138.155 173.082C137.29 173.831 136.336 174.471 135.314 174.987C134.91 175.224 134.471 175.397 134.014 175.5C135.395 174.715 136.713 173.821 137.954 172.828C139.114 171.75 140.187 170.583 141.165 169.337Z" fill="#455A64"/>
<path d="M142.407 169.266C142.425 169.822 142.353 170.378 142.192 170.911C141.872 172.213 141.359 173.459 140.671 174.61C139.979 175.757 139.117 176.794 138.116 177.685C137.72 178.076 137.263 178.401 136.764 178.647C138.154 177.413 139.37 175.996 140.379 174.434C141.289 172.813 141.971 171.074 142.407 169.266Z" fill="#455A64"/>
<path d="M116.423 174.714C116.52 174.714 116.65 175.832 117.073 177.165C117.495 178.497 117.944 179.518 117.853 179.564C116.847 178.153 116.343 176.445 116.423 174.714Z" fill="#455A64"/>
<path d="M145.098 197.689C145.393 197.882 145.734 197.992 146.087 198.007C146.496 198.002 146.894 197.875 147.231 197.643C147.663 197.325 147.969 196.865 148.095 196.343C148.251 195.702 148.251 195.033 148.095 194.393C147.959 193.684 147.686 192.956 147.445 192.156C147.151 191.323 147.051 190.434 147.153 189.556C147.302 188.607 147.92 187.833 148.219 186.956C148.36 186.537 148.416 186.094 148.384 185.653C148.352 185.212 148.231 184.781 148.03 184.388C147.66 183.641 147.025 183.059 146.249 182.756C145.868 182.613 145.495 182.451 145.131 182.268C144.768 182.089 144.46 181.815 144.24 181.475C143.918 180.844 143.778 180.134 143.837 179.427C143.881 178.876 143.859 178.322 143.772 177.776C143.701 177.37 143.533 176.987 143.285 176.658C143.061 176.384 142.752 176.192 142.407 176.112C142.501 176.089 142.599 176.089 142.693 176.112C142.963 176.182 143.205 176.332 143.389 176.541C143.665 176.881 143.86 177.279 143.961 177.705C144.072 178.263 144.111 178.833 144.078 179.401C144.032 180.057 144.172 180.713 144.481 181.293C144.845 181.891 145.599 182.138 146.366 182.444C147.215 182.768 147.911 183.399 148.316 184.212C148.539 184.645 148.674 185.118 148.711 185.604C148.749 186.089 148.69 186.578 148.537 187.04C148.199 187.97 147.601 188.711 147.471 189.562C147.372 190.398 147.463 191.244 147.738 192.039C147.965 192.819 148.232 193.567 148.388 194.302C148.533 194.99 148.513 195.703 148.329 196.382C148.175 196.953 147.822 197.451 147.335 197.786C146.963 198.029 146.524 198.148 146.08 198.124C145.802 198.112 145.532 198.024 145.3 197.871C145.221 197.825 145.152 197.763 145.098 197.689Z" fill="#455A64"/>
<path d="M140.405 197.227C140.405 197.227 140.489 197.435 140.801 197.584C141.02 197.675 141.262 197.69 141.491 197.628C141.719 197.566 141.92 197.429 142.062 197.24C142.23 196.923 142.309 196.566 142.291 196.208C142.272 195.85 142.158 195.503 141.958 195.205C141.588 194.47 140.853 193.749 140.658 192.676C140.605 192.415 140.609 192.145 140.671 191.886C140.733 191.626 140.85 191.384 141.016 191.174C141.334 190.784 141.711 190.524 141.952 190.206C142.368 189.598 142.531 188.852 142.407 188.125C142.327 187.624 142.203 187.13 142.036 186.65C141.961 186.475 141.908 186.292 141.88 186.104C141.88 186.104 142.004 186.273 142.153 186.604C142.38 187.077 142.544 187.577 142.641 188.093C142.724 188.485 142.729 188.89 142.654 189.284C142.579 189.678 142.427 190.053 142.205 190.388C141.926 190.765 141.555 191.038 141.282 191.382C141.146 191.555 141.049 191.756 140.998 191.971C140.948 192.185 140.945 192.408 140.99 192.624C141.146 193.554 141.835 194.262 142.231 195.062C142.445 195.411 142.558 195.813 142.558 196.222C142.558 196.632 142.445 197.033 142.231 197.383C142.133 197.511 142.008 197.617 141.866 197.695C141.724 197.772 141.567 197.818 141.406 197.831C141.168 197.859 140.928 197.814 140.717 197.701C140.392 197.467 140.392 197.22 140.405 197.227Z" fill="#455A64"/>
<path d="M114.921 195.517C114.722 195.365 114.543 195.188 114.388 194.991C113.924 194.483 113.542 193.907 113.257 193.281C113.064 192.834 112.971 192.35 112.984 191.864C112.987 191.287 113.189 190.729 113.556 190.284C113.959 189.823 114.544 189.575 114.895 189.14C115.065 188.901 115.178 188.626 115.224 188.336C115.27 188.046 115.249 187.749 115.162 187.469C115.003 186.868 114.765 186.291 114.453 185.753C114.148 185.221 113.929 184.644 113.803 184.043C113.698 183.475 113.816 182.888 114.135 182.405C114.418 182.02 114.75 181.672 115.123 181.371C115.66 180.982 116.052 180.423 116.234 179.785C116.278 179.549 116.278 179.306 116.234 179.07C116.234 179.07 116.286 179.122 116.332 179.239C116.397 179.42 116.417 179.614 116.39 179.804C116.25 180.495 115.867 181.113 115.311 181.547C114.968 181.847 114.661 182.185 114.395 182.554C114.125 182.982 114.032 183.497 114.135 183.991C114.268 184.556 114.487 185.098 114.785 185.597C115.113 186.159 115.364 186.762 115.532 187.391C115.628 187.72 115.648 188.067 115.589 188.405C115.531 188.743 115.396 189.064 115.194 189.341C114.752 189.862 114.167 190.089 113.829 190.486C113.5 190.871 113.314 191.357 113.302 191.864C113.282 192.307 113.356 192.75 113.517 193.164C113.772 193.781 114.114 194.359 114.531 194.88C114.681 195.08 114.812 195.293 114.921 195.517Z" fill="#455A64"/>
<path d="M142.03 167.498C141.565 166.867 141.033 166.29 140.444 165.775C139.789 165.349 139.089 164.995 138.357 164.722C139.184 164.735 139.986 165.011 140.647 165.51C141.307 166.009 141.791 166.705 142.03 167.498Z" fill="#E8505B"/>
<path d="M142.947 161.276C142.986 161.276 143.2 161.51 143.376 162.011C143.601 162.677 143.621 163.395 143.434 164.073C143.248 164.75 142.863 165.357 142.329 165.814C141.913 166.159 141.601 166.263 141.581 166.23C141.562 166.198 141.822 166.009 142.16 165.645C142.61 165.18 142.936 164.61 143.109 163.986C143.282 163.363 143.295 162.706 143.148 162.076C143.058 161.816 142.991 161.548 142.947 161.276Z" fill="#455A64"/>
<path opacity="0.3" d="M109.954 241.245C109.954 241.245 126.109 256.588 135.711 253.805C145.313 251.023 148.147 243.826 148.147 243.826L148.382 241.226L147.419 240.575L110.442 237.624L109.954 241.245Z" fill="black"/>
<path d="M100.404 226.878L103.518 218.921L114.68 225.935L104.733 241.271C104.733 241.271 100.69 235.993 100.404 226.878Z" fill="#EB996E"/>
<path d="M112.997 204.814C118.197 202.096 124.919 201.316 124.919 201.316C126.87 205.217 133.026 205.717 136.751 203.052L139.898 200.926C140.332 200.92 140.766 200.939 141.198 200.984C144.786 201.321 148.171 202.805 150.85 205.216C153.529 207.627 155.36 210.837 156.072 214.37C156.693 217.142 156.957 219.982 156.859 222.821C156.449 229.927 149.097 230.571 149.097 230.571C149.097 230.571 148.72 237.585 148.219 243.261C148.111 245.238 147.452 247.145 146.315 248.766C145.179 250.387 143.611 251.658 141.79 252.433C139.215 253.721 136.445 254.576 133.592 254.962C129.138 255.659 124.581 255.253 120.321 253.78C116.06 252.307 112.226 249.811 109.155 246.511C110.273 239.75 111.339 230.993 111.261 230.597C111.248 230.554 111.248 230.509 111.261 230.467L103.973 223.998L99.8386 220.527C99.8386 220.527 108.94 207.069 112.984 204.859" fill="#F96444"/>
<path d="M122.033 209.17C121.483 208.857 120.865 208.685 120.232 208.669C119.556 208.667 118.9 208.897 118.373 209.319C118.073 209.594 117.795 209.892 117.541 210.21C117.251 210.598 116.835 210.874 116.364 210.99C115.877 211.051 115.385 210.92 114.992 210.626C114.615 210.385 114.297 210.125 113.965 209.937C113.68 209.769 113.361 209.667 113.032 209.638C112.702 209.608 112.371 209.653 112.06 209.768C111.626 209.915 111.241 210.181 110.949 210.535C110.747 210.788 110.676 210.957 110.643 210.944C110.668 210.767 110.737 210.599 110.845 210.457C111.117 210.042 111.513 209.724 111.976 209.547C112.318 209.4 112.69 209.334 113.062 209.355C113.434 209.375 113.797 209.481 114.121 209.664C114.485 209.859 114.81 210.125 115.168 210.346C115.494 210.591 115.9 210.703 116.306 210.658C116.7 210.557 117.049 210.329 117.3 210.008C117.564 209.678 117.858 209.374 118.178 209.098C118.764 208.645 119.492 208.415 120.232 208.448C120.721 208.465 121.199 208.601 121.623 208.844C121.922 209.027 122.046 209.17 122.033 209.17Z" fill="#FAFAFA"/>
<path d="M129.438 218.921C129.018 218.446 128.486 218.084 127.89 217.867C127.258 217.651 126.572 217.651 125.94 217.867C125.572 218.036 125.216 218.229 124.874 218.446C124.474 218.72 123.992 218.848 123.509 218.81C123.027 218.712 122.602 218.43 122.326 218.023C122.046 217.679 121.825 217.328 121.571 217.042C121.355 216.792 121.086 216.594 120.783 216.462C120.481 216.329 120.153 216.265 119.823 216.275C119.364 216.279 118.915 216.407 118.523 216.645C118.249 216.821 118.126 216.957 118.1 216.938C118.074 216.918 118.184 216.756 118.451 216.535C118.948 216.161 119.566 215.985 120.186 216.04C120.805 216.095 121.382 216.378 121.806 216.834C122.085 217.139 122.313 217.484 122.579 217.815C122.813 218.145 123.16 218.376 123.554 218.466C123.964 218.487 124.37 218.376 124.711 218.147C125.067 217.918 125.444 217.722 125.836 217.562C126.539 217.322 127.305 217.342 127.994 217.62C128.456 217.789 128.867 218.071 129.191 218.44C129.386 218.706 129.451 218.882 129.438 218.921Z" fill="#FAFAFA"/>
<path d="M145.891 204.683C145.288 204.496 144.647 204.458 144.026 204.573C143.364 204.714 142.77 205.076 142.342 205.6C142.111 205.932 141.905 206.279 141.724 206.64C141.521 207.083 141.172 207.443 140.736 207.661C140.271 207.816 139.766 207.79 139.319 207.589C138.903 207.433 138.532 207.245 138.168 207.128C137.853 207.026 137.52 206.995 137.191 207.038C136.863 207.081 136.548 207.196 136.27 207.375C135.88 207.613 135.561 207.952 135.347 208.357C135.204 208.643 135.165 208.831 135.139 208.825C135.113 208.818 135.139 208.63 135.23 208.298C135.465 207.722 135.906 207.253 136.467 206.983C137.027 206.713 137.668 206.66 138.266 206.835C138.662 206.952 139.039 207.134 139.429 207.277C139.799 207.45 140.22 207.473 140.606 207.342C140.972 207.154 141.264 206.85 141.438 206.478C141.622 206.101 141.84 205.742 142.088 205.405C142.569 204.839 143.235 204.461 143.967 204.339C144.449 204.249 144.945 204.282 145.41 204.436C145.589 204.476 145.755 204.561 145.891 204.683Z" fill="#FAFAFA"/>
<path d="M138.298 215.345C137.975 214.987 137.578 214.703 137.135 214.513C136.656 214.327 136.128 214.311 135.639 214.468C135.349 214.579 135.069 214.714 134.801 214.871C134.475 215.072 134.089 215.157 133.709 215.111C133.333 215.02 133.007 214.787 132.798 214.461C132.597 214.182 132.441 213.902 132.259 213.675C132.104 213.476 131.908 213.314 131.683 213.202C131.458 213.089 131.21 213.029 130.959 213.024C130.478 213.027 130.009 213.174 129.613 213.447C129.613 213.447 129.678 213.304 129.886 213.141C130.283 212.864 130.769 212.744 131.25 212.805C131.731 212.867 132.172 213.105 132.486 213.473C132.694 213.72 132.863 214 133.052 214.253C133.213 214.514 133.466 214.704 133.761 214.786C134.359 214.89 134.905 214.351 135.529 214.175C136.087 214.013 136.684 214.057 137.213 214.299C138.129 214.708 138.337 215.358 138.298 215.345Z" fill="#FAFAFA"/>
<path d="M121.558 224.33C121.232 223.973 120.833 223.689 120.388 223.497C119.908 223.317 119.38 223.308 118.893 223.471C118.604 223.584 118.323 223.719 118.054 223.874C117.724 224.084 117.331 224.172 116.943 224.122C116.57 224.028 116.246 223.795 116.039 223.471C115.831 223.192 115.675 222.912 115.5 222.691C115.344 222.494 115.147 222.333 114.922 222.221C114.697 222.108 114.451 222.047 114.199 222.041C113.718 222.041 113.248 222.188 112.854 222.464C112.854 222.464 112.912 222.321 113.127 222.158C113.438 221.929 113.813 221.804 114.199 221.801C114.492 221.789 114.783 221.846 115.05 221.965C115.317 222.085 115.553 222.264 115.74 222.49C115.948 222.737 116.111 223.016 116.306 223.27C116.463 223.531 116.714 223.721 117.008 223.803C117.606 223.907 118.158 223.367 118.783 223.192C119.338 223.029 119.934 223.073 120.46 223.315C121.383 223.692 121.591 224.343 121.558 224.33Z" fill="#FAFAFA"/>
<path d="M137.206 224.537C136.788 224.294 136.318 224.152 135.835 224.121C135.322 224.103 134.818 224.259 134.405 224.563C134.171 224.762 133.953 224.98 133.754 225.214C133.51 225.509 133.174 225.713 132.799 225.792C132.411 225.821 132.027 225.7 131.726 225.454C131.44 225.259 131.206 225.045 130.959 224.889C130.748 224.753 130.51 224.666 130.262 224.633C130.013 224.601 129.761 224.623 129.522 224.7C129.068 224.86 128.672 225.152 128.385 225.539C128.385 225.539 128.385 225.383 128.547 225.155C128.77 224.839 129.086 224.601 129.451 224.472C129.723 224.367 130.017 224.326 130.308 224.353C130.599 224.381 130.88 224.475 131.128 224.628C131.401 224.791 131.648 225.006 131.915 225.181C132.149 225.377 132.449 225.475 132.753 225.454C133.351 225.363 133.696 224.674 134.229 224.303C134.705 223.971 135.283 223.819 135.861 223.874C136.12 223.877 136.376 223.938 136.609 224.052C136.842 224.167 137.046 224.333 137.206 224.537Z" fill="#FAFAFA"/>
<path d="M132.038 231.676C131.615 231.441 131.148 231.299 130.666 231.26C130.151 231.242 129.645 231.397 129.229 231.702C128.997 231.902 128.78 232.12 128.579 232.352C128.336 232.648 127.999 232.852 127.624 232.931C127.237 232.958 126.854 232.84 126.551 232.599C126.265 232.397 126.031 232.183 125.784 232.033C125.574 231.896 125.336 231.806 125.088 231.773C124.839 231.739 124.586 231.761 124.347 231.838C123.892 231.996 123.495 232.288 123.209 232.677C123.224 232.537 123.278 232.404 123.365 232.293C123.653 231.894 124.08 231.617 124.562 231.52C125.045 231.422 125.546 231.51 125.966 231.767C126.245 231.929 126.492 232.144 126.759 232.319C126.993 232.515 127.293 232.613 127.598 232.592C128.196 232.501 128.54 231.812 129.073 231.442C129.55 231.112 130.128 230.96 130.705 231.013C130.962 231.018 131.215 231.081 131.446 231.195C131.676 231.31 131.878 231.474 132.038 231.676Z" fill="#FAFAFA"/>
<path d="M121.123 249.398C120.791 249.045 120.387 248.765 119.94 248.579C119.456 248.408 118.928 248.408 118.445 248.579C118.157 248.697 117.878 248.839 117.613 249.001C117.29 249.206 116.906 249.293 116.527 249.248C116.148 249.159 115.82 248.926 115.61 248.598C115.402 248.325 115.24 248.045 115.058 247.824C114.901 247.628 114.704 247.468 114.479 247.355C114.255 247.243 114.008 247.181 113.757 247.174C113.275 247.181 112.807 247.338 112.418 247.623C112.418 247.623 112.477 247.473 112.685 247.304C112.997 247.076 113.371 246.949 113.757 246.94C114.048 246.923 114.338 246.973 114.607 247.086C114.875 247.198 115.114 247.371 115.305 247.59C115.513 247.837 115.682 248.117 115.877 248.364C116.04 248.622 116.296 248.808 116.592 248.884C117.19 248.982 117.73 248.436 118.354 248.234C118.909 248.067 119.507 248.103 120.037 248.338C120.935 248.761 121.156 249.404 121.123 249.398Z" fill="#FAFAFA"/>
<path d="M133.897 253.168C133.484 252.925 133.022 252.774 132.545 252.726C132.032 252.701 131.526 252.85 131.108 253.149C130.874 253.347 130.657 253.565 130.458 253.799C130.21 254.089 129.871 254.286 129.496 254.358C129.109 254.385 128.727 254.262 128.43 254.013C128.144 253.812 127.91 253.591 127.669 253.435C127.46 253.296 127.223 253.204 126.975 253.167C126.726 253.13 126.473 253.148 126.232 253.22C125.777 253.374 125.378 253.662 125.088 254.046C125.088 254.046 125.088 253.89 125.251 253.669C125.481 253.365 125.799 253.138 126.161 253.019C126.436 252.921 126.73 252.887 127.02 252.919C127.311 252.95 127.59 253.047 127.838 253.201C128.111 253.37 128.358 253.584 128.618 253.766C128.853 253.962 129.152 254.064 129.457 254.052C130.055 253.961 130.413 253.285 130.946 252.921C131.427 252.597 132.007 252.452 132.584 252.511C132.837 252.519 133.086 252.582 133.313 252.695C133.54 252.809 133.739 252.97 133.897 253.168Z" fill="#FAFAFA"/>
<path d="M91.7967 199.418C92.1868 199.88 106.482 218.992 106.482 218.992L104.474 220.137L89.8009 201.284L91.7967 199.418Z" fill="#263238"/>
<path d="M147.582 213.07C147.582 213.07 134.177 236.194 133.28 236.617C131.492 237.455 110.923 219.675 108.96 217.978C108.693 217.614 108.134 216.853 107.009 215.339C107.009 215.339 105.39 207.908 103.655 208.48C101.919 209.052 104.604 212.257 103.479 215.079C102.355 217.9 97.1862 211.178 96.9782 210.567L95.678 208.825C95.678 208.825 94.2803 212.784 94.3778 214.442C94.6768 219.74 99.6891 226.039 99.6891 226.039C99.6891 226.039 120.063 251.562 135.484 252.427C139.924 252.68 148.408 239.893 153.687 230.441C156.872 224.733 155.39 218.94 150.111 215.085L147.582 213.07Z" fill="#FFBE9D"/>
<path d="M96.8936 215.345C96.0137 214.173 95.3529 212.852 94.9433 211.445C94.9953 211.445 95.3788 212.322 95.9184 213.395C96.458 214.468 96.9391 215.319 96.8936 215.345Z" fill="#EB996E"/>
<path d="M146.951 206.608C146.425 206.926 133.949 230.07 133.949 230.07L150 242.637C152.454 236.541 154.58 230.32 156.371 223.998C156.969 221.729 156.664 215.664 155.819 213.323C154.623 210.001 152.815 210.827 150.104 208.883L146.951 206.608Z" fill="#F96444"/>
<g opacity="0.7">
<path opacity="0.7" d="M152.223 206.608C152.223 206.608 152.067 206.517 151.768 206.368C151.332 206.146 150.845 206.045 150.357 206.075C149.587 206.147 148.858 206.451 148.264 206.946C147.469 207.582 146.772 208.331 146.196 209.169C145.49 210.218 144.839 211.303 144.246 212.42C143.596 213.597 142.855 214.858 142.101 216.184C140.586 218.83 138.915 221.742 137.173 224.798C136.1 226.651 135.067 228.452 134.092 230.142L134.053 229.934L144.909 238.515L148.062 241.044L148.894 241.733C148.996 241.808 149.09 241.893 149.174 241.987C149.063 241.928 148.958 241.858 148.862 241.779L147.991 241.128L144.779 238.671L133.851 230.22L133.734 230.129L133.845 229.973C134.82 228.282 135.853 226.482 136.913 224.622C138.668 221.573 140.346 218.674 141.867 216.028L144.038 212.277C144.63 211.16 145.281 210.075 145.988 209.026C146.591 208.165 147.324 207.402 148.16 206.764C148.789 206.263 149.555 205.964 150.357 205.906C150.866 205.888 151.369 206.016 151.807 206.277C151.92 206.34 152.029 206.411 152.132 206.491C152.197 206.569 152.229 206.602 152.223 206.608Z" fill="black"/>
</g>
<path d="M147.432 228.308C147.111 227.948 146.714 227.664 146.269 227.476C145.791 227.291 145.264 227.273 144.774 227.424C144.483 227.538 144.203 227.675 143.935 227.834C143.608 228.033 143.223 228.117 142.843 228.074C142.467 227.983 142.141 227.75 141.933 227.424C141.731 227.145 141.575 226.865 141.393 226.638C141.239 226.439 141.042 226.278 140.817 226.165C140.592 226.053 140.344 225.992 140.093 225.988C139.612 225.99 139.143 226.138 138.747 226.41C138.747 226.41 138.812 226.267 139.02 226.098C139.337 225.877 139.713 225.754 140.099 225.747C140.391 225.736 140.681 225.792 140.947 225.912C141.213 226.031 141.448 226.211 141.634 226.436C141.842 226.683 142.011 226.963 142.199 227.216C142.362 227.475 142.614 227.665 142.908 227.749C143.506 227.853 144.052 227.314 144.676 227.138C145.233 226.974 145.831 227.015 146.36 227.255C147.263 227.665 147.497 228.315 147.432 228.308Z" fill="#FAFAFA"/>
<path d="M154.765 225.318C154.558 224.878 154.251 224.493 153.868 224.193C153.457 223.889 152.956 223.731 152.444 223.745C152.135 223.78 151.829 223.837 151.528 223.914C151.158 224.018 150.765 223.995 150.41 223.849C150.072 223.655 149.823 223.338 149.714 222.965C149.597 222.64 149.519 222.315 149.408 222.067C149.312 221.835 149.165 221.627 148.979 221.458C148.792 221.29 148.57 221.165 148.329 221.092C147.865 220.965 147.374 220.981 146.919 221.138C146.919 221.138 147.016 221.014 147.263 220.917C147.625 220.779 148.021 220.761 148.394 220.865C148.679 220.933 148.945 221.065 149.171 221.252C149.396 221.439 149.575 221.676 149.695 221.944C149.825 222.236 149.909 222.549 150.026 222.848C150.11 223.14 150.303 223.389 150.566 223.543C151.112 223.81 151.781 223.439 152.431 223.433C153.011 223.432 153.572 223.634 154.018 224.005C154.233 224.154 154.412 224.349 154.541 224.576C154.671 224.803 154.747 225.057 154.765 225.318Z" fill="#FAFAFA"/>
<path d="M155.143 215.748C154.932 215.312 154.626 214.93 154.246 214.63C153.836 214.323 153.334 214.165 152.822 214.182C152.512 214.211 152.205 214.268 151.905 214.351C151.535 214.456 151.141 214.43 150.787 214.279C150.452 214.086 150.203 213.772 150.091 213.401C149.974 213.076 149.896 212.751 149.786 212.498C149.687 212.267 149.54 212.06 149.353 211.892C149.167 211.723 148.946 211.597 148.707 211.523C148.243 211.396 147.751 211.411 147.296 211.568C147.296 211.568 147.393 211.451 147.641 211.347C148.003 211.213 148.398 211.194 148.772 211.295C149.055 211.366 149.32 211.5 149.545 211.687C149.77 211.873 149.95 212.108 150.072 212.374C150.202 212.667 150.286 212.985 150.403 213.278C150.487 213.572 150.68 213.824 150.943 213.98C151.489 214.24 152.159 213.87 152.809 213.87C153.389 213.863 153.953 214.066 154.395 214.442C154.609 214.59 154.787 214.784 154.917 215.01C155.046 215.236 155.123 215.489 155.143 215.748Z" fill="#FAFAFA"/>
<path d="M151.593 237.774C151.38 237.34 151.073 236.958 150.696 236.656C150.284 236.348 149.779 236.19 149.266 236.207C148.958 236.237 148.653 236.293 148.355 236.376C147.986 236.48 147.592 236.457 147.237 236.311C146.903 236.114 146.654 235.799 146.542 235.427C146.418 235.102 146.347 234.777 146.23 234.523C146.132 234.293 145.986 234.086 145.801 233.917C145.616 233.749 145.396 233.623 145.157 233.548C144.693 233.417 144.199 233.435 143.746 233.6C143.746 233.6 143.844 233.477 144.091 233.373C144.55 233.21 145.054 233.225 145.503 233.415C145.952 233.605 146.313 233.957 146.516 234.4C146.652 234.692 146.737 235.011 146.854 235.304C146.937 235.596 147.127 235.847 147.387 236.006C147.939 236.266 148.609 235.895 149.259 235.895C149.84 235.888 150.403 236.091 150.845 236.467C151.059 236.616 151.238 236.81 151.367 237.036C151.496 237.262 151.574 237.514 151.593 237.774Z" fill="#FAFAFA"/>
</svg>
