<svg width="404" height="352" viewBox="0 0 404 352" fill="none" xmlns="http://www.w3.org/2000/svg">
<path d="M131.246 344.643C131.246 344.643 197.794 368.302 263.118 330.632C328.441 292.961 361.361 218.167 389.706 158.263C418.052 98.3591 401.721 37.4243 351.859 9.63436C301.996 -18.1555 268.11 22.8086 198.124 24.8057C128.138 26.8028 109.359 16.8013 51.3072 56.316C-6.74483 95.8306 -17.2295 189.186 28.5583 258.222C74.346 327.258 131.246 344.643 131.246 344.643Z" fill="#E6E6FD"/>
<path opacity="0.7" d="M131.246 344.643C131.246 344.643 197.794 368.302 263.118 330.632C328.441 292.961 361.361 218.167 389.706 158.263C418.052 98.3591 401.721 37.4243 351.859 9.63437C301.996 -18.1555 268.11 22.8086 198.124 24.8057C128.138 26.8028 109.359 16.8013 51.3072 56.316C-6.74483 95.8307 -17.2294 189.186 28.5583 258.222C74.346 327.258 131.246 344.643 131.246 344.643Z" fill="white"/>
<path d="M187.004 292.871C186.198 292.178 184.389 289.974 185.781 287.413C186.295 286.476 187.378 286.01 188.364 285.599C189.376 285.258 190.329 284.763 191.19 284.131C192.723 282.832 193.145 280.666 194.163 278.922C195.333 276.924 197.51 275.429 199.816 275.532C202.453 275.657 204.652 277.807 205.648 280.265C206.645 282.723 206.683 285.447 206.731 288.101C206.731 289.568 206.677 291.225 205.6 292.216C204.522 293.207 203.109 293.136 201.766 293.099L187.351 292.655" fill="#F5F5F5"/>
<path d="M214.577 253.233H176.672L183.501 293.949C183.643 294.799 184.024 295.592 184.599 296.234C185.174 296.877 185.92 297.342 186.75 297.577L186.885 297.615C186.993 297.642 187.102 297.68 187.221 297.701C187.475 297.749 187.732 297.778 187.99 297.788V297.837L188.174 297.81H205.074C205.385 297.81 205.695 297.779 206 297.718C206.987 297.565 207.897 297.093 208.59 296.374C209.283 295.655 209.722 294.729 209.839 293.738L213.11 265.672L213.256 264.556L214.556 253.434L214.577 253.233ZM207.424 279.225H203.536L203.926 267.41H208.437L207.424 279.225ZM208.816 267.41H212.536L211.15 279.225H207.803L208.816 267.41ZM197.699 292.319L197.461 282.03H203.065L202.724 292.319H197.699ZM191.64 282.03H197.087L197.32 292.319H192.446L191.64 282.03ZM192.062 292.319H187.497C187.064 289.546 186.501 285.945 185.873 282.03H191.25L192.062 292.319ZM191.45 279.204L190.529 267.388H196.773L197.049 279.204H191.45ZM197.406 279.204L197.136 267.388H203.563L203.168 279.204H197.406ZM197.071 264.583L196.816 253.634H204.018L203.655 264.583H197.071ZM196.692 264.583H190.286L189.43 253.634H196.432L196.692 264.583ZM189.918 264.583H183.133C182.894 263.067 182.667 261.637 182.461 260.349C181.757 255.925 181.492 254.262 181.34 253.634H189.057L189.918 264.583ZM190.14 267.415L191.055 279.231H185.445C185.255 278.034 185.066 276.821 184.903 275.608C184.465 272.819 184.021 270.031 183.609 267.415H190.14ZM185.077 279.231H181.416L179.434 267.415H183.225C183.777 271.038 184.411 275.094 185.066 279.204L185.077 279.231ZM185.521 282.068C186.062 285.62 186.604 289.108 187.145 292.357H183.631L181.909 282.068H185.521ZM203.114 292.357L203.455 282.068H207.197L206.32 292.357H203.114ZM204.034 264.605L204.397 253.656H209.623L208.691 264.605H204.034ZM180.994 253.656C181.145 254.452 181.838 258.757 182.764 264.605H178.974L177.138 253.656H180.994ZM209.628 292.357H206.693L207.57 282.068H210.819L209.628 292.357ZM212.877 264.605H209.06L209.996 253.656H214.16L212.877 264.605Z" fill="#E0E0E0"/>
<path d="M216.424 212.984L195.972 219.357C195.293 219.562 194.561 219.492 193.934 219.163C193.306 218.834 192.832 218.272 192.614 217.598L183.793 189.288C183.589 188.609 183.659 187.878 183.988 187.25C184.317 186.622 184.879 186.149 185.553 185.931L198.522 181.891L211.789 189.109L218.184 209.627C218.388 210.305 218.319 211.037 217.99 211.665C217.66 212.292 217.098 212.766 216.424 212.984V212.984Z" fill="#EBEBEB"/>
<path d="M198.522 181.891L201.008 189.857C201.207 190.485 201.647 191.009 202.231 191.313C202.816 191.618 203.498 191.678 204.127 191.481L211.789 189.093L198.522 181.891Z" fill="#E0E0E0"/>
<path d="M199.188 190.078C199.22 190.181 197.13 190.923 194.515 191.735C191.899 192.548 189.76 193.127 189.728 193.024C189.695 192.921 191.791 192.18 194.401 191.367C197.011 190.555 199.161 189.965 199.188 190.078Z" fill="#FAFAFA"/>
<path d="M206.704 192.667C206.736 192.77 203.276 193.939 198.977 195.277C194.677 196.614 191.163 197.622 191.13 197.519C191.098 197.416 194.558 196.246 198.863 194.909C203.168 193.571 206.672 192.564 206.704 192.667Z" fill="#FAFAFA"/>
<path d="M209.282 195.992C209.314 196.094 205.54 197.362 200.85 198.824C196.161 200.286 192.338 201.385 192.306 201.282C192.273 201.179 196.047 199.912 200.737 198.45C205.426 196.988 209.249 195.889 209.282 195.992Z" fill="#FAFAFA"/>
<path d="M210.403 199.538C210.435 199.641 206.661 200.908 201.972 202.37C197.282 203.833 193.459 204.932 193.427 204.829C193.394 204.726 197.168 203.459 201.858 201.997C206.547 200.535 210.354 199.436 210.403 199.538Z" fill="#FAFAFA"/>
<path d="M211.485 203.074C211.518 203.177 207.744 204.444 203.06 205.906C198.376 207.368 194.542 208.467 194.509 208.365C194.477 208.262 198.251 207 202.941 205.538C207.63 204.076 211.485 202.988 211.485 203.074Z" fill="#FAFAFA"/>
<path d="M212.596 206.638C212.628 206.74 208.854 208.008 204.17 209.47C199.486 210.932 195.658 212.031 195.625 211.928C195.593 211.825 199.367 210.558 204.051 209.096C208.735 207.634 212.569 206.535 212.596 206.638Z" fill="#FAFAFA"/>
<path d="M303.204 102.523L283.239 94.7745C282.582 94.5101 282.054 93.9985 281.77 93.3496C281.485 92.7007 281.467 91.9661 281.718 91.3035L292.466 63.687C292.593 63.3589 292.784 63.0591 293.027 62.8048C293.27 62.5504 293.56 62.3465 293.882 62.2046C294.204 62.0628 294.551 61.9858 294.903 61.9782C295.254 61.9705 295.604 62.0323 295.932 62.16L308.598 67.0876L314.467 80.9662L306.675 101.002C306.411 101.659 305.899 102.187 305.25 102.471C304.601 102.756 303.867 102.774 303.204 102.523V102.523Z" fill="#EBEBEB"/>
<path d="M308.598 67.0552L305.571 74.8311C305.449 75.1374 305.388 75.4649 305.394 75.7947C305.399 76.1244 305.469 76.4499 305.601 76.7521C305.733 77.0544 305.924 77.3274 306.162 77.5554C306.401 77.7833 306.682 77.9617 306.99 78.0801L314.468 80.988L308.598 67.0552Z" fill="#E0E0E0"/>
<path d="M304.017 73.8618C303.979 73.9646 301.883 73.239 299.333 72.2373C296.782 71.2355 294.746 70.3583 294.784 70.2608C294.822 70.1633 296.923 70.8835 299.473 71.8853C302.024 72.8871 304.082 73.7643 304.017 73.8618Z" fill="#FAFAFA"/>
<path d="M308.273 80.5816C308.235 80.6791 304.802 79.439 300.605 77.8037C296.409 76.1684 293.024 74.7659 293.073 74.6684C293.122 74.5709 296.544 75.8218 300.746 77.4463C304.948 79.0708 308.311 80.4787 308.273 80.5816Z" fill="#FAFAFA"/>
<path d="M308.214 84.7837C308.176 84.8866 304.423 83.522 299.858 81.7405C295.293 79.959 291.627 78.4374 291.627 78.3399C291.627 78.2424 295.418 79.6016 299.983 81.3831C304.548 83.1646 308.251 84.6863 308.214 84.7837Z" fill="#FAFAFA"/>
<path d="M306.865 88.2765C306.827 88.3739 303.075 87.0148 298.51 85.2332C293.945 83.4517 290.257 81.9301 290.295 81.8272C290.333 81.7243 294.086 83.0943 298.651 84.8704C303.216 86.6466 306.909 88.1465 306.865 88.2765Z" fill="#FAFAFA"/>
<path d="M305.522 91.715C305.479 91.8124 301.732 90.4533 297.167 88.6717C292.602 86.8902 288.909 85.3686 288.947 85.2657C288.985 85.1628 292.738 86.5274 297.308 88.3089C301.878 90.0905 305.56 91.6121 305.522 91.715Z" fill="#FAFAFA"/>
<path d="M304.174 95.1753C304.131 95.2782 300.383 93.9136 295.819 92.1375C291.254 90.3614 287.561 88.8181 287.604 88.7315C287.647 88.6449 291.395 89.9932 295.959 91.7747C300.524 93.5563 304.212 95.0779 304.174 95.1753Z" fill="#FAFAFA"/>
<path d="M115.64 181.577C116.056 181.646 116.428 181.874 116.678 182.213C116.929 182.551 117.038 182.974 116.983 183.391C116.902 183.933 116.821 184.474 116.788 184.734L114.947 196.815C114.9 197.089 114.75 197.335 114.527 197.501C114.305 197.667 114.026 197.741 113.75 197.708L86.1015 193.501C85.8386 193.453 85.6025 193.311 85.4386 193.1C85.2747 192.889 85.1945 192.625 85.2134 192.358L86.6267 176.704C86.6422 176.561 86.6856 176.424 86.7546 176.299C86.8235 176.173 86.9165 176.063 87.0282 175.974C87.14 175.885 87.2682 175.819 87.4057 175.78C87.5431 175.74 87.6869 175.729 87.8289 175.745L94.0832 176.698C94.6727 176.792 95.2109 177.089 95.6048 177.537L96.7257 178.832L115.64 181.577Z" fill="#E0E0E0"/>
<path d="M117.45 183.519L87.2355 178.923L84.4617 197.157L114.676 201.753L117.45 183.519Z" fill="#F5F5F5"/>
<path d="M84.5851 180.196L84.0003 199.56C83.9956 199.725 84.0512 199.887 84.1568 200.014C84.2624 200.142 84.4108 200.227 84.5743 200.253L114.016 204.731C114.187 204.755 114.362 204.712 114.503 204.612C114.644 204.511 114.741 204.36 114.774 204.19L119.149 185.4C119.17 185.309 119.173 185.216 119.157 185.125C119.141 185.034 119.107 184.947 119.056 184.869C119.006 184.792 118.94 184.725 118.862 184.674C118.785 184.623 118.699 184.588 118.608 184.571L85.3757 179.519C85.2779 179.503 85.1779 179.509 85.0825 179.536C84.9872 179.563 84.8989 179.61 84.8236 179.674C84.7484 179.739 84.6881 179.819 84.6469 179.909C84.6057 179.999 84.5846 180.097 84.5851 180.196V180.196Z" fill="#EBEBEB"/>
<path d="M155.332 183.18C149.376 186.277 144.779 191.6 141.486 197.47C138.194 203.34 136.071 209.767 133.97 216.162L132.129 249.102C139.077 237.281 144.66 223.381 146.165 209.751L141.54 209.334C144.643 208.863 147.242 206.627 148.899 203.952C150.556 201.277 151.407 198.217 152.24 195.19L146.598 196.035C151.054 193.033 154.183 188.429 155.332 183.18V183.18Z" fill="#455A64"/>
<g opacity="0.3">
<path opacity="0.3" d="M155.333 183.18C149.376 186.277 144.779 191.6 141.486 197.47C138.194 203.34 136.071 209.767 133.97 216.162L132.129 249.102C139.077 237.281 144.66 223.381 146.165 209.751L141.541 209.334C144.643 208.863 147.243 206.627 148.9 203.952C150.557 201.277 151.407 198.217 152.241 195.19L146.598 196.035C151.055 193.033 154.183 188.429 155.333 183.18V183.18Z" fill="black"/>
</g>
<path d="M131.1 256.834C131.1 256.834 116.014 238.781 116.182 221.545H122.279C122.279 221.545 115.64 217.191 116.182 214.754C116.723 212.318 116.886 203.074 116.886 203.074L122.458 204.471C122.458 204.471 118.277 202.381 117.758 199.056C117.238 195.731 118.976 180.429 118.976 180.429C118.976 180.429 125.766 187.566 127.857 194.876C129.947 202.186 135.438 210.72 133.813 233.008C132.189 255.296 131.1 256.834 131.1 256.834Z" fill="#455A64"/>
<path d="M138.746 258.54C138.746 258.54 155.094 247.651 158.722 233.756L153.822 232.424C153.822 232.424 160.098 230.371 160.212 228.297C160.325 226.223 162.21 218.778 162.21 218.778L157.428 218.68C157.428 218.68 161.219 217.911 162.388 215.366C163.558 212.821 165.459 200.112 165.459 200.112C165.459 200.112 158.419 204.368 155.17 209.789C151.921 215.209 145.618 220.868 142.033 239.138C138.449 257.408 138.746 258.54 138.746 258.54Z" fill="#455A64"/>
<path d="M123.097 196.197C123.121 196.257 123.139 196.318 123.152 196.381L123.281 196.923L123.758 199.089C123.969 200.015 124.213 201.157 124.478 202.484C124.744 203.811 125.058 205.322 125.361 207C126.011 210.347 126.693 214.354 127.391 218.805C128.09 223.256 128.751 228.173 129.357 233.339C129.964 238.505 130.408 243.443 130.76 247.959C131.112 252.475 131.344 256.509 131.48 259.916C131.561 261.621 131.604 263.165 131.642 264.513C131.68 265.861 131.713 267.036 131.723 267.989C131.734 268.942 131.723 269.662 131.723 270.182V270.751C131.732 270.816 131.732 270.881 131.723 270.946C131.717 270.883 131.717 270.819 131.723 270.756C131.723 270.61 131.723 270.421 131.723 270.182C131.723 269.641 131.68 268.931 131.648 267.989C131.615 267.047 131.583 265.872 131.518 264.518C131.453 263.165 131.409 261.627 131.312 259.926C131.149 256.52 130.879 252.475 130.532 247.981C130.186 243.486 129.698 238.559 129.108 233.393C128.518 228.227 127.835 223.321 127.169 218.864C126.503 214.408 125.821 210.412 125.198 207.06C124.906 205.381 124.608 203.87 124.354 202.538C124.099 201.206 123.877 200.064 123.688 199.132C123.498 198.201 123.357 197.508 123.26 196.966C123.216 196.733 123.179 196.544 123.157 196.425C123.129 196.351 123.109 196.275 123.097 196.197Z" fill="#263238"/>
<path d="M129.01 267.892C129.01 267.892 115.202 252.232 110.919 242.761L114.168 241.38C111.823 241.765 109.419 240.757 107.599 239.214C105.78 237.671 104.448 235.673 103.138 233.685L107.399 232.965C103.483 231.846 100.148 229.264 98.0853 225.752C103.116 226.581 107.67 229.343 111.417 232.792C114.396 235.653 117.1 238.785 119.496 242.149C120.702 243.766 121.752 245.494 122.632 247.31C124.938 252.118 129.016 262.141 129.01 267.892Z" fill="#455A64"/>
<path d="M158.961 209.231C158.946 209.286 158.924 209.339 158.896 209.388L158.685 209.843L157.845 211.581C157.103 213.087 156.058 215.274 154.786 217.987C153.513 220.7 152.051 223.944 150.454 227.588C148.856 231.232 147.232 235.256 145.58 239.501C143.929 243.746 142.456 247.867 141.162 251.614C139.868 255.362 138.774 258.757 137.913 261.616C137.052 264.475 136.332 266.803 135.866 268.412L135.324 270.264C135.259 270.464 135.211 270.621 135.173 270.746C135.135 270.87 135.119 270.908 135.113 270.903C135.116 270.855 135.123 270.808 135.135 270.762C135.167 270.637 135.205 270.48 135.259 270.274C135.378 269.83 135.541 269.191 135.752 268.412C136.185 266.787 136.835 264.459 137.718 261.589C138.6 258.719 139.662 255.313 140.929 251.555C142.196 247.797 143.685 243.698 145.331 239.431C146.977 235.164 148.661 231.135 150.205 227.518C151.748 223.9 153.28 220.641 154.575 217.933C155.869 215.226 156.946 213.06 157.715 211.565L158.603 209.849C158.701 209.67 158.777 209.524 158.842 209.41C158.907 209.296 158.961 209.226 158.961 209.231Z" fill="#263238"/>
<path d="M130.18 274.606C130.145 274.514 130.123 274.417 130.115 274.319C130.077 274.097 130.034 273.821 129.979 273.485C129.871 272.765 129.692 271.72 129.438 270.442C129.183 269.164 128.837 267.643 128.387 265.98C127.938 264.318 127.348 262.509 126.649 260.641C125.951 258.773 125.171 257.045 124.424 255.491C123.676 253.937 122.929 252.567 122.258 251.441C121.586 250.315 121.045 249.416 120.633 248.804L120.184 248.089C120.123 248.011 120.075 247.923 120.043 247.829C120.113 247.897 120.175 247.973 120.227 248.057C120.362 248.241 120.525 248.463 120.72 248.739C121.148 249.334 121.732 250.223 122.415 251.343C123.097 252.464 123.855 253.823 124.629 255.372C125.404 256.921 126.173 258.67 126.888 260.544C127.602 262.417 128.182 264.264 128.637 265.888C129.091 267.513 129.411 269.088 129.638 270.383C129.866 271.677 130.017 272.722 130.088 273.447C130.12 273.789 130.147 274.065 130.169 274.287C130.188 274.392 130.191 274.5 130.18 274.606V274.606Z" fill="#263238"/>
<path d="M148.396 270.919H118.18V277.081H148.396V270.919Z" fill="#FF725E"/>
<path d="M121.062 277.086L124.327 297.815H142.586L145.629 277.086H121.062Z" fill="#FF725E"/>
<path d="M146.544 277.087C146.544 277.162 140.826 277.227 133.775 277.227C126.725 277.227 121.012 277.162 121.012 277.087C121.012 277.011 126.725 276.946 133.775 276.946C140.826 276.946 146.544 277.005 146.544 277.087Z" fill="#263238"/>
<path d="M247.138 69.9683H112.213V154.48H247.138V69.9683Z" fill="white"/>
<path d="M247.138 69.9683H112.213V77.7117H247.138V69.9683Z" fill="#455A64"/>
<path d="M247.138 152.807H112.164V168.045H247.138V152.807Z" fill="#F5F5F5"/>
<path d="M139.91 160.177H141.118L141.497 160.967H141.757L140.549 158.449H140.479L139.271 160.967H139.531L139.91 160.177ZM140.517 158.92L141.004 159.944H140.008L140.517 158.92Z" fill="#263238"/>
<path d="M141.935 161.509H139.076V161.709H141.935V161.509Z" fill="#263238"/>
<path d="M122.138 158.303H121.949C121.675 158.322 121.419 158.445 121.232 158.646C121.045 158.847 120.941 159.112 120.942 159.386C121.076 160.186 121.424 160.934 121.949 161.552C121.949 161.552 122.019 161.682 122.138 161.552C122.663 160.934 123.011 160.186 123.146 159.386C123.146 159.112 123.043 158.847 122.856 158.646C122.669 158.445 122.412 158.322 122.138 158.303V158.303ZM122.041 160.02C121.923 160.02 121.808 159.985 121.71 159.919C121.611 159.853 121.535 159.76 121.49 159.651C121.445 159.542 121.434 159.422 121.457 159.306C121.481 159.19 121.538 159.084 121.622 159.001C121.706 158.918 121.812 158.862 121.928 158.839C122.044 158.817 122.164 158.829 122.273 158.875C122.381 158.921 122.474 158.998 122.539 159.097C122.604 159.196 122.638 159.312 122.637 159.43C122.637 159.585 122.575 159.734 122.466 159.845C122.356 159.956 122.207 160.018 122.052 160.02H122.041Z" fill="#263238"/>
<path d="M135.535 160.838C135.535 161 135.47 161.156 135.356 161.27C135.241 161.385 135.085 161.45 134.923 161.45C134.761 161.45 134.605 161.385 134.49 161.27C134.376 161.156 134.311 161 134.311 160.838V158.861C134.311 158.756 134.353 158.656 134.427 158.582C134.501 158.507 134.602 158.466 134.706 158.466C134.811 158.466 134.912 158.507 134.986 158.582C135.06 158.656 135.102 158.756 135.102 158.861V160.534C135.091 160.584 135.063 160.629 135.024 160.661C134.985 160.694 134.936 160.712 134.885 160.713C134.833 160.712 134.784 160.694 134.743 160.662C134.703 160.629 134.675 160.585 134.663 160.534V159.213H134.517V160.448V160.507C134.53 160.595 134.573 160.675 134.64 160.734C134.706 160.792 134.791 160.825 134.88 160.827C134.968 160.824 135.052 160.791 135.119 160.732C135.185 160.674 135.229 160.594 135.242 160.507V160.475C135.243 160.466 135.243 160.457 135.242 160.448V158.823C135.242 158.68 135.185 158.542 135.084 158.44C134.982 158.339 134.845 158.282 134.701 158.282C134.557 158.282 134.42 158.339 134.318 158.44C134.216 158.542 134.159 158.68 134.159 158.823V160.892C134.178 161.08 134.266 161.254 134.406 161.381C134.546 161.509 134.728 161.579 134.918 161.579C135.106 161.58 135.289 161.51 135.428 161.382C135.567 161.255 135.654 161.08 135.67 160.892V160.892V159.213H135.524L135.535 160.838Z" fill="#263238"/>
<path d="M129.026 159.332L128.484 158.184L127.916 159.332L126.654 159.516L127.569 160.41L127.353 161.666L128.484 161.07L129.616 161.666L129.399 160.41L130.315 159.516L129.026 159.332ZM129.351 161.33L128.463 160.865L127.575 161.33L127.737 160.393V160.345L127.011 159.646L128.002 159.5L128.446 158.601L128.89 159.5L129.881 159.646L129.215 160.296L129.177 160.334L129.351 161.33Z" fill="#263238"/>
<path d="M151.309 156.776H151.125V162.652H151.309V156.776Z" fill="#263238"/>
<path d="M147.719 158.855H145.38V161.346H147.719V158.855Z" fill="#263238"/>
<path d="M146.116 158.271V158.46H146.977V158.271H147.713V158.655H145.38V158.271H146.116Z" fill="#263238"/>
<path d="M146.977 158.076H146.116V158.265H146.977V158.076Z" fill="#263238"/>
<path d="M146.977 158.271H146.116V158.46H146.977V158.271Z" fill="#263238"/>
<path d="M156.605 160.187L157.319 159.473L157.406 159.559L156.605 160.361L155.798 159.559L155.884 159.473L156.605 160.187Z" fill="#263238"/>
<path d="M239.698 99.648C239.492 99.6493 239.294 99.7298 239.146 99.873C238.998 100.016 238.91 100.211 238.902 100.417V100.417V103.439C238.921 103.719 239.047 103.981 239.252 104.173C239.458 104.365 239.728 104.471 240.009 104.471C240.29 104.471 240.561 104.365 240.766 104.173C240.972 103.981 241.097 103.719 241.117 103.439V103.439V101.002H240.9V103.336C240.882 103.561 240.78 103.772 240.614 103.926C240.448 104.079 240.23 104.165 240.004 104.165C239.777 104.165 239.559 104.079 239.393 103.926C239.227 103.772 239.125 103.561 239.108 103.336V100.444C239.108 100.29 239.169 100.143 239.277 100.034C239.386 99.9257 239.533 99.8646 239.687 99.8646C239.841 99.8646 239.988 99.9257 240.097 100.034C240.205 100.143 240.266 100.29 240.266 100.444V102.897C240.249 102.969 240.209 103.033 240.151 103.08C240.093 103.126 240.021 103.151 239.947 103.152C239.876 103.147 239.808 103.119 239.754 103.074C239.699 103.028 239.661 102.966 239.644 102.897V101.007H239.427V102.816V102.897C239.427 103.041 239.484 103.178 239.586 103.28C239.687 103.381 239.825 103.439 239.969 103.439C240.112 103.439 240.25 103.381 240.351 103.28C240.453 103.178 240.51 103.041 240.51 102.897V102.848C240.51 102.848 240.51 102.821 240.51 102.81V100.417C240.502 100.208 240.412 100.011 240.26 99.8674C240.109 99.7237 239.907 99.645 239.698 99.648V99.648Z" fill="#263238"/>
<path d="M116.653 82.0276H115.732V81.6919H117.958V82.0276H117.032V84.3831H116.653V82.0276Z" fill="#263238"/>
<path d="M117.92 83.3651C117.911 83.1493 117.967 82.9358 118.081 82.7521C118.194 82.5684 118.36 82.4228 118.557 82.3342C118.754 82.2455 118.973 82.2178 119.186 82.2546C119.399 82.2913 119.596 82.3909 119.752 82.5405C119.908 82.6901 120.015 82.8829 120.061 83.094C120.106 83.3052 120.087 83.5252 120.007 83.7256C119.926 83.926 119.788 84.0978 119.609 84.2188C119.43 84.3398 119.219 84.4046 119.003 84.4048C118.862 84.4138 118.721 84.3935 118.588 84.345C118.455 84.2965 118.334 84.221 118.232 84.1232C118.131 84.0255 118.05 83.9076 117.996 83.777C117.942 83.6465 117.916 83.5062 117.92 83.3651V83.3651ZM119.663 83.3651C119.658 83.2301 119.613 83.0997 119.534 82.9901C119.455 82.8806 119.346 82.7966 119.219 82.7489C119.093 82.7011 118.955 82.6916 118.824 82.7216C118.692 82.7516 118.572 82.8196 118.479 82.9173C118.385 83.015 118.323 83.138 118.299 83.271C118.275 83.404 118.291 83.541 118.345 83.665C118.398 83.789 118.487 83.8944 118.6 83.9682C118.714 84.042 118.846 84.0808 118.981 84.0799C119.074 84.0824 119.167 84.0654 119.253 84.0299C119.339 83.9944 119.417 83.9413 119.481 83.874C119.545 83.8066 119.595 83.7265 119.626 83.6389C119.657 83.5512 119.67 83.4579 119.663 83.3651V83.3651Z" fill="#263238"/>
<path d="M121.401 82.5852C121.401 82.5506 121.408 82.5163 121.422 82.4844C121.435 82.4525 121.455 82.4236 121.479 82.3994C121.504 82.3752 121.533 82.3562 121.566 82.3435C121.598 82.3307 121.632 82.3245 121.667 82.3253C121.739 82.3253 121.807 82.3538 121.858 82.4046C121.909 82.4553 121.938 82.5242 121.938 82.596C121.938 82.6678 121.909 82.7367 121.858 82.7875C121.807 82.8382 121.739 82.8668 121.667 82.8668C121.63 82.8676 121.594 82.8608 121.56 82.8468C121.527 82.8327 121.496 82.8117 121.471 82.7852C121.446 82.7586 121.427 82.7271 121.415 82.6926C121.403 82.6581 121.398 82.6215 121.401 82.5852ZM121.401 84.1393C121.401 84.1047 121.408 84.0704 121.422 84.0385C121.435 84.0066 121.455 83.9778 121.479 83.9535C121.504 83.9293 121.533 83.9103 121.566 83.8976C121.598 83.8848 121.632 83.8786 121.667 83.8794C121.7 83.8793 121.734 83.8861 121.765 83.8993C121.796 83.9125 121.824 83.9318 121.847 83.9561C121.87 83.9804 121.888 84.0091 121.9 84.0406C121.912 84.0721 121.917 84.1057 121.916 84.1393C121.917 84.1731 121.912 84.207 121.9 84.2387C121.888 84.2705 121.87 84.2996 121.847 84.3243C121.824 84.3491 121.796 84.3689 121.765 84.3827C121.734 84.3965 121.701 84.4039 121.667 84.4046C121.632 84.4053 121.597 84.399 121.564 84.3859C121.532 84.3728 121.502 84.3533 121.477 84.3285C121.453 84.3038 121.433 84.2742 121.42 84.2417C121.407 84.2092 121.401 84.1743 121.401 84.1393V84.1393Z" fill="#263238"/>
<path d="M116.279 92.0669C116.277 91.8815 116.312 91.6975 116.383 91.5263C116.455 91.3551 116.56 91.2003 116.694 91.0714C116.827 90.9426 116.986 90.8424 117.159 90.7771C117.333 90.7117 117.518 90.6826 117.703 90.6915C117.894 90.6837 118.084 90.7169 118.26 90.7888C118.437 90.8608 118.596 90.9698 118.727 91.1085L118.477 91.3521C118.36 91.2232 118.212 91.1257 118.047 91.0686C117.882 91.0115 117.706 90.9966 117.533 91.0253C117.361 91.054 117.199 91.1253 117.062 91.2328C116.924 91.3402 116.816 91.4804 116.746 91.6406C116.677 91.8007 116.649 91.9756 116.664 92.1494C116.68 92.3233 116.739 92.4904 116.835 92.6356C116.932 92.7809 117.064 92.8996 117.218 92.9809C117.373 93.0622 117.545 93.1036 117.719 93.1012C117.862 93.1043 118.003 93.0769 118.134 93.0209C118.264 92.9648 118.382 92.8814 118.477 92.7763L118.727 93.02C118.595 93.1598 118.435 93.2698 118.258 93.3426C118.08 93.4155 117.889 93.4495 117.698 93.4423C117.513 93.4504 117.328 93.4208 117.155 93.3551C116.983 93.2894 116.825 93.1891 116.692 93.0603C116.559 92.9316 116.454 92.777 116.383 92.6062C116.312 92.4354 116.277 92.2519 116.279 92.0669Z" fill="#263238"/>
<path d="M118.949 92.4083C118.945 92.2674 118.972 92.1273 119.025 91.9971C119.079 91.8668 119.16 91.7492 119.262 91.6519C119.364 91.5545 119.485 91.4795 119.617 91.4317C119.75 91.3838 119.891 91.3642 120.032 91.3741C120.196 91.3639 120.36 91.3989 120.506 91.4753C120.652 91.5516 120.775 91.6664 120.86 91.8072L120.584 91.9859C120.526 91.8952 120.446 91.8207 120.351 91.7696C120.257 91.7184 120.15 91.6922 120.043 91.6935C119.863 91.7091 119.696 91.7915 119.574 91.9243C119.452 92.0572 119.385 92.2308 119.385 92.411C119.385 92.5912 119.452 92.7649 119.574 92.8977C119.696 93.0305 119.863 93.1129 120.043 93.1285C120.15 93.1298 120.257 93.1036 120.351 93.0525C120.446 93.0013 120.526 92.9268 120.584 92.8361L120.86 93.0148C120.775 93.1566 120.653 93.2725 120.507 93.3498C120.361 93.4272 120.197 93.463 120.032 93.4534C119.89 93.4625 119.749 93.442 119.616 93.3932C119.483 93.3444 119.361 93.2684 119.259 93.17C119.158 93.0717 119.077 92.9531 119.024 92.822C118.97 92.6908 118.945 92.5499 118.949 92.4083V92.4083Z" fill="#263238"/>
<path d="M122.187 91.634C122.186 91.5997 122.192 91.5655 122.205 91.5337C122.218 91.5018 122.237 91.4729 122.261 91.4486C122.285 91.4243 122.314 91.4052 122.346 91.3924C122.378 91.3796 122.412 91.3733 122.447 91.3741C122.481 91.3741 122.514 91.3808 122.545 91.394C122.577 91.4071 122.605 91.4263 122.629 91.4505C122.652 91.4747 122.671 91.5034 122.683 91.5349C122.696 91.5664 122.702 91.6001 122.701 91.634C122.703 91.6683 122.697 91.7026 122.685 91.7347C122.673 91.7669 122.654 91.7962 122.631 91.821C122.607 91.8458 122.578 91.8655 122.547 91.879C122.515 91.8924 122.481 91.8994 122.447 91.8993C122.412 91.8993 122.378 91.8924 122.346 91.879C122.314 91.8656 122.285 91.846 122.261 91.8213C122.237 91.7966 122.218 91.7673 122.205 91.7351C122.192 91.703 122.186 91.6686 122.187 91.634V91.634ZM122.187 93.1881C122.186 93.1538 122.192 93.1196 122.205 93.0878C122.218 93.0559 122.237 93.027 122.261 93.0027C122.285 92.9784 122.314 92.9593 122.346 92.9465C122.378 92.9337 122.412 92.9274 122.447 92.9282C122.481 92.9274 122.515 92.9336 122.546 92.9465C122.578 92.9594 122.606 92.9786 122.63 93.0029C122.654 93.0273 122.673 93.0563 122.685 93.0882C122.697 93.12 122.703 93.154 122.701 93.1881C122.703 93.2224 122.697 93.2567 122.685 93.2888C122.673 93.321 122.654 93.3503 122.631 93.3751C122.607 93.3999 122.578 93.4196 122.547 93.4331C122.515 93.4465 122.481 93.4535 122.447 93.4534C122.412 93.4534 122.378 93.4465 122.346 93.4331C122.314 93.4197 122.285 93.4001 122.261 93.3754C122.237 93.3507 122.218 93.3214 122.205 93.2892C122.192 93.2571 122.186 93.2227 122.187 93.1881V93.1881Z" fill="#263238"/>
<path d="M115.873 102.285L116.014 101.987C116.266 102.19 116.58 102.299 116.902 102.296C117.368 102.296 117.568 102.117 117.568 101.884C117.568 101.224 115.944 101.641 115.944 100.644C115.944 100.227 116.269 99.8754 116.973 99.8754C117.279 99.8681 117.58 99.951 117.839 100.114L117.709 100.417C117.488 100.278 117.234 100.203 116.973 100.2C116.518 100.2 116.323 100.39 116.323 100.628C116.323 101.283 117.947 100.872 117.947 101.857C117.947 102.269 117.617 102.626 116.908 102.626C116.534 102.638 116.167 102.517 115.873 102.285Z" fill="#263238"/>
<path d="M120.346 100.558V102.594H120V102.285C119.919 102.392 119.814 102.477 119.693 102.535C119.573 102.592 119.44 102.62 119.306 102.615C119.187 102.627 119.067 102.613 118.954 102.572C118.842 102.532 118.739 102.466 118.655 102.381C118.571 102.296 118.507 102.193 118.468 102.08C118.429 101.967 118.416 101.846 118.429 101.727V100.558H118.797V101.689C118.797 102.085 118.998 102.285 119.339 102.285C119.428 102.292 119.517 102.278 119.599 102.246C119.682 102.213 119.757 102.163 119.817 102.098C119.878 102.033 119.924 101.955 119.95 101.871C119.977 101.786 119.985 101.696 119.972 101.608V100.558H120.346Z" fill="#263238"/>
<path d="M123.156 101.576C123.163 101.713 123.141 101.851 123.092 101.979C123.043 102.108 122.968 102.225 122.871 102.322C122.774 102.42 122.658 102.497 122.53 102.547C122.402 102.598 122.265 102.621 122.127 102.616C121.987 102.622 121.848 102.593 121.721 102.533C121.595 102.472 121.485 102.382 121.402 102.269V102.594H121.055V99.7402H121.429V100.867C121.513 100.759 121.621 100.674 121.744 100.616C121.867 100.559 122.002 100.531 122.138 100.536C122.275 100.532 122.411 100.557 122.537 100.608C122.664 100.659 122.779 100.736 122.875 100.833C122.97 100.931 123.045 101.047 123.093 101.175C123.142 101.303 123.163 101.439 123.156 101.576ZM122.783 101.576C122.776 101.441 122.731 101.312 122.651 101.203C122.572 101.094 122.462 101.011 122.336 100.964C122.21 100.917 122.073 100.908 121.942 100.938C121.811 100.968 121.691 101.036 121.598 101.133C121.505 101.231 121.443 101.353 121.419 101.486C121.395 101.618 121.41 101.755 121.463 101.879C121.516 102.002 121.604 102.108 121.716 102.182C121.829 102.256 121.96 102.296 122.095 102.296C122.189 102.299 122.282 102.281 122.369 102.246C122.455 102.21 122.534 102.156 122.599 102.089C122.663 102.021 122.713 101.94 122.745 101.852C122.777 101.763 122.789 101.669 122.783 101.576V101.576Z" fill="#263238"/>
<path d="M122.961 103.238L123.08 102.957C123.166 103.02 123.271 103.052 123.378 103.049C123.578 103.049 123.681 102.93 123.681 102.691V100.558H124.055V102.686C124.066 102.775 124.056 102.866 124.028 102.951C124 103.036 123.953 103.114 123.89 103.178C123.828 103.243 123.752 103.293 123.669 103.325C123.585 103.357 123.495 103.37 123.405 103.363C123.247 103.372 123.091 103.328 122.961 103.238V103.238ZM123.616 99.9298C123.616 99.8973 123.623 99.8652 123.635 99.8353C123.648 99.8053 123.666 99.7782 123.69 99.7555C123.713 99.7328 123.74 99.715 123.771 99.7031C123.801 99.6912 123.833 99.6854 123.865 99.6861C123.898 99.6839 123.93 99.6882 123.96 99.6989C123.991 99.7095 124.019 99.7262 124.043 99.748C124.066 99.7698 124.086 99.7962 124.099 99.8255C124.112 99.8549 124.119 99.8867 124.12 99.9189C124.121 99.9523 124.115 99.9855 124.102 100.016C124.089 100.047 124.071 100.075 124.047 100.099C124.023 100.122 123.995 100.14 123.963 100.152C123.932 100.164 123.899 100.17 123.865 100.168C123.833 100.169 123.802 100.163 123.772 100.152C123.742 100.14 123.715 100.123 123.692 100.101C123.668 100.078 123.65 100.052 123.637 100.023C123.624 99.9933 123.617 99.9618 123.616 99.9298V99.9298Z" fill="#263238"/>
<path d="M126.589 101.7H124.932C124.957 101.876 125.047 102.035 125.185 102.146C125.323 102.256 125.498 102.31 125.674 102.296C125.784 102.3 125.894 102.28 125.995 102.237C126.096 102.194 126.186 102.129 126.259 102.047L126.465 102.285C126.315 102.438 126.123 102.545 125.913 102.592C125.704 102.638 125.485 102.623 125.284 102.548C125.083 102.473 124.908 102.341 124.78 102.169C124.652 101.996 124.577 101.79 124.564 101.576C124.559 101.439 124.582 101.303 124.631 101.176C124.681 101.048 124.756 100.932 124.851 100.835C124.947 100.737 125.062 100.661 125.189 100.609C125.315 100.558 125.451 100.533 125.588 100.536C125.725 100.532 125.861 100.557 125.988 100.609C126.115 100.66 126.23 100.738 126.325 100.837C126.42 100.936 126.493 101.054 126.539 101.183C126.586 101.312 126.605 101.45 126.595 101.587C126.595 101.619 126.589 101.662 126.589 101.7ZM124.932 101.435H126.243C126.222 101.276 126.145 101.129 126.024 101.023C125.903 100.917 125.748 100.859 125.588 100.859C125.427 100.859 125.272 100.917 125.151 101.023C125.031 101.129 124.953 101.276 124.932 101.435V101.435Z" fill="#263238"/>
<path d="M126.914 101.576C126.911 101.435 126.937 101.295 126.991 101.164C127.045 101.033 127.125 100.916 127.227 100.818C127.329 100.72 127.45 100.645 127.582 100.596C127.715 100.548 127.856 100.527 127.997 100.536C128.162 100.527 128.326 100.563 128.472 100.641C128.618 100.718 128.74 100.833 128.826 100.975L128.544 101.154C128.486 101.063 128.406 100.988 128.311 100.937C128.216 100.886 128.11 100.86 128.003 100.861C127.823 100.877 127.656 100.959 127.534 101.092C127.412 101.225 127.345 101.398 127.345 101.579C127.345 101.759 127.412 101.933 127.534 102.065C127.656 102.198 127.823 102.281 128.003 102.296C128.11 102.297 128.216 102.271 128.311 102.22C128.406 102.169 128.486 102.094 128.544 102.004L128.826 102.177C128.74 102.318 128.618 102.434 128.472 102.511C128.326 102.589 128.162 102.625 127.997 102.616C127.856 102.625 127.715 102.604 127.582 102.556C127.45 102.507 127.329 102.432 127.227 102.334C127.125 102.236 127.045 102.118 126.991 101.988C126.937 101.857 126.911 101.717 126.914 101.576V101.576Z" fill="#263238"/>
<path d="M130.467 102.475C130.339 102.571 130.182 102.621 130.023 102.615C129.936 102.626 129.848 102.616 129.766 102.588C129.683 102.56 129.608 102.513 129.546 102.452C129.484 102.39 129.437 102.316 129.408 102.233C129.379 102.151 129.369 102.063 129.378 101.977V100.861H129.032V100.558H129.378V100.114H129.746V100.558H130.331V100.861H129.746V101.944C129.74 101.989 129.743 102.034 129.757 102.077C129.77 102.12 129.793 102.159 129.824 102.192C129.854 102.225 129.892 102.25 129.934 102.266C129.976 102.283 130.021 102.289 130.066 102.285C130.17 102.284 130.27 102.25 130.353 102.188L130.467 102.475Z" fill="#263238"/>
<path d="M131.771 100.801C131.771 100.767 131.777 100.732 131.79 100.7C131.802 100.668 131.821 100.639 131.846 100.614C131.87 100.589 131.899 100.57 131.931 100.556C131.962 100.543 131.997 100.536 132.031 100.536C132.066 100.536 132.1 100.543 132.131 100.556C132.163 100.57 132.191 100.59 132.215 100.614C132.239 100.639 132.257 100.669 132.27 100.701C132.282 100.733 132.287 100.767 132.286 100.801C132.287 100.836 132.282 100.87 132.27 100.902C132.257 100.934 132.239 100.964 132.215 100.988C132.191 101.013 132.163 101.033 132.131 101.046C132.1 101.06 132.066 101.067 132.031 101.067C131.997 101.067 131.962 101.06 131.931 101.047C131.899 101.033 131.87 101.013 131.846 100.989C131.821 100.964 131.802 100.935 131.79 100.903C131.777 100.87 131.771 100.836 131.771 100.801V100.801ZM131.771 102.35C131.771 102.316 131.777 102.282 131.79 102.25C131.802 102.218 131.822 102.189 131.846 102.165C131.87 102.14 131.899 102.121 131.931 102.109C131.963 102.096 131.997 102.089 132.031 102.09C132.103 102.09 132.172 102.119 132.223 102.17C132.274 102.22 132.302 102.289 132.302 102.361C132.302 102.433 132.274 102.502 132.223 102.552C132.172 102.603 132.103 102.632 132.031 102.632C131.996 102.632 131.961 102.625 131.928 102.611C131.895 102.596 131.866 102.576 131.842 102.55C131.817 102.524 131.798 102.493 131.786 102.46C131.774 102.427 131.769 102.391 131.771 102.356V102.35Z" fill="#263238"/>
<path d="M165.485 83.901C165.485 83.9769 156.865 84.0418 146.23 84.0418C135.595 84.0418 126.974 83.9769 126.974 83.901C126.974 83.8252 135.595 83.7603 146.23 83.7603C156.865 83.7603 165.485 83.8198 165.485 83.901Z" fill="#263238"/>
<path d="M182.683 92.6842C182.683 92.7655 170.229 92.825 154.829 92.825C139.428 92.825 126.974 92.7655 126.974 92.6842C126.974 92.603 139.428 92.5435 154.829 92.5435C170.229 92.5435 182.683 92.6084 182.683 92.6842Z" fill="#263238"/>
<path d="M162.085 101.408C162 101.416 161.915 101.416 161.83 101.408H161.094L158.386 101.451C156.106 101.451 152.971 101.494 149.495 101.494C146.018 101.494 142.878 101.494 140.603 101.451L137.896 101.408H137.165C137.078 101.415 136.991 101.415 136.905 101.408C136.989 101.384 137.077 101.373 137.165 101.375H137.896L140.603 101.332C142.878 101.332 146.018 101.294 149.495 101.294C152.971 101.294 156.106 101.294 158.386 101.332L161.094 101.375H161.83C161.916 101.372 162.002 101.383 162.085 101.408V101.408Z" fill="#263238"/>
<path d="M245.681 106.146C245.681 106.222 215.802 106.287 178.953 106.287C142.103 106.287 112.213 106.227 112.213 106.146C112.213 106.065 142.087 106.005 178.953 106.005C215.818 106.005 245.681 106.07 245.681 106.146Z" fill="#E0E0E0"/>
<path d="M245.681 96.6374C245.681 96.7186 215.79 96.7782 178.925 96.7782C142.06 96.7782 112.164 96.7186 112.164 96.6374C112.164 96.5561 142.049 96.4966 178.925 96.4966C215.801 96.4966 245.681 96.5616 245.681 96.6374Z" fill="#E0E0E0"/>
<path d="M245.681 88.2765C245.681 88.3523 215.802 88.4173 178.953 88.4173C142.103 88.4173 112.213 88.3686 112.213 88.2765C112.213 88.1845 142.087 88.1357 178.953 88.1357C215.818 88.1357 245.681 88.217 245.681 88.2765Z" fill="#E0E0E0"/>
<path d="M130.13 117.75C128.606 117.89 127.074 117.937 125.544 117.891C124.012 117.937 122.478 117.89 120.952 117.75C122.478 117.611 124.012 117.564 125.544 117.61C127.074 117.564 128.606 117.611 130.13 117.75V117.75Z" fill="#263238"/>
<path d="M182.391 123.063C182.391 123.138 168.496 123.203 151.368 123.203C134.24 123.203 120.34 123.138 120.34 123.063C120.34 122.987 134.23 122.933 151.379 122.933C168.528 122.933 182.391 122.987 182.391 123.063Z" fill="#263238"/>
<path d="M172.097 126.777C172.097 126.842 160.509 126.896 146.218 126.896C131.928 126.896 120.34 126.842 120.34 126.777C120.34 126.712 131.923 126.658 146.218 126.658C160.514 126.658 172.097 126.723 172.097 126.777Z" fill="#263238"/>
<path d="M115.992 74.6796C116.456 74.6796 116.832 74.3038 116.832 73.8403C116.832 73.3768 116.456 73.001 115.992 73.001C115.529 73.001 115.153 73.3768 115.153 73.8403C115.153 74.3038 115.529 74.6796 115.992 74.6796Z" fill="white"/>
<path d="M118.976 74.6796C119.439 74.6796 119.815 74.3038 119.815 73.8403C119.815 73.3768 119.439 73.001 118.976 73.001C118.512 73.001 118.136 73.3768 118.136 73.8403C118.136 74.3038 118.512 74.6796 118.976 74.6796Z" fill="white"/>
<path d="M121.959 74.6796C122.423 74.6796 122.799 74.3038 122.799 73.8403C122.799 73.3768 122.423 73.001 121.959 73.001C121.496 73.001 121.12 73.3768 121.12 73.8403C121.12 74.3038 121.496 74.6796 121.959 74.6796Z" fill="white"/>
<path d="M247.679 168.039C247.679 167.097 247.63 129.441 247.566 69.9684L247.679 70.0821L112.223 70.1092L112.364 69.9684C112.364 105.128 112.364 138.474 112.364 168.039L112.234 167.915L247.701 168.039L112.234 168.169H112.109V168.039C112.109 138.474 112.109 105.128 112.109 69.9684V69.8276H112.261H247.717H247.831V69.9414C247.723 129.43 247.679 167.097 247.679 168.039Z" fill="#263238"/>
<path d="M289.164 266.5H286.034V268.184H289.164V266.5Z" fill="#E0E0E0"/>
<path d="M288.092 224.057H280.863V259.91H288.092V224.057Z" fill="#EBEBEB"/>
<path d="M300.882 225.947H266.951C265.218 225.947 263.556 225.259 262.33 224.033C261.104 222.807 260.416 221.145 260.416 219.411V219.411C260.415 218.553 260.583 217.702 260.912 216.909C261.24 216.115 261.721 215.394 262.328 214.786C262.935 214.179 263.656 213.697 264.449 213.368C265.242 213.039 266.093 212.87 266.951 212.87H300.882C301.741 212.87 302.591 213.039 303.384 213.368C304.178 213.697 304.898 214.179 305.505 214.786C306.112 215.394 306.594 216.115 306.922 216.909C307.25 217.702 307.418 218.553 307.418 219.411V219.411C307.418 220.27 307.249 221.12 306.92 221.913C306.592 222.706 306.11 223.426 305.503 224.033C304.896 224.64 304.176 225.121 303.383 225.45C302.59 225.778 301.74 225.947 300.882 225.947Z" fill="#455A64"/>
<path d="M286.792 259.91H282.211V285.361H286.792V259.91Z" fill="#E0E0E0"/>
<path d="M266.129 297.766C265.23 297.88 304.732 297.766 304.732 297.766C304.732 297.766 287.881 295.882 286.792 285.36H282.211C282.211 285.36 281.058 295.865 266.129 297.766Z" fill="#E0E0E0"/>
<path d="M302.225 225.947C302.225 226.023 294.379 226.088 284.702 226.088C275.026 226.088 267.179 226.023 267.179 225.947C267.179 225.871 275.026 225.806 284.702 225.806C294.379 225.806 302.225 225.871 302.225 225.947Z" fill="#263238"/>
<path d="M288.086 259.932C285.66 260.119 283.223 260.119 280.797 259.932C283.225 259.744 285.664 259.744 288.091 259.932H288.086Z" fill="#263238"/>
<path d="M289.164 270.069C288.919 270.069 288.684 269.972 288.511 269.799C288.337 269.627 288.239 269.393 288.238 269.148V265.536C288.239 265.291 288.337 265.056 288.511 264.883C288.684 264.71 288.919 264.612 289.164 264.61V264.61C289.409 264.612 289.644 264.71 289.817 264.883C289.99 265.056 290.088 265.291 290.09 265.536V269.137C290.09 269.259 290.067 269.38 290.021 269.493C289.975 269.606 289.906 269.709 289.82 269.796C289.734 269.882 289.632 269.951 289.519 269.998C289.407 270.045 289.286 270.069 289.164 270.069Z" fill="#E0E0E0"/>
<path d="M216.966 121.687C216.966 121.687 218.552 119.949 219.034 119.911C219.516 119.873 224.449 121.351 224.449 121.351C225.021 121.46 225.555 121.715 225.998 122.093C226.442 122.635 231.321 127.914 231.321 127.914L225.906 132.69C225.906 132.69 219.549 131.548 218.996 130.882C218.444 130.216 218 129.149 218.406 128.813C218.133 128.345 218.004 127.806 218.038 127.264C218.127 126.883 218.237 126.507 218.368 126.138C218.368 126.138 217.41 125.45 217.372 124.974C217.36 124.717 217.298 124.465 217.188 124.232L216.966 123.864V121.687Z" fill="#FFBE9D"/>
<path d="M219.181 122.721C219.208 122.721 219.181 122.889 219.094 123.133C218.969 123.458 218.762 123.746 218.493 123.967C218.351 124.077 218.187 124.154 218.012 124.194C217.837 124.235 217.656 124.236 217.48 124.2C217.21 124.129 217.101 123.983 217.123 123.967C217.145 123.951 217.275 124.021 217.508 124.043C217.812 124.057 218.113 123.965 218.358 123.783C218.597 123.581 218.797 123.337 218.948 123.062C219.067 122.846 219.148 122.71 219.181 122.721Z" fill="#EB996E"/>
<path d="M197.461 110.321C196.678 110.317 195.925 110.622 195.367 111.171C194.809 111.72 194.491 112.468 194.483 113.25L194.228 145.908C194.224 146.691 194.53 147.444 195.078 148.002C195.627 148.56 196.375 148.878 197.158 148.886L220.751 149.071C221.534 149.075 222.286 148.769 222.844 148.22C223.402 147.671 223.72 146.924 223.729 146.141L223.886 113.467C223.889 113.069 223.813 112.675 223.663 112.306C223.513 111.938 223.292 111.603 223.013 111.32C222.733 111.037 222.4 110.813 222.033 110.659C221.667 110.505 221.273 110.425 220.875 110.424L197.461 110.321Z" fill="#E0E0E0"/>
<path d="M210.402 120.225C210.402 120.344 207.96 120.42 204.944 120.398C201.928 120.376 199.486 120.257 199.486 120.138C199.486 120.019 201.933 119.943 204.95 119.97C207.966 119.997 210.402 120.122 210.402 120.225Z" fill="#E0E0E0"/>
<path d="M217.389 124.492C217.389 124.611 213.36 124.676 208.4 124.632C203.44 124.589 199.422 124.47 199.422 124.351C199.422 124.232 203.445 124.167 208.405 124.205C213.365 124.243 217.389 124.373 217.389 124.492Z" fill="#E0E0E0"/>
<path d="M218.969 128.846C218.969 128.965 214.583 129.024 209.174 128.981C203.764 128.938 199.383 128.808 199.383 128.689C199.383 128.569 203.769 128.51 209.179 128.553C214.589 128.596 218.969 128.726 218.969 128.846Z" fill="#E0E0E0"/>
<path d="M218.937 132.939C218.937 133.058 214.55 133.118 209.146 133.075C203.742 133.031 199.35 132.901 199.35 132.782C199.35 132.663 203.737 132.604 209.146 132.647C214.556 132.69 218.937 132.82 218.937 132.939Z" fill="#E0E0E0"/>
<path d="M218.904 137.011C218.904 137.13 214.518 137.19 209.114 137.146C203.71 137.103 199.318 136.973 199.318 136.854C199.318 136.735 203.705 136.675 209.114 136.719C214.524 136.762 218.904 136.914 218.904 137.011Z" fill="#E0E0E0"/>
<path d="M218.872 141.127C218.872 141.246 214.485 141.305 209.081 141.262C203.677 141.219 199.286 141.089 199.291 140.975C199.296 140.861 203.672 140.791 209.081 140.834C214.491 140.878 218.872 141.007 218.872 141.127Z" fill="#E0E0E0"/>
<path d="M196.367 109.346C195.98 109.343 195.595 109.417 195.236 109.563C194.877 109.708 194.55 109.923 194.274 110.195C193.998 110.467 193.778 110.791 193.627 111.148C193.476 111.505 193.397 111.888 193.394 112.276L193.134 144.934C193.13 145.716 193.436 146.469 193.985 147.027C194.534 147.585 195.281 147.903 196.064 147.912L219.663 148.096C220.05 148.099 220.434 148.025 220.794 147.88C221.153 147.734 221.48 147.519 221.756 147.247C222.032 146.975 222.251 146.651 222.402 146.294C222.553 145.937 222.632 145.554 222.635 145.166L222.798 112.487C222.801 111.685 222.485 110.915 221.921 110.345C221.356 109.776 220.589 109.453 219.787 109.449L196.367 109.346Z" fill="white"/>
<path d="M196.367 109.346C196.367 109.346 196.486 109.346 196.708 109.346H197.699H201.517H215.558H219.007C219.412 109.332 219.817 109.344 220.22 109.384C220.645 109.442 221.053 109.589 221.419 109.813C221.784 110.038 222.099 110.336 222.343 110.689C222.601 111.048 222.777 111.461 222.857 111.896C222.916 112.331 222.934 112.769 222.911 113.207C222.911 116.694 222.884 120.42 222.868 124.335C222.852 128.25 222.836 132.365 222.814 136.632C222.814 138.76 222.814 140.932 222.787 143.13C222.787 143.672 222.787 144.213 222.787 144.792C222.828 145.37 222.724 145.949 222.484 146.476C222.229 147.01 221.828 147.46 221.326 147.773C220.824 148.086 220.243 148.249 219.652 148.242L206.444 148.133L200.168 148.079H197.125C196.619 148.088 196.113 148.07 195.609 148.025C195.098 147.947 194.616 147.736 194.212 147.413C193.814 147.103 193.497 146.7 193.289 146.239C193.082 145.779 192.99 145.275 193.021 144.771C193.021 143.812 193.021 142.87 193.048 141.944C193.048 140.087 193.08 138.284 193.096 136.529C193.129 133.042 193.161 129.798 193.189 126.831C193.254 120.912 193.308 116.12 193.346 112.795C193.331 112.401 193.362 112.007 193.438 111.62C193.519 111.28 193.66 110.958 193.855 110.667C194.159 110.212 194.582 109.848 195.078 109.617C195.383 109.478 195.709 109.392 196.042 109.362C196.154 109.354 196.266 109.354 196.378 109.362C195.937 109.38 195.504 109.487 195.105 109.676C194.625 109.909 194.216 110.268 193.925 110.716C193.739 111 193.607 111.316 193.535 111.647C193.465 112.028 193.438 112.414 193.454 112.801C193.454 116.125 193.416 120.923 193.389 126.842C193.389 129.804 193.351 133.053 193.329 136.535C193.329 138.278 193.329 140.081 193.297 141.95C193.297 142.881 193.297 143.823 193.297 144.776C193.266 145.241 193.348 145.706 193.537 146.131C193.726 146.556 194.015 146.93 194.38 147.218C194.754 147.506 195.196 147.692 195.663 147.76C196.153 147.801 196.645 147.817 197.136 147.809H200.179L206.461 147.852L219.662 147.955C220.203 147.961 220.734 147.811 221.191 147.523C221.648 147.235 222.013 146.821 222.24 146.33C222.462 145.84 222.559 145.302 222.522 144.765C222.522 144.224 222.522 143.682 222.522 143.108C222.522 140.91 222.532 138.744 222.554 136.61C222.554 132.349 222.603 128.233 222.624 124.318C222.646 120.403 222.673 116.678 222.695 113.191C222.715 112.766 222.698 112.34 222.646 111.918C222.57 111.517 222.409 111.137 222.175 110.803C221.948 110.474 221.656 110.196 221.317 109.986C220.978 109.775 220.599 109.637 220.204 109.579C219.825 109.53 219.419 109.552 219.023 109.541H217.848H215.574L201.533 109.433L197.715 109.389H196.725L196.367 109.346Z" fill="#263238"/>
<path d="M209.287 119.266C209.287 119.385 206.84 119.461 203.824 119.44C200.808 119.418 198.371 119.299 198.371 119.18C198.371 119.061 200.813 118.985 203.829 119.012C206.845 119.039 209.287 119.142 209.287 119.266Z" fill="#263238"/>
<path d="M216.294 123.517C216.294 123.636 212.271 123.701 207.311 123.658C202.35 123.614 198.327 123.495 198.327 123.376C198.327 123.257 202.35 123.192 207.316 123.23C212.282 123.268 216.294 123.398 216.294 123.517Z" fill="#263238"/>
<path d="M217.881 127.871C217.881 127.99 213.495 128.05 208.085 128.006C202.676 127.963 198.295 127.833 198.295 127.714C198.295 127.595 202.681 127.535 208.091 127.579C213.5 127.622 217.881 127.752 217.881 127.871Z" fill="#263238"/>
<path d="M217.848 131.965C217.848 132.084 213.462 132.143 208.053 132.1C202.643 132.057 198.262 131.927 198.262 131.808C198.262 131.689 202.648 131.629 208.058 131.672C213.468 131.716 217.848 131.846 217.848 131.965Z" fill="#263238"/>
<path d="M217.816 136.058C217.816 136.178 213.43 136.237 208.02 136.194C202.611 136.151 198.23 136.021 198.23 135.901C198.23 135.782 202.616 135.723 208.026 135.766C213.435 135.809 217.816 135.929 217.816 136.058Z" fill="#263238"/>
<path d="M217.783 140.152C217.783 140.271 213.397 140.331 207.988 140.287C202.578 140.244 198.197 140.114 198.197 140C198.197 139.887 202.583 139.816 207.993 139.86C213.403 139.903 217.783 140.033 217.783 140.152Z" fill="#263238"/>
<path d="M199.659 112.828V110.121C199.659 110.013 199.638 109.906 199.597 109.806C199.555 109.706 199.495 109.615 199.418 109.539C199.342 109.462 199.251 109.402 199.151 109.36C199.051 109.319 198.944 109.298 198.836 109.298V109.298C198.618 109.298 198.408 109.384 198.254 109.539C198.1 109.693 198.013 109.902 198.013 110.121V113.911C198.013 114.262 198.152 114.598 198.4 114.845C198.648 115.093 198.984 115.232 199.334 115.232C199.508 115.232 199.679 115.198 199.839 115.132C199.999 115.065 200.144 114.968 200.267 114.845C200.389 114.722 200.486 114.577 200.551 114.416C200.617 114.256 200.651 114.084 200.65 113.911V109.541C200.65 109.054 200.457 108.587 200.112 108.243C199.768 107.899 199.301 107.706 198.814 107.706V107.706C198.436 107.706 198.067 107.823 197.758 108.041C197.449 108.259 197.214 108.568 197.087 108.924V109.141" stroke="#263238" stroke-width="0.75" stroke-linecap="round" stroke-linejoin="round"/>
<path d="M228.153 125.434L225.565 123.81L218.937 120.312C218.937 120.312 217.621 121.589 219.846 123.431L222.586 125.597C222.586 125.597 225.023 130.064 225.543 130.389C226.493 130.838 227.465 131.237 228.456 131.586L228.153 125.434Z" fill="#FFBE9D"/>
<path d="M228.711 131.71C228.62 131.704 228.531 131.684 228.446 131.65C228.272 131.602 228.018 131.531 227.693 131.418C227.368 131.304 226.978 131.168 226.534 130.968C226.296 130.865 226.065 130.747 225.841 130.616C225.58 130.469 225.351 130.27 225.17 130.031C224.339 128.869 223.592 127.649 222.933 126.382L222.63 125.84C222.53 125.669 222.398 125.52 222.24 125.401C221.932 125.131 221.585 124.86 221.244 124.6C220.508 124.068 219.805 123.493 219.137 122.878C218.773 122.539 218.536 122.085 218.467 121.592C218.398 121.099 218.501 120.597 218.758 120.171L218.812 120.089L218.905 120.144C221.552 121.638 223.838 123.003 225.565 123.804C226.404 124.264 227.043 124.676 227.482 124.952L227.985 125.282C228.045 125.321 228.101 125.364 228.153 125.412C228.087 125.39 228.023 125.359 227.964 125.32L227.422 125.022C226.967 124.762 226.312 124.367 225.473 123.939C223.729 123.176 221.423 121.828 218.775 120.344L218.915 120.311C218.689 120.679 218.605 121.115 218.677 121.541C218.749 121.987 218.959 122.4 219.278 122.721C219.942 123.323 220.636 123.891 221.358 124.421C221.704 124.692 222.045 124.963 222.365 125.234C222.446 125.305 222.524 125.381 222.598 125.461C222.674 125.542 222.741 125.631 222.798 125.726C222.895 125.91 222.998 126.084 223.096 126.268C223.737 127.531 224.46 128.75 225.262 129.918C225.608 130.328 226.051 130.646 226.551 130.844C226.984 131.049 227.368 131.201 227.688 131.325L228.419 131.596C228.518 131.628 228.616 131.666 228.711 131.71V131.71Z" fill="#EB996E"/>
<path d="M300.205 112.828C300.113 111.203 299.912 103.395 299.815 102.204C299.715 100.576 299.015 99.0439 297.849 97.904C296.669 96.821 294.833 96.3337 293.387 97.043C292.917 97.1626 292.486 97.4044 292.139 97.7439C291.792 98.0833 291.541 98.5084 291.411 98.9762C288.118 110.683 288.638 123.149 287.182 135.257C291.481 135.955 297.264 135.668 301.613 135.441C301.613 125.775 300.795 123.268 300.205 112.828Z" fill="#263238"/>
<path d="M298.391 129.338C298.366 129.236 298.356 129.13 298.358 129.024C298.358 128.786 298.331 128.483 298.315 128.125C298.288 127.308 298.256 126.187 298.212 124.822C298.153 122.001 298.071 118.162 297.985 113.922C297.952 111.799 297.92 109.774 297.893 107.922C297.893 107.002 297.893 106.124 297.86 105.307C297.875 104.551 297.823 103.795 297.703 103.049C297.637 102.511 297.452 101.995 297.163 101.538C296.873 101.08 296.487 100.692 296.03 100.401C295.679 100.212 295.295 100.094 294.898 100.054H294.974C295.053 100.046 295.133 100.046 295.212 100.054C295.517 100.08 295.814 100.166 296.084 100.309C296.512 100.541 296.882 100.867 297.167 101.262C297.539 101.785 297.79 102.384 297.904 103.016C298.034 103.773 298.097 104.539 298.093 105.307C298.093 106.13 298.131 107.002 298.153 107.922C298.191 109.774 298.229 111.799 298.266 113.927C298.326 118.162 298.375 122.001 298.413 124.822C298.413 126.192 298.413 127.308 298.413 128.131C298.413 128.494 298.413 128.792 298.413 129.03C298.418 129.133 298.411 129.237 298.391 129.338V129.338Z" fill="#455A64"/>
<path d="M294.481 124.898C294.441 124.665 294.425 124.43 294.432 124.194C294.432 123.739 294.405 123.078 294.405 122.266C294.405 120.642 294.438 118.4 294.497 115.925C294.557 113.451 294.627 111.263 294.676 109.579C294.676 108.815 294.719 108.171 294.741 107.662C294.737 107.424 294.755 107.187 294.795 106.953C294.839 107.186 294.857 107.424 294.849 107.662C294.849 108.117 294.849 108.745 294.876 109.584C294.876 111.209 294.844 113.451 294.779 115.931C294.714 118.411 294.649 120.588 294.606 122.272C294.579 123.035 294.557 123.68 294.541 124.194C294.545 124.43 294.525 124.666 294.481 124.898V124.898Z" fill="#455A64"/>
<path d="M280.121 88.0381C283.37 87.7023 286.078 89.1211 288.644 91.0867C291.215 93.111 293.105 95.8737 294.059 99.0034C295.083 102.252 295.099 106.882 293.935 110.093C293.414 111.614 292.532 112.985 291.364 114.09C290.197 115.194 288.778 115.999 287.231 116.434C282.742 117.701 277.685 117.187 274.154 114.138C270.623 111.09 268.809 106.308 268.934 101.646C268.974 98.4053 270.035 95.26 271.966 92.6571C272.937 91.3721 274.162 90.3009 275.565 89.5099C276.968 88.719 278.519 88.2254 280.121 88.0597" fill="#263238"/>
<path d="M288.487 99.48C288.098 98.2291 288.368 96.8754 288.271 95.5704C288.049 92.695 285.905 90.2637 283.322 88.9749C280.917 87.7836 277.907 87.8107 274.853 88.5796C272.746 89.069 270.822 90.1491 269.308 91.6932C268.34 92.7461 267.639 94.015 267.262 95.3941C266.886 96.7732 266.844 98.2224 267.142 99.6208L281.854 98.4512C283.143 99.6695 284.47 100.91 286.083 101.646C286.547 101.888 287.065 102.008 287.589 101.993C287.849 101.978 288.099 101.889 288.31 101.736C288.521 101.584 288.684 101.374 288.78 101.132C288.921 100.585 288.655 100.022 288.487 99.48Z" fill="#263238"/>
<path d="M274.3 92.6083L286.846 96.1389C287.437 96.217 287.977 96.5141 288.359 96.9714C288.741 97.4287 288.938 98.0129 288.909 98.6081L286.955 126.133C286.823 128.015 286.073 129.8 284.821 131.212L283.505 132.679C280.505 136.064 274.923 135.338 273.071 131.212C272.958 130.976 272.876 130.727 272.827 130.47C272.789 130.262 272.762 130.052 272.746 129.842C272.617 128.449 272.635 127.046 272.8 125.656C272.838 123.198 272.865 122.19 272.859 122.212C272.854 122.234 267.699 121.216 266.8 114.415C266.356 111.036 266.676 105.523 267.076 101.018C267.417 96.9403 270.244 92.0668 274.3 92.6083Z" fill="#FFBE9D"/>
<path d="M268.652 106.303C268.643 106.529 268.723 106.75 268.875 106.918C269.026 107.086 269.238 107.188 269.464 107.202C269.574 107.213 269.685 107.202 269.791 107.17C269.897 107.138 269.995 107.085 270.08 107.014C270.165 106.944 270.236 106.857 270.287 106.759C270.338 106.661 270.37 106.554 270.379 106.444C270.388 106.217 270.308 105.997 270.156 105.829C270.004 105.661 269.793 105.559 269.567 105.545C269.457 105.534 269.346 105.544 269.24 105.577C269.134 105.609 269.036 105.662 268.951 105.732C268.865 105.803 268.795 105.89 268.744 105.988C268.692 106.086 268.661 106.193 268.652 106.303V106.303Z" fill="#263238"/>
<path d="M268.175 103.909C268.278 104.029 268.95 103.557 269.886 103.584C270.823 103.612 271.511 104.126 271.597 103.985C271.684 103.844 271.543 103.731 271.251 103.503C270.853 103.215 270.377 103.054 269.886 103.043C269.401 103.029 268.923 103.169 268.522 103.444C268.229 103.655 268.126 103.861 268.175 103.909Z" fill="#263238"/>
<path d="M277.008 106.638C276.999 106.865 277.079 107.085 277.23 107.253C277.382 107.421 277.594 107.523 277.82 107.537C277.93 107.549 278.041 107.539 278.147 107.507C278.254 107.475 278.352 107.422 278.438 107.352C278.523 107.281 278.593 107.194 278.644 107.095C278.695 106.997 278.726 106.89 278.735 106.779C278.742 106.553 278.662 106.333 278.51 106.166C278.359 105.998 278.148 105.896 277.923 105.88C277.813 105.869 277.701 105.88 277.596 105.912C277.49 105.944 277.392 105.997 277.306 106.068C277.221 106.138 277.151 106.225 277.1 106.323C277.048 106.421 277.017 106.528 277.008 106.638V106.638Z" fill="#263238"/>
<path d="M277.04 104.261C277.143 104.38 277.814 103.909 278.746 103.936C279.677 103.964 280.37 104.478 280.457 104.337C280.544 104.196 280.408 104.083 280.11 103.855C279.713 103.566 279.237 103.406 278.746 103.395C278.26 103.381 277.783 103.522 277.381 103.796C277.089 104.007 277.008 104.213 277.04 104.261Z" fill="#263238"/>
<path d="M273.758 111.166C273.27 110.999 272.762 110.893 272.248 110.852C272.009 110.819 271.787 110.77 271.749 110.603C271.734 110.357 271.796 110.112 271.928 109.904C272.166 109.33 272.415 108.729 272.681 108.106C273.731 105.545 274.495 103.439 274.392 103.395C274.289 103.352 273.352 105.393 272.307 107.955C272.053 108.588 271.809 109.189 271.581 109.763C271.425 110.047 271.373 110.377 271.435 110.695C271.467 110.78 271.517 110.857 271.583 110.92C271.648 110.983 271.728 111.03 271.814 111.057C271.947 111.095 272.083 111.117 272.22 111.122C272.729 111.202 273.246 111.217 273.758 111.166V111.166Z" fill="#263238"/>
<path d="M272.838 122.201C276.023 122.339 279.184 121.589 281.967 120.035C281.967 120.035 279.563 124.66 272.805 123.826L272.838 122.201Z" fill="#EB996E"/>
<path d="M274.116 113.429C274.298 113.209 274.533 113.04 274.8 112.937C275.067 112.835 275.355 112.803 275.637 112.844C275.843 112.867 276.042 112.932 276.221 113.034C276.401 113.137 276.558 113.275 276.683 113.44C276.804 113.598 276.874 113.79 276.882 113.99C276.891 114.189 276.838 114.387 276.731 114.555C276.576 114.719 276.376 114.833 276.156 114.882C275.936 114.931 275.707 114.914 275.497 114.832C275.06 114.664 274.66 114.412 274.322 114.09C274.218 114.01 274.13 113.913 274.062 113.803C274.027 113.752 274.008 113.691 274.008 113.629C274.008 113.568 274.027 113.507 274.062 113.456" fill="#EB996E"/>
<path d="M276.509 111.886C276.357 111.886 276.33 112.888 275.426 113.581C274.522 114.274 273.466 114.122 273.449 114.279C273.433 114.436 273.688 114.485 274.142 114.507C274.731 114.522 275.306 114.331 275.767 113.965C276.22 113.618 276.518 113.106 276.595 112.541C276.688 112.135 276.579 111.88 276.509 111.886Z" fill="#263238"/>
<path d="M277.272 101.5C277.354 101.759 278.29 101.662 279.384 101.824C280.478 101.987 281.355 102.306 281.507 102.084C281.572 101.976 281.426 101.732 281.074 101.478C280.608 101.158 280.074 100.954 279.514 100.882C278.954 100.801 278.383 100.853 277.846 101.034C277.44 101.185 277.234 101.38 277.272 101.5Z" fill="#263238"/>
<path d="M268.555 99.832C268.717 100.049 269.362 99.832 270.136 99.832C270.91 99.832 271.565 100.011 271.717 99.7941C271.787 99.6858 271.69 99.4746 271.408 99.2526C271.034 98.9962 270.589 98.8636 270.136 98.8736C269.681 98.8668 269.236 99.0032 268.863 99.2635C268.582 99.5125 268.484 99.7291 268.555 99.832Z" fill="#263238"/>
<path d="M290.945 97.6658C289.862 93.7075 284.447 88.0488 280.364 88.1463L273.661 91.7689C273.822 92.8919 274.284 93.9503 274.998 94.832C275.712 95.7138 276.652 96.3861 277.716 96.7778C278.853 97.1839 280.24 97.3193 280.879 98.3698C281.518 99.4203 281.057 100.871 281.664 101.944C282.498 103.433 284.972 103.476 285.579 105.079C285.844 105.772 285.655 106.584 285.931 107.277C286.305 108.203 288.541 109.443 289.499 109.194C290.458 108.945 290.539 107.326 290.886 106.487C291.319 105.552 291.416 104.496 291.162 103.498C290.837 101.57 291.454 99.5557 290.945 97.6658Z" fill="#263238"/>
<path d="M286.668 109.866C286.668 109.362 287.301 108.192 287.8 108.127C289.132 107.954 291.525 108.127 291.46 111.501C291.368 116.115 286.755 115.07 286.749 114.94C286.744 114.81 286.619 111.609 286.668 109.866Z" fill="#FFBE9D"/>
<path d="M288.189 113.218C288.189 113.218 288.271 113.277 288.406 113.342C288.595 113.428 288.811 113.438 289.007 113.369C289.5 113.196 289.922 112.433 289.96 111.599C289.98 111.204 289.912 110.81 289.76 110.445C289.72 110.301 289.645 110.168 289.542 110.058C289.439 109.949 289.311 109.866 289.169 109.817C289.077 109.789 288.978 109.795 288.89 109.834C288.801 109.873 288.73 109.942 288.688 110.028C288.623 110.153 288.65 110.245 288.628 110.256C288.606 110.267 288.531 110.175 288.568 109.985C288.599 109.871 288.665 109.771 288.758 109.698C288.888 109.605 289.049 109.566 289.207 109.59C289.395 109.632 289.569 109.722 289.713 109.85C289.857 109.977 289.966 110.139 290.03 110.321C290.221 110.725 290.308 111.169 290.285 111.615C290.236 112.546 289.743 113.407 289.072 113.586C288.948 113.618 288.818 113.623 288.691 113.6C288.565 113.576 288.445 113.525 288.341 113.451C288.2 113.331 288.173 113.229 288.189 113.218Z" fill="#EB996E"/>
<path d="M294.725 104.067C294.889 103.628 294.977 103.165 294.985 102.697C295.158 100.423 294.557 98.1577 293.279 96.269C293.041 95.8595 292.736 95.4933 292.375 95.186C292.283 95.2402 293.729 96.8701 294.379 99.3935C295.029 101.917 294.622 104.061 294.725 104.067Z" fill="#FF725E"/>
<path d="M275.09 90.4425C274.549 92.289 271.538 94.5037 270.217 95.8575C267.65 98.4838 267.174 98.8682 266.659 107.229C265.588 104.546 265.115 101.661 265.273 98.7762C265.495 96.3558 266.585 94.0976 268.343 92.419C269.236 91.5871 270.311 90.9753 271.483 90.6321C272.654 90.289 273.889 90.2241 275.09 90.4425" fill="#263238"/>
<path d="M293.296 97.7581C293.036 97.8328 292.769 97.8818 292.5 97.9043C292.245 97.9422 291.931 97.9855 291.557 98.0072C291.184 98.0289 290.772 98.0722 290.307 98.0668C289.221 98.088 288.135 98.0283 287.058 97.8881C285.731 97.7089 284.422 97.4209 283.142 97.0271C281.869 96.6171 280.631 96.1065 279.439 95.5001C278.47 94.9944 277.54 94.4189 276.655 93.7781C276.271 93.5182 275.951 93.2366 275.664 93.0146C275.377 92.7926 275.123 92.5706 274.95 92.3919C274.743 92.2166 274.551 92.0247 274.376 91.8179C274.605 91.9626 274.82 92.1275 275.02 92.3106C275.215 92.4785 275.459 92.6789 275.756 92.89C276.054 93.1012 276.379 93.372 276.769 93.6211C277.661 94.2244 278.593 94.7671 279.558 95.2456C280.74 95.8354 281.966 96.335 283.224 96.7401C284.49 97.1235 285.782 97.4149 287.09 97.6119C288.167 97.7612 289.252 97.839 290.339 97.8448C290.799 97.8448 291.216 97.8448 291.584 97.8448C291.953 97.8448 292.267 97.8177 292.521 97.7906C292.778 97.7587 293.037 97.7478 293.296 97.7581Z" fill="#455A64"/>
<path d="M293.561 101.094C293.385 101.145 293.203 101.176 293.02 101.186C292.522 101.244 292.021 101.275 291.52 101.278C288.194 101.311 284.922 100.445 282.049 98.7705C281.618 98.5202 281.2 98.2472 280.798 97.9529C280.64 97.8555 280.496 97.7371 280.37 97.6009C280.397 97.563 281.042 98.007 282.146 98.6027C285.032 100.161 288.246 101.011 291.525 101.083C292.776 101.115 293.556 101.045 293.561 101.094Z" fill="#455A64"/>
<path d="M294.715 101.272C294.783 101.499 294.821 101.734 294.828 101.971C294.872 102.431 294.899 103.092 294.893 103.91C294.88 104.869 294.819 105.827 294.709 106.78C294.584 107.95 294.351 109.107 294.011 110.234C293.333 112.302 291.949 114.066 290.101 115.216C289.543 115.549 288.951 115.821 288.336 116.028C288.114 116.115 287.883 116.177 287.648 116.212C287.855 116.097 288.073 116.001 288.298 115.925C288.888 115.681 289.457 115.387 289.998 115.048C290.793 114.539 291.498 113.9 292.083 113.158C292.817 112.268 293.379 111.249 293.74 110.153C294.076 109.041 294.314 107.901 294.449 106.747C294.585 105.664 294.655 104.716 294.693 103.904C294.731 103.092 294.731 102.431 294.693 101.982C294.682 101.745 294.69 101.508 294.715 101.272V101.272Z" fill="#455A64"/>
<path d="M231.337 127.914L244.723 141.452C246.483 141.045 268.083 128.136 268.083 128.136L271.5 144.749C271.5 144.749 249.391 154.929 243.31 153.695C242.314 153.494 240.684 153.365 239.655 152.07C234.77 145.794 225.565 132.625 225.565 132.625L231.337 127.914Z" fill="#FFBE9D"/>
<path d="M248.893 252.129L255.499 266.451L266.161 261.524L259.327 243.8L248.893 252.129Z" fill="#FFBE9D"/>
<path d="M254.264 265.493L258.125 272.857C258.125 272.857 248.227 283.075 249.158 285.382L272.388 274.243L266.004 259.477L254.264 265.493Z" fill="#455A64"/>
<path d="M264.812 268.406C265.068 268.374 265.326 268.434 265.541 268.575C265.757 268.715 265.915 268.928 265.987 269.175C266.036 269.43 265.986 269.693 265.845 269.911C265.705 270.129 265.486 270.284 265.235 270.345C264.963 270.392 264.683 270.334 264.452 270.182C264.222 270.03 264.058 269.796 263.995 269.527C263.972 269.257 264.054 268.988 264.224 268.777C264.395 268.566 264.641 268.429 264.91 268.396" fill="#E0E0E0"/>
<g opacity="0.6">
<path opacity="0.6" d="M272.388 274.222L271.418 272.386L249.509 283.758C249.509 283.758 248.692 284.705 249.157 285.382L272.388 274.222Z" fill="white"/>
</g>
<path d="M257.676 272.927C257.735 273.041 258.325 272.819 259.062 272.927C259.798 273.036 260.318 273.361 260.399 273.263C260.481 273.166 259.999 272.597 259.111 272.494C258.223 272.391 257.6 272.825 257.676 272.927Z" fill="#263238"/>
<path d="M255.721 275.094C255.748 275.218 256.333 275.175 256.95 275.473C257.567 275.771 257.919 276.22 258.033 276.161C258.147 276.101 257.908 275.424 257.14 275.078C256.371 274.731 255.672 274.986 255.721 275.094Z" fill="#263238"/>
<path d="M255.737 278.673C255.851 278.673 255.737 278.007 255.147 277.525C254.557 277.043 253.912 277.054 253.907 277.168C253.901 277.281 254.394 277.46 254.871 277.866C255.347 278.272 255.618 278.716 255.737 278.673Z" fill="#263238"/>
<path d="M256.571 270.085C256.669 270.166 257.113 269.76 257.773 269.495C258.434 269.229 259.03 269.191 259.046 269.067C259.062 268.942 258.385 268.769 257.605 269.067C256.826 269.365 256.468 270.02 256.571 270.085Z" fill="#263238"/>
<path d="M248.367 259.932L231.911 215.188C231.911 215.188 232.301 207.753 233.671 205.403C235.041 203.053 276.53 189.353 276.53 189.353C276.53 189.353 287.101 186.808 294.145 189.353C301.19 191.898 308.349 195.039 307.645 199.977C307.532 200.732 307.35 201.475 307.103 202.197C305.918 205.675 303.696 208.705 300.735 210.88C297.774 213.054 294.217 214.269 290.544 214.359L285.032 214.987L257.064 220.327C256.772 220.386 256.496 220.505 256.252 220.676C256.009 220.847 255.803 221.067 255.648 221.321C255.493 221.575 255.392 221.858 255.352 222.153C255.311 222.448 255.332 222.748 255.412 223.034L264.444 253.136C264.444 253.136 254.578 257.95 248.367 259.932Z" fill="#263238"/>
<path d="M233.833 228.969L233.444 244.737L245.183 245.024L246.878 226.104L233.833 228.969Z" fill="#FFBE9D"/>
<path d="M233.443 242.636L232.956 251.636C232.956 251.636 219.581 256.444 219.419 258.903L245.183 259.163L245.974 243.097L233.443 242.636Z" fill="#455A64"/>
<path d="M232.837 246.562C232.798 246.411 232.798 246.253 232.837 246.102C232.924 245.675 233.11 245.275 233.379 244.932C233.463 244.803 233.567 244.688 233.687 244.591C233.767 244.526 233.862 244.481 233.962 244.461C234.063 244.44 234.168 244.444 234.267 244.472C234.324 244.489 234.376 244.519 234.42 244.56C234.464 244.6 234.499 244.65 234.521 244.705C234.56 244.806 234.56 244.918 234.521 245.019C234.446 245.184 234.356 245.342 234.251 245.49C234.05 245.793 233.882 246.097 233.628 246.438C233.545 246.538 233.439 246.615 233.319 246.663C233.199 246.712 233.069 246.729 232.94 246.714C232.701 246.681 232.472 246.592 232.274 246.454C231.918 246.221 231.589 245.949 231.294 245.642C231.157 245.5 231.028 245.35 230.909 245.192C230.773 245.036 230.673 244.851 230.617 244.651C230.594 244.54 230.612 244.424 230.666 244.325C230.721 244.226 230.809 244.149 230.915 244.109C231.018 244.082 231.127 244.078 231.232 244.099C231.337 244.119 231.436 244.164 231.521 244.228C231.768 244.419 231.988 244.641 232.177 244.889C232.442 245.228 232.658 245.604 232.816 246.004C232.883 246.145 232.922 246.298 232.929 246.454C232.667 245.944 232.357 245.46 232.003 245.008C231.818 244.785 231.607 244.586 231.375 244.412C231.324 244.371 231.265 244.342 231.201 244.327C231.137 244.312 231.071 244.311 231.007 244.326C230.953 244.349 230.911 244.391 230.887 244.444C230.864 244.498 230.863 244.558 230.882 244.613C230.94 244.767 231.027 244.908 231.137 245.03C231.254 245.179 231.379 245.322 231.511 245.458C231.793 245.742 232.106 245.997 232.442 246.216C232.603 246.329 232.788 246.404 232.983 246.432C233.062 246.444 233.142 246.434 233.216 246.403C233.289 246.373 233.353 246.323 233.4 246.259C233.617 245.983 233.823 245.636 234.018 245.349C234.117 245.218 234.204 245.079 234.278 244.932C234.332 244.797 234.278 244.716 234.196 244.678C233.964 244.591 233.736 244.829 233.579 245.03C233.229 245.484 232.977 246.006 232.837 246.562V246.562Z" fill="#263238"/>
<path d="M240.938 250.601C241.181 250.685 241.386 250.853 241.517 251.074C241.648 251.295 241.696 251.556 241.653 251.809C241.583 252.058 241.421 252.271 241.199 252.405C240.978 252.538 240.714 252.583 240.461 252.529C240.196 252.452 239.97 252.276 239.83 252.037C239.69 251.799 239.646 251.515 239.709 251.246C239.806 250.992 239.998 250.786 240.245 250.672C240.492 250.558 240.773 250.544 241.03 250.634" fill="#E0E0E0"/>
<g opacity="0.6">
<path opacity="0.6" d="M245.167 259.162L245.119 257.072L220.437 257.614C220.437 257.614 219.284 258.101 219.403 258.913L245.167 259.162Z" fill="white"/>
</g>
<path d="M232.545 251.5C232.545 251.625 233.173 251.69 233.79 252.102C234.407 252.513 234.727 253.044 234.846 252.995C234.965 252.946 234.781 252.221 234.028 251.733C233.276 251.246 232.518 251.387 232.545 251.5Z" fill="#263238"/>
<path d="M229.826 252.589C229.799 252.713 230.341 252.93 230.763 253.466C231.185 254.002 231.304 254.549 231.429 254.549C231.554 254.549 231.64 253.834 231.104 253.179C230.568 252.524 229.832 252.47 229.826 252.589Z" fill="#263238"/>
<path d="M228.272 255.811C228.386 255.838 228.57 255.21 228.272 254.517C227.974 253.824 227.373 253.547 227.319 253.65C227.265 253.753 227.622 254.127 227.861 254.701C228.099 255.275 228.137 255.795 228.272 255.811Z" fill="#263238"/>
<path d="M232.799 248.468C232.853 248.582 233.432 248.414 234.142 248.468C234.851 248.522 235.404 248.755 235.469 248.647C235.534 248.539 235.008 248.105 234.169 248.035C233.33 247.965 232.739 248.365 232.799 248.468Z" fill="#263238"/>
<path d="M240.694 185.205C240.694 185.205 233.655 184.663 232.875 192.271C232.095 199.88 228.418 235.283 228.418 235.283L247.761 236.907L250.306 200.502L276.531 189.347C276.531 189.347 245.389 184.219 240.694 185.205Z" fill="#263238"/>
<path d="M269.686 174.916C269.686 174.916 265.419 186.883 266.231 188.215C267.043 189.547 278.025 195.044 278.025 195.044L305.495 205.592C305.495 205.592 308.317 201.103 308.317 194.22C308.317 187.338 298.765 174.916 298.765 174.916H269.686Z" fill="#263238"/>
<path d="M277.83 188.725C277.789 188.751 277.746 188.772 277.701 188.79L277.311 188.974L275.789 189.651L270.082 192.136L250.366 200.621L250.452 200.497C250.203 204.092 249.911 207.98 249.656 211.998C248.99 221.388 248.373 230.046 247.886 236.907V237.032H247.761L235.788 235.981L232.491 235.673L231.63 235.586C231.529 235.579 231.43 235.565 231.332 235.543C231.431 235.534 231.531 235.534 231.63 235.543L232.496 235.597L235.799 235.84L247.766 236.766L247.636 236.88C248.108 230.03 248.719 221.366 249.348 211.971C249.629 207.953 249.889 204.065 250.154 200.475V200.367L250.236 200.329L269.995 191.947L275.751 189.537L277.294 188.903L277.695 188.746L277.83 188.725Z" fill="#455A64"/>
<path d="M299.68 189.921C299.418 189.872 299.161 189.802 298.911 189.71L296.842 189.044C294.584 188.277 292.268 187.692 289.916 187.295C287.569 186.907 285.171 186.936 282.834 187.381C281.041 187.755 280.012 188.264 279.991 188.205C280.214 188.058 280.454 187.938 280.705 187.847C281.377 187.56 282.073 187.334 282.785 187.17C285.145 186.656 287.582 186.595 289.965 186.992C292.332 187.388 294.656 188.006 296.907 188.838C297.774 189.141 298.472 189.407 298.949 189.596C299.203 189.679 299.448 189.788 299.68 189.921V189.921Z" fill="#455A64"/>
<path d="M295.797 183.607C294.996 183.562 294.193 183.562 293.393 183.607C292.656 183.656 291.768 183.77 290.793 183.883C289.819 183.997 288.741 184.132 287.631 184.344C285.722 184.647 283.893 185.326 282.249 186.342C281.588 186.795 280.964 187.298 280.38 187.847C280.482 187.647 280.616 187.464 280.776 187.306C281.182 186.87 281.634 186.48 282.124 186.141C283.768 185.054 285.625 184.33 287.571 184.019C288.698 183.807 289.781 183.683 290.761 183.58C291.741 183.477 292.629 183.39 293.382 183.369C293.977 183.341 294.573 183.368 295.163 183.45C295.381 183.469 295.595 183.522 295.797 183.607V183.607Z" fill="#455A64"/>
<path d="M255.889 268.595C255.784 268.457 255.711 268.299 255.672 268.13C255.54 267.675 255.503 267.197 255.564 266.727C255.579 266.565 255.616 266.404 255.672 266.251C255.71 266.153 255.773 266.068 255.855 266.002C255.937 265.937 256.034 265.893 256.138 265.877C256.201 265.87 256.264 265.877 256.324 265.898C256.384 265.918 256.439 265.952 256.484 265.996C256.563 266.086 256.612 266.197 256.625 266.316C256.641 266.512 256.641 266.71 256.625 266.906C256.592 267.296 256.592 267.675 256.533 268.13C256.512 268.261 256.456 268.385 256.372 268.488C256.287 268.591 256.176 268.669 256.051 268.715C255.814 268.785 255.562 268.795 255.32 268.742C254.882 268.668 254.454 268.541 254.047 268.363C253.853 268.282 253.663 268.189 253.479 268.086C253.283 267.992 253.108 267.86 252.964 267.697C252.883 267.599 252.839 267.477 252.839 267.35C252.839 267.223 252.883 267.101 252.964 267.003C253.046 266.928 253.146 266.875 253.254 266.849C253.362 266.822 253.474 266.823 253.582 266.852C253.902 266.939 254.209 267.066 254.497 267.231C254.911 267.452 255.291 267.733 255.623 268.065C255.752 268.177 255.86 268.311 255.943 268.46C255.461 268.067 254.945 267.719 254.399 267.42C254.126 267.286 253.839 267.181 253.544 267.106C253.392 267.106 253.23 267.106 253.17 267.182C253.134 267.234 253.118 267.296 253.124 267.359C253.13 267.421 253.158 267.479 253.203 267.523C253.326 267.652 253.473 267.755 253.636 267.827C253.81 267.925 253.991 268.012 254.177 268.086C254.567 268.25 254.974 268.368 255.39 268.438C255.579 268.485 255.776 268.485 255.964 268.438C256.041 268.412 256.108 268.364 256.159 268.301C256.21 268.238 256.242 268.162 256.251 268.081C256.305 267.707 256.322 267.269 256.36 266.895C256.382 266.716 256.391 266.535 256.387 266.354C256.387 266.197 256.3 266.126 256.186 266.132C255.937 266.132 255.845 266.489 255.802 266.76C255.713 267.372 255.742 267.995 255.889 268.595V268.595Z" fill="#263238"/>
<path d="M269.009 127.735C267.073 128.486 265.459 129.887 264.444 131.699C262.733 134.737 263.193 136.231 263.637 138.024C264.081 139.816 264.877 143.374 264.921 143.146C264.964 142.919 269.009 127.735 269.009 127.735Z" fill="#FFBE9D"/>
<path d="M297.969 133.145C297.969 133.145 295.727 127.73 295.261 127.232L286.987 125.142L281.816 127.676C280.324 128.432 278.653 128.764 276.986 128.634C275.134 128.461 273.509 127.714 272.692 126.344L269.443 127.221C269.443 127.221 264.309 142.713 264.412 147.002C264.515 151.291 266.302 163.474 266.096 165.879C265.89 168.283 266.762 174.916 269.686 174.916H298.765C298.765 174.916 305.328 173.097 305.615 169.149C305.902 165.202 297.969 133.145 297.969 133.145Z" fill="#9492E3"/>
<path d="M288.704 156.657C288.561 156.816 288.397 156.955 288.216 157.068C287.743 157.408 287.239 157.701 286.711 157.946C285.924 158.311 285.089 158.561 284.231 158.687C283.174 158.84 282.098 158.794 281.058 158.552C279.178 158.072 277.469 157.08 276.119 155.687C275.711 155.277 275.332 154.837 274.987 154.372C274.851 154.206 274.736 154.024 274.646 153.83C274.69 153.798 275.215 154.539 276.271 155.53C277.633 156.841 279.312 157.774 281.144 158.238C282.984 158.656 284.909 158.478 286.64 157.729C287.956 157.177 288.671 156.603 288.704 156.657Z" fill="#263238"/>
<g opacity="0.3">
<path opacity="0.3" d="M275.133 154.502C275.334 156.726 276.407 158.78 278.117 160.215C278.975 160.913 279.985 161.4 281.066 161.635C282.147 161.87 283.268 161.847 284.339 161.568C285.403 161.264 286.363 160.673 287.113 159.859C287.862 159.045 288.374 158.04 288.59 156.955C287.125 157.708 285.563 158.254 283.949 158.579C282.206 158.813 280.433 158.536 278.844 157.784C277.255 157.032 275.917 155.835 274.993 154.339L275.226 154.588" fill="black"/>
</g>
<g opacity="0.3">
<path opacity="0.3" d="M299.599 159.213C296.529 153.256 293.28 147.083 287.908 143.076C289.099 147.148 290.166 150.977 291.482 154.989C291.855 156.132 292.446 157.464 293.648 157.653C294.086 157.724 294.536 157.615 294.969 157.702C295.716 157.848 296.225 158.514 296.626 159.159C296.952 159.847 297.464 160.431 298.104 160.843C298.787 161.178 299.826 160.843 299.891 160.106C299.879 159.787 299.778 159.477 299.599 159.213Z" fill="black"/>
</g>
<path d="M308.317 147.841L293.669 154.708C293.669 154.708 287.171 141.712 286.668 139.908C286.164 138.105 285.043 135.035 286.706 131.244C287.449 129.634 288.748 128.346 290.364 127.615C291.98 126.885 293.805 126.76 295.505 127.264C301.965 129.571 308.317 147.841 308.317 147.841Z" fill="#9492E3"/>
<path d="M265.841 147.841C265.159 147.841 257.302 151.951 257.302 151.951L252.098 136.86C258.851 133.199 266.356 128.033 270.26 126.983L266.865 138.766L265.841 147.841Z" fill="#9492E3"/>
<path d="M295.104 153.798C297.877 158.357 299.815 160.978 299.815 160.978L274.933 176.14L277.83 182.876L308.079 170.422C309.096 170.017 310.003 169.378 310.725 168.555C311.447 167.732 311.963 166.75 312.232 165.689C312.481 164.692 312.456 163.646 312.161 162.662L307.017 148.464L295.104 153.798Z" fill="#FFBE9D"/>
<path d="M305.869 163.296C304.917 162.704 303.921 162.186 302.891 161.747C301.152 161.092 299.615 161.075 299.642 160.978C300.788 160.896 301.939 161.061 303.017 161.46C304.095 161.86 305.075 162.486 305.89 163.296H305.869Z" fill="#EB996E"/>
<path d="M266.746 134.417C266.579 134.632 266.437 134.864 266.323 135.111C266 135.757 265.73 136.429 265.516 137.12C264.841 139.362 264.429 141.675 264.287 144.013C264.109 146.332 264.136 148.662 264.368 150.977C264.438 151.681 264.546 152.38 264.693 153.072C264.732 153.332 264.801 153.586 264.899 153.83C264.906 153.57 264.88 153.31 264.823 153.056C264.758 152.563 264.672 151.848 264.612 150.966C264.446 148.656 264.446 146.338 264.612 144.029C264.76 141.711 265.135 139.413 265.733 137.168C265.927 136.482 266.16 135.808 266.432 135.148C266.563 134.917 266.668 134.672 266.746 134.417V134.417Z" fill="#263238"/>
<path d="M255.623 180.748L261.845 177.781L273.953 176.817L274.944 176.135L277.841 182.871C277.841 182.871 274.668 184.387 273.006 184.523L262.82 184.214L257.497 184.755L255.623 180.748Z" fill="#FFBE9D"/>
<path d="M308.316 147.841C308.217 147.863 308.12 147.898 308.029 147.944L307.217 148.285L304.255 149.601L294.508 154.036L293.322 154.578L293.506 154.643C291.817 151.161 290.339 148.042 289.288 145.789C288.779 144.706 288.368 143.791 288.064 143.13L287.734 142.41C287.701 142.323 287.655 142.241 287.599 142.167C287.618 142.257 287.646 142.346 287.68 142.432C287.745 142.6 287.837 142.849 287.967 143.168C288.221 143.813 288.611 144.733 289.115 145.876C290.117 148.15 291.568 151.291 293.257 154.773L293.317 154.897L293.441 154.838L294.627 154.296L304.315 149.791L307.239 148.394L308.029 147.998C308.131 147.957 308.227 147.904 308.316 147.841V147.841Z" fill="#263238"/>
<path d="M294.838 127.302C294.838 127.356 294.151 127.335 293.089 127.589C291.71 127.914 290.438 128.588 289.395 129.547C288.352 130.506 287.573 131.717 287.133 133.064C286.781 134.098 286.743 134.786 286.689 134.78C286.664 134.621 286.664 134.458 286.689 134.298C286.732 133.86 286.815 133.427 286.938 133.004C287.344 131.596 288.132 130.327 289.213 129.337C290.295 128.347 291.629 127.675 293.068 127.394C293.485 127.311 293.909 127.267 294.335 127.264C294.504 127.249 294.674 127.261 294.838 127.302V127.302Z" fill="#263238"/>
<path d="M303.259 136.741C303.222 136.965 303.156 137.183 303.064 137.391C302.867 137.978 302.586 138.534 302.23 139.042L301.846 139.524L301.635 139.784L301.386 140.017L300.844 140.499L300.216 140.927C299.253 141.513 298.212 141.959 297.124 142.253C294.828 142.898 292.7 143.201 291.227 143.661C290.431 143.91 289.65 144.205 288.888 144.544C289.064 144.4 289.257 144.278 289.462 144.181C289.69 144.047 289.929 143.933 290.177 143.84L290.637 143.645L291.178 143.472C292.657 142.93 294.79 142.616 297.059 141.982C298.123 141.696 299.143 141.266 300.092 140.705L300.709 140.298L301.25 139.844C301.332 139.768 301.418 139.703 301.494 139.627L301.7 139.383L302.09 138.928C302.449 138.438 302.749 137.908 302.983 137.347C303.055 137.136 303.147 136.933 303.259 136.741Z" fill="white"/>
<path d="M301.331 133.291C301.122 133.315 300.917 133.364 300.719 133.437C300.204 133.684 299.778 134.086 299.501 134.585C299.306 134.894 299.111 135.246 298.851 135.609C298.568 135.988 298.237 136.328 297.866 136.621C297.001 137.267 296.021 137.743 294.979 138.024C293.896 138.354 292.813 138.565 291.887 138.777C291.051 138.966 290.233 139.232 289.445 139.573C288.732 139.91 288.067 140.341 287.469 140.856C287.469 140.856 287.496 140.802 287.566 140.721C287.668 140.598 287.779 140.482 287.897 140.374C288.335 139.976 288.829 139.644 289.364 139.388C290.153 139.016 290.979 138.727 291.828 138.527C292.775 138.278 293.831 138.078 294.898 137.753C295.906 137.479 296.856 137.026 297.703 136.416C298.063 136.143 298.385 135.825 298.662 135.468C298.916 135.132 299.122 134.78 299.338 134.477C299.646 133.957 300.119 133.555 300.681 133.334C300.836 133.278 300.999 133.253 301.163 133.259C301.272 133.264 301.331 133.28 301.331 133.291Z" fill="white"/>
<path d="M289.516 146.314C289.446 146.367 289.369 146.411 289.288 146.444L288.601 146.764C288.005 147.035 287.133 147.419 286.039 147.847C284.757 148.355 283.437 148.764 282.092 149.071C280.436 149.461 278.725 149.562 277.034 149.369C275.362 149.093 273.726 148.627 272.161 147.977C270.892 147.473 269.572 147.11 268.224 146.894C267.316 146.759 266.391 146.779 265.489 146.953C264.85 147.089 264.515 147.24 264.509 147.213C264.504 147.186 264.585 147.165 264.742 147.089C264.976 146.99 265.217 146.908 265.462 146.845C266.373 146.626 267.316 146.575 268.246 146.694C269.615 146.886 270.958 147.237 272.247 147.739C273.799 148.365 275.416 148.819 277.067 149.092C278.725 149.28 280.404 149.188 282.032 148.822C283.368 148.528 284.681 148.143 285.963 147.668C287.046 147.267 287.945 146.916 288.552 146.672L289.256 146.401C289.337 146.358 289.425 146.329 289.516 146.314Z" fill="white"/>
<path d="M265.478 141.343C265.478 141.343 265.538 141.284 265.668 141.191C265.862 141.064 266.069 140.959 266.285 140.877C267.092 140.574 267.963 140.484 268.814 140.617C270.068 140.809 271.273 141.243 272.361 141.895C273.656 142.7 275.006 143.413 276.4 144.029C277.833 144.537 279.349 144.765 280.868 144.7C282.111 144.654 283.348 144.505 284.566 144.256C285.611 144.056 286.456 143.856 287.035 143.715C287.334 143.632 287.638 143.572 287.945 143.536C287.658 143.653 287.363 143.749 287.063 143.823C286.489 143.991 285.655 144.218 284.61 144.446C283.382 144.726 282.131 144.896 280.873 144.955C279.321 145.036 277.768 144.81 276.303 144.289C274.895 143.669 273.536 142.945 272.236 142.123C271.179 141.475 270.008 141.033 268.787 140.818C267.965 140.67 267.119 140.726 266.323 140.98C265.765 141.159 265.495 141.343 265.478 141.343Z" fill="white"/>
<path d="M262.69 149.043C262.69 149.043 262.63 149.043 262.522 149.043C262.364 149.012 262.21 148.965 262.062 148.902C261.506 148.662 261.018 148.29 260.638 147.819C260.068 147.141 259.654 146.346 259.425 145.491C259.173 144.45 259.042 143.383 259.035 142.312C259.026 141.259 258.943 140.208 258.786 139.166C258.635 138.325 258.334 137.518 257.898 136.784C257.479 136.113 256.903 135.555 256.219 135.159C256.219 135.159 256.278 135.159 256.381 135.208C256.532 135.265 256.677 135.336 256.815 135.419C257.314 135.747 257.737 136.18 258.055 136.686C258.532 137.429 258.863 138.256 259.029 139.123C259.206 140.177 259.298 141.244 259.305 142.312C259.312 143.364 259.432 144.411 259.663 145.437C259.875 146.262 260.255 147.034 260.778 147.706C261.136 148.155 261.584 148.524 262.094 148.789C262.468 148.967 262.695 149.016 262.69 149.043Z" fill="white"/>
<path d="M264.173 145.199C263.878 144.627 263.617 144.037 263.394 143.433L261.58 139.177C260.854 137.515 260.183 136.015 259.668 134.948C259.154 133.881 258.796 133.237 258.829 133.215C258.955 133.337 259.061 133.478 259.143 133.632C259.322 133.914 259.565 134.331 259.847 134.856C260.388 135.907 261.114 137.396 261.84 139.064C262.565 140.731 263.166 142.258 263.578 143.396C263.784 143.937 263.941 144.408 264.043 144.728C264.107 144.878 264.151 145.037 264.173 145.199V145.199Z" fill="white"/>
<path d="M220.691 156.841L255.607 157.128C256.739 157.128 257.822 157.669 257.989 158.79L261.807 184.241H279.79C280.069 184.241 280.336 184.351 280.533 184.548C280.73 184.745 280.841 185.013 280.841 185.291C280.841 185.57 280.73 185.837 280.533 186.034C280.336 186.231 280.069 186.342 279.79 186.342H222.375L218.449 159.483C218.399 159.158 218.419 158.827 218.508 158.51C218.597 158.194 218.753 157.9 218.966 157.649C219.178 157.399 219.443 157.197 219.74 157.057C220.038 156.918 220.362 156.844 220.691 156.841V156.841Z" fill="#E0E0E0"/>
<path d="M220.691 156.841C220.509 156.833 220.327 156.852 220.15 156.895C219.615 157.021 219.142 157.334 218.818 157.778C218.578 158.105 218.429 158.49 218.385 158.893C218.377 159.375 218.42 159.856 218.515 160.328L219.018 163.875C219.787 169.209 220.892 176.871 222.267 186.353V186.445H222.365L278.085 186.477H279.585C279.859 186.503 280.135 186.45 280.381 186.326C280.566 186.222 280.72 186.071 280.827 185.889C280.934 185.706 280.991 185.498 280.991 185.286C280.991 185.074 280.934 184.866 280.827 184.683C280.72 184.501 280.566 184.35 280.381 184.246C280.138 184.125 279.866 184.072 279.596 184.095H261.845L261.981 184.214C260.605 175.1 259.322 166.599 258.19 158.969C258.156 158.46 257.925 157.984 257.546 157.642C257.165 157.323 256.701 157.118 256.208 157.052C255.74 157.007 255.27 156.99 254.8 157.003H253.43L248.172 156.966L238.832 156.911L225.532 156.841H220.691C220.691 156.841 220.794 156.841 221.005 156.841H221.921L225.478 156.89L238.777 157.036L248.118 157.128L253.376 157.182H254.746C255.205 157.171 255.665 157.187 256.122 157.231C256.571 157.292 256.993 157.48 257.34 157.772C257.668 158.087 257.862 158.515 257.882 158.969C259.024 166.593 260.291 175.1 261.672 184.214V184.333H279.542C279.764 184.309 279.99 184.349 280.191 184.447C280.38 184.553 280.525 184.723 280.601 184.926C280.676 185.129 280.677 185.353 280.603 185.557C280.529 185.759 280.385 185.928 280.197 186.033C279.993 186.136 279.763 186.177 279.536 186.152H278.09L222.37 186.185L222.473 186.277C221.076 176.828 219.933 169.144 219.143 163.81C218.942 162.483 218.764 161.298 218.601 160.274C218.499 159.808 218.452 159.332 218.46 158.855C218.496 158.465 218.634 158.092 218.861 157.772C219.172 157.331 219.631 157.016 220.155 156.884C220.333 156.861 220.512 156.847 220.691 156.841V156.841Z" fill="#263238"/>
<path d="M238.106 173.454C239.314 173.454 240.294 172.475 240.294 171.267C240.294 170.059 239.314 169.079 238.106 169.079C236.898 169.079 235.918 170.059 235.918 171.267C235.918 172.475 236.898 173.454 238.106 173.454Z" fill="white"/>
<path d="M260.416 186.098C260.362 186.098 259.252 179.627 257.93 171.629C256.609 163.631 255.58 157.133 255.629 157.128C255.678 157.123 256.788 163.599 258.109 171.597C259.43 179.595 260.465 186.093 260.416 186.098Z" fill="#263238"/>
<path d="M85.8582 297.837C85.8582 297.761 138.237 297.696 202.822 297.696C267.407 297.696 319.786 297.739 319.786 297.837C319.786 297.934 267.418 297.977 202.822 297.977C138.227 297.977 85.8582 297.891 85.8582 297.837Z" fill="#263238"/>
</svg>
