<svg width="538" height="455" viewBox="0 0 538 455" fill="none" xmlns="http://www.w3.org/2000/svg">
<path d="M361.42 9.10712C361.42 9.10712 278.78 -20.2729 197.66 26.5071C116.54 73.2871 75.66 166.167 40.46 240.557C5.26004 314.947 25.54 390.617 87.46 425.127C149.38 459.637 191.46 408.767 278.37 406.287C365.28 403.807 388.6 416.227 460.69 367.157C532.78 318.087 545.8 202.157 488.94 116.427C432.08 30.6971 361.42 9.10712 361.42 9.10712Z" fill="#E6E6FD"/>
<path opacity="0.7" d="M361.42 9.10712C361.42 9.10712 278.78 -20.2729 197.66 26.5071C116.54 73.2871 75.66 166.167 40.46 240.557C5.26004 314.947 25.54 390.617 87.46 425.127C149.38 459.637 191.46 408.767 278.37 406.287C365.28 403.807 388.6 416.227 460.69 367.157C532.78 318.087 545.8 202.157 488.94 116.427C432.08 30.6971 361.42 9.10712 361.42 9.10712Z" fill="white"/>
<path d="M129.14 195.797C132.43 195.017 138.39 190.327 138.4 190.327C138.41 190.327 134.11 187.327 133.82 187.177C130.4 185.397 122.74 183.967 119.67 186.997C119.173 187.514 118.79 188.13 118.547 188.805C118.304 189.48 118.207 190.199 118.26 190.914C118.314 191.63 118.518 192.326 118.859 192.957C119.201 193.588 119.671 194.14 120.24 194.577C122.59 196.527 126.34 196.457 129.14 195.797Z" fill="#9492E3"/>
<path d="M144.43 211.777C147.28 210.217 151.51 204.587 151.84 204.137C155.056 206.563 158.43 208.771 161.94 210.747C163.94 211.917 166.07 213.027 168.18 214.107C167.18 213.757 166.18 213.447 166.08 213.417C162.31 212.607 154.55 213.247 152.38 216.977C152.037 217.608 151.83 218.304 151.774 219.02C151.718 219.735 151.813 220.455 152.054 221.131C152.295 221.808 152.675 222.426 153.171 222.946C153.666 223.465 154.266 223.875 154.93 224.147C157.71 225.397 161.32 224.347 163.85 222.967C166.38 221.587 170.11 216.837 171.08 215.567L173.51 216.797C177.42 218.737 181.33 220.657 185.11 222.657C186.44 223.367 187.72 224.107 189.01 224.847C188.09 224.537 187.31 224.277 187.19 224.257C183.42 223.437 175.66 224.077 173.5 227.817C173.157 228.447 172.951 229.142 172.895 229.857C172.839 230.572 172.934 231.291 173.175 231.967C173.415 232.643 173.796 233.26 174.291 233.779C174.787 234.297 175.386 234.706 176.05 234.977C178.83 236.237 182.43 235.177 184.96 233.797C187.49 232.417 190.86 228.127 192.02 226.627C193.31 227.427 194.61 228.217 195.83 229.047C196.65 229.637 197.49 230.147 198.28 230.777L200.64 232.597C202.11 233.807 203.64 235.037 205.02 236.257C206.02 237.097 206.91 237.917 207.84 238.737C206.52 238.017 203.91 236.667 203.68 236.577C200.08 235.197 192.31 234.657 189.61 238.027C189.176 238.598 188.866 239.254 188.703 239.953C188.539 240.651 188.524 241.376 188.659 242.081C188.793 242.786 189.075 243.454 189.485 244.043C189.896 244.631 190.425 245.127 191.04 245.497C193.6 247.157 197.32 246.657 200.04 245.677C203.04 244.597 207.88 239.887 208.49 239.287C210.01 240.657 211.49 241.987 212.85 243.287C216.54 246.737 219.64 249.837 222.07 252.347L224.37 250.627C221.82 248.097 218.53 244.927 214.58 241.397C213.04 240.007 211.36 238.557 209.58 237.077C210.709 235.219 211.728 233.296 212.63 231.317C215.84 231.897 222.05 230.737 222.85 230.577C223.37 232.577 223.85 234.487 224.29 236.317C225.43 241.087 226.29 245.317 226.93 248.667L229.43 246.787C228.74 243.637 227.88 239.887 226.78 235.697C226.25 233.697 225.66 231.547 225.02 229.357C225.77 229.007 231.9 226.087 233.96 223.667C235.82 221.477 237.59 218.157 236.96 215.187C236.834 214.477 236.559 213.802 236.153 213.206C235.748 212.611 235.221 212.107 234.607 211.729C233.993 211.352 233.306 211.108 232.591 211.015C231.877 210.921 231.15 210.98 230.46 211.187C226.37 212.547 224.16 220.017 224.2 223.877C224.2 224.107 224.5 226.567 224.71 228.127C224.44 227.227 224.2 226.357 223.92 225.447C223.37 223.627 222.77 221.827 222.13 219.897C221.79 218.967 221.44 218.037 221.13 217.097C220.82 216.157 220.34 215.197 219.94 214.247C218.94 212.037 217.94 209.857 216.77 207.677C218.36 207.197 223.98 205.397 226.16 203.497C228.34 201.597 230.59 198.597 230.38 195.557C230.358 194.84 230.184 194.136 229.871 193.49C229.558 192.845 229.112 192.272 228.563 191.811C228.014 191.349 227.373 191.009 226.684 190.812C225.994 190.615 225.27 190.565 224.56 190.667C220.3 191.387 216.99 198.447 216.44 202.257C216.44 202.497 216.32 205.257 216.3 206.807C215.61 205.507 214.92 204.197 214.18 202.907C212.03 199.167 209.74 195.437 207.47 191.717L205.41 188.287C205.98 188.127 212.7 186.137 215.15 184.007C217.33 182.127 219.58 179.117 219.37 176.067C219.346 175.351 219.172 174.647 218.858 174.002C218.545 173.357 218.099 172.786 217.55 172.325C217.001 171.864 216.361 171.523 215.672 171.325C214.983 171.128 214.26 171.077 213.55 171.177C209.29 171.907 205.98 178.957 205.43 182.767C205.43 183.057 205.27 187.067 205.29 188.087C203.78 185.567 202.29 183.087 200.95 180.497C199.101 177.07 197.477 173.526 196.09 169.887C196.35 169.807 203.38 167.757 205.89 165.587C208.06 163.697 210.31 160.687 210.11 157.647C210.085 156.93 209.909 156.226 209.594 155.582C209.28 154.937 208.833 154.365 208.283 153.904C207.734 153.443 207.093 153.103 206.404 152.905C205.714 152.708 204.99 152.657 204.28 152.757C200.02 153.477 196.71 160.527 196.16 164.347C196.16 164.647 195.99 168.957 196.03 169.737C195.95 169.527 195.84 169.317 195.76 169.097C194.47 165.409 193.51 161.614 192.89 157.757C192.52 155.637 192.29 153.577 192.11 151.577C193.46 151.327 199.6 150.127 202.11 148.427C204.62 146.727 207.04 144.047 207.17 140.997C207.225 140.282 207.129 139.563 206.888 138.888C206.647 138.212 206.267 137.595 205.771 137.076C205.276 136.558 204.677 136.149 204.014 135.877C203.35 135.605 202.637 135.475 201.92 135.497C197.61 135.747 193.55 142.387 192.58 146.127C192.53 146.327 192.22 148.447 192.02 149.997C191.95 149.097 191.86 148.157 191.81 147.297C191.62 144.037 191.65 141.037 191.7 138.377C191.7 136.867 191.8 135.507 191.87 134.237C193.07 133.297 197.87 129.477 199.22 126.877C200.57 124.277 201.59 120.707 200.3 117.947C200.019 117.286 199.602 116.692 199.077 116.203C198.551 115.715 197.928 115.342 197.249 115.11C196.57 114.878 195.849 114.791 195.134 114.856C194.419 114.921 193.726 115.136 193.1 115.487C189.39 117.697 188.85 125.487 189.71 129.227C189.78 129.547 191.53 134.497 191.59 134.447L191.67 134.387C191.57 135.617 191.48 136.927 191.42 138.387C191.31 141.047 191.22 144.057 191.34 147.327C191.431 150.861 191.728 154.387 192.23 157.887C192.775 161.808 193.665 165.673 194.89 169.437C194.902 169.482 194.919 169.526 194.94 169.567C194.2 168.567 192.03 165.747 191.83 165.567C189.14 162.807 182.31 159.067 178.45 160.987C177.817 161.324 177.261 161.79 176.82 162.355C176.379 162.921 176.062 163.573 175.889 164.269C175.717 164.965 175.693 165.69 175.818 166.396C175.944 167.102 176.217 167.773 176.62 168.367C178.25 170.947 181.84 172.057 184.71 172.297C187.94 172.577 194.58 170.207 195.11 170.017C196.428 173.814 197.998 177.519 199.81 181.107C200.87 183.197 202 185.277 203.16 187.347C202.49 186.477 201.89 185.717 201.79 185.617C199.1 182.857 192.27 179.107 188.4 181.027C187.767 181.366 187.213 181.834 186.773 182.4C186.332 182.967 186.016 183.62 185.844 184.317C185.673 185.014 185.65 185.739 185.776 186.445C185.903 187.151 186.177 187.823 186.58 188.417C188.2 190.987 191.79 192.097 194.66 192.347C197.53 192.597 203.27 190.687 204.77 190.167C205.23 190.957 205.67 191.747 206.13 192.537C208.32 196.307 210.52 200.067 212.56 203.817C213.29 205.147 213.95 206.467 214.62 207.817C214.02 207.047 213.51 206.407 213.42 206.317C210.73 203.557 203.9 199.807 200.04 201.737C199.407 202.074 198.851 202.54 198.41 203.105C197.969 203.671 197.652 204.323 197.479 205.019C197.307 205.715 197.283 206.44 197.408 207.146C197.534 207.852 197.807 208.523 198.21 209.117C199.84 211.697 203.43 212.807 206.3 213.047C209.17 213.287 214.35 211.577 216.14 210.957C216.78 212.337 217.42 213.717 217.99 215.087C218.35 216.027 218.76 216.907 219.07 217.877L220.07 220.697C220.63 222.507 221.21 224.377 221.7 226.167C222.06 227.407 222.37 228.587 222.7 229.787C222 228.457 220.56 225.897 220.42 225.697C218.347 223.009 215.616 220.901 212.49 219.577C212.277 219.266 212.032 218.978 211.76 218.717C211.261 218.202 210.659 217.797 209.993 217.53C209.327 217.263 208.612 217.139 207.895 217.167C207.178 217.194 206.475 217.372 205.832 217.689C205.188 218.006 204.618 218.455 204.16 219.007C201.49 222.397 203.77 229.847 205.93 233.007C206.06 233.187 207.66 235.087 208.7 236.257C207.99 235.657 207.3 235.067 206.56 234.467C205.1 233.247 203.61 232.087 202.01 230.817L199.56 229.107C198.77 228.497 197.86 227.957 197 227.377C195 226.067 192.88 224.847 190.73 223.657C191.79 222.377 195.48 217.777 196.26 214.987C197.04 212.197 197.26 208.467 195.4 205.987C194.984 205.402 194.45 204.912 193.832 204.547C193.214 204.182 192.526 203.951 191.814 203.869C191.101 203.787 190.379 203.856 189.694 204.071C189.01 204.286 188.378 204.642 187.84 205.117C184.69 208.117 185.84 215.777 187.47 219.267C187.57 219.487 189.03 221.857 189.86 223.137C188.56 222.437 187.27 221.727 185.94 221.057C182.08 219.117 178.12 217.277 174.17 215.427L170.56 213.697C170.95 213.247 175.46 207.877 176.33 204.757C177.1 201.977 177.33 198.227 175.47 195.807C175.054 195.222 174.52 194.732 173.902 194.367C173.284 194.002 172.596 193.771 171.884 193.689C171.171 193.607 170.449 193.676 169.764 193.891C169.08 194.106 168.448 194.462 167.91 194.937C164.76 197.887 165.91 205.597 167.53 209.087C167.66 209.347 169.77 212.757 170.34 213.597C167.7 212.327 165.08 211.037 162.54 209.667C159.107 207.822 155.797 205.758 152.63 203.487C152.81 203.277 157.54 197.697 158.43 194.487C159.21 191.717 159.43 187.967 157.57 185.487C157.155 184.902 156.622 184.411 156.004 184.047C155.387 183.682 154.7 183.451 153.987 183.37C153.275 183.289 152.553 183.359 151.869 183.576C151.186 183.792 150.556 184.15 150.02 184.627C146.86 187.577 148.02 195.277 149.64 198.767C149.77 199.047 152.04 202.707 152.5 203.337C152.32 203.207 152.11 203.087 151.93 202.957C148.817 200.594 145.922 197.957 143.28 195.077C141.8 193.507 140.47 191.927 139.21 190.357C140.21 189.407 144.67 185.017 145.79 182.227C146.91 179.437 147.49 175.847 145.92 173.227C145.57 172.6 145.093 172.054 144.518 171.624C143.944 171.194 143.286 170.89 142.586 170.73C141.887 170.571 141.161 170.56 140.457 170.699C139.753 170.838 139.086 171.124 138.5 171.537C135.04 174.127 135.32 181.907 136.57 185.537C136.64 185.737 137.57 187.677 138.24 189.077C137.69 188.357 137.1 187.627 136.58 186.937C134.58 184.317 132.99 181.807 131.58 179.567C130.78 178.287 130.08 177.117 129.43 176.007C129.92 174.567 131.79 168.747 131.51 165.817C131.23 162.887 130.08 159.367 127.51 157.817C126.911 157.421 126.236 157.156 125.528 157.038C124.821 156.921 124.096 156.954 123.402 157.135C122.707 157.316 122.059 157.641 121.499 158.09C120.938 158.538 120.479 159.099 120.15 159.737C118.27 163.627 122.1 170.407 124.9 173.067C125.14 173.297 129.32 176.457 129.35 176.377V176.297C129.95 177.367 130.6 178.517 131.35 179.747C132.73 182.027 134.35 184.587 136.22 187.247C138.245 190.144 140.435 192.922 142.78 195.567C145.397 198.535 148.272 201.266 151.37 203.727L151.48 203.807C150.3 203.367 146.95 202.227 146.68 202.177C142.91 201.357 135.15 201.997 132.98 205.737C132.639 206.367 132.434 207.062 132.378 207.777C132.323 208.492 132.419 209.21 132.659 209.885C132.9 210.561 133.28 211.178 133.774 211.697C134.269 212.215 134.867 212.624 135.53 212.897C138.29 214.217 141.9 213.157 144.43 211.777Z" fill="#9492E3"/>
<path d="M191.44 151.107C191.52 151.107 189.52 146.257 189.36 145.957C187.49 142.587 181.89 137.167 177.66 138.007C176.968 138.17 176.319 138.476 175.752 138.905C175.186 139.334 174.715 139.876 174.37 140.498C174.026 141.119 173.815 141.806 173.751 142.513C173.687 143.221 173.772 143.934 174 144.607C174.89 147.517 178.05 149.537 180.76 150.527C183.88 151.697 191.44 151.107 191.44 151.107Z" fill="#9492E3"/>
<path d="M413.74 41.3673H342.85L339.85 46.8373C338.258 49.7062 335.927 52.097 333.1 53.7616C330.272 55.4262 327.051 56.304 323.77 56.304C320.489 56.304 317.268 55.4262 314.44 53.7616C311.613 52.097 309.282 49.7062 307.69 46.8373L304.74 41.3673H233.9C230.316 41.3219 226.861 42.7016 224.293 45.2032C221.726 47.7047 220.258 51.1232 220.21 54.7073V419.767C220.258 423.351 221.726 426.77 224.293 429.271C226.861 431.773 230.316 433.153 233.9 433.107H413.74C417.325 433.153 420.782 431.773 423.35 429.272C425.919 426.771 427.39 423.352 427.44 419.767V54.7073C427.39 51.1223 425.919 47.7038 423.35 45.2025C420.782 42.7013 417.325 41.3219 413.74 41.3673Z" fill="white"/>
<path d="M413.18 46.6172H398.89V54.4572H413.18V46.6172Z" stroke="#263238" stroke-width="0.91" stroke-linecap="round" stroke-linejoin="round"/>
<path d="M410.04 46.6172H398.89V54.4572H410.04V46.6172Z" fill="#263238" stroke="#263238" stroke-width="0.8" stroke-linecap="round" stroke-linejoin="round"/>
<path d="M415.16 48.8074H413.15V52.2574H415.16V48.8074Z" fill="#263238" stroke="#263238" stroke-width="0.8" stroke-linecap="round" stroke-linejoin="round"/>
<path d="M234.63 49.0474H232.01V53.5374H234.63V49.0474Z" fill="#263238" stroke="#263238" stroke-width="0.98" stroke-linecap="round" stroke-linejoin="round"/>
<path d="M238.75 47.4673H236.13V53.5373H238.75V47.4673Z" fill="#263238" stroke="#263238" stroke-width="0.98" stroke-linecap="round" stroke-linejoin="round"/>
<path d="M242.87 45.6074H240.25V53.5374H242.87V45.6074Z" fill="#263238" stroke="#263238" stroke-width="0.98" stroke-linecap="round" stroke-linejoin="round"/>
<path d="M226.55 57.1372H421.06" stroke="#263238" stroke-width="1.11" stroke-linecap="round" stroke-linejoin="round"/>
<path d="M437.53 166.837C437.915 166.837 438.283 166.685 438.555 166.413C438.827 166.141 438.98 165.772 438.98 165.387V126.467C438.98 126.083 438.827 125.714 438.555 125.442C438.283 125.17 437.915 125.017 437.53 125.017H433.75V50.6673C433.75 48.2134 433.267 45.7835 432.327 43.5165C431.388 41.2495 430.011 39.1897 428.275 37.455C426.54 35.7203 424.479 34.3445 422.212 33.4064C419.944 32.4682 417.514 31.986 415.06 31.9873H232.58C230.126 31.986 227.696 32.4682 225.429 33.4064C223.161 34.3445 221.101 35.7203 219.365 37.455C217.629 39.1897 216.252 41.2495 215.313 43.5165C214.374 45.7835 213.89 48.2134 213.89 50.6673V434.327C213.89 436.781 214.374 439.211 215.313 441.478C216.252 443.745 217.629 445.805 219.365 447.54C221.101 449.274 223.161 450.65 225.429 451.588C227.696 452.526 230.126 453.009 232.58 453.007H415.06C417.514 453.009 419.944 452.526 422.212 451.588C424.479 450.65 426.54 449.274 428.275 447.54C430.011 445.805 431.388 443.745 432.327 441.478C433.267 439.211 433.75 436.781 433.75 434.327V200.327H437.53C437.915 200.327 438.283 200.175 438.555 199.903C438.827 199.631 438.98 199.262 438.98 198.877V181.527C438.98 181.143 438.827 180.774 438.555 180.502C438.283 180.23 437.915 180.077 437.53 180.077H433.75V166.837H437.53ZM427.44 419.767C427.39 423.352 425.919 426.771 423.35 429.272C420.782 431.773 417.325 433.153 413.74 433.107H233.9C230.316 433.153 226.861 431.773 224.293 429.271C221.726 426.77 220.258 423.351 220.21 419.767V54.7073C220.258 51.1232 221.726 47.7047 224.293 45.2032C226.861 42.7016 230.316 41.3219 233.9 41.3673H304.79L307.74 46.8373C309.332 49.7062 311.663 52.097 314.49 53.7616C317.318 55.4262 320.539 56.304 323.82 56.304C327.101 56.304 330.323 55.4262 333.15 53.7616C335.977 52.097 338.308 49.7062 339.9 46.8373L342.9 41.3673H413.79C417.375 41.3219 420.832 42.7013 423.4 45.2026C425.969 47.7038 427.44 51.1223 427.49 54.7073L427.44 419.767Z" fill="#263238" stroke="#263238" stroke-width="1.11" stroke-linecap="round" stroke-linejoin="round"/>
<path d="M328.7 43.4574C328.7 42.4922 328.414 41.5487 327.878 40.7462C327.341 39.9437 326.579 39.3182 325.688 38.9489C324.796 38.5795 323.815 38.4829 322.868 38.6712C321.921 38.8595 321.052 39.3242 320.369 40.0067C319.687 40.6892 319.222 41.5587 319.034 42.5054C318.846 43.452 318.942 44.4332 319.312 45.3249C319.681 46.2166 320.306 46.9787 321.109 47.515C321.911 48.0512 322.855 48.3374 323.82 48.3374C324.461 48.3387 325.097 48.2134 325.689 47.9686C326.282 47.7238 326.82 47.3644 327.274 46.911C327.727 46.4576 328.087 45.9191 328.331 45.3265C328.576 44.7338 328.701 44.0986 328.7 43.4574Z" fill="white" stroke="#263238" stroke-width="1.11" stroke-linecap="round" stroke-linejoin="round"/>
<path d="M349.46 68.1973H239.46C237.235 68.1973 235.101 69.0812 233.527 70.6546C231.954 72.2281 231.07 74.3621 231.07 76.5873V121.657L240.94 111.107H349.46C351.685 111.107 353.819 110.223 355.393 108.65C356.966 107.076 357.85 104.942 357.85 102.717V76.5873C357.85 74.3621 356.966 72.2281 355.393 70.6546C353.819 69.0812 351.685 68.1973 349.46 68.1973Z" fill="#F5F5F5"/>
<path d="M265.28 86.6472C265.282 84.3129 264.592 82.0305 263.296 80.0887C262.001 78.1469 260.159 76.6329 258.003 75.7383C255.847 74.8436 253.474 74.6085 251.184 75.0627C248.894 75.5169 246.791 76.6399 245.14 78.2898C243.488 79.9396 242.364 82.0422 241.907 84.3314C241.451 86.6207 241.684 88.9938 242.577 91.1505C243.47 93.3073 244.983 95.1508 246.923 96.4478C248.864 97.7449 251.146 98.4372 253.48 98.4372C255.029 98.4385 256.563 98.1345 257.995 97.5426C259.426 96.9507 260.727 96.0824 261.823 94.9875C262.919 93.8926 263.788 92.5924 264.382 91.1613C264.975 89.7302 265.28 88.1963 265.28 86.6472Z" fill="white"/>
<path d="M259.43 86.9072C259.43 86.9072 260.67 85.2572 260.95 86.9072C261.23 88.5572 258.83 90.6272 258.83 90.6272L259.43 86.9072Z" fill="white" stroke="#263238" stroke-width="1.11" stroke-linecap="round" stroke-linejoin="round"/>
<path d="M247.57 86.9072C247.57 86.9072 246.34 85.2572 246.06 86.9072C245.78 88.5572 248.17 90.6272 248.17 90.6272L247.57 86.9072Z" fill="white" stroke="#263238" stroke-width="1.11" stroke-linecap="round" stroke-linejoin="round"/>
<path d="M253.92 78.7774C253.92 78.7774 249.25 78.4174 248.17 81.5274C247.09 84.6374 247.82 89.6674 248.17 90.6274C248.52 91.5874 251.53 96.2474 252.36 96.6274C253.19 97.0074 255.24 96.8674 255.59 96.3874C255.94 95.9074 258.95 91.4774 259.18 89.9274C259.278 87.6402 259.235 85.3492 259.05 83.0674C259.006 82.2626 258.736 81.4865 258.271 80.8284C257.806 80.1703 257.164 79.6569 256.42 79.3474C255.625 79.0181 254.779 78.8254 253.92 78.7774Z" fill="white" stroke="#263238" stroke-width="1.11" stroke-linecap="round" stroke-linejoin="round"/>
<path d="M259.05 83.0474C259.006 82.2426 258.736 81.4665 258.271 80.8084C257.806 80.1503 257.164 79.6369 256.42 79.3274C255.623 79.0049 254.778 78.819 253.92 78.7774C253.92 78.7774 249.25 78.4174 248.17 81.5274C247.663 83.3 247.483 85.1503 247.64 86.9874C247.88 87.2674 248.64 88.0974 248.54 87.0474C248.4 85.8074 248.26 82.0474 249.23 81.2674C250.2 80.4874 250.33 79.7574 251.7 80.8574C253.07 81.9574 252.94 82.9174 254.32 82.2374C255.7 81.5574 255.97 80.0374 257.2 80.5874C258.43 81.1374 258.03 83.7474 258.03 84.9874C258.03 86.2274 258.03 88.5574 258.86 87.4574C259.012 87.2273 259.133 86.9786 259.22 86.7174C259.18 85.4574 259.11 84.1074 259.05 83.0474Z" fill="#263238" stroke="#263238" stroke-width="1.11" stroke-linecap="round" stroke-linejoin="round"/>
<path d="M251.93 95.8572C251.93 95.8572 253.41 92.8572 254.35 93.9772C254.936 94.6718 255.36 95.4883 255.59 96.3672C255.023 96.7454 254.338 96.9024 253.663 96.8084C252.988 96.7143 252.372 96.3759 251.93 95.8572Z" fill="#263238" stroke="#263238" stroke-width="1.11" stroke-linecap="round" stroke-linejoin="round"/>
<path d="M252.6 78.5472C252.368 78.0113 251.999 77.5458 251.53 77.1971L250.86 76.7972C250.86 76.7972 252.47 76.1271 253 76.6671C253.338 77.0015 253.652 77.359 253.94 77.7371C253.94 77.7371 254.21 75.8571 254.88 76.5271C255.261 76.9116 255.665 77.2723 256.09 77.6071C256.09 77.6071 254.21 78.1371 254.21 79.4871" fill="#263238"/>
<path d="M252.6 78.5472C252.368 78.0113 251.999 77.5458 251.53 77.1971L250.86 76.7972C250.86 76.7972 252.47 76.1271 253 76.6671C253.338 77.0015 253.652 77.359 253.94 77.7371C253.94 77.7371 254.21 75.8571 254.88 76.5271C255.261 76.9116 255.665 77.2723 256.09 77.6071C256.09 77.6071 254.21 78.1371 254.21 79.4871" stroke="#263238" stroke-width="1.11" stroke-linecap="round" stroke-linejoin="round"/>
<path d="M272.23 78.2173H296.67" stroke="#D0D0D0" stroke-width="2.22" stroke-linecap="round" stroke-linejoin="round"/>
<path d="M272.23 86.7273H347.04" stroke="#D0D0D0" stroke-width="1.11" stroke-linecap="round" stroke-linejoin="round"/>
<path d="M272.23 93.7673H347.04" stroke="#D0D0D0" stroke-width="1.11" stroke-linecap="round" stroke-linejoin="round"/>
<path d="M272.23 101.547H347.04" stroke="#D0D0D0" stroke-width="1.11" stroke-linecap="round" stroke-linejoin="round"/>
<path d="M407.84 129.107H297.78C296.679 129.107 295.588 129.324 294.571 129.746C293.553 130.168 292.629 130.786 291.851 131.565C291.073 132.344 290.456 133.269 290.035 134.287C289.614 135.305 289.399 136.396 289.4 137.497V163.667C289.4 165.891 290.283 168.023 291.854 169.596C293.425 171.169 295.557 172.055 297.78 172.057H406.31L416.23 182.567V137.477C416.225 135.255 415.338 133.127 413.766 131.557C412.193 129.988 410.062 129.107 407.84 129.107Z" fill="#9492E3"/>
<path d="M330.61 139.097H355.05" stroke="white" stroke-width="2.22" stroke-linecap="round" stroke-linejoin="round"/>
<path d="M330.61 147.617H405.42" stroke="white" stroke-width="1.11" stroke-linecap="round" stroke-linejoin="round"/>
<path d="M330.61 154.657H405.42" stroke="white" stroke-width="1.11" stroke-linecap="round" stroke-linejoin="round"/>
<path d="M330.61 162.437H405.42" stroke="white" stroke-width="1.11" stroke-linecap="round" stroke-linejoin="round"/>
<path d="M324.15 149.997C324.15 147.663 323.458 145.382 322.161 143.442C320.865 141.501 319.022 139.989 316.866 139.095C314.709 138.202 312.337 137.969 310.048 138.424C307.759 138.879 305.656 140.003 304.006 141.653C302.356 143.304 301.232 145.406 300.777 147.695C300.321 149.984 300.555 152.357 301.448 154.513C302.341 156.669 303.854 158.512 305.794 159.809C307.735 161.105 310.016 161.797 312.35 161.797C313.9 161.797 315.434 161.492 316.866 160.899C318.297 160.306 319.598 159.437 320.694 158.341C321.79 157.245 322.659 155.945 323.252 154.513C323.845 153.081 324.15 151.547 324.15 149.997Z" fill="white"/>
<path d="M310.87 141.037C309.649 140.964 308.438 141.3 307.43 141.992C306.421 142.684 305.671 143.692 305.3 144.857C303.921 148.549 303.144 152.439 303 156.377C303 158.817 307.83 160.747 310.47 160.947C313.11 161.147 319.05 161.047 321.09 157.797C323.13 154.547 319.82 147.947 319 143.887C318.18 139.827 313.71 140.837 310.87 141.037Z" fill="#263238" stroke="#263238" stroke-width="1.11" stroke-linecap="round" stroke-linejoin="round"/>
<path d="M318.3 149.187C318.3 149.187 319.54 147.537 319.81 149.187C320.08 150.837 317.7 152.897 317.7 152.897L318.3 149.187Z" fill="white" stroke="#263238" stroke-width="1.11" stroke-linecap="round" stroke-linejoin="round"/>
<path d="M306.44 149.187C306.44 149.187 305.2 147.537 304.93 149.187C304.66 150.837 307.04 152.897 307.04 152.897L306.44 149.187Z" fill="white" stroke="#263238" stroke-width="1.11" stroke-linecap="round" stroke-linejoin="round"/>
<path d="M312.79 141.107C312.79 141.107 308.12 140.747 307.04 143.857C305.96 146.967 306.68 151.997 307.04 152.947C307.4 153.897 310.39 158.577 311.23 158.947C312.07 159.317 314.1 159.187 314.46 158.707C314.82 158.227 317.81 153.797 318.05 152.247C318.148 149.96 318.105 147.669 317.92 145.387C317.878 144.582 317.608 143.805 317.143 143.147C316.677 142.489 316.035 141.976 315.29 141.667C314.494 141.341 313.649 141.152 312.79 141.107Z" fill="white" stroke="#263238" stroke-width="1.11" stroke-linecap="round" stroke-linejoin="round"/>
<path d="M309.24 142.257C309.24 142.257 316.79 149.187 318.3 149.187C319.81 149.187 320.01 144.087 318.38 141.647C316.75 139.207 309 137.787 309.24 142.257Z" fill="#263238" stroke="#263238" stroke-width="1.11" stroke-linecap="round" stroke-linejoin="round"/>
<path d="M349.46 191.787H239.46C237.237 191.787 235.104 192.67 233.531 194.241C231.958 195.812 231.073 197.944 231.07 200.167V245.237L240.99 234.727H349.46C350.561 234.729 351.652 234.513 352.67 234.092C353.688 233.672 354.613 233.055 355.392 232.276C356.171 231.498 356.789 230.574 357.211 229.557C357.633 228.539 357.85 227.449 357.85 226.347V200.167C357.85 199.066 357.633 197.976 357.211 196.958C356.789 195.941 356.171 195.017 355.392 194.238C354.613 193.46 353.688 192.843 352.67 192.422C351.652 192.002 350.561 191.786 349.46 191.787Z" fill="#F5F5F5"/>
<path d="M264.361 214.766C266.87 208.757 264.034 201.852 258.026 199.342C252.017 196.833 245.112 199.669 242.602 205.677C240.093 211.686 242.929 218.591 248.937 221.101C254.946 223.61 261.851 220.774 264.361 214.766Z" fill="white"/>
<path d="M259.43 210.497C259.43 210.497 260.67 208.847 260.95 210.497C261.23 212.147 258.83 214.207 258.83 214.207L259.43 210.497Z" fill="white" stroke="#263238" stroke-width="1.11" stroke-linecap="round" stroke-linejoin="round"/>
<path d="M247.57 210.497C247.57 210.497 246.34 208.847 246.06 210.497C245.78 212.147 248.17 214.207 248.17 214.207L247.57 210.497Z" fill="white" stroke="#263238" stroke-width="1.11" stroke-linecap="round" stroke-linejoin="round"/>
<path d="M253.92 202.357C253.92 202.357 249.25 201.997 248.17 205.107C247.09 208.217 247.82 213.247 248.17 214.207C248.52 215.167 251.53 219.837 252.36 220.207C253.19 220.577 255.24 220.447 255.59 219.967C255.94 219.487 258.95 215.067 259.18 213.507C259.278 211.22 259.235 208.929 259.05 206.647C259.008 205.843 258.739 205.068 258.273 204.411C257.807 203.754 257.165 203.243 256.42 202.937C255.624 202.609 254.779 202.413 253.92 202.357Z" fill="white" stroke="#263238" stroke-width="1.11" stroke-linecap="round" stroke-linejoin="round"/>
<path d="M259.05 206.627C259.008 205.823 258.739 205.048 258.273 204.391C257.807 203.734 257.165 203.223 256.42 202.917C255.623 202.596 254.778 202.407 253.92 202.357C253.92 202.357 249.25 201.997 248.17 205.107C247.663 206.883 247.484 208.737 247.64 210.577C247.88 210.847 248.64 211.687 248.54 210.637C248.4 209.397 248.26 205.637 249.23 204.857C250.2 204.077 250.33 203.347 251.7 204.447C253.07 205.547 252.94 206.507 254.32 205.817C255.7 205.127 255.97 203.617 257.2 204.167C258.43 204.717 258.03 207.337 258.03 208.567C258.03 209.797 258.03 212.147 258.86 211.047C259.011 210.813 259.132 210.561 259.22 210.297C259.18 209.047 259.11 207.677 259.05 206.627Z" fill="#263238" stroke="#263238" stroke-width="1.11" stroke-linecap="round" stroke-linejoin="round"/>
<path d="M251.93 219.437C251.93 219.437 253.41 216.437 254.35 217.557C254.934 218.253 255.357 219.069 255.59 219.947C255.023 220.325 254.338 220.482 253.663 220.388C252.988 220.294 252.372 219.956 251.93 219.437Z" fill="#263238" stroke="#263238" stroke-width="1.11" stroke-linecap="round" stroke-linejoin="round"/>
<path d="M252.6 202.107C252.368 201.574 251.999 201.111 251.53 200.767L250.86 200.367C250.86 200.367 252.47 199.697 253 200.227C253.337 200.566 253.651 200.927 253.94 201.307C253.94 201.307 254.21 199.427 254.88 200.097C255.259 200.48 255.663 200.838 256.09 201.167C256.09 201.167 254.21 201.707 254.21 203.047" fill="#263238"/>
<path d="M252.6 202.107C252.368 201.574 251.999 201.111 251.53 200.767L250.86 200.367C250.86 200.367 252.47 199.697 253 200.227C253.337 200.566 253.651 200.927 253.94 201.307C253.94 201.307 254.21 199.427 254.88 200.097C255.259 200.48 255.663 200.838 256.09 201.167C256.09 201.167 254.21 201.707 254.21 203.047" stroke="#263238" stroke-width="1.11" stroke-linecap="round" stroke-linejoin="round"/>
<path d="M272.23 201.797H296.67" stroke="#D0D0D0" stroke-width="2.22" stroke-linecap="round" stroke-linejoin="round"/>
<path d="M272.23 210.317H347.04" stroke="#D0D0D0" stroke-width="1.11" stroke-linecap="round" stroke-linejoin="round"/>
<path d="M272.23 217.357H347.04" stroke="#D0D0D0" stroke-width="1.11" stroke-linecap="round" stroke-linejoin="round"/>
<path d="M272.23 225.127H347.04" stroke="#D0D0D0" stroke-width="1.11" stroke-linecap="round" stroke-linejoin="round"/>
<path d="M349.46 253.317H239.46C238.352 253.308 237.254 253.518 236.228 253.936C235.202 254.353 234.269 254.97 233.482 255.75C232.696 256.53 232.071 257.458 231.645 258.48C231.219 259.503 231 260.599 231 261.707V306.777L240.92 296.267H349.46C351.685 296.267 353.819 295.383 355.393 293.81C356.966 292.236 357.85 290.102 357.85 287.877V261.707C357.851 260.605 357.635 259.513 357.214 258.495C356.793 257.476 356.175 256.551 355.396 255.772C354.616 254.992 353.691 254.374 352.672 253.953C351.654 253.532 350.562 253.316 349.46 253.317Z" fill="#F5F5F5"/>
<path d="M264.357 276.301C266.866 270.292 264.03 263.387 258.022 260.877C252.013 258.368 245.108 261.204 242.599 267.212C240.089 273.221 242.925 280.126 248.933 282.636C254.942 285.145 261.847 282.309 264.357 276.301Z" fill="white"/>
<path d="M259.43 272.027C259.43 272.027 260.67 270.377 260.95 272.027C261.23 273.677 258.83 275.737 258.83 275.737L259.43 272.027Z" fill="white" stroke="#263238" stroke-width="1.11" stroke-linecap="round" stroke-linejoin="round"/>
<path d="M247.57 272.027C247.57 272.027 246.34 270.377 246.06 272.027C245.78 273.677 248.17 275.737 248.17 275.737L247.57 272.027Z" fill="white" stroke="#263238" stroke-width="1.11" stroke-linecap="round" stroke-linejoin="round"/>
<path d="M253.92 263.887C253.92 263.887 249.25 263.527 248.17 266.647C247.09 269.767 247.82 274.777 248.17 275.737C248.52 276.697 251.53 281.367 252.36 281.737C253.19 282.107 255.24 281.977 255.59 281.497C255.94 281.017 258.95 276.587 259.18 275.027C259.278 272.74 259.235 270.449 259.05 268.167C259.008 267.363 258.739 266.588 258.273 265.931C257.807 265.274 257.165 264.763 256.42 264.457C255.623 264.132 254.779 263.94 253.92 263.887Z" fill="white" stroke="#263238" stroke-width="1.11" stroke-linecap="round" stroke-linejoin="round"/>
<path d="M259.05 268.157C259.008 267.353 258.739 266.578 258.273 265.921C257.807 265.264 257.165 264.753 256.42 264.447C255.623 264.126 254.778 263.937 253.92 263.887C253.92 263.887 249.25 263.527 248.17 266.647C247.663 268.42 247.483 270.27 247.64 272.107C247.88 272.387 248.64 273.217 248.54 272.167C248.4 270.927 248.26 267.217 249.23 266.387C250.2 265.557 250.33 264.877 251.7 265.977C253.07 267.077 252.94 268.037 254.32 267.347C255.7 266.657 255.97 265.147 257.2 265.697C258.43 266.247 258.03 268.867 258.03 270.097C258.03 271.327 258.03 273.677 258.86 272.577C259.01 272.346 259.13 272.098 259.22 271.837C259.18 270.577 259.11 269.207 259.05 268.157Z" fill="#263238" stroke="#263238" stroke-width="1.11" stroke-linecap="round" stroke-linejoin="round"/>
<path d="M251.93 280.967C251.93 280.967 253.41 278.017 254.35 279.097C254.936 279.792 255.36 280.608 255.59 281.487C255.022 281.862 254.336 282.016 253.662 281.921C252.987 281.825 252.372 281.486 251.93 280.967Z" fill="#263238" stroke="#263238" stroke-width="1.11" stroke-linecap="round" stroke-linejoin="round"/>
<path d="M252.6 263.657C252.368 263.124 251.999 262.661 251.53 262.317L250.86 261.917C250.86 261.917 252.47 261.247 253 261.777C253.337 262.116 253.651 262.477 253.94 262.857C253.94 262.857 254.21 260.977 254.88 261.647C255.259 262.03 255.663 262.388 256.09 262.717C256.09 262.717 254.21 263.257 254.21 264.597" fill="#263238"/>
<path d="M252.6 263.657C252.368 263.124 251.999 262.661 251.53 262.317L250.86 261.917C250.86 261.917 252.47 261.247 253 261.777C253.337 262.116 253.651 262.477 253.94 262.857C253.94 262.857 254.21 260.977 254.88 261.647C255.259 262.03 255.663 262.388 256.09 262.717C256.09 262.717 254.21 263.257 254.21 264.597" stroke="#263238" stroke-width="1.11" stroke-linecap="round" stroke-linejoin="round"/>
<path d="M272.23 263.327H296.67" stroke="#D0D0D0" stroke-width="2.22" stroke-linecap="round" stroke-linejoin="round"/>
<path d="M272.23 271.847H347.04" stroke="#D0D0D0" stroke-width="1.11" stroke-linecap="round" stroke-linejoin="round"/>
<path d="M272.23 278.887H347.04" stroke="#D0D0D0" stroke-width="1.11" stroke-linecap="round" stroke-linejoin="round"/>
<path d="M272.23 286.657H347.04" stroke="#D0D0D0" stroke-width="1.11" stroke-linecap="round" stroke-linejoin="round"/>
<path d="M349.46 369.267H239.46C237.235 369.267 235.101 370.151 233.527 371.725C231.954 373.298 231.07 375.432 231.07 377.657V422.727L240.99 412.217H349.46C350.562 412.219 351.654 412.003 352.672 411.581C353.691 411.16 354.616 410.542 355.396 409.763C356.175 408.984 356.793 408.058 357.214 407.04C357.635 406.021 357.851 404.929 357.85 403.827V377.657C357.85 375.432 356.966 373.298 355.393 371.725C353.819 370.151 351.685 369.267 349.46 369.267Z" fill="#F5F5F5"/>
<path d="M255.359 399.365C261.786 398.318 266.148 392.26 265.101 385.833C264.054 379.406 257.996 375.045 251.569 376.092C245.142 377.138 240.781 383.197 241.828 389.623C242.874 396.05 248.933 400.412 255.359 399.365Z" fill="white"/>
<path d="M259.43 387.987C259.43 387.987 260.67 386.337 260.95 387.987C261.23 389.637 258.83 391.697 258.83 391.697L259.43 387.987Z" fill="white" stroke="#263238" stroke-width="1.11" stroke-linecap="round" stroke-linejoin="round"/>
<path d="M247.57 387.987C247.57 387.987 246.34 386.337 246.06 387.987C245.78 389.637 248.17 391.697 248.17 391.697L247.57 387.987Z" fill="white" stroke="#263238" stroke-width="1.11" stroke-linecap="round" stroke-linejoin="round"/>
<path d="M253.92 379.847C253.92 379.847 249.25 379.487 248.17 382.597C247.09 385.707 247.82 390.737 248.17 391.697C248.52 392.657 251.53 397.317 252.36 397.697C253.19 398.077 255.24 397.937 255.59 397.457C255.94 396.977 258.95 392.557 259.18 390.997C259.278 388.71 259.235 386.419 259.05 384.137C259.006 383.332 258.736 382.556 258.271 381.898C257.806 381.24 257.164 380.727 256.42 380.417C255.623 380.092 254.779 379.9 253.92 379.847Z" fill="white" stroke="#263238" stroke-width="1.11" stroke-linecap="round" stroke-linejoin="round"/>
<path d="M259.05 384.107C259.006 383.302 258.736 382.526 258.271 381.868C257.806 381.21 257.164 380.697 256.42 380.387C255.622 380.069 254.778 379.884 253.92 379.837C253.92 379.837 249.25 379.477 248.17 382.587C247.663 384.363 247.484 386.217 247.64 388.057C247.88 388.327 248.64 389.167 248.54 388.107C248.4 386.877 248.26 383.157 249.23 382.337C250.2 381.517 250.33 380.817 251.7 381.917C253.07 383.017 252.94 383.987 254.32 383.297C255.7 382.607 255.97 381.097 257.2 381.647C258.43 382.197 258.03 384.807 258.03 386.047C258.03 387.287 258.03 389.627 258.86 388.527C259.009 388.292 259.13 388.041 259.22 387.777C259.18 386.527 259.11 385.167 259.05 384.107Z" fill="#263238" stroke="#263238" stroke-width="1.11" stroke-linecap="round" stroke-linejoin="round"/>
<path d="M251.93 396.927C251.93 396.927 253.41 393.977 254.35 395.047C254.934 395.743 255.357 396.559 255.59 397.437C255.023 397.815 254.338 397.972 253.663 397.878C252.988 397.784 252.372 397.446 251.93 396.927Z" fill="#263238" stroke="#263238" stroke-width="1.11" stroke-linecap="round" stroke-linejoin="round"/>
<path d="M252.6 379.617C252.368 379.084 251.999 378.621 251.53 378.277L250.86 377.877C250.86 377.877 252.47 377.197 253 377.737C253.335 378.074 253.649 378.432 253.94 378.807C253.94 378.807 254.21 376.937 254.88 377.607C255.259 377.991 255.663 378.348 256.09 378.677C256.09 378.677 254.21 379.217 254.21 380.557" fill="#263238"/>
<path d="M252.6 379.617C252.368 379.084 251.999 378.621 251.53 378.277L250.86 377.877C250.86 377.877 252.47 377.197 253 377.737C253.335 378.074 253.649 378.432 253.94 378.807C253.94 378.807 254.21 376.937 254.88 377.607C255.259 377.991 255.663 378.348 256.09 378.677C256.09 378.677 254.21 379.217 254.21 380.557" stroke="#263238" stroke-width="1.11" stroke-linecap="round" stroke-linejoin="round"/>
<path d="M272.23 379.287H296.67" stroke="#D0D0D0" stroke-width="2.22" stroke-linecap="round" stroke-linejoin="round"/>
<path d="M272.23 387.807H347.04" stroke="#D0D0D0" stroke-width="1.11" stroke-linecap="round" stroke-linejoin="round"/>
<path d="M272.23 394.837H347.04" stroke="#D0D0D0" stroke-width="1.11" stroke-linecap="round" stroke-linejoin="round"/>
<path d="M272.23 402.617H347.04" stroke="#D0D0D0" stroke-width="1.11" stroke-linecap="round" stroke-linejoin="round"/>
<path d="M407.84 314.707H297.78C296.678 314.709 295.587 314.927 294.57 315.35C293.553 315.773 292.629 316.392 291.85 317.172C291.072 317.952 290.455 318.877 290.035 319.896C289.614 320.914 289.399 322.005 289.4 323.107V349.277C289.399 350.379 289.614 351.469 290.035 352.487C290.456 353.505 291.073 354.43 291.851 355.209C292.629 355.989 293.553 356.607 294.571 357.028C295.588 357.45 296.679 357.667 297.78 357.667H406.31L416.23 368.177V323.107C416.231 322.005 416.015 320.913 415.594 319.893C415.173 318.874 414.555 317.948 413.776 317.168C412.997 316.388 412.072 315.769 411.053 315.347C410.035 314.925 408.943 314.707 407.84 314.707Z" fill="#9492E3"/>
<path d="M330.61 324.727H355.05" stroke="white" stroke-width="2.22" stroke-linecap="round" stroke-linejoin="round"/>
<path d="M330.61 333.247H405.42" stroke="white" stroke-width="1.11" stroke-linecap="round" stroke-linejoin="round"/>
<path d="M330.61 340.277H405.42" stroke="white" stroke-width="1.11" stroke-linecap="round" stroke-linejoin="round"/>
<path d="M330.61 348.057H405.42" stroke="white" stroke-width="1.11" stroke-linecap="round" stroke-linejoin="round"/>
<path d="M324.15 335.627C324.152 333.293 323.462 331.011 322.166 329.069C320.871 327.127 319.029 325.613 316.873 324.718C314.717 323.824 312.344 323.589 310.054 324.043C307.764 324.497 305.661 325.62 304.01 327.27C302.358 328.92 301.234 331.022 300.777 333.312C300.321 335.601 300.554 337.974 301.447 340.131C302.34 342.287 303.853 344.131 305.793 345.428C307.734 346.725 310.016 347.417 312.35 347.417C315.478 347.417 318.478 346.176 320.69 343.965C322.903 341.754 324.147 338.755 324.15 335.627Z" fill="white"/>
<path d="M310.87 326.667C309.649 326.594 308.438 326.93 307.43 327.622C306.421 328.313 305.671 329.322 305.3 330.487C303.919 334.179 303.143 338.069 303 342.007C303 344.447 307.83 346.377 310.47 346.577C313.11 346.777 319.05 346.677 321.09 343.427C323.13 340.177 319.82 333.577 319 329.507C318.18 325.437 313.71 326.467 310.87 326.667Z" fill="#263238" stroke="#263238" stroke-width="1.11" stroke-linecap="round" stroke-linejoin="round"/>
<path d="M318.3 334.817C318.3 334.817 319.54 333.167 319.81 334.817C320.08 336.467 317.7 338.527 317.7 338.527L318.3 334.817Z" fill="white" stroke="#263238" stroke-width="1.11" stroke-linecap="round" stroke-linejoin="round"/>
<path d="M306.44 334.817C306.44 334.817 305.2 333.167 304.93 334.817C304.66 336.467 307.04 338.527 307.04 338.527L306.44 334.817Z" fill="white" stroke="#263238" stroke-width="1.11" stroke-linecap="round" stroke-linejoin="round"/>
<path d="M312.79 326.677C312.79 326.677 308.12 326.317 307.04 329.437C305.96 332.557 306.68 337.567 307.04 338.527C307.4 339.487 310.39 344.157 311.23 344.527C312.07 344.897 314.1 344.767 314.46 344.287C314.82 343.807 317.81 339.377 318.05 337.817C318.148 335.53 318.105 333.239 317.92 330.957C317.878 330.153 317.609 329.378 317.143 328.721C316.677 328.064 316.035 327.553 315.29 327.247C314.493 326.922 313.649 326.73 312.79 326.677Z" fill="white" stroke="#263238" stroke-width="1.11" stroke-linecap="round" stroke-linejoin="round"/>
<path d="M309.24 327.887C309.24 327.887 316.79 334.817 318.3 334.817C319.81 334.817 320.01 329.717 318.38 327.277C316.75 324.837 309 323.417 309.24 327.887Z" fill="#263238" stroke="#263238" stroke-width="1.11" stroke-linecap="round" stroke-linejoin="round"/>
<path d="M436 428.807L434.74 451.107C434.942 451.545 435.233 451.935 435.595 452.254C435.956 452.572 436.38 452.812 436.84 452.957C438.19 453.197 467.62 452.957 467.62 452.957C467.825 451.762 467.743 450.534 467.38 449.377C467.162 448.616 466.753 447.923 466.194 447.364C465.634 446.804 464.941 446.396 464.18 446.177C462.7 445.807 452.48 441.127 451.61 440.757C450.74 440.387 450.26 434.477 450.26 434.477L436 428.807Z" fill="white" stroke="#263238" stroke-width="1.11" stroke-miterlimit="10"/>
<path d="M467.62 452.947C467.74 452.155 467.74 451.349 467.62 450.557L434.78 449.677L434.7 451.097C434.902 451.535 435.193 451.925 435.555 452.244C435.916 452.562 436.34 452.802 436.8 452.947C438.19 453.187 467.62 452.947 467.62 452.947Z" fill="white" stroke="#263238" stroke-width="1.11" stroke-miterlimit="10"/>
<path d="M442.11 315.827C442.11 315.827 444.64 370.547 444.36 372.227L434.82 429.747C434.82 429.747 442.95 434.237 446.88 435.077C449.939 435.65 453.032 436.024 456.14 436.197C456.14 436.197 469.05 383.727 469.61 380.647C470.17 377.567 463.15 311.107 463.15 311.107L442.11 315.827Z" fill="#263238" stroke="#263238" stroke-width="1.11" stroke-miterlimit="10"/>
<path d="M442.5 422.897C442.5 422.897 431.05 438.657 432.4 440.257C433.75 441.857 443.73 451.337 446.2 452.447C448.67 453.557 471.2 452.447 471.2 452.447C471.429 451.804 471.554 451.129 471.57 450.447C471.57 449.447 471.45 445.647 470.1 444.537C468.75 443.427 458.52 438.627 458.1 437.887C457.68 437.147 457.24 431.117 457.24 431.117L442.5 422.897Z" fill="white" stroke="#263238" stroke-width="1.11" stroke-miterlimit="10"/>
<path d="M471.19 452.447C471.419 451.804 471.544 451.129 471.56 450.447V449.987L455.92 450.577C455.92 450.577 451.12 451.307 448.54 449.217C446.37 447.467 436.88 438.817 433.84 436.047C432.69 438.137 432.02 439.767 432.4 440.227C433.76 441.827 443.73 451.307 446.2 452.417C448.67 453.527 471.19 452.447 471.19 452.447Z" fill="white" stroke="#263238" stroke-width="1.11" stroke-miterlimit="10"/>
<path d="M434 290.297C434 290.297 435.69 306.567 437.09 309.097C438.49 311.627 440.74 315.547 440.74 315.547L462 375.317L440.12 423.577C440.12 423.577 456.12 433.957 459.48 435.077C460.921 435.646 462.431 436.022 463.97 436.197C463.97 436.197 489.78 375.877 489.78 371.667C489.78 367.457 471.78 307.137 471.78 307.137L473 286.367L434 290.297Z" fill="#263238" stroke="#263238" stroke-width="1.11" stroke-miterlimit="10"/>
<path d="M455.28 295.347L467.08 300.067L457.3 292.307L464.04 295.347" stroke="white" stroke-width="1.11" stroke-linecap="round" stroke-linejoin="round"/>
<path d="M448.5 336.347L462.03 375.317L442.39 420.487" stroke="white" stroke-width="1.11" stroke-miterlimit="10"/>
<path d="M445.76 328.457L447.15 332.477" stroke="white" stroke-width="1.11" stroke-miterlimit="10"/>
<path d="M488.3 260.107C488.3 260.107 494.94 253.877 496.3 253.107C497.66 252.337 503.07 250.717 503.46 248.857C503.85 246.997 503.33 237.857 502.8 238.247C502.27 238.637 495.24 248.597 495.24 248.597L486.08 255.767L488.3 260.107Z" fill="white" stroke="#263238" stroke-width="1.11" stroke-miterlimit="10"/>
<path d="M497.73 245.647L496.93 251.747" stroke="#263238" stroke-width="1.11" stroke-miterlimit="10"/>
<path d="M499.85 242.457L500.12 249.897" stroke="#263238" stroke-width="1.11" stroke-miterlimit="10"/>
<path d="M502 239.937C502 239.937 501.87 247.767 502 248.567V239.937Z" fill="white"/>
<path d="M502 239.937C502 239.937 501.87 247.767 502 248.567" stroke="#263238" stroke-width="1.11" stroke-miterlimit="10"/>
<path d="M503.83 246.707C503.83 246.707 506.09 243.917 505.56 242.067C505.413 241.531 505.145 241.037 504.775 240.622C504.406 240.208 503.945 239.884 503.43 239.677L503.83 246.707Z" fill="white" stroke="#263238" stroke-width="1.11" stroke-miterlimit="10"/>
<path d="M487.51 252.947C487.91 253.207 491.09 258.117 491.09 258.117L487.09 263.427C487.09 263.427 489.09 267.147 487.89 268.077C486.69 269.007 476.74 274.177 476.74 274.177L473.42 260.777C473.42 260.777 480.85 256.127 481.25 256.267C481.644 256.472 482.001 256.738 482.31 257.057L487.51 252.947Z" fill="#9492E3" stroke="#263238" stroke-width="1.11" stroke-miterlimit="10"/>
<path d="M491.74 251.147L493.12 252.107L507.74 231.187L506.36 230.227L491.74 251.147Z" fill="#263238" stroke="#263238" stroke-width="1.11" stroke-miterlimit="10"/>
<path d="M450.14 212.637C449.32 213.037 437.73 227.077 433.45 232.567C429.17 238.057 429.59 247.017 429.79 251.897C429.99 256.777 427.79 292.997 427.79 292.997C427.79 292.997 445.49 291.577 456.07 290.557C466.65 289.537 481.7 288.557 481.7 288.557C481.7 288.557 477.43 269.847 475.4 261.497C473.37 253.147 470.11 241.157 467.87 235.497C466.323 231.694 464.485 228.016 462.37 224.497L450.14 212.637Z" fill="#9492E3" stroke="#263238" stroke-width="1.11" stroke-miterlimit="10"/>
<path d="M471.7 213.247L465.19 220.567L455.19 207.957L461.09 201.037C461.09 201.037 464.55 197.377 466.59 197.777C468.63 198.177 471.7 213.247 471.7 213.247Z" fill="white" stroke="#263238" stroke-width="1.11" stroke-miterlimit="10"/>
<path d="M464.79 205.717L468.76 216.787L471.7 213.247L464.79 205.717Z" fill="#263238" stroke="#263238" stroke-width="1.11" stroke-miterlimit="10"/>
<path d="M464 200.837C464 200.837 461.56 204.697 459.53 203.887C457.5 203.077 452 197.167 449.53 189.887C447.06 182.607 456.04 181.337 457.46 178.497C458.88 175.657 460.11 175.237 462.14 165.267C464.17 155.297 486.96 159.167 490.42 164.457C493.88 169.747 493.27 180.327 502.83 176.867C512.39 173.407 522.77 169.747 525.01 178.287C527.25 186.827 519.92 197.207 522.57 200.877C525.22 204.547 533.76 201.877 533.15 205.347C532.54 208.817 528.06 211.047 529.48 211.857C530.9 212.667 538.84 208.607 536.6 212.267C534.36 215.927 529.69 219.797 529.08 218.167C528.47 216.537 529.08 214.507 526.84 215.727C524.6 216.947 517.84 221.827 515.04 219.187C512.24 216.547 515.85 206.977 511.17 205.957C506.49 204.937 495.1 208.197 491.23 208.397C487.36 208.597 486.96 207.397 479.84 203.927C472.72 200.457 464 200.837 464 200.837Z" fill="#263238" stroke="#263238" stroke-width="1.11" stroke-miterlimit="10"/>
<path d="M465.6 195.107C465.6 195.107 477.6 195.717 485.33 193.677C488.866 192.852 492.335 191.766 495.71 190.427C495.71 190.427 495.91 198.357 493.88 200.597C491.85 202.837 489.2 204.867 489.2 206.497C489.2 208.127 491.2 210.767 490.01 212.197C488.82 213.627 485.94 213.617 485.13 213.617C484.32 213.617 477.81 219.727 475.98 219.727C474.15 219.727 464.98 207.517 464.79 205.727C464.68 203.558 464.68 201.386 464.79 199.217" fill="white"/>
<path d="M465.6 195.107C465.6 195.107 477.6 195.717 485.33 193.677C488.866 192.852 492.335 191.766 495.71 190.427C495.71 190.427 495.91 198.357 493.88 200.597C491.85 202.837 489.2 204.867 489.2 206.497C489.2 208.127 491.2 210.767 490.01 212.197C488.82 213.627 485.94 213.617 485.13 213.617C484.32 213.617 477.81 219.727 475.98 219.727C474.15 219.727 464.98 207.517 464.79 205.727C464.68 203.558 464.68 201.386 464.79 199.217" stroke="#263238" stroke-width="1.11" stroke-miterlimit="10"/>
<path d="M487 202.257L484.76 204.897C484.054 204.79 483.393 204.485 482.853 204.018C482.314 203.551 481.917 202.94 481.71 202.257" stroke="#263238" stroke-width="1.11" stroke-miterlimit="10"/>
<path d="M479.43 208.357C479.43 208.357 479.23 211.617 481.88 212.027" stroke="#263238" stroke-width="1.11" stroke-miterlimit="10"/>
<path d="M484.52 198.797C484.52 198.797 488.18 197.577 489.81 200.627" stroke="#263238" stroke-width="1.11" stroke-miterlimit="10"/>
<path d="M468.65 198.187C468.65 198.187 465.65 189.187 462.75 192.487C459.85 195.787 461.53 201.487 463.75 202.667C464.407 203.019 465.14 203.203 465.885 203.203C466.63 203.203 467.363 203.019 468.02 202.667" fill="white"/>
<path d="M468.65 198.187C468.65 198.187 465.65 189.187 462.75 192.487C459.85 195.787 461.53 201.487 463.75 202.667C464.407 203.019 465.14 203.203 465.885 203.203C466.63 203.203 467.363 203.019 468.02 202.667" stroke="#263238" stroke-width="1.11" stroke-miterlimit="10"/>
<path d="M456 204.697C456 204.697 469.42 217.927 469 219.757C468.58 221.587 466.35 222.757 466.35 222.757C466.35 222.757 466.96 226.417 465.95 227.227C465.29 227.728 464.524 228.07 463.71 228.227C463.71 228.227 451 215.107 449.32 213.037C447.64 210.967 448.92 209.987 449.93 209.577C450.658 209.309 451.407 209.105 452.17 208.967C452.17 208.967 453.6 204.107 456 204.697Z" fill="#9492E3" stroke="#263238" stroke-width="1.11" stroke-miterlimit="10"/>
<path d="M436.57 234.257C435.788 238.988 435.366 243.772 435.31 248.567C435.31 255.717 438.25 290.857 439.73 292.757C441.21 294.657 447.09 296.327 449.62 294.647C452.15 292.967 474.03 278.867 474.24 276.547C474.45 274.227 470.87 265.817 469.4 265.187C467.93 264.557 466.66 264.767 464.56 266.657C462.164 268.518 459.637 270.206 457 271.707C457 271.707 455.53 244.777 453.85 238.247C452.17 231.717 451.32 230.467 450.27 230.047" fill="#9492E3"/>
<path d="M436.57 234.257C435.788 238.988 435.366 243.772 435.31 248.567C435.31 255.717 438.25 290.857 439.73 292.757C441.21 294.657 447.09 296.327 449.62 294.647C452.15 292.967 474.03 278.867 474.24 276.547C474.45 274.227 470.87 265.817 469.4 265.187C467.93 264.557 466.66 264.767 464.56 266.657C462.164 268.518 459.637 270.206 457 271.707C457 271.707 455.53 244.777 453.85 238.247C452.17 231.717 451.32 230.467 450.27 230.047" stroke="#263238" stroke-width="1.11" stroke-miterlimit="10"/>
<path d="M475.37 261.457C475.37 261.457 481.37 247.087 481.81 246.037C482.25 244.987 483.71 243.297 484.97 243.087C486.23 242.877 495.91 240.777 496.75 240.567C497.59 240.357 498.23 241.407 495.91 242.877C493.59 244.347 487.91 244.987 487.91 244.987L487.06 251.297C487.06 251.297 492.75 246.877 492.75 249.197C492.75 251.517 488.54 252.977 487.91 253.197C487.28 253.417 485.6 256.107 485 256.557C484.035 256.999 483.03 257.35 482 257.607C482 257.607 481.58 260.137 480.74 260.977C479.9 261.817 476.11 264.557 476.11 264.557L475.37 261.457Z" fill="white" stroke="#263238" stroke-width="1.11" stroke-miterlimit="10"/>
<path d="M481.81 246.037C481.81 246.037 484.25 243.037 484.61 243.037C486.331 244.253 487.978 245.572 489.54 246.987C489.84 247.277 487.96 250.337 487.67 250.827C487.38 251.317 487.27 251.717 486.48 251.427C485.945 251.206 485.446 250.906 485 250.537" fill="white"/>
<path d="M481.81 246.037C481.81 246.037 484.25 243.037 484.61 243.037C486.331 244.253 487.978 245.572 489.54 246.987C489.84 247.277 487.96 250.337 487.67 250.827C487.38 251.317 487.27 251.717 486.48 251.427C485.945 251.206 485.446 250.906 485 250.537" stroke="#263238" stroke-width="1.11" stroke-miterlimit="10"/>
<path d="M481.16 248.487C481.16 248.487 483.82 245.487 484.21 245.487C484.6 245.487 487.96 248.147 487.96 248.637C487.96 249.127 487.37 252.097 486.88 252.197C486.185 252.201 485.492 252.134 484.81 251.997" fill="white"/>
<path d="M481.16 248.487C481.16 248.487 483.82 245.487 484.21 245.487C484.6 245.487 487.96 248.147 487.96 248.637C487.96 249.127 487.37 252.097 486.88 252.197C486.185 252.201 485.492 252.134 484.81 251.997" stroke="#263238" stroke-width="1.11" stroke-miterlimit="10"/>
<path d="M481.06 251.347C481.77 250.57 482.565 249.876 483.43 249.277C484.21 248.877 485.99 250.557 487.07 251.277C488.15 251.997 489.44 252.407 488.85 253.097C488.26 253.787 485.99 252.807 485.5 252.807C484.952 252.717 484.42 252.548 483.92 252.307L482.64 256.157" fill="white"/>
<path d="M481.06 251.347C481.77 250.57 482.565 249.876 483.43 249.277C484.21 248.877 485.99 250.557 487.07 251.277C488.15 251.997 489.44 252.407 488.85 253.097C488.26 253.787 485.99 252.807 485.5 252.807C484.952 252.717 484.42 252.548 483.92 252.307L482.64 256.157" stroke="#263238" stroke-width="1.11" stroke-miterlimit="10"/>
<path d="M468.35 265.817L475.71 259.927L479.08 266.237L472.76 272.767C472.76 272.767 468.35 271.917 468.35 265.817Z" fill="#9492E3" stroke="#263238" stroke-width="1.11" stroke-miterlimit="10"/>
<path d="M34 439.157C30.983 438.209 28.1613 436.725 25.67 434.777C22.34 431.907 11.82 424.107 8.77996 422.107C5.73996 420.107 6.10997 429.347 7.13997 434.107C7.97298 438.219 9.71934 442.091 12.25 445.437C14.17 447.717 26.7 452.437 28.1 452.757C29.5 453.077 35.1 453.177 36.24 452.637C37.38 452.097 35 443.107 34 439.157Z" fill="white" stroke="#263238" stroke-width="1.11" stroke-miterlimit="10"/>
<path d="M12.8899 441.547C9.95994 437.787 7.88994 426.257 7.79994 421.837C5.79994 422.307 6.23994 429.937 7.13994 434.137C7.97295 438.249 9.71931 442.121 12.2499 445.467C14.1699 447.747 26.6999 452.467 28.0999 452.787C29.9924 453.037 31.9039 453.11 33.8099 453.007C26.9999 450.617 15.8399 445.327 12.8899 441.547Z" fill="white" stroke="#263238" stroke-width="1.11" stroke-miterlimit="10"/>
<path d="M170.7 370.637C170.7 370.637 167.24 377.047 165.49 380.767C163.74 384.487 162.24 387.167 162.24 387.167C162.24 387.167 160.57 383.907 159.3 384.517C158.414 384.915 157.489 385.22 156.54 385.427C156.54 385.427 154.96 379.767 152.54 376.797C150.12 373.827 148.07 375.257 145.83 373.277C142.66 370.477 141.38 369.637 139.26 367.937C136.65 365.847 132.66 374.697 132.59 378.037C132.52 381.377 149.63 402.367 153.9 408.107C158.17 413.847 162.48 417.457 165.26 413.967C168.04 410.477 169.36 407.157 171.46 395.967C173.56 384.777 178.69 367.667 170.7 370.637Z" fill="#9492E3" stroke="#263238" stroke-width="1.11" stroke-miterlimit="10"/>
<path d="M139.24 367.937L131.47 362.107C130.63 360.457 128.94 357.027 128.02 354.637C126.76 351.387 126.21 349.317 123.32 347.057C120.43 344.797 113.59 342.057 112.72 341.127C111.85 340.197 111.5 343.747 113.08 345.397C113.784 346.252 114.673 346.936 115.68 347.397C115.68 347.397 104.41 345.997 104.39 346.877C104.37 347.757 113.97 359.877 117.44 362.687C118.89 363.887 122.13 365.017 123.97 366.337C124.878 366.989 125.716 367.733 126.47 368.557C126.04 368.797 125.9 368.787 125.85 368.757C126.25 369.317 132.22 377.837 134.05 377.467C135.88 377.097 142 376.547 139.24 367.937Z" fill="white" stroke="#263238" stroke-width="1.11" stroke-miterlimit="10"/>
<path d="M104.717 333.425L103.502 334.253L119.113 357.171L120.328 356.344L104.717 333.425Z" fill="#263238" stroke="#263238" stroke-width="1.11" stroke-miterlimit="10"/>
<path d="M107.89 340.757C107.89 340.757 101.89 347.237 102.61 347.837C103.33 348.437 105.61 350.687 106.23 350.407C106.85 350.127 110.01 344.907 110.17 344.317C110.33 343.727 107.89 340.757 107.89 340.757Z" fill="white" stroke="#263238" stroke-width="1.11" stroke-miterlimit="10"/>
<path d="M110.89 345.107C110.89 345.107 106.35 351.767 106.78 352.367C107.21 352.967 112.95 359.677 113.67 360.127C114.39 360.577 118.44 356.697 118.44 356.697L110.89 345.107Z" fill="white" stroke="#263238" stroke-width="1.11" stroke-miterlimit="10"/>
<path d="M113.31 348.927C113.31 348.927 109.07 355.597 109.51 355.607" stroke="#263238" stroke-width="1.11" stroke-miterlimit="10"/>
<path d="M116.15 353.537L112.24 358.157" stroke="#263238" stroke-width="1.11" stroke-miterlimit="10"/>
<path d="M115.68 347.367L119.32 349.047C119.32 349.047 118.41 357.987 123.32 361.047" fill="white"/>
<path d="M115.68 347.367L119.32 349.047C119.32 349.047 118.41 357.987 123.32 361.047" stroke="#263238" stroke-width="1.11" stroke-miterlimit="10"/>
<path d="M125.85 368.727C125.85 368.727 125.83 368.707 125.85 368.727V368.727Z" fill="white" stroke="#263238" stroke-width="1.11" stroke-miterlimit="10"/>
<path d="M167.43 417.357C167.43 417.357 132.05 375.107 128.21 370.567C124.37 366.027 115.71 364.147 110.63 365.727C105.55 367.307 99.37 381.507 98.14 387.377C96.91 393.247 86.86 418.587 85.14 421.917C83.42 425.247 80.8 428.847 80.77 430.257C80.74 431.667 80.72 432.777 80.72 432.777L78.96 436.667C78.96 436.667 87.08 437.667 90.46 437.177C93.84 436.687 98.68 432.847 99.56 430.897C100.44 428.947 102.92 424.147 105.91 422.047C110.17 419.047 117.58 398.977 117.58 398.977L131.58 429.567C131.58 429.567 159.28 433.477 165.47 432.757C171.66 432.037 167.43 417.357 167.43 417.357Z" fill="#263238" stroke="#263238" stroke-width="1.11" stroke-miterlimit="10"/>
<path d="M166.09 413.967C166.09 413.967 161.77 419.487 161.75 420.617V421.737L138.11 424.107C138.11 424.107 113.7 423.627 110.04 424.397C106.38 425.167 53.34 439.287 49.96 439.787C46.58 440.287 44.96 437.437 43.56 437.407C42.16 437.377 40.77 436.227 38.81 436.187C36.85 436.147 35.11 438.927 33.98 439.187C33.2538 439.461 32.4932 439.632 31.72 439.697C30.88 439.697 31.48 437.697 30.88 439.697C30.28 441.697 28.77 447.227 30.12 449.777C30.9905 451.365 32.2114 452.733 33.69 453.777C33.69 453.777 79.16 453.827 86.69 453.977C94.22 454.127 117.6 452.067 120.41 451.837C123.22 451.607 163.86 454.087 170.31 454.217C176.76 454.347 198.1 454.217 201.79 452.027C205.48 449.837 210.21 437.597 209.46 432.817C208.71 428.037 169.69 414.357 169.69 414.357L166.09 413.967Z" fill="#263238" stroke="#263238" stroke-width="1.11" stroke-miterlimit="10"/>
<path d="M164.48 410.007C164.081 410.982 163.963 412.049 164.14 413.087C164.38 415.087 208.31 436.087 209.73 435.307C211.15 434.527 212.15 426.367 212.15 426.367L164.53 407.477L164.48 410.007Z" fill="#9492E3" stroke="#263238" stroke-width="1.11" stroke-miterlimit="10"/>
<path d="M183.2 342.737C183.2 342.737 175.12 353.807 172.15 362.447C169.18 371.087 164.38 400.737 162.63 404.357C160.88 407.977 160.83 410.217 163.34 410.827C165.85 411.437 189.79 422.007 197.86 425.247C205.93 428.487 213.17 431.447 214.39 426.417C215.61 421.387 215.68 418.307 215.54 410.727C215.4 403.147 215.27 367.497 214.63 357.107C213.99 346.717 208.43 329.757 201.13 330.177C193.83 330.597 183.2 342.737 183.2 342.737Z" fill="#9492E3" stroke="#263238" stroke-width="1.11" stroke-miterlimit="10"/>
<path d="M198.49 303.777C197.63 297.677 194.71 292.697 189.72 289.577C190.509 288.696 191.578 288.115 192.746 287.932C193.915 287.75 195.11 287.978 196.13 288.577C196.13 288.577 196.8 286.197 194.86 285.367C194.289 285.146 193.673 285.072 193.066 285.153C192.46 285.233 191.883 285.465 191.39 285.827C191.39 285.827 191.72 282.637 193.88 281.087C196.04 279.537 200.25 281.747 200.25 281.747C200.25 281.747 199.35 273.477 194 274.967C188.65 276.457 189.36 280.967 189.36 280.967C189.36 280.967 188.36 277.227 185.18 276.897C182 276.567 179.55 279.177 179.55 279.177C179.55 279.177 182.26 276.837 185.11 280.887C185.862 281.858 186.361 283.001 186.56 284.213C186.759 285.425 186.652 286.667 186.25 287.827C185.403 287.496 184.538 287.212 183.66 286.977C176.14 284.977 167.56 287.137 163.9 290.797C160.974 291.519 158.229 292.84 155.84 294.677C151.84 298.067 155.58 302.747 156.13 303.387L156.43 305.067C156.808 308.474 157.366 311.859 158.1 315.207C158.85 317.617 160.16 318.437 160.1 319.767C160.04 321.097 157.85 325.847 159.41 327.467C160.97 329.087 162.32 328.597 162.32 328.597C162.32 328.597 168.45 341.487 171.13 340.467C173.81 339.447 178.42 334.757 178.42 334.757L184.47 338.607L195.62 326.317L193.62 320.957C193.62 320.957 199.66 312.047 198.49 303.777Z" fill="white" stroke="#263238" stroke-width="1.11" stroke-miterlimit="10"/>
<path d="M161.1 303.197C164.34 301.657 172.63 299.757 171.21 302.247C169.79 304.737 169.47 309.097 171.29 309.587C173.11 310.077 176.97 312.677 178.29 313.587C179.61 314.497 181.29 313.877 181.29 312.497C181.29 311.117 182.75 308.397 185.7 309.827C188.65 311.257 188.83 314.017 188.08 317.217C187.68 319.064 186.58 320.685 185.01 321.737C185.01 321.737 188.53 324.567 193.95 321.857L193.6 320.937C193.6 320.937 199.6 312.007 198.46 303.737C197.6 297.637 194.68 292.657 189.69 289.537C190.478 288.656 191.548 288.075 192.716 287.892C193.885 287.71 195.08 287.938 196.1 288.537C196.1 288.537 196.77 286.157 194.83 285.327C194.259 285.106 193.642 285.032 193.036 285.113C192.429 285.193 191.853 285.425 191.36 285.787C191.36 285.787 191.69 282.597 193.85 281.047C196.01 279.497 200.22 281.707 200.22 281.707C200.22 281.707 199.32 273.437 193.97 274.927C188.62 276.417 189.33 280.927 189.33 280.927C189.33 280.927 188.33 277.187 185.15 276.857C181.97 276.527 179.52 279.137 179.52 279.137C179.52 279.137 182.23 276.797 185.08 280.847C185.832 281.818 186.331 282.961 186.53 284.173C186.729 285.384 186.622 286.627 186.22 287.787C185.373 287.456 184.508 287.172 183.63 286.937C176.11 284.937 167.53 287.097 163.87 290.757C160.944 291.479 158.199 292.8 155.81 294.637C151.81 298.027 155.55 302.707 156.1 303.347C156.13 303.407 157.86 304.737 161.1 303.197Z" fill="#263238" stroke="#263238" stroke-width="1.11" stroke-miterlimit="10"/>
<path d="M163.62 315.167L163.56 318.167C164.551 318.43 165.591 318.453 166.592 318.234C167.594 318.015 168.529 317.56 169.32 316.907" stroke="#263238" stroke-width="1.11" stroke-miterlimit="10"/>
<path d="M160.23 312.357C161.013 311.389 162.116 310.732 163.34 310.502C164.564 310.273 165.83 310.488 166.91 311.107" stroke="#263238" stroke-width="1.11" stroke-miterlimit="10"/>
<path d="M166.1 328.977C166.1 328.977 170 328.827 172.38 324.287" stroke="#263238" stroke-width="1.11" stroke-miterlimit="10"/>
<path d="M173.11 334.157C170.79 335.257 167.87 332.217 166.5 331.967C165.39 331.757 165.58 333.967 165.7 334.837C167.58 337.967 169.81 341.007 171.17 340.487C173.85 339.487 178.46 334.777 178.46 334.777L178.67 334.917C179.287 333.885 179.676 332.732 179.81 331.537C179.84 329.707 175.42 333.107 173.11 334.157Z" fill="#263238" stroke="#263238" stroke-width="1.11" stroke-miterlimit="10"/>
<path d="M207.43 323.567C207.43 323.567 199.06 320.877 194.19 326.117C189.32 331.357 176.1 346.807 178.91 346.867C181.72 346.927 186.64 339.157 192.3 336.747C197.96 334.337 201.3 334.397 203.21 338.357C205.12 342.317 211.62 367.707 214.21 363.267C216.8 358.827 221.48 349.947 219.12 341.477C216.76 333.007 210.2 325.307 207.43 323.567Z" fill="white" stroke="#263238" stroke-width="1.11" stroke-miterlimit="10"/>
<path d="M186.07 353.737C186.07 353.737 179.07 365.947 178.4 372.667C177.73 379.387 175.48 407.417 175.48 407.417C175.48 407.417 172.71 405.677 171.27 407.327C169.83 408.977 168.92 412.617 168.92 412.617C168.92 412.617 165.02 411.417 164.14 413.087C163.637 414.057 163.055 414.983 162.4 415.857L138.11 424.107C138.11 424.107 176.51 426.267 179.6 426.047C181.486 425.896 183.274 425.142 184.7 423.897C184.7 423.897 187.18 425.897 191.42 424.307C195.66 422.717 197.11 420.777 198.29 417.427C199.47 414.077 205.05 373.227 205.05 373.227" fill="#9492E3"/>
<path d="M186.07 353.737C186.07 353.737 179.07 365.947 178.4 372.667C177.73 379.387 175.48 407.417 175.48 407.417C175.48 407.417 172.71 405.677 171.27 407.327C169.83 408.977 168.92 412.617 168.92 412.617C168.92 412.617 165.02 411.417 164.14 413.087C163.637 414.057 163.055 414.983 162.4 415.857L138.11 424.107C138.11 424.107 176.51 426.267 179.6 426.047C181.486 425.896 183.274 425.142 184.7 423.897C184.7 423.897 187.18 425.897 191.42 424.307C195.66 422.717 197.11 420.777 198.29 417.427C199.47 414.077 205.05 373.227 205.05 373.227" stroke="#263238" stroke-width="1.11" stroke-miterlimit="10"/>
<path d="M138.11 424.107C138.11 424.107 149.78 424.767 160.77 425.317C159.18 422.727 159.92 418.987 160.77 416.437L138.11 424.107Z" fill="white" stroke="#263238" stroke-width="1.11" stroke-miterlimit="10"/>
<path d="M0 453.007H520.29" stroke="#263238" stroke-width="1.11" stroke-miterlimit="10"/>
</svg>
