<svg width="431" height="374" viewBox="0 0 431 374" fill="none" xmlns="http://www.w3.org/2000/svg">
<path d="M409.991 260.921C435.2 216.862 436.899 158.174 419.493 111.119C404.468 70.6039 371.177 39.683 332.665 21.2976C287.948 -0.0516871 234.735 -6.403 186.799 7.06848C174.178 10.623 161.881 13.8655 150.008 19.682C101.267 43.5495 110.669 102.372 93.5648 122.83C79.1773 140.034 51.6653 134.964 34.3153 148.157C-12.5142 183.746 -12.6036 273.679 41.4029 301.836C98.6961 331.621 347.555 370.029 409.991 260.921Z" fill="#DFDEF7"/>
<path opacity="0.7" d="M409.991 260.921C435.2 216.862 436.899 158.174 419.493 111.119C404.468 70.6039 371.177 39.683 332.665 21.2976C287.948 -0.0516871 234.735 -6.403 186.799 7.06848C174.178 10.623 161.881 13.8655 150.008 19.682C101.267 43.5495 110.669 102.372 93.5648 122.83C79.1773 140.034 51.6653 134.964 34.3153 148.157C-12.5142 183.746 -12.6036 273.679 41.4029 301.836C98.6961 331.621 347.555 370.029 409.991 260.921Z" fill="white"/>
<path d="M213.495 373.41C321.541 373.41 409.13 361.063 409.13 345.831C409.13 330.6 321.541 318.252 213.495 318.252C105.449 318.252 17.8596 330.6 17.8596 345.831C17.8596 361.063 105.449 373.41 213.495 373.41Z" fill="#E5E4F5"/>
<path opacity="0.5" d="M213.495 373.41C321.541 373.41 409.13 361.063 409.13 345.831C409.13 330.6 321.541 318.252 213.495 318.252C105.449 318.252 17.8596 330.6 17.8596 345.831C17.8596 361.063 105.449 373.41 213.495 373.41Z" fill="white"/>
<path d="M350.406 225.488C350.406 225.488 348.316 144.428 319.652 135.339C290.419 126.071 259.195 126.854 228.922 128.229C200.371 129.526 171.596 128.732 143.111 130.621C111.754 132.689 100.138 147.088 93.2297 176.076C89.4391 192.286 87.3374 208.845 86.9582 225.488L79.9712 246.46H357.393L350.406 225.488Z" fill="white" stroke="#263238" stroke-linecap="round" stroke-linejoin="round"/>
<path d="M110.714 235.269V217.103C110.714 217.103 110.021 203.822 94.6381 202.425C79.2556 201.027 37.3337 233.872 38.038 240.87C38.7423 247.868 46.4224 297.47 51.3188 299.561C56.2153 301.651 68.7807 311.466 79.971 305.877C91.1614 300.287 110.714 235.269 110.714 235.269Z" fill="white" stroke="#263238" stroke-linecap="round" stroke-linejoin="round"/>
<path d="M321.061 235.269V217.103C321.061 217.103 321.754 203.822 337.136 202.425C352.519 201.027 394.407 233.872 393.737 240.87C393.066 247.868 385.352 297.47 380.456 299.561C375.559 301.651 362.994 311.466 351.804 305.877C340.613 300.287 321.061 235.269 321.061 235.269Z" fill="white" stroke="#263238" stroke-linecap="round" stroke-linejoin="round"/>
<path d="M110.714 235.269C109.575 236.455 108.345 237.55 107.036 238.545C97.6343 246.303 73.6773 264.626 73.6773 264.626H359.495L321.061 233.212L110.714 235.269Z" fill="white" stroke="#263238" stroke-linecap="round" stroke-linejoin="round"/>
<path d="M73.6773 264.626V293.513H359.305L359.495 264.626H73.6773Z" fill="#263238" stroke="#263238" stroke-linecap="round" stroke-linejoin="round"/>
<path d="M64.6222 321.93L55.6788 349.956C55.5032 350.51 55.4606 351.098 55.5544 351.672C55.6482 352.245 55.8758 352.788 56.2188 353.258C56.5617 353.727 57.0103 354.109 57.5283 354.372C58.0463 354.636 58.6191 354.774 59.2003 354.775C59.7961 354.775 60.3831 354.631 60.9108 354.354C61.4385 354.078 61.8912 353.677 62.2298 353.187L83.4702 322.623L64.6222 321.93Z" fill="#263238" stroke="#263238" stroke-linecap="round" stroke-linejoin="round"/>
<path d="M368.539 321.93L377.482 349.956C377.658 350.51 377.7 351.098 377.607 351.672C377.513 352.245 377.285 352.788 376.942 353.258C376.599 353.727 376.151 354.109 375.633 354.372C375.115 354.636 374.542 354.774 373.961 354.775C373.365 354.774 372.778 354.63 372.251 354.353C371.723 354.077 371.27 353.677 370.931 353.187L349.691 322.646L368.539 321.93Z" fill="#263238" stroke="#263238" stroke-linecap="round" stroke-linejoin="round"/>
<path d="M386.638 232.654C382.01 230.418 376.767 230.038 370.484 233.179C357.896 239.462 359.305 264.626 359.305 264.626V292.574H73.6772V264.626C73.6772 264.626 75.0746 239.462 62.4981 233.179C56.2042 230.038 50.9612 230.384 46.333 232.654C38.2952 236.6 34.036 245.61 35.2433 254.486C37.2108 269.019 40.9335 294.295 44.332 304.457C49.2172 319.136 49.2172 321.93 59.7033 325.418C68.792 328.448 185.659 326.223 216.491 325.586C247.323 326.223 364.179 328.448 373.279 325.418C383.754 321.93 383.754 319.136 388.65 304.457C392.004 294.295 395.76 269.053 397.728 254.486C398.879 245.61 394.676 236.566 386.638 232.654Z" fill="#263238" stroke="#263238" stroke-linecap="round" stroke-linejoin="round"/>
<path d="M347.276 292.574H355.47" stroke="white" stroke-linecap="round" stroke-linejoin="round"/>
<path d="M73.6773 292.574H339.82" stroke="white" stroke-linecap="round" stroke-linejoin="round"/>
<path d="M281.751 111.973C292.037 101.688 292.037 85.0112 281.751 74.7255C271.466 64.4398 254.789 64.4399 244.504 74.7255C234.218 85.0112 234.218 101.688 244.504 111.973C254.789 122.259 271.466 122.259 281.751 111.973Z" fill="white"/>
<path d="M236.356 116.536C236.356 116.536 244.919 108.207 249.682 105.826C254.444 103.445 260.38 106.061 263.477 108.923C266.573 111.785 274.421 121.768 274.421 121.768H234.176L236.356 116.536Z" fill="white" stroke="#263238" stroke-linecap="round" stroke-linejoin="round"/>
<path d="M254.914 100.829C254.914 100.829 248.731 102.025 248.486 103.445C248.24 104.865 252.767 119.867 252.767 119.867L258.245 114.155L264.192 117.955C264.192 117.955 265.377 107.972 262.527 103.423C261.758 102.171 260.577 101.228 259.187 100.754C257.797 100.281 256.286 100.307 254.914 100.829Z" fill="white" stroke="#263238" stroke-linecap="round" stroke-linejoin="round"/>
<path d="M254.668 94.6469C254.668 94.6469 253.471 103.926 254.668 106.307C255.864 108.688 258.234 118.201 258.703 115.585C259.173 112.97 261.084 101.779 261.084 101.779C261.084 101.779 259.676 93.9315 254.668 94.6469Z" fill="white" stroke="#263238" stroke-linecap="round" stroke-linejoin="round"/>
<path d="M276.557 85.1331C276.557 85.1331 274.187 96.3123 271.805 101.063C269.424 105.815 266.808 108.676 263.242 107.491C259.676 106.306 256.535 97.978 256.535 97.978C256.535 97.978 253.438 96.547 252.488 94.4118C251.538 92.2766 252.723 90.8345 255.35 89.8843C257.977 88.934 255.35 84.6524 256.535 81.321C257.72 77.9897 265.813 80.6056 268.195 81.0863C270.576 81.567 276.557 85.1331 276.557 85.1331Z" fill="white" stroke="#263238" stroke-linecap="round" stroke-linejoin="round"/>
<path d="M266.965 93.1824C266.886 94.032 266.506 94.6804 266.115 94.6468C265.724 94.6133 265.489 93.8866 265.578 93.0482C265.668 92.2098 266.048 91.5502 266.428 91.5837C266.808 91.6173 267.043 92.3551 266.965 93.1824Z" fill="#263238"/>
<path d="M272.062 93.663C271.984 94.5015 271.604 95.1611 271.213 95.1163C270.821 95.0716 270.587 94.3673 270.676 93.5177C270.766 92.6681 271.146 92.0197 271.526 92.0644C271.906 92.1092 272.152 92.8134 272.062 93.663Z" fill="#263238"/>
<path d="M270.117 91.6172C270.117 91.6172 269.581 94.3114 270.117 95.3846C270.654 96.4578 271.548 98.0787 270.117 98.0787C269.255 98.0767 268.424 97.7585 267.781 97.1844" stroke="#263238" stroke-linecap="round" stroke-linejoin="round"/>
<path d="M268.675 100.594C268.675 100.594 265.802 101.712 264.371 99.4763" stroke="#263238" stroke-linecap="round" stroke-linejoin="round"/>
<path d="M264.55 89.6384C264.84 89.218 265.271 88.915 265.765 88.7838C266.259 88.6527 266.783 88.702 267.244 88.923" stroke="#263238" stroke-linecap="round" stroke-linejoin="round"/>
<path d="M270.654 89.9963C270.851 89.8271 271.087 89.7096 271.341 89.6544C271.595 89.5992 271.858 89.608 272.108 89.6801C272.357 89.7522 272.585 89.8853 272.77 90.0674C272.956 90.2494 273.093 90.4747 273.169 90.723" stroke="#263238" stroke-linecap="round" stroke-linejoin="round"/>
<path d="M259.195 82.7522L259.676 89.169L255.629 93.2159C254.679 94.1661 253.013 89.6497 253.013 89.6497C253.013 89.6497 250.867 80.6058 250.867 76.8048C250.867 73.0039 257.049 73.4511 257.049 73.4511C259.889 71.4066 263.308 70.3218 266.808 70.3545C272.275 70.6004 282.459 77.4979 283.219 81.7796C283.979 86.0612 277.987 87.0114 272.275 86.0612C267.852 85.2216 263.485 84.1166 259.195 82.7522Z" fill="#263238" stroke="#263238" stroke-linecap="round" stroke-linejoin="round"/>
<path d="M281.751 111.973C292.037 101.688 292.037 85.0112 281.751 74.7255C271.466 64.4398 254.789 64.4399 244.504 74.7255C234.218 85.0112 234.218 101.688 244.504 111.973C254.789 122.259 271.466 122.259 281.751 111.973Z" stroke="#263238" stroke-miterlimit="10"/>
<path d="M303.118 20.8867H292.498L303.118 26.5769V55.5421C303.118 57.0246 303.707 58.4463 304.755 59.4945C305.803 60.5428 307.225 61.1317 308.708 61.1317H397.023C398.505 61.1317 399.927 60.5428 400.975 59.4945C402.024 58.4463 402.613 57.0246 402.613 55.5421V26.4763C402.613 24.9938 402.024 23.5721 400.975 22.5239C399.927 21.4756 398.505 20.8867 397.023 20.8867H303.118Z" fill="white" stroke="#263238" stroke-miterlimit="10"/>
<path d="M334.599 39.1423C334.599 38.3304 334.358 37.5367 333.907 36.8618C333.455 36.1868 332.814 35.661 332.063 35.3508C331.313 35.0406 330.488 34.96 329.691 35.1192C328.895 35.2784 328.164 35.6703 327.591 36.2452C327.018 36.8201 326.628 37.5522 326.471 38.3488C326.314 39.1453 326.397 39.9706 326.709 40.7201C327.021 41.4696 327.549 42.1096 328.225 42.559C328.901 43.0085 329.695 43.2472 330.507 43.245C331.045 43.245 331.578 43.1388 332.076 42.9325C332.573 42.7262 333.024 42.4238 333.404 42.0427C333.784 41.6616 334.086 41.2092 334.291 40.7115C334.495 40.2138 334.6 39.6805 334.599 39.1423Z" fill="#263238"/>
<path d="M356.588 39.1423C356.588 38.3309 356.347 37.5376 355.897 36.8629C355.446 36.1882 354.805 35.6624 354.055 35.3519C353.306 35.0413 352.481 34.9601 351.685 35.1184C350.889 35.2767 350.158 35.6674 349.584 36.2412C349.01 36.815 348.62 37.546 348.461 38.3419C348.303 39.1378 348.384 39.9627 348.695 40.7124C349.005 41.462 349.531 42.1028 350.206 42.5536C350.881 43.0044 351.674 43.2451 352.485 43.2451C353.024 43.2465 353.559 43.1414 354.057 42.9358C354.555 42.7301 355.008 42.4279 355.39 42.0467C355.771 41.6654 356.073 41.2125 356.279 40.7141C356.484 40.2157 356.589 39.6815 356.588 39.1423Z" fill="#263238"/>
<path d="M374.475 43.245C376.741 43.245 378.578 41.4082 378.578 39.1423C378.578 36.8764 376.741 35.0396 374.475 35.0396C372.209 35.0396 370.372 36.8764 370.372 39.1423C370.372 41.4082 372.209 43.245 374.475 43.245Z" fill="#263238"/>
<path d="M303.118 126.72H292.498L303.118 132.41V161.375C303.118 162.858 303.707 164.28 304.755 165.328C305.803 166.376 307.225 166.965 308.708 166.965H397.023C398.505 166.965 399.927 166.376 400.975 165.328C402.024 164.28 402.613 162.858 402.613 161.375V132.31C402.613 130.827 402.024 129.405 400.975 128.357C399.927 127.309 398.505 126.72 397.023 126.72H303.118Z" fill="white" stroke="#263238" stroke-miterlimit="10"/>
<path d="M334.599 144.976C334.599 144.164 334.358 143.37 333.907 142.695C333.455 142.02 332.814 141.494 332.063 141.184C331.313 140.874 330.488 140.793 329.691 140.952C328.895 141.112 328.164 141.504 327.591 142.078C327.018 142.653 326.628 143.385 326.471 144.182C326.314 144.979 326.397 145.804 326.709 146.553C327.021 147.303 327.549 147.943 328.225 148.392C328.901 148.842 329.695 149.081 330.507 149.078C331.593 149.075 332.634 148.642 333.401 147.873C334.168 147.104 334.599 146.062 334.599 144.976Z" fill="#263238"/>
<path d="M356.588 144.976C356.588 144.164 356.347 143.371 355.897 142.696C355.446 142.021 354.805 141.496 354.055 141.185C353.306 140.875 352.481 140.793 351.685 140.952C350.889 141.11 350.158 141.501 349.584 142.074C349.01 142.648 348.62 143.379 348.461 144.175C348.303 144.971 348.384 145.796 348.695 146.546C349.005 147.295 349.531 147.936 350.206 148.387C350.881 148.838 351.674 149.078 352.485 149.078C353.573 149.078 354.617 148.646 355.386 147.877C356.156 147.107 356.588 146.064 356.588 144.976Z" fill="#263238"/>
<path d="M378.578 144.976C378.578 144.164 378.337 143.371 377.886 142.696C377.435 142.021 376.795 141.496 376.045 141.185C375.295 140.875 374.47 140.793 373.674 140.952C372.879 141.11 372.148 141.501 371.574 142.074C371 142.648 370.609 143.379 370.451 144.175C370.293 144.971 370.374 145.796 370.684 146.546C370.995 147.295 371.521 147.936 372.195 148.387C372.87 148.838 373.663 149.078 374.475 149.078C375.562 149.075 376.604 148.642 377.373 147.873C378.141 147.105 378.575 146.063 378.578 144.976Z" fill="#263238"/>
<path d="M303.118 75.2959H292.498L303.118 80.9861V109.951C303.118 111.434 303.707 112.855 304.755 113.904C305.803 114.952 307.225 115.541 308.708 115.541H397.023C398.505 115.541 399.927 114.952 400.975 113.904C402.024 112.855 402.613 111.434 402.613 109.951V80.8855C402.613 79.403 402.024 77.9813 400.975 76.933C399.927 75.8848 398.505 75.2959 397.023 75.2959H303.118Z" fill="#263238" stroke="#263238" stroke-miterlimit="10"/>
<path d="M334.599 93.5512C334.599 92.7393 334.358 91.9456 333.907 91.2707C333.455 90.5958 332.814 90.0699 332.063 89.7597C331.313 89.4495 330.488 89.3689 329.691 89.5281C328.895 89.6874 328.164 90.0792 327.591 90.6541C327.018 91.229 326.628 91.9611 326.471 92.7577C326.314 93.5543 326.397 94.3795 326.709 95.129C327.021 95.8785 327.549 96.5185 328.225 96.968C328.901 97.4174 329.695 97.6562 330.507 97.654C331.593 97.651 332.634 97.2175 333.401 96.4484C334.168 95.6793 334.599 94.6374 334.599 93.5512Z" fill="white"/>
<path d="M356.588 93.5512C356.588 92.7398 356.347 91.9466 355.897 91.2719C355.446 90.5972 354.805 90.0713 354.055 89.7608C353.306 89.4503 352.481 89.369 351.685 89.5273C350.889 89.6856 350.158 90.0764 349.584 90.6501C349.01 91.2239 348.62 91.955 348.461 92.7508C348.303 93.5467 348.384 94.3716 348.695 95.1213C349.005 95.871 349.531 96.5117 350.206 96.9625C350.881 97.4134 351.674 97.654 352.485 97.654C353.573 97.654 354.617 97.2217 355.386 96.4523C356.156 95.6829 356.588 94.6394 356.588 93.5512Z" fill="white"/>
<path d="M378.578 93.5512C378.578 92.7398 378.337 91.9466 377.886 91.2719C377.435 90.5972 376.795 90.0713 376.045 89.7608C375.295 89.4503 374.47 89.369 373.674 89.5273C372.879 89.6856 372.148 90.0764 371.574 90.6501C371 91.2239 370.609 91.955 370.451 92.7508C370.293 93.5467 370.374 94.3716 370.684 95.1213C370.995 95.871 371.521 96.5117 372.195 96.9625C372.87 97.4134 373.663 97.654 374.475 97.654C375.562 97.651 376.604 97.2178 377.373 96.4491C378.141 95.6803 378.575 94.6385 378.578 93.5512Z" fill="white"/>
<path d="M167.291 221.743C167.291 221.743 181.824 219.876 191.505 223.23C201.187 226.583 201.947 241.485 201.567 254.162C201.187 266.839 196.357 319.37 196.357 326.827C196.357 334.283 196.357 341.729 193.372 347.687C190.388 353.646 181.824 356.262 178.09 357.011C174.357 357.76 173.25 356.262 173.25 356.262C173.25 356.262 168.778 356.63 168.778 354.395C168.778 352.159 172.881 352.159 175.117 349.923C177.353 347.687 182.562 338.006 183.68 332.416C184.672 326.746 185.295 321.018 185.547 315.268C185.916 309.678 182.193 285.464 179.588 272.787C176.984 260.11 176.973 258.254 174.737 249.311C172.501 240.367 166.911 228.819 167.291 221.743Z" fill="#9492E3" stroke="#263238" stroke-linecap="round" stroke-linejoin="round"/>
<path d="M196.357 327.431C192.367 328.121 188.261 327.427 184.72 325.463C184.463 327.811 184.138 330.147 183.68 332.417C182.562 338.006 177.353 347.687 175.117 349.923C172.881 352.159 168.778 352.159 168.778 354.395C168.778 356.631 173.25 356.262 173.25 356.262C173.25 356.262 174.368 357.749 178.09 357.011C181.813 356.273 190.387 353.657 193.372 347.687C196.268 341.897 196.346 334.675 196.357 327.431Z" fill="white" stroke="#263238" stroke-linecap="round" stroke-linejoin="round"/>
<path d="M173.25 356.262C173.254 355.728 173.393 355.203 173.655 354.738C173.917 354.273 174.293 353.881 174.748 353.601C175.529 353.262 176.186 352.687 176.626 351.958" stroke="#263238" stroke-linecap="round" stroke-linejoin="round"/>
<path d="M176.156 356.999C176.479 356.236 176.912 355.524 177.442 354.886C178.269 353.947 179.678 352.539 179.678 352.539" stroke="#263238" stroke-linecap="round" stroke-linejoin="round"/>
<path d="M180.729 356.295C180.729 356.295 179.79 354.54 180.84 353.948C181.677 353.439 182.464 352.851 183.188 352.192" stroke="#263238" stroke-linecap="round" stroke-linejoin="round"/>
<path d="M184.239 355.144C184.447 354.121 184.895 353.163 185.547 352.349C186.079 351.823 186.575 351.263 187.034 350.672" stroke="#263238" stroke-linecap="round" stroke-linejoin="round"/>
<path d="M128.164 260.87C128.164 260.87 145.671 259.003 158.348 254.531C171.025 250.06 177.722 247.824 179.957 238.881C182.193 229.937 177.722 222.481 163.938 221.743C150.154 221.005 130.4 222.481 124.431 235.527C118.461 248.573 119.59 256.398 128.164 260.87Z" fill="#C6FF00" stroke="#263238" stroke-linecap="round" stroke-linejoin="round"/>
<path d="M165.078 145.803C165.078 145.803 148.421 152.041 143.837 153.293C139.254 154.545 133.418 160 131.753 167.457C130.087 174.913 129.26 207.031 129.26 207.031C129.26 207.031 113.844 211.614 110.512 212.453C107.181 213.291 106.756 220.781 106.756 220.781C106.547 222.088 106.128 223.353 105.515 224.526L104.677 225.778C104.677 225.778 101.759 224.526 121.345 228.696C140.931 232.866 172.579 230.362 172.579 230.362C172.579 230.362 177.162 230.776 178.414 224.951C179.667 219.127 180.907 210.787 182.573 208.283C184.239 205.779 185.927 203.286 185.927 195.785C185.927 188.284 190.51 167.043 190.097 159.542C189.683 152.041 183.02 147.044 175.564 145.803C168.107 144.562 165.078 145.803 165.078 145.803Z" fill="white"/>
<path d="M165.078 145.803C165.078 145.803 148.421 152.041 143.837 153.293C139.254 154.545 133.418 160 131.753 167.457C130.087 174.913 129.26 207.031 129.26 207.031C129.26 207.031 113.844 211.614 110.512 212.453C107.181 213.291 106.756 220.781 106.756 220.781C106.547 222.088 106.128 223.353 105.515 224.526L104.677 225.778C104.677 225.778 101.759 224.526 121.345 228.696C140.931 232.866 172.579 230.362 172.579 230.362C172.579 230.362 177.162 230.776 178.414 224.951C179.667 219.127 180.907 210.787 182.573 208.283C184.239 205.779 185.927 203.286 185.927 195.785C185.927 188.284 190.51 167.043 190.097 159.542C189.683 152.041 183.02 147.044 175.564 145.803C168.107 144.562 165.078 145.803 165.078 145.803Z" stroke="#263238" stroke-linecap="round" stroke-linejoin="round"/>
<path d="M133.083 218.825C133.083 218.825 120.697 217.841 115.197 213.928" stroke="#263238" stroke-linecap="round" stroke-linejoin="round"/>
<path d="M172.579 140.426C172.579 140.426 165.503 139.598 163.412 143.343C160.921 147.362 159.49 151.947 159.254 156.669C158.829 162.918 158.415 173.337 158.415 173.337L171.327 167.088L185.491 173.795C185.491 173.795 181.746 159.262 180.908 151.716C180.069 144.171 177.163 139.554 172.579 140.426Z" fill="white" stroke="#263238" stroke-linecap="round" stroke-linejoin="round"/>
<path d="M175.91 141.633C171.665 136.191 168.934 129.723 167.995 122.886C166.743 112.053 170.913 104.138 178.414 99.9794C185.916 95.8208 203.411 91.6398 210.074 93.7303C216.737 95.8208 225.903 112.478 228.396 121.22C230.889 129.962 227.569 147.882 226.731 153.293C225.892 158.704 227.569 181.241 229.649 193.705C231.728 206.17 225.065 222.033 212.187 225.778C199.308 229.524 185.938 225.778 182.607 216.612C180.158 209.904 180.941 193.705 183.859 182.459C186.776 171.213 186.776 154.131 186.776 149.134C186.776 144.137 175.91 141.633 175.91 141.633Z" fill="#263238" stroke="#263238" stroke-linecap="round" stroke-linejoin="round"/>
<path d="M199.331 115.071C199.331 115.071 202.685 119.543 190.388 118.045C178.09 116.547 172.59 113.573 171.103 118.414" stroke="white" stroke-linecap="round" stroke-linejoin="round"/>
<path d="M170.824 114.713C170.824 114.713 170.824 105.77 179.354 105.77C187.883 105.77 195.172 109.392 198.269 108.006" stroke="white" stroke-linecap="round" stroke-linejoin="round"/>
<path d="M207.123 114.714C209.037 118.967 212.144 122.575 216.066 125.099C222.774 129.571 227.603 140.649 227.189 146.977" stroke="white" stroke-linecap="round" stroke-linejoin="round"/>
<path d="M216.021 133.617C216.624 142.207 217.744 150.752 219.375 159.207C222.338 175.886 224.965 202.593 217.519 214.085C210.074 225.577 202.685 226.695 196.011 222.615" stroke="white" stroke-linecap="round" stroke-linejoin="round"/>
<path d="M215.284 141.029C215.284 141.029 215.652 195.919 207.123 204.069C198.593 212.218 184.127 208.149 185.983 183.309" stroke="white" stroke-linecap="round" stroke-linejoin="round"/>
<path d="M176.749 129.548C176.749 129.548 174.658 134.545 172.579 140.381C170.5 146.216 167.582 150.375 167.582 156.211C167.582 162.046 167.582 173.706 170.5 173.292C173.417 172.879 183.412 152.879 184.664 152.052C185.916 151.225 180.494 141.231 180.494 136.222C180.567 134.869 180.254 133.523 179.59 132.342C178.927 131.16 177.942 130.191 176.749 129.548Z" fill="white"/>
<path d="M180.494 136.211C180.574 134.852 180.263 133.499 179.6 132.311C178.936 131.123 177.947 130.149 176.749 129.503C176.749 129.503 174.658 134.501 172.579 140.336C172.288 141.141 171.987 141.901 171.685 142.65C172.491 144.355 173.456 145.979 174.569 147.502L179.331 154.098C179.331 154.098 174.457 164.528 171.394 168.284C170.59 169.237 169.621 170.036 168.532 170.643C168.957 172.32 169.583 173.382 170.5 173.247C173.418 172.834 183.412 152.834 184.664 152.007C185.916 151.18 180.494 141.219 180.494 136.211Z" fill="#9492E3" fill-opacity="0.5"/>
<path opacity="0.5" d="M180.494 136.211C180.574 134.852 180.263 133.499 179.6 132.311C178.936 131.123 177.947 130.149 176.749 129.503C176.749 129.503 174.658 134.501 172.579 140.336C172.288 141.141 171.987 141.901 171.685 142.65C172.491 144.355 173.456 145.979 174.569 147.502L179.331 154.098C179.331 154.098 174.457 164.528 171.394 168.284C170.59 169.237 169.621 170.036 168.532 170.643C168.957 172.32 169.583 173.382 170.5 173.247C173.418 172.834 183.412 152.834 184.664 152.007C185.916 151.18 180.494 141.219 180.494 136.211Z" fill="white"/>
<path d="M176.749 129.548C176.749 129.548 174.658 134.545 172.579 140.381C170.5 146.216 167.582 150.375 167.582 156.211C167.582 162.046 167.582 173.706 170.5 173.292C173.417 172.879 183.412 152.879 184.664 152.052C185.916 151.225 180.494 141.231 180.494 136.222C180.567 134.869 180.254 133.523 179.59 132.342C178.927 131.16 177.942 130.191 176.749 129.548V129.548Z" stroke="#263238" stroke-linecap="round" stroke-linejoin="round"/>
<path d="M135.61 218.389C135.61 218.389 110.635 219.384 104.677 225.778C98.7183 232.173 94.2467 248.137 103.19 257.516C112.133 266.895 125.548 264.223 135.241 260.121C144.933 256.018 154.994 245.588 154.994 245.588C154.994 245.588 146.42 267.197 144.933 278.756C143.446 290.316 140.081 348.436 140.081 351.79C140.081 355.144 145.671 356.63 149.405 355.512C153.138 354.395 164.306 348.436 166.173 348.436C168.04 348.436 173.999 344.713 174.737 343.595C175.474 342.478 173.999 340.98 173.999 340.98C173.999 340.98 176.604 340.242 176.604 338.006C176.604 335.77 173.25 336.888 171.383 337.257C169.516 337.626 158.348 337.626 155.732 337.626C153.116 337.626 150.523 336.139 150.523 334.652C150.523 333.165 150.142 324.591 156.85 310.058C163.557 295.525 181.075 252.295 181.824 237.393C182.573 222.492 172.132 220.994 160.584 219.876C149.036 218.758 144.933 218.389 135.61 218.389Z" fill="#9492E3" stroke="#263238" stroke-linecap="round" stroke-linejoin="round"/>
<path d="M144.967 319.806L144.374 325.933" stroke="#263238" stroke-linecap="round" stroke-linejoin="round"/>
<path d="M108.109 246.348C110.509 245.886 112.837 245.104 115.029 244.023C124.386 239.551 161.143 229.49 164.698 230.474C168.253 231.458 160.83 236.924 160.83 236.924C160.83 236.924 166.308 233.38 165.301 236.276C164.764 237.93 164.118 239.547 163.367 241.116C163.367 241.116 149.505 277.56 148.208 288.203C147.515 293.96 146.442 304.536 145.604 313.032" stroke="#263238" stroke-linecap="round" stroke-linejoin="round"/>
<path d="M99.8698 245.957C100.914 246.344 102.011 246.574 103.123 246.639" stroke="#263238" stroke-linecap="round" stroke-linejoin="round"/>
<path d="M174.737 343.596C175.486 342.478 173.999 340.98 173.999 340.98C173.999 340.98 176.604 340.242 176.604 338.006C176.604 335.77 173.25 336.888 171.383 337.257C169.516 337.626 158.348 337.626 155.732 337.626C153.116 337.626 150.523 336.139 150.523 334.652C150.489 332.511 150.65 330.37 151.003 328.258C147.845 329.184 144.483 329.149 141.344 328.157C140.618 340.454 140.081 350.46 140.081 351.79C140.081 355.144 145.671 356.631 149.405 355.513C153.138 354.395 164.306 348.436 166.173 348.436C168.04 348.436 173.999 344.714 174.737 343.596Z" fill="white" stroke="#263238" stroke-linecap="round" stroke-linejoin="round"/>
<path d="M173.999 340.98C172.059 340.126 169.878 339.995 167.85 340.611" stroke="#263238" stroke-linecap="round" stroke-linejoin="round"/>
<path d="M166.911 342.478C166.911 342.478 172.3 340.734 174.211 343.909" stroke="#263238" stroke-linecap="round" stroke-linejoin="round"/>
<path d="M165.793 344.714C165.793 344.714 169.762 343.115 171.383 345.496" stroke="#263238" stroke-linecap="round" stroke-linejoin="round"/>
<path d="M163.189 346.949C163.189 346.949 166.173 346.569 166.173 348.436" stroke="#263238" stroke-linecap="round" stroke-linejoin="round"/>
<path d="M182.16 126.217C182.16 126.217 182.16 117.889 177.99 119.51C173.82 121.131 175.083 132.008 175.91 133.674C176.322 134.6 177.063 135.341 177.99 135.753C177.99 135.753 180.08 149.503 185.077 154.914C190.074 160.325 197.162 157.418 202.573 153.673C207.983 149.928 214.657 130.365 214.657 130.365L205.077 119.185L201.321 106.687C201.321 106.687 198.403 106.262 199.655 108.353C200.907 110.443 202.126 119.185 202.126 119.185C202.126 119.185 195.91 127.883 182.16 126.217Z" fill="white"/>
<path d="M205.077 119.185L203.601 114.266L203.512 115.384C203.512 115.384 205.345 126.742 207.548 129.313C209.75 131.885 210.901 134.445 209.783 137.374C208.666 140.303 205.021 149.101 199.163 152.398C193.305 155.696 190.365 156.792 186.698 153.125C184.421 150.728 182.293 148.193 180.326 145.534C181.444 149.089 183.043 152.79 185.122 155.048C190.119 160.47 197.207 157.552 202.618 153.807C208.028 150.062 214.658 130.364 214.658 130.364L205.077 119.185Z" fill="#9492E3" fill-opacity="0.5"/>
<path opacity="0.5" d="M205.077 119.185L203.601 114.266L203.512 115.384C203.512 115.384 205.345 126.742 207.548 129.313C209.75 131.885 210.901 134.445 209.783 137.374C208.666 140.303 205.021 149.101 199.163 152.398C193.305 155.696 190.365 156.792 186.698 153.125C184.421 150.728 182.293 148.193 180.326 145.534C181.444 149.089 183.043 152.79 185.122 155.048C190.119 160.47 197.207 157.552 202.618 153.807C208.028 150.062 214.658 130.364 214.658 130.364L205.077 119.185Z" fill="white"/>
<path d="M182.16 126.217C182.16 126.217 182.16 117.889 177.99 119.51C173.82 121.131 175.083 132.008 175.91 133.674C176.322 134.6 177.063 135.341 177.99 135.753C177.99 135.753 180.08 149.503 185.077 154.914C190.074 160.325 197.162 157.418 202.573 153.673C207.983 149.928 214.657 130.365 214.657 130.365L205.077 119.185L201.321 106.687C201.321 106.687 198.403 106.262 199.655 108.353C200.907 110.443 202.126 119.185 202.126 119.185C202.126 119.185 195.91 127.883 182.16 126.217Z" stroke="#263238" stroke-linecap="round" stroke-linejoin="round"/>
<path d="M197.24 137.519C196.927 138.704 196.245 139.531 195.709 139.397C195.172 139.263 194.993 138.179 195.306 137.005C195.619 135.831 196.312 134.993 196.849 135.138C197.386 135.283 197.553 136.345 197.24 137.519Z" fill="#263238"/>
<path d="M206.653 139.308C206.34 140.426 205.647 141.32 205.122 141.175C204.596 141.029 204.406 139.956 204.719 138.782C205.032 137.608 205.725 136.77 206.251 136.915C206.776 137.061 206.966 138.19 206.653 139.308Z" fill="#263238"/>
<path d="M193.875 132.064C193.875 132.064 196.882 129.66 199.085 131.862" stroke="#263238" stroke-linecap="round" stroke-linejoin="round"/>
<path d="M205.681 133.718C205.681 133.718 208.688 131.717 209.291 135.518" stroke="#263238" stroke-linecap="round" stroke-linejoin="round"/>
<path d="M203.881 138.67C202.962 139.495 202.391 140.638 202.282 141.868C202.331 143.037 202.75 144.16 203.478 145.076C203.478 145.076 200.683 147.312 198.28 145.87" stroke="#263238" stroke-linecap="round" stroke-linejoin="round"/>
<path d="M190.868 146.474C190.999 147.213 191.33 147.903 191.825 148.468C192.319 149.034 192.959 149.453 193.674 149.682" stroke="#263238" stroke-linecap="round" stroke-linejoin="round"/>
<path d="M176.659 125.255C176.659 125.255 177.062 122.248 178.459 122.449C179.857 122.651 179.667 125.658 179.667 125.658C179.667 125.658 176.861 125.255 177.856 126.854C178.851 128.453 180.091 127.86 180.091 127.86" stroke="#263238" stroke-linecap="round" stroke-linejoin="round"/>
<path d="M143.837 154.958C143.837 154.958 135.084 157.049 131.753 161.208C128.421 165.366 129.26 179.094 131.339 184.952C133.418 190.81 142.585 216.612 142.585 216.612L155.497 206.617L149.673 174.12" fill="white"/>
<path d="M143.837 154.958C143.837 154.958 135.084 157.049 131.753 161.208C128.421 165.366 129.26 179.094 131.339 184.952C133.418 190.81 142.585 216.612 142.585 216.612L155.497 206.617L149.673 174.12" stroke="#263238" stroke-linecap="round" stroke-linejoin="round"/>
<path d="M160.919 206.617C159.997 205.507 158.854 204.601 157.562 203.956C156.271 203.311 154.86 202.942 153.418 202.872C148.835 202.872 142.999 208.283 141.758 212.866C140.517 217.45 144.251 223.699 147.996 226.192C151.741 228.685 161.333 223.699 163.412 218.277C165.492 212.855 160.919 206.617 160.919 206.617Z" fill="white" stroke="#263238" stroke-linecap="round" stroke-linejoin="round"/>
<path d="M222.572 187.456C221.377 189.763 219.663 191.761 217.564 193.292C213.819 196.198 209.37 196.377 206.038 200.122C202.707 203.867 194.658 218.277 187.157 221.609C179.655 224.94 172.993 222.033 174.658 214.901C176.324 207.769 197.576 196.579 202.986 192.822C208.397 189.066 216.323 184.08 219.241 184.494C220.039 184.571 220.791 184.899 221.39 185.431C221.989 185.964 222.403 186.673 222.572 187.456Z" fill="#B2B5FF"/>
<path opacity="0.5" d="M222.572 187.456C221.377 189.763 219.663 191.761 217.564 193.292C213.819 196.198 209.37 196.377 206.038 200.122C202.707 203.867 194.658 218.277 187.157 221.609C179.655 224.94 172.993 222.033 174.658 214.901C176.324 207.769 197.576 196.579 202.986 192.822C208.397 189.066 216.323 184.08 219.241 184.494C220.039 184.571 220.791 184.899 221.39 185.431C221.989 185.964 222.403 186.673 222.572 187.456Z" fill="white"/>
<path d="M222.572 187.456C221.377 189.763 219.663 191.761 217.564 193.292C213.819 196.198 209.37 196.377 206.038 200.122C202.707 203.867 194.658 218.277 187.157 221.609C179.655 224.94 172.993 222.033 174.658 214.901C176.324 207.769 197.576 196.579 202.986 192.822C208.397 189.066 216.323 184.08 219.241 184.494C220.039 184.571 220.791 184.899 221.39 185.431C221.989 185.964 222.403 186.673 222.572 187.456V187.456Z" stroke="#263238" stroke-linecap="round" stroke-linejoin="round"/>
<path d="M223.366 179.955C223.366 179.955 222.662 176.993 220.314 176.143C217.966 175.293 215.641 176.568 216.066 178.055C216.491 179.542 219.677 179.173 220.314 180.604C220.666 181.337 220.882 182.129 220.951 182.94C221.342 183.035 221.752 183.017 222.133 182.888C222.514 182.759 222.85 182.524 223.103 182.212C223.356 181.899 223.515 181.521 223.562 181.122C223.608 180.722 223.54 180.318 223.366 179.955Z" fill="white" stroke="#263238" stroke-linecap="round" stroke-linejoin="round"/>
<path d="M200.493 190.788L213.405 165.377H226.317L215.485 188.284L200.493 190.788Z" fill="#9492E3" stroke="#263238" stroke-linecap="round" stroke-linejoin="round"/>
<path d="M223.366 179.955C223.366 179.955 216.658 178.837 214.624 181.207C213.661 182.628 212.995 184.229 212.668 185.914C212.668 185.914 221.7 192.453 223.366 189.122C225.032 185.791 225.065 182.459 223.366 179.955Z" fill="white" stroke="#263238" stroke-linecap="round" stroke-linejoin="round"/>
<path d="M216.726 180.805C214.02 182.146 208.498 180.939 208.498 180.939C208.498 180.939 205.927 181.062 203.299 181.42C203.765 181.003 204.284 180.65 204.842 180.369C204.842 180.369 207.536 179.407 208.688 178.826C209.839 178.245 209.649 177.093 209.649 176.132C209.649 175.17 206.374 176.713 205.178 176.713C203.981 176.713 199.789 177.831 198.638 180.369C198.149 181.328 197.774 182.341 197.52 183.387C197.068 183.911 196.739 184.53 196.558 185.198C196.223 188.183 195.441 192.867 195.441 192.867C195.441 192.867 175.027 202.034 165.447 204.952C165.447 204.952 152.11 206.204 149.617 209.949C147.124 213.694 146.263 219.943 150.031 223.274C153.798 226.606 157.107 224.526 160.863 223.699C164.62 222.872 202.517 197.037 202.517 197.037C202.517 197.037 209.224 197.037 212.097 193.683C214.971 190.329 217.933 184.516 218.347 182.012C218.66 180.503 217.776 180.536 216.726 180.805Z" fill="white"/>
<path d="M206.809 188.943C204.568 190.442 202.482 192.161 200.583 194.074C200.583 194.074 165.771 214.968 157.342 216.79C154.117 217.561 150.753 217.542 147.538 216.735C147.45 217.946 147.633 219.161 148.074 220.292C148.515 221.423 149.202 222.442 150.086 223.274C153.831 226.628 157.163 224.526 160.919 223.699C164.675 222.872 202.573 197.037 202.573 197.037C202.573 197.037 209.28 197.037 212.153 193.683C213.685 191.851 215.012 189.857 216.111 187.736C212.936 189.044 208.62 187.915 206.809 188.943Z" fill="#B2B5FF"/>
<path opacity="0.5" d="M206.809 188.943C204.568 190.442 202.482 192.161 200.583 194.074C200.583 194.074 165.771 214.968 157.342 216.79C154.117 217.561 150.753 217.542 147.538 216.735C147.45 217.946 147.633 219.161 148.074 220.292C148.515 221.423 149.202 222.442 150.086 223.274C153.831 226.628 157.163 224.526 160.919 223.699C164.675 222.872 202.573 197.037 202.573 197.037C202.573 197.037 209.28 197.037 212.153 193.683C213.685 191.851 215.012 189.857 216.111 187.736C212.936 189.044 208.62 187.915 206.809 188.943Z" fill="white"/>
<path d="M216.726 180.805C214.02 182.146 208.498 180.939 208.498 180.939C208.498 180.939 205.927 181.062 203.299 181.42C203.765 181.003 204.284 180.65 204.842 180.369C204.842 180.369 207.536 179.407 208.688 178.826C209.839 178.245 209.649 177.093 209.649 176.132C209.649 175.17 206.374 176.713 205.178 176.713C203.981 176.713 199.789 177.831 198.638 180.369C198.149 181.328 197.774 182.341 197.52 183.387C197.068 183.911 196.739 184.53 196.558 185.198C196.223 188.183 195.441 192.867 195.441 192.867C195.441 192.867 175.027 202.034 165.447 204.952C165.447 204.952 152.11 206.204 149.617 209.949C147.124 213.694 146.263 219.943 150.031 223.274C153.798 226.606 157.107 224.526 160.863 223.699C164.62 222.872 202.517 197.037 202.517 197.037C202.517 197.037 209.224 197.037 212.097 193.683C214.971 190.329 217.933 184.516 218.347 182.012C218.66 180.503 217.776 180.536 216.726 180.805Z" stroke="#263238" stroke-linecap="round" stroke-linejoin="round"/>
</svg>
