<svg width="99" height="58" viewBox="0 0 99 58" fill="none" xmlns="http://www.w3.org/2000/svg">
<path d="M23.88 57.7775C19.4 57.7775 15.4 56.6575 11.88 54.4175C8.36 52.1242 5.58667 48.8175 3.56 44.4975C1.53333 40.1242 0.52 34.9509 0.52 28.9775C0.52 23.0042 1.53333 17.8575 3.56 13.5375C5.58667 9.1642 8.36 5.85754 11.88 3.61753C15.4 1.3242 19.4 0.177536 23.88 0.177536C28.36 0.177536 32.36 1.3242 35.88 3.61753C39.4533 5.85754 42.2533 9.1642 44.28 13.5375C46.3067 17.8575 47.32 23.0042 47.32 28.9775C47.32 34.9509 46.3067 40.1242 44.28 44.4975C42.2533 48.8175 39.4533 52.1242 35.88 54.4175C32.36 56.6575 28.36 57.7775 23.88 57.7775ZM23.88 48.7375C27.88 48.7375 31.0267 47.0842 33.32 43.7775C35.6667 40.4709 36.84 35.5375 36.84 28.9775C36.84 22.4175 35.6667 17.4842 33.32 14.1775C31.0267 10.8709 27.88 9.21754 23.88 9.21754C19.9333 9.21754 16.7867 10.8709 14.44 14.1775C12.1467 17.4842 11 22.4175 11 28.9775C11 35.5375 12.1467 40.4709 14.44 43.7775C16.7867 47.0842 19.9333 48.7375 23.88 48.7375ZM98.5175 48.1775V56.9775H57.2375V50.0175L79.4775 28.8975C81.9842 26.4975 83.6642 24.4175 84.5175 22.6575C85.4242 20.8442 85.8775 19.0575 85.8775 17.2975C85.8775 14.6842 84.9975 12.6842 83.2375 11.2975C81.4775 9.91087 78.8908 9.21754 75.4775 9.21754C69.7708 9.21754 65.3975 11.1642 62.3575 15.0575L55.0775 9.45754C57.2642 6.5242 60.1975 4.25754 63.8775 2.65754C67.6108 1.0042 71.7708 0.177536 76.3575 0.177536C82.4375 0.177536 87.2908 1.61754 90.9175 4.49754C94.5442 7.37754 96.3575 11.2975 96.3575 16.2575C96.3575 19.2975 95.7175 22.1509 94.4375 24.8175C93.1575 27.4842 90.7042 30.5242 87.0775 33.9375L72.1175 48.1775H98.5175Z" fill="#EDEDFE"/>
</svg>
